G04*
G04 #@! TF.GenerationSoftware,Altium Limited,Altium Designer,21.4.1 (30)*
G04*
G04 Layer_Physical_Order=9*
G04 Layer_Color=8421376*
%FSLAX25Y25*%
%MOIN*%
G70*
G04*
G04 #@! TF.SameCoordinates,690C2B1C-B9AF-4ECE-B77D-8E73C62371D7*
G04*
G04*
G04 #@! TF.FilePolarity,Negative*
G04*
G01*
G75*
%ADD14C,0.00600*%
%ADD109C,0.04000*%
%ADD110C,0.03759*%
%ADD111C,0.04743*%
%ADD112C,0.02184*%
%ADD113C,0.09861*%
%ADD114O,0.06712X0.03562*%
%ADD115O,0.07893X0.03562*%
D14*
X100Y21100D02*
X10600D01*
X190100Y163900D02*
X202700D01*
Y165800D01*
X145500Y95200D02*
X148500D01*
X145500Y93900D02*
Y95100D01*
Y83400D02*
Y93900D01*
X148500Y95200D02*
Y115400D01*
X136800Y83400D02*
X145500D01*
X148500Y115400D02*
X190100D01*
Y163900D01*
X202700Y165500D02*
Y170000D01*
X182600D02*
X202700D01*
X182600Y119100D02*
Y170000D01*
X135100Y119100D02*
X182600D01*
X135100D02*
Y143400D01*
X86900D02*
X135100D01*
X86900Y111800D02*
Y143400D01*
X61000Y111800D02*
X86900D01*
X61000Y85500D02*
Y111800D01*
X200Y85500D02*
X61000D01*
X144600Y97100D02*
Y103000D01*
X137100Y107200D02*
X144600D01*
Y115300D01*
X136800Y83400D02*
Y97100D01*
X144600D01*
X137100Y103000D02*
X144500D01*
X137100D02*
Y107200D01*
X200Y62200D02*
X56600D01*
X69400Y62300D02*
X91600D01*
Y140800D01*
X69400Y62400D02*
Y71400D01*
X56600D02*
X69400D01*
X56600Y62200D02*
Y71400D01*
X97300Y115300D02*
Y140800D01*
Y115300D02*
X144600D01*
X91600Y140800D02*
X97300D01*
X10600Y21100D02*
X34800D01*
Y50000D01*
X101700Y50000D01*
Y83400D01*
X136800D01*
D109*
X-0Y-0D02*
Y161417D01*
Y-0D02*
X255905Y-0D01*
Y177165D01*
X-0D02*
X255905D01*
X-0Y161417D02*
Y177165D01*
D110*
X27300Y147215D02*
D03*
Y124459D02*
D03*
D111*
X10800Y88800D02*
D03*
Y98400D02*
D03*
D112*
X244094Y149607D02*
D03*
Y133858D02*
D03*
Y125984D02*
D03*
Y62992D02*
D03*
Y55118D02*
D03*
Y47244D02*
D03*
Y39370D02*
D03*
Y31496D02*
D03*
Y15748D02*
D03*
X236221Y165355D02*
D03*
Y62992D02*
D03*
Y55118D02*
D03*
Y47244D02*
D03*
Y39370D02*
D03*
Y31496D02*
D03*
Y23622D02*
D03*
Y15748D02*
D03*
Y7874D02*
D03*
X228346Y133858D02*
D03*
Y125984D02*
D03*
Y118110D02*
D03*
Y110236D02*
D03*
Y102362D02*
D03*
Y62992D02*
D03*
Y47244D02*
D03*
Y39370D02*
D03*
Y31496D02*
D03*
Y15748D02*
D03*
X220472Y141733D02*
D03*
Y133858D02*
D03*
Y62992D02*
D03*
Y15748D02*
D03*
X212598Y157481D02*
D03*
Y141733D02*
D03*
Y133858D02*
D03*
Y62992D02*
D03*
Y15748D02*
D03*
X204724Y62992D02*
D03*
Y31496D02*
D03*
Y15748D02*
D03*
X188976Y39370D02*
D03*
Y31496D02*
D03*
X181102Y165355D02*
D03*
Y39370D02*
D03*
X173228Y165355D02*
D03*
Y47244D02*
D03*
Y15748D02*
D03*
X165354Y149607D02*
D03*
Y15748D02*
D03*
X157480Y165355D02*
D03*
Y149607D02*
D03*
Y31496D02*
D03*
X149606Y165355D02*
D03*
Y31496D02*
D03*
X133858Y15748D02*
D03*
Y7874D02*
D03*
X125984Y15748D02*
D03*
X118110Y165355D02*
D03*
X110236Y39370D02*
D03*
X94488Y141733D02*
D03*
X86614Y78740D02*
D03*
Y70866D02*
D03*
X78740Y125984D02*
D03*
Y102362D02*
D03*
Y7874D02*
D03*
X70866Y165355D02*
D03*
Y141733D02*
D03*
Y133858D02*
D03*
Y125984D02*
D03*
Y39370D02*
D03*
Y31496D02*
D03*
Y23622D02*
D03*
Y15748D02*
D03*
Y7874D02*
D03*
X62992Y165355D02*
D03*
Y133858D02*
D03*
Y125984D02*
D03*
Y31496D02*
D03*
Y7874D02*
D03*
X55118Y165355D02*
D03*
Y31496D02*
D03*
Y7874D02*
D03*
X47244Y149607D02*
D03*
Y102362D02*
D03*
Y94488D02*
D03*
Y31496D02*
D03*
Y7874D02*
D03*
X39370Y149607D02*
D03*
Y7874D02*
D03*
X31496Y47244D02*
D03*
Y31496D02*
D03*
Y7874D02*
D03*
X23622Y118110D02*
D03*
Y7874D02*
D03*
X15748Y157481D02*
D03*
Y149607D02*
D03*
Y141733D02*
D03*
Y133858D02*
D03*
Y125984D02*
D03*
Y7874D02*
D03*
X7874Y157481D02*
D03*
Y149607D02*
D03*
Y141733D02*
D03*
Y133858D02*
D03*
Y125984D02*
D03*
Y118110D02*
D03*
Y94488D02*
D03*
Y78740D02*
D03*
Y70866D02*
D03*
Y62992D02*
D03*
Y55118D02*
D03*
Y47244D02*
D03*
Y39370D02*
D03*
Y31496D02*
D03*
Y23622D02*
D03*
Y15748D02*
D03*
X112078Y77878D02*
D03*
X110643Y77691D02*
D03*
X44600Y131700D02*
D03*
Y130217D02*
D03*
X165249Y111792D02*
D03*
X163770Y112706D02*
D03*
X115500Y93100D02*
D03*
X197300Y107900D02*
D03*
X147200Y92000D02*
D03*
X154700Y98458D02*
D03*
X123592Y77600D02*
D03*
X154943Y115157D02*
D03*
X158600Y116400D02*
D03*
X155200Y120900D02*
D03*
X153184Y121125D02*
D03*
X164245Y120133D02*
D03*
X164100Y121808D02*
D03*
X192000Y100800D02*
D03*
X191700Y115592D02*
D03*
X204000Y108600D02*
D03*
X204017Y110082D02*
D03*
X158800Y121200D02*
D03*
X193100Y106900D02*
D03*
X197082Y110932D02*
D03*
X202900Y121400D02*
D03*
X150900Y117100D02*
D03*
X150248Y82148D02*
D03*
X197167Y86766D02*
D03*
X197141Y89941D02*
D03*
X197100Y92800D02*
D03*
X215900Y83600D02*
D03*
X218679Y117679D02*
D03*
X203500Y100400D02*
D03*
X212300Y99783D02*
D03*
Y98300D02*
D03*
X74627Y106707D02*
D03*
X100700Y104900D02*
D03*
X119600Y84100D02*
D03*
X144000Y66000D02*
D03*
X146900Y65100D02*
D03*
X162836Y67536D02*
D03*
X103500Y58400D02*
D03*
X103700Y67300D02*
D03*
X103600Y74000D02*
D03*
X164484Y100678D02*
D03*
X165100Y102027D02*
D03*
X150700Y110000D02*
D03*
X147600Y109800D02*
D03*
X135000Y116500D02*
D03*
X107800Y121600D02*
D03*
X99800Y124600D02*
D03*
X122100Y121200D02*
D03*
X115800Y125900D02*
D03*
X105800Y129900D02*
D03*
X109800Y132900D02*
D03*
X117600Y133355D02*
D03*
X60000Y114900D02*
D03*
X230900Y86600D02*
D03*
X185307Y148793D02*
D03*
X189817Y149200D02*
D03*
X191300D02*
D03*
X114488Y112985D02*
D03*
X138792Y108700D02*
D03*
X119903Y88470D02*
D03*
X120100Y90100D02*
D03*
X123800Y85200D02*
D03*
X120400Y85700D02*
D03*
X116000Y82600D02*
D03*
X115441Y80938D02*
D03*
X111961Y86162D02*
D03*
X112061Y84462D02*
D03*
X95717Y16700D02*
D03*
X97200D02*
D03*
X107000Y77500D02*
D03*
X108381D02*
D03*
X90219Y16700D02*
D03*
X91701D02*
D03*
X104508Y81900D02*
D03*
X103092Y82340D02*
D03*
X196951Y81905D02*
D03*
X218400Y80100D02*
D03*
X212100Y83800D02*
D03*
X215500Y86200D02*
D03*
X204300Y55200D02*
D03*
X207100Y52300D02*
D03*
X211700Y47600D02*
D03*
X119908Y70400D02*
D03*
X120400Y65200D02*
D03*
X77342Y16700D02*
D03*
X78824D02*
D03*
X85901D02*
D03*
X84419D02*
D03*
X103081D02*
D03*
X101598D02*
D03*
X187700Y27800D02*
D03*
X199500Y13300D02*
D03*
X217893Y8991D02*
D03*
X127273Y96891D02*
D03*
X127369Y98519D02*
D03*
X51500Y67500D02*
D03*
X44000Y75000D02*
D03*
X46500D02*
D03*
X49000D02*
D03*
Y72500D02*
D03*
X44000D02*
D03*
X46500D02*
D03*
X36500Y75000D02*
D03*
X39000D02*
D03*
X41500D02*
D03*
Y72500D02*
D03*
X36500D02*
D03*
X39000D02*
D03*
X51500D02*
D03*
X49000Y70000D02*
D03*
X51500D02*
D03*
X46500D02*
D03*
X44000Y67500D02*
D03*
X49000D02*
D03*
Y65000D02*
D03*
X46500Y67500D02*
D03*
Y65000D02*
D03*
X41500Y70000D02*
D03*
X44000D02*
D03*
X36500D02*
D03*
X39000D02*
D03*
X41500Y67500D02*
D03*
Y65000D02*
D03*
X36500Y67500D02*
D03*
X39000D02*
D03*
X34000Y72500D02*
D03*
Y70000D02*
D03*
Y75000D02*
D03*
Y67500D02*
D03*
Y65000D02*
D03*
X51500D02*
D03*
X49000Y62500D02*
D03*
X51500D02*
D03*
X44000D02*
D03*
X46500D02*
D03*
X49000Y60000D02*
D03*
X51500D02*
D03*
X44000D02*
D03*
X46500D02*
D03*
X44000Y65000D02*
D03*
X39000Y62500D02*
D03*
Y65000D02*
D03*
X36500Y62500D02*
D03*
X41500D02*
D03*
Y60000D02*
D03*
X39000D02*
D03*
Y57500D02*
D03*
X49000D02*
D03*
X51500D02*
D03*
X44000D02*
D03*
X46500D02*
D03*
X41500D02*
D03*
X36500Y65000D02*
D03*
X34000Y60000D02*
D03*
X36500D02*
D03*
X34000Y62500D02*
D03*
Y57500D02*
D03*
X36500D02*
D03*
X211945Y8949D02*
D03*
X29700Y12300D02*
D03*
X61200Y16500D02*
D03*
X61300Y14100D02*
D03*
X59000Y16500D02*
D03*
X59100Y14100D02*
D03*
X48200Y14800D02*
D03*
X50500Y13800D02*
D03*
X43800Y14900D02*
D03*
X46000Y13800D02*
D03*
X41700D02*
D03*
X29700Y19100D02*
D03*
X21200Y17000D02*
D03*
X32600Y15900D02*
D03*
X29700Y16600D02*
D03*
Y14300D02*
D03*
X19100Y19400D02*
D03*
X21200D02*
D03*
X19100Y17000D02*
D03*
X65200Y24500D02*
D03*
X67800D02*
D03*
X60200D02*
D03*
X62700D02*
D03*
X55300D02*
D03*
X52800D02*
D03*
X57900D02*
D03*
X61300Y22800D02*
D03*
X61400Y20400D02*
D03*
X59100Y22800D02*
D03*
X59200Y20400D02*
D03*
X37700Y15900D02*
D03*
X47600Y24100D02*
D03*
X68000Y44900D02*
D03*
X87163Y20500D02*
D03*
X87100Y9100D02*
D03*
X70500Y44900D02*
D03*
X93068Y20500D02*
D03*
X93005Y9100D02*
D03*
X52100Y44700D02*
D03*
X81194Y9100D02*
D03*
X54900Y44700D02*
D03*
X81257Y20500D02*
D03*
X98974D02*
D03*
X98900Y9100D02*
D03*
X70500Y47500D02*
D03*
X68000D02*
D03*
X16100Y48020D02*
D03*
X54900Y47200D02*
D03*
X52100D02*
D03*
X122900Y101500D02*
D03*
X123500Y104600D02*
D03*
X153692Y105096D02*
D03*
X187679Y13300D02*
D03*
X150855Y119745D02*
D03*
X199200Y63200D02*
D03*
X218300Y114900D02*
D03*
X218404Y162357D02*
D03*
X220074Y160687D02*
D03*
X221744Y159017D02*
D03*
X231766Y148995D02*
D03*
X233437Y147324D02*
D03*
X241788Y138973D02*
D03*
X243459Y137302D02*
D03*
X245129Y135632D02*
D03*
X246799Y133962D02*
D03*
X247517Y131711D02*
D03*
Y129349D02*
D03*
Y126987D02*
D03*
Y124624D02*
D03*
Y117538D02*
D03*
Y105727D02*
D03*
Y98640D02*
D03*
Y86829D02*
D03*
X246870Y75108D02*
D03*
X245199Y73438D02*
D03*
X243529Y71768D02*
D03*
X241547Y70483D02*
D03*
X239184D02*
D03*
X236822D02*
D03*
X234460D02*
D03*
X232098D02*
D03*
X142079Y53718D02*
D03*
X141246Y48706D02*
D03*
X228233Y67317D02*
D03*
X230595D02*
D03*
X232957D02*
D03*
X235319D02*
D03*
X237682D02*
D03*
X240044D02*
D03*
X242406D02*
D03*
X244549Y68310D02*
D03*
X246219Y69981D02*
D03*
X247890Y71651D02*
D03*
X249560Y73321D02*
D03*
X250683Y75400D02*
D03*
Y80124D02*
D03*
Y82486D02*
D03*
Y87211D02*
D03*
Y91935D02*
D03*
Y94297D02*
D03*
Y99022D02*
D03*
Y103746D02*
D03*
Y106108D02*
D03*
Y110833D02*
D03*
Y117919D02*
D03*
Y122644D02*
D03*
Y125006D02*
D03*
Y127368D02*
D03*
Y129730D02*
D03*
Y132092D02*
D03*
X250554Y134451D02*
D03*
X249004Y136234D02*
D03*
X247334Y137905D02*
D03*
X245664Y139575D02*
D03*
X243993Y141245D02*
D03*
X242323Y142915D02*
D03*
X240653Y144586D02*
D03*
X233971Y151267D02*
D03*
X232301Y152937D02*
D03*
X230631Y154608D02*
D03*
X227290Y157949D02*
D03*
X225620Y159619D02*
D03*
X223949Y161289D02*
D03*
X222279Y162960D02*
D03*
X220609Y164630D02*
D03*
X218938Y166300D02*
D03*
X192600Y91400D02*
D03*
X215200Y92800D02*
D03*
X212200Y88600D02*
D03*
X199841Y95809D02*
D03*
X196449Y102793D02*
D03*
X196597Y95861D02*
D03*
X199872Y92586D02*
D03*
X199895Y89881D02*
D03*
X200100Y99600D02*
D03*
X183591Y168109D02*
D03*
X94000Y165045D02*
D03*
X90400D02*
D03*
X177353D02*
D03*
X171253D02*
D03*
X165253D02*
D03*
X153453D02*
D03*
X147553D02*
D03*
X6700Y115600D02*
D03*
X16700Y114400D02*
D03*
X71700Y123300D02*
D03*
X78200Y120600D02*
D03*
X187900Y148100D02*
D03*
X179900Y148900D02*
D03*
X183500Y150212D02*
D03*
X127100Y78000D02*
D03*
X123347Y81830D02*
D03*
X127300Y81600D02*
D03*
X131600D02*
D03*
X85500Y160100D02*
D03*
X85425Y163317D02*
D03*
Y166860D02*
D03*
X80800Y145700D02*
D03*
X78575Y166868D02*
D03*
Y163324D02*
D03*
Y160175D02*
D03*
X155400Y77400D02*
D03*
X219153Y44049D02*
D03*
X185353Y43049D02*
D03*
X181600Y43000D02*
D03*
X178000Y42700D02*
D03*
X212500Y50800D02*
D03*
X56169Y115667D02*
D03*
X87100Y83000D02*
D03*
X82500Y75600D02*
D03*
X80800D02*
D03*
X190710Y43089D02*
D03*
X197300Y43100D02*
D03*
X155271Y74471D02*
D03*
X150906Y66082D02*
D03*
X146969Y70019D02*
D03*
X154843Y66247D02*
D03*
X154780Y70019D02*
D03*
X142969Y85767D02*
D03*
Y81830D02*
D03*
X215000Y48300D02*
D03*
X220600Y47300D02*
D03*
X222628Y156351D02*
D03*
X215000Y168000D02*
D03*
X213200Y165000D02*
D03*
X201900Y61600D02*
D03*
X197300Y46881D02*
D03*
X103268Y150400D02*
D03*
X107205Y150496D02*
D03*
X101300Y150400D02*
D03*
X99300Y150700D02*
D03*
X109174Y150400D02*
D03*
X140652Y158090D02*
D03*
X116968Y157945D02*
D03*
X134685D02*
D03*
X106428Y158079D02*
D03*
X111063Y157945D02*
D03*
X122863Y157845D02*
D03*
X128779Y157945D02*
D03*
X143500Y109628D02*
D03*
X146500Y150600D02*
D03*
X142690Y150348D02*
D03*
X144607Y150400D02*
D03*
X138701D02*
D03*
X146600Y77600D02*
D03*
X146906Y73956D02*
D03*
X146969Y81830D02*
D03*
X151057Y74394D02*
D03*
X211100Y56900D02*
D03*
X215000Y53000D02*
D03*
X213200Y54900D02*
D03*
X131003Y117545D02*
D03*
X127529Y114071D02*
D03*
X134700Y121300D02*
D03*
X131434Y112892D02*
D03*
X127971Y109429D02*
D03*
X163000Y89500D02*
D03*
X215751Y99088D02*
D03*
X200259Y76401D02*
D03*
X193279Y122791D02*
D03*
X158900Y107400D02*
D03*
X155306Y105893D02*
D03*
X162688Y107430D02*
D03*
X162432Y93158D02*
D03*
X150720Y97805D02*
D03*
X154806Y93691D02*
D03*
X158863Y93642D02*
D03*
Y101400D02*
D03*
X135293Y113049D02*
D03*
X158537Y112709D02*
D03*
X192800Y84099D02*
D03*
X196800Y80300D02*
D03*
X203700Y78300D02*
D03*
X203100Y80500D02*
D03*
X193471Y113309D02*
D03*
X200249Y105050D02*
D03*
X137600Y101300D02*
D03*
X150300Y101309D02*
D03*
X146795Y97817D02*
D03*
X212490Y80132D02*
D03*
X146795Y105691D02*
D03*
X212493Y86428D02*
D03*
X142821Y117021D02*
D03*
X200016Y112126D02*
D03*
X203079Y102245D02*
D03*
X131504Y108946D02*
D03*
X143115Y101400D02*
D03*
X160400Y89600D02*
D03*
X147372Y129191D02*
D03*
X138852Y117006D02*
D03*
X147100Y113100D02*
D03*
X142789Y124623D02*
D03*
X143320Y128378D02*
D03*
X142835Y120686D02*
D03*
X150732Y105609D02*
D03*
X160900Y129590D02*
D03*
X147052Y101400D02*
D03*
X212629Y122010D02*
D03*
X212400Y120400D02*
D03*
X212242Y113234D02*
D03*
X203079Y117993D02*
D03*
X215900Y104700D02*
D03*
X215997Y111349D02*
D03*
X228900Y149800D02*
D03*
X218900Y99100D02*
D03*
X143100Y118500D02*
D03*
X212493Y95877D02*
D03*
X158790Y85767D02*
D03*
X157700Y89600D02*
D03*
X122843Y132858D02*
D03*
X122812Y130700D02*
D03*
X99963Y121000D02*
D03*
X120000Y101009D02*
D03*
X120077Y120929D02*
D03*
X119998Y124802D02*
D03*
X120000Y117100D02*
D03*
X122812Y113235D02*
D03*
Y117500D02*
D03*
X199895Y86428D02*
D03*
X156000Y124853D02*
D03*
X158537D02*
D03*
X212000Y110100D02*
D03*
Y103785D02*
D03*
X146400Y89600D02*
D03*
X148232Y89775D02*
D03*
X223100Y2800D02*
D03*
X170900Y12700D02*
D03*
X168000D02*
D03*
X99315Y169445D02*
D03*
X150700Y85100D02*
D03*
X150906Y93691D02*
D03*
X195400Y149400D02*
D03*
X111200Y105200D02*
D03*
X197200Y149400D02*
D03*
X115400Y105700D02*
D03*
X201294Y149400D02*
D03*
X203263D02*
D03*
X115600Y102400D02*
D03*
X215079Y149400D02*
D03*
X213111D02*
D03*
X209200D02*
D03*
X135400Y90600D02*
D03*
X207200Y149400D02*
D03*
X143210Y94000D02*
D03*
Y105117D02*
D03*
X143100Y91800D02*
D03*
X123500Y87265D02*
D03*
X128009Y104608D02*
D03*
X135556Y93277D02*
D03*
X123687Y89763D02*
D03*
X116143Y109321D02*
D03*
X112100Y93500D02*
D03*
X111497Y109793D02*
D03*
X87056Y110256D02*
D03*
X90500Y106400D02*
D03*
X82009Y109000D02*
D03*
X89400Y107400D02*
D03*
X91900Y113700D02*
D03*
X99400Y106300D02*
D03*
X90502Y101400D02*
D03*
X119546Y109288D02*
D03*
X231200Y82529D02*
D03*
Y74586D02*
D03*
Y78557D02*
D03*
X33400Y99659D02*
D03*
X222985Y168000D02*
D03*
X220590Y128083D02*
D03*
X222547Y122690D02*
D03*
X211105Y174600D02*
D03*
X199363Y168000D02*
D03*
X211111Y156645D02*
D03*
X199300D02*
D03*
X222547Y110092D02*
D03*
Y106942D02*
D03*
X223500Y101800D02*
D03*
X215800Y108300D02*
D03*
X187557Y174835D02*
D03*
X128853Y169445D02*
D03*
X140653D02*
D03*
X127682Y124793D02*
D03*
X135153Y105049D02*
D03*
X223200Y91100D02*
D03*
X229700Y89000D02*
D03*
X222547Y84895D02*
D03*
Y78596D02*
D03*
X221600Y60800D02*
D03*
X215100Y57400D02*
D03*
X210400Y52900D02*
D03*
X223101Y20455D02*
D03*
X211290D02*
D03*
X208000Y55300D02*
D03*
X206000Y57300D02*
D03*
X203800Y42300D02*
D03*
X199479Y20455D02*
D03*
X154780Y89704D02*
D03*
X139200Y82400D02*
D03*
X132800Y93600D02*
D03*
X127600Y90200D02*
D03*
X125907Y89693D02*
D03*
X143500Y48500D02*
D03*
Y50119D02*
D03*
X139800Y10600D02*
D03*
X144800D02*
D03*
Y4300D02*
D03*
X139800D02*
D03*
X135095Y70019D02*
D03*
X135300Y57800D02*
D03*
X128483D02*
D03*
X129500Y56300D02*
D03*
X136900Y57800D02*
D03*
X122596Y20500D02*
D03*
X122533Y9100D02*
D03*
X117031Y169445D02*
D03*
X105220D02*
D03*
X99900Y128600D02*
D03*
X115800Y120600D02*
D03*
X95500Y126700D02*
D03*
X93600D02*
D03*
X71700Y150900D02*
D03*
X63500Y151000D02*
D03*
X80800Y143800D02*
D03*
X61507Y143166D02*
D03*
X57807D02*
D03*
X80690Y133500D02*
D03*
X104060Y116899D02*
D03*
X111800Y90400D02*
D03*
X109300Y105200D02*
D03*
X80800Y120200D02*
D03*
X73300Y114400D02*
D03*
X88600Y96500D02*
D03*
X74600Y92500D02*
D03*
X71500Y96500D02*
D03*
X74600D02*
D03*
Y94500D02*
D03*
X71500D02*
D03*
Y92500D02*
D03*
X57200Y151100D02*
D03*
X51900Y161500D02*
D03*
X54107Y143166D02*
D03*
X44275Y145817D02*
D03*
X50407Y143166D02*
D03*
X44800Y127500D02*
D03*
X44275Y135974D02*
D03*
X44254Y141858D02*
D03*
X37700Y149300D02*
D03*
X36000Y137900D02*
D03*
X44275Y118257D02*
D03*
X53069Y115667D02*
D03*
X47069D02*
D03*
X50069D02*
D03*
X55239Y90200D02*
D03*
X42412Y114178D02*
D03*
X41500Y92300D02*
D03*
X21900Y113000D02*
D03*
X20000D02*
D03*
X22500Y108800D02*
D03*
X38200Y100900D02*
D03*
X37000Y93800D02*
D03*
X8300Y104000D02*
D03*
X35500Y100800D02*
D03*
X27300Y90466D02*
D03*
X103800Y86500D02*
D03*
X95500Y88000D02*
D03*
X99900Y87589D02*
D03*
X115700Y77000D02*
D03*
X115655Y70234D02*
D03*
X93000Y88000D02*
D03*
X90500D02*
D03*
X76053Y86120D02*
D03*
X55239Y88334D02*
D03*
X61067Y79732D02*
D03*
X55239Y86355D02*
D03*
X91477Y71000D02*
D03*
X93000D02*
D03*
X67400Y68600D02*
D03*
X110800Y27300D02*
D03*
X110722Y9100D02*
D03*
X81100Y65000D02*
D03*
X67300Y65900D02*
D03*
X67200Y63100D02*
D03*
X64400Y67300D02*
D03*
X59000Y57200D02*
D03*
X62168Y51232D02*
D03*
X27300Y88600D02*
D03*
Y86620D02*
D03*
X17800Y80500D02*
D03*
X10900Y80291D02*
D03*
X25500Y78600D02*
D03*
X26653Y76900D02*
D03*
X41800Y50100D02*
D03*
X25800Y56400D02*
D03*
X17400Y56000D02*
D03*
X16100Y50000D02*
D03*
Y51866D02*
D03*
X79600Y68400D02*
D03*
X89320Y124134D02*
D03*
X217079Y168000D02*
D03*
X217016Y156645D02*
D03*
X205242Y168000D02*
D03*
X193431D02*
D03*
X180000Y172900D02*
D03*
X199700Y159900D02*
D03*
X197100Y160000D02*
D03*
X193394Y156645D02*
D03*
X162654Y85767D02*
D03*
X134748Y169445D02*
D03*
X139032Y77893D02*
D03*
X135095Y81830D02*
D03*
X123687Y74015D02*
D03*
X222153Y57300D02*
D03*
X193700Y27400D02*
D03*
X229007Y20455D02*
D03*
X228970Y12610D02*
D03*
X217196Y20455D02*
D03*
X205396Y20555D02*
D03*
X205400Y13890D02*
D03*
X193585Y13300D02*
D03*
X146989Y43893D02*
D03*
X145200Y44300D02*
D03*
X142131Y43827D02*
D03*
X123500Y65400D02*
D03*
X133900Y50300D02*
D03*
Y46800D02*
D03*
X123500Y57800D02*
D03*
X143244Y41774D02*
D03*
X161600Y29300D02*
D03*
X143244Y38274D02*
D03*
X141200Y41800D02*
D03*
X138800Y43700D02*
D03*
X142400Y40100D02*
D03*
X162900Y27800D02*
D03*
X136500Y43700D02*
D03*
X128501Y20500D02*
D03*
X128438Y9100D02*
D03*
X122948Y169445D02*
D03*
X111126D02*
D03*
X111600Y112500D02*
D03*
X80690Y130047D02*
D03*
X75300Y151100D02*
D03*
X57400Y132700D02*
D03*
X34741Y155896D02*
D03*
X53600Y151100D02*
D03*
X75300Y114600D02*
D03*
X69200Y115500D02*
D03*
X66800Y115800D02*
D03*
X57400Y126400D02*
D03*
X63500Y114500D02*
D03*
X116700Y27300D02*
D03*
X104002Y93700D02*
D03*
X97576Y83100D02*
D03*
X116627Y9100D02*
D03*
X109500Y17400D02*
D03*
X104805Y9100D02*
D03*
X77500Y68400D02*
D03*
X72434Y85966D02*
D03*
X76100Y63300D02*
D03*
Y61900D02*
D03*
X72400Y51700D02*
D03*
Y50000D02*
D03*
X209600Y165000D02*
D03*
X211300Y163500D02*
D03*
X127624Y93700D02*
D03*
X85944Y94921D02*
D03*
X83644D02*
D03*
X95700Y90200D02*
D03*
X92600D02*
D03*
X231200Y80543D02*
D03*
Y84514D02*
D03*
Y72600D02*
D03*
Y76571D02*
D03*
X119850Y73926D02*
D03*
X91025Y122064D02*
D03*
X213158Y168000D02*
D03*
X172400Y22600D02*
D03*
X206700Y165000D02*
D03*
X203100D02*
D03*
X204800Y163500D02*
D03*
X87100Y84650D02*
D03*
X89000Y80800D02*
D03*
X87100Y86300D02*
D03*
X80690Y90000D02*
D03*
Y88500D02*
D03*
X203338Y168000D02*
D03*
X140800Y81700D02*
D03*
Y50200D02*
D03*
X27500Y51000D02*
D03*
X30000D02*
D03*
Y53000D02*
D03*
X27500D02*
D03*
X53500Y49300D02*
D03*
X37879Y82320D02*
D03*
X37900Y84600D02*
D03*
X43500Y171000D02*
D03*
X47644Y84452D02*
D03*
X43500Y167000D02*
D03*
Y169000D02*
D03*
X181774Y13300D02*
D03*
X177400Y18400D02*
D03*
X146559Y169445D02*
D03*
X228890Y168000D02*
D03*
X47718Y82317D02*
D03*
X42109Y101941D02*
D03*
X90502Y99659D02*
D03*
X103900Y101400D02*
D03*
X41000Y99500D02*
D03*
X115567Y115433D02*
D03*
X219000Y92900D02*
D03*
X72700Y71000D02*
D03*
X111876Y70078D02*
D03*
X97576Y80400D02*
D03*
X107900Y85100D02*
D03*
X97576Y78621D02*
D03*
X81100Y63000D02*
D03*
X124922Y168510D02*
D03*
X136733D02*
D03*
Y150400D02*
D03*
X108000Y117600D02*
D03*
X119016Y150400D02*
D03*
X113675Y129311D02*
D03*
X126890Y168510D02*
D03*
X138701D02*
D03*
X142638D02*
D03*
X144607D02*
D03*
X38500Y170500D02*
D03*
Y167500D02*
D03*
X112397Y125004D02*
D03*
X120985Y150400D02*
D03*
X124922D02*
D03*
X111774Y121000D02*
D03*
X126890Y150400D02*
D03*
X99963Y113126D02*
D03*
X113111Y168510D02*
D03*
X130827Y150400D02*
D03*
X132796D02*
D03*
X119016Y168510D02*
D03*
X113111Y150400D02*
D03*
X103900Y113126D02*
D03*
X115079Y168510D02*
D03*
X130827D02*
D03*
X132796D02*
D03*
X99963Y117063D02*
D03*
X103900Y124937D02*
D03*
X120985Y168510D02*
D03*
X115079Y150400D02*
D03*
X103900Y121000D02*
D03*
X107205Y168510D02*
D03*
X104100Y109600D02*
D03*
X109174Y168510D02*
D03*
X108037Y109600D02*
D03*
X107857Y112644D02*
D03*
X108763Y28500D02*
D03*
X107500Y97300D02*
D03*
X106794Y28500D02*
D03*
X103800Y97600D02*
D03*
X101300Y168510D02*
D03*
X103268D02*
D03*
X107600Y105700D02*
D03*
X120574Y28500D02*
D03*
X107766Y94105D02*
D03*
X118605Y28500D02*
D03*
X99800Y85200D02*
D03*
X120574Y10390D02*
D03*
X114668Y28500D02*
D03*
X111776Y88784D02*
D03*
X107800Y89100D02*
D03*
X112700Y28500D02*
D03*
X126479D02*
D03*
X99800Y89700D02*
D03*
X118605Y10390D02*
D03*
X114668D02*
D03*
X100387Y97036D02*
D03*
X112700Y10390D02*
D03*
X99483Y99404D02*
D03*
X115700Y89700D02*
D03*
X124511Y28500D02*
D03*
X225042Y13890D02*
D03*
X126479Y10390D02*
D03*
X124511D02*
D03*
X100100Y94000D02*
D03*
X213189Y27700D02*
D03*
X150802Y80602D02*
D03*
X225000Y27700D02*
D03*
X151000Y89490D02*
D03*
X183752Y13890D02*
D03*
X131159Y77553D02*
D03*
X215157Y27700D02*
D03*
X135158Y66082D02*
D03*
X207326Y13890D02*
D03*
X195472Y27700D02*
D03*
X142830Y73964D02*
D03*
X197441Y27700D02*
D03*
X189657Y13890D02*
D03*
X135089Y74036D02*
D03*
X213231Y13890D02*
D03*
X131159Y66082D02*
D03*
X209294Y13890D02*
D03*
X131159Y70019D02*
D03*
X195563Y13890D02*
D03*
X139600Y70700D02*
D03*
X197531Y13890D02*
D03*
X135158Y77893D02*
D03*
X191626Y13890D02*
D03*
X139036Y66022D02*
D03*
X185808Y13890D02*
D03*
X175100Y45800D02*
D03*
X175700Y52400D02*
D03*
X175629Y49229D02*
D03*
X172200Y56000D02*
D03*
X120300Y58200D02*
D03*
X227011Y13890D02*
D03*
X127284Y66082D02*
D03*
X215200Y13890D02*
D03*
X207283Y27700D02*
D03*
X150900Y76600D02*
D03*
X209252Y27700D02*
D03*
X150821Y78841D02*
D03*
X201378Y27700D02*
D03*
X143032Y70019D02*
D03*
X201468Y13890D02*
D03*
X183600Y30400D02*
D03*
X185700D02*
D03*
X226968Y27700D02*
D03*
X219094D02*
D03*
X221063D02*
D03*
X127284Y70019D02*
D03*
X219137Y13890D02*
D03*
X221105D02*
D03*
X203346Y27700D02*
D03*
X139095Y73956D02*
D03*
X203437Y13890D02*
D03*
X189567Y27700D02*
D03*
X191535D02*
D03*
X150906Y70019D02*
D03*
X72500Y59000D02*
D03*
X43800Y82200D02*
D03*
X159800Y64600D02*
D03*
X245500Y78200D02*
D03*
X197471Y58271D02*
D03*
X134000Y54500D02*
D03*
X147700Y85300D02*
D03*
X28400Y136821D02*
D03*
X222500Y99500D02*
D03*
X244600Y120200D02*
D03*
X244500Y114300D02*
D03*
X244400Y108100D02*
D03*
Y102200D02*
D03*
X73100Y102800D02*
D03*
X68300Y100600D02*
D03*
X245000Y84200D02*
D03*
X244500Y96100D02*
D03*
X244300Y90200D02*
D03*
X76100Y102800D02*
D03*
X59000Y68500D02*
D03*
X45700Y82300D02*
D03*
X58919Y75785D02*
D03*
X59000Y71000D02*
D03*
Y55300D02*
D03*
X43768Y50100D02*
D03*
X39900D02*
D03*
X58900Y60700D02*
D03*
X56600Y78500D02*
D03*
X26810Y74990D02*
D03*
X44300Y107500D02*
D03*
X28300Y128989D02*
D03*
Y140800D02*
D03*
X45901Y114201D02*
D03*
X80900Y139900D02*
D03*
X35000Y151900D02*
D03*
X44254Y139900D02*
D03*
X46000Y134000D02*
D03*
X28321Y132884D02*
D03*
X44275Y124163D02*
D03*
D113*
X8500Y8200D02*
D03*
Y167200D02*
D03*
X247400Y156100D02*
D03*
Y8200D02*
D03*
D114*
X12812Y118829D02*
D03*
Y152845D02*
D03*
D115*
X29268Y118829D02*
D03*
Y152845D02*
D03*
M02*
