G04*
G04 #@! TF.GenerationSoftware,Altium Limited,Altium Designer,21.4.1 (30)*
G04*
G04 Layer_Color=16711935*
%FSLAX25Y25*%
%MOIN*%
G70*
G04*
G04 #@! TF.SameCoordinates,690C2B1C-B9AF-4ECE-B77D-8E73C62371D7*
G04*
G04*
G04 #@! TF.FilePolarity,Positive*
G04*
G01*
G75*
%ADD11C,0.00787*%
%ADD13C,0.00500*%
%ADD15C,0.00394*%
%ADD16C,0.00400*%
%ADD20C,0.00000*%
%ADD101C,0.00100*%
D11*
X20993Y44895D02*
G03*
X20993Y44895I-394J0D01*
G01*
X60694Y42530D02*
G03*
X60694Y42530I-394J0D01*
G01*
X38094Y136678D02*
G03*
X38094Y136678I-394J0D01*
G01*
X238716Y120032D02*
G03*
X238716Y120032I-394J0D01*
G01*
X46264Y100800D02*
G03*
X46264Y100800I-394J0D01*
G01*
X36058Y100626D02*
G03*
X36058Y100626I-394J0D01*
G01*
X57368Y168900D02*
G03*
X57368Y168900I-394J0D01*
G01*
X70423Y104480D02*
G03*
X70423Y104480I-394J0D01*
G01*
X96349Y126934D02*
G03*
X96349Y126934I-394J0D01*
G01*
X54020Y83009D02*
G03*
X54020Y83009I-394J0D01*
G01*
X79935Y60665D02*
G03*
X79935Y60665I-235J0D01*
G01*
X26460Y98683D02*
G03*
X26460Y98683I-394J0D01*
G01*
X151379Y40200D02*
G03*
X151379Y40200I-394J0D01*
G01*
X189214Y127193D02*
G03*
X189214Y127193I-394J0D01*
G01*
X71613Y166860D02*
G03*
X71613Y166860I-394J0D01*
G01*
X176038Y56000D02*
G03*
X176038Y56000I-394J0D01*
G01*
X238716Y114089D02*
G03*
X238716Y114089I-394J0D01*
G01*
Y108146D02*
G03*
X238716Y108146I-394J0D01*
G01*
Y102203D02*
G03*
X238716Y102203I-394J0D01*
G01*
Y96260D02*
G03*
X238716Y96260I-394J0D01*
G01*
Y90318D02*
G03*
X238716Y90318I-394J0D01*
G01*
Y84375D02*
G03*
X238716Y84375I-394J0D01*
G01*
Y78432D02*
G03*
X238716Y78432I-394J0D01*
G01*
X6194Y113793D02*
G03*
X6194Y113793I-394J0D01*
G01*
X38094Y134722D02*
G03*
X38094Y134722I-394J0D01*
G01*
X97924Y63941D02*
Y130870D01*
Y63941D02*
X164853D01*
Y130870D01*
X97924D02*
X164853D01*
D13*
X160412Y14900D02*
G03*
X160412Y14900I-5512J0D01*
G01*
X144860Y4861D02*
X164939D01*
Y24939D01*
X144860D02*
X164939D01*
X144860Y4861D02*
Y24939D01*
X36007Y140891D02*
X39393D01*
X36007D02*
Y145851D01*
X39393D01*
Y140891D02*
Y145851D01*
X241865Y118457D02*
Y121607D01*
X248164Y118457D02*
Y121607D01*
X241865D02*
X248164D01*
X241865Y118457D02*
X248164D01*
X32703Y163861D02*
X49750D01*
X32703D02*
Y173939D01*
X49750D01*
Y163861D02*
Y173939D01*
X82382Y113118D02*
Y152882D01*
X42618Y113118D02*
Y152882D01*
Y113118D02*
X82382D01*
X42618Y152882D02*
X82382D01*
X69163Y88594D02*
Y100405D01*
X77037Y88594D02*
Y100405D01*
X69163D02*
X77037D01*
X69163Y88594D02*
X77037D01*
X28823Y52124D02*
Y80076D01*
X56776Y52124D02*
Y80076D01*
X28823Y52124D02*
X56776D01*
X28823Y80076D02*
X56776D01*
X36696Y102424D02*
Y112266D01*
X24097Y102424D02*
X36696D01*
X24097Y112266D02*
X36696D01*
X24097Y102424D02*
Y112266D01*
X2575Y153435D02*
X31512D01*
X2575Y118238D02*
Y153435D01*
Y118238D02*
X31512D01*
Y153435D01*
X148427Y35357D02*
Y55042D01*
X135828D02*
X148427D01*
X135828Y35357D02*
Y55042D01*
Y35357D02*
X148427D01*
X190321Y74634D02*
Y129752D01*
Y74634D02*
X225321D01*
X190321Y129752D02*
X225321D01*
Y74634D02*
Y129752D01*
X75235Y155049D02*
Y168435D01*
X82165D01*
Y155049D02*
Y168435D01*
X75235Y155049D02*
X82165D01*
X179660Y44189D02*
X186590D01*
Y57575D01*
X179660D02*
X186590D01*
X179660Y44189D02*
Y57575D01*
X241865Y112514D02*
X248164D01*
X241865Y115664D02*
X248164D01*
Y112514D02*
Y115664D01*
X241865Y112514D02*
Y115664D01*
Y106571D02*
X248164D01*
X241865Y109721D02*
X248164D01*
Y106571D02*
Y109721D01*
X241865Y106571D02*
Y109721D01*
Y100628D02*
X248164D01*
X241865Y103778D02*
X248164D01*
Y100628D02*
Y103778D01*
X241865Y100628D02*
Y103778D01*
Y94686D02*
X248164D01*
X241865Y97835D02*
X248164D01*
Y94686D02*
Y97835D01*
X241865Y94686D02*
Y97835D01*
Y88743D02*
X248164D01*
X241865Y91892D02*
X248164D01*
Y88743D02*
Y91892D01*
X241865Y88743D02*
Y91892D01*
Y82800D02*
X248164D01*
X241865Y85949D02*
X248164D01*
Y82800D02*
Y85949D01*
X241865Y82800D02*
Y85949D01*
Y76857D02*
X248164D01*
X241865Y80007D02*
X248164D01*
Y76857D02*
Y80007D01*
X241865Y76857D02*
Y80007D01*
X4225Y103950D02*
Y110249D01*
X7375Y103950D02*
Y110249D01*
X4225Y103950D02*
X7375D01*
X4225Y110249D02*
X7375D01*
X36007Y125549D02*
Y130509D01*
Y125549D02*
X39393D01*
Y130509D01*
X36007D02*
X39393D01*
D15*
X35769Y26239D02*
G03*
X35769Y26239I-1969J0D01*
G01*
X74548Y25800D02*
X135048D01*
Y3800D02*
Y25800D01*
X74548Y3800D02*
X135048D01*
X74548D02*
Y25800D01*
X49942Y22696D02*
Y38444D01*
X30257Y22696D02*
Y38444D01*
X49942D01*
X30257Y22696D02*
X49942D01*
X84570Y77455D02*
Y84345D01*
X80830Y77455D02*
Y84345D01*
X84570D01*
X80830Y77455D02*
X84570D01*
X227500Y71870D02*
Y87224D01*
X234980Y71870D02*
Y87224D01*
X227500Y71870D02*
X234980D01*
X227500Y87224D02*
X234980D01*
X175037Y151345D02*
X235537D01*
X175037D02*
Y173345D01*
X235537D01*
Y151345D02*
Y173345D01*
X91830Y107145D02*
X95570D01*
X91830Y100255D02*
X95570D01*
Y107145D01*
X91830Y100255D02*
Y107145D01*
X55502Y130830D02*
Y134570D01*
X48612Y130830D02*
Y134570D01*
Y130830D02*
X55502D01*
X48612Y134570D02*
X55502D01*
Y124530D02*
Y128270D01*
X48612Y124530D02*
Y128270D01*
Y124530D02*
X55502D01*
X48612Y128270D02*
X55502D01*
X175053Y3755D02*
Y25755D01*
Y3755D02*
X235553D01*
Y25755D01*
X175053D02*
X235553D01*
X92705Y152645D02*
X153205D01*
X92705D02*
Y174645D01*
X153205D01*
Y152645D02*
Y174645D01*
D16*
X32100Y11300D02*
X38400D01*
X32100D02*
Y14500D01*
X38400Y11300D02*
Y14500D01*
X32100D02*
X38400D01*
X12500Y43065D02*
X28300D01*
X12500Y27265D02*
Y43065D01*
Y27265D02*
X28300D01*
Y43065D01*
X52200Y40700D02*
X68000D01*
X52200Y24900D02*
Y40700D01*
Y24900D02*
X68000D01*
Y40700D01*
X22400Y17100D02*
X27400D01*
X22400Y24900D02*
X27400D01*
X22400Y17100D02*
Y24900D01*
X27400Y17100D02*
Y24900D01*
X17900Y17144D02*
Y24944D01*
X12900Y17144D02*
Y24944D01*
X17900D01*
X12900Y17144D02*
X17900D01*
X57700Y14300D02*
Y22100D01*
X52700Y14300D02*
Y22100D01*
X57700D01*
X52700Y14300D02*
X57700D01*
X67600D02*
Y22100D01*
X62600Y14300D02*
Y22100D01*
X67600D01*
X62600Y14300D02*
X67600D01*
X89800Y84409D02*
X96200D01*
X89800Y97009D02*
X96200D01*
Y84409D02*
Y97009D01*
X89800Y84409D02*
Y97009D01*
X36400Y95000D02*
X42700D01*
X36400Y98200D02*
X42700D01*
Y95000D02*
Y98200D01*
X36400Y95000D02*
Y98200D01*
X47826Y108674D02*
X63574D01*
Y92926D02*
Y108674D01*
X47826Y92926D02*
X63574D01*
X47826D02*
Y108674D01*
X18034Y92926D02*
X33834D01*
X18034D02*
Y108726D01*
X33834D01*
Y92926D02*
Y108726D01*
X23100Y161200D02*
X29400D01*
Y158000D02*
Y161200D01*
X23100Y158000D02*
Y161200D01*
Y158000D02*
X29400D01*
X36200Y152100D02*
Y156100D01*
X38200Y152100D02*
Y156100D01*
X36200D02*
X38200D01*
X36200Y152100D02*
X38200D01*
X71400Y121824D02*
X75400D01*
X71400Y119776D02*
X75400D01*
X71400D02*
Y121824D01*
X75400Y119776D02*
Y121824D01*
X165500Y27400D02*
Y29400D01*
X169500Y27400D02*
Y29400D01*
X165500Y27400D02*
X169500D01*
X165500Y29400D02*
X169500D01*
X61300Y60100D02*
Y62100D01*
X65300Y60100D02*
Y62100D01*
X61300Y60100D02*
X65300D01*
X61300Y62100D02*
X65300D01*
X37200Y103262D02*
X39200D01*
X37200Y107262D02*
X39200D01*
Y103262D02*
Y107262D01*
X37200Y103262D02*
Y107262D01*
X41100Y103262D02*
X43100D01*
X41100Y107262D02*
X43100D01*
Y103262D02*
Y107262D01*
X41100Y103262D02*
Y107262D01*
X9900Y77491D02*
X11900D01*
X9900Y73491D02*
X11900D01*
X9900D02*
Y77491D01*
X11900Y73491D02*
Y77491D01*
X23200Y72400D02*
Y74400D01*
X19200Y72400D02*
Y74400D01*
X23200D01*
X19200Y72400D02*
X23200D01*
X14100Y77500D02*
X16100D01*
X14100Y73500D02*
X16100D01*
X14100D02*
Y77500D01*
X16100Y73500D02*
Y77500D01*
X68900Y67157D02*
X70900D01*
X68900Y71157D02*
X70900D01*
Y67157D02*
Y71157D01*
X68900Y67157D02*
Y71157D01*
X61300Y72500D02*
Y74500D01*
X65300Y72500D02*
Y74500D01*
X61300Y72500D02*
X65300D01*
X61300Y74500D02*
X65300D01*
X68900Y79200D02*
X70900D01*
X68900Y75200D02*
X70900D01*
X68900D02*
Y79200D01*
X70900Y75200D02*
Y79200D01*
X14600Y56062D02*
X16600D01*
X14600Y60062D02*
X16600D01*
Y56062D02*
Y60062D01*
X14600Y56062D02*
Y60062D01*
X23900Y59339D02*
Y61339D01*
X19900Y59339D02*
Y61339D01*
X23900D01*
X19900Y59339D02*
X23900D01*
X10400Y56062D02*
X12400D01*
X10400Y60062D02*
X12400D01*
Y56062D02*
Y60062D01*
X10400Y56062D02*
Y60062D01*
X68900Y63100D02*
X70900D01*
X68900Y59100D02*
X70900D01*
X68900D02*
Y63100D01*
X70900Y59100D02*
Y63100D01*
X61300Y56200D02*
Y58200D01*
X65300Y56200D02*
Y58200D01*
X61300Y56200D02*
X65300D01*
X61300Y58200D02*
X65300D01*
X68900Y51000D02*
X70900D01*
X68900Y55000D02*
X70900D01*
Y51000D02*
Y55000D01*
X68900Y51000D02*
Y55000D01*
X16800Y74800D02*
Y81100D01*
X13600D02*
X16800D01*
X13600Y74800D02*
X16800D01*
X13600D02*
Y81100D01*
X67200Y70600D02*
Y76900D01*
Y70600D02*
X70400D01*
X67200Y76900D02*
X70400D01*
Y70600D02*
Y76900D01*
X44700Y87200D02*
X51000D01*
Y90400D01*
X44700Y87200D02*
Y90400D01*
X51000D01*
X19800Y74700D02*
Y81000D01*
Y74700D02*
X23000D01*
X19800Y81000D02*
X23000D01*
Y74700D02*
Y81000D01*
X64400Y70700D02*
Y77000D01*
X61200D02*
X64400D01*
X61200Y70700D02*
X64400D01*
X61200D02*
Y77000D01*
X34200Y87200D02*
X40500D01*
Y90400D01*
X34200Y87200D02*
Y90400D01*
X40500D01*
X224700Y103500D02*
X226700D01*
X224700Y99500D02*
X226700D01*
Y103500D01*
X224700Y99500D02*
Y103500D01*
X226300Y90300D02*
Y92300D01*
X230300Y90300D02*
Y92300D01*
X226300D02*
X230300D01*
X226300Y90300D02*
X230300D01*
Y94400D02*
Y96400D01*
X226300Y94400D02*
Y96400D01*
Y94400D02*
X230300D01*
X226300Y96400D02*
X230300D01*
X108695Y101374D02*
X110695D01*
X108695Y97374D02*
X110695D01*
Y101374D01*
X108695Y97374D02*
Y101374D01*
X112300Y101300D02*
X114300D01*
X112300Y97300D02*
X114300D01*
Y101300D01*
X112300Y97300D02*
Y101300D01*
X205099Y158186D02*
Y160186D01*
X209099Y158186D02*
Y160186D01*
X205099D02*
X209099D01*
X205099Y158186D02*
X209099D01*
X130200Y49300D02*
X132200D01*
X130200Y53300D02*
X132200D01*
Y49300D02*
Y53300D01*
X130200Y49300D02*
Y53300D01*
X10100Y109200D02*
Y111200D01*
X14100Y109200D02*
Y111200D01*
X10100Y109200D02*
X14100D01*
X10100Y111200D02*
X14100D01*
X10100Y113500D02*
Y115500D01*
X14100Y113500D02*
Y115500D01*
X10100Y113500D02*
X14100D01*
X10100Y115500D02*
X14100D01*
X198500Y60200D02*
X200500D01*
X198500Y56200D02*
X200500D01*
Y60200D01*
X198500Y56200D02*
Y60200D01*
X230300Y56900D02*
X232300D01*
X230300Y52900D02*
X232300D01*
X230300D02*
Y56900D01*
X232300Y52900D02*
Y56900D01*
X198500Y42600D02*
X200500D01*
X198500Y46600D02*
X200500D01*
X198500Y42600D02*
Y46600D01*
X200500Y42600D02*
Y46600D01*
X75600Y108900D02*
X77600D01*
X75600Y104900D02*
X77600D01*
X75600D02*
Y108900D01*
X77600Y104900D02*
Y108900D01*
X32000Y124039D02*
Y130339D01*
Y124039D02*
X35200D01*
X32000Y130339D02*
X35200D01*
Y124039D02*
Y130339D01*
X67400Y108900D02*
X69400D01*
X67400Y104900D02*
X69400D01*
X67400D02*
Y108900D01*
X69400Y104900D02*
Y108900D01*
X71500D02*
X73500D01*
X71500Y104900D02*
X73500D01*
X71500D02*
Y108900D01*
X73500Y104900D02*
Y108900D01*
X79400D02*
X81400D01*
X79400Y104900D02*
X81400D01*
X79400D02*
Y108900D01*
X81400Y104900D02*
Y108900D01*
X19500Y139900D02*
X25800D01*
X19500Y136700D02*
Y139900D01*
X25800Y136700D02*
Y139900D01*
X19500Y136700D02*
X25800D01*
X47700Y162900D02*
Y164900D01*
X51700Y162900D02*
Y164900D01*
X47700D02*
X51700D01*
X47700Y162900D02*
X51700D01*
X39200D02*
Y164900D01*
X43200Y162900D02*
Y164900D01*
X39200D02*
X43200D01*
X39200Y162900D02*
X43200D01*
X19600Y130700D02*
X25900D01*
Y133900D01*
X19600Y130700D02*
Y133900D01*
X25900D01*
X74723Y63100D02*
Y67100D01*
X72676Y63100D02*
Y67100D01*
X74723D01*
X72676Y63100D02*
X74723D01*
X60800Y70724D02*
X64800D01*
X60800Y68676D02*
X64800D01*
X60800D02*
Y70724D01*
X64800Y68676D02*
Y70724D01*
X40476Y86900D02*
Y90900D01*
X42523Y86900D02*
Y90900D01*
X40476Y86900D02*
X42523D01*
X40476Y90900D02*
X42523D01*
X60800Y65924D02*
X64800D01*
X60800Y63876D02*
X64800D01*
X60800D02*
Y65924D01*
X64800Y63876D02*
Y65924D01*
X24700Y86800D02*
Y90000D01*
X18400Y86800D02*
Y90000D01*
Y86800D02*
X24700D01*
X18400Y90000D02*
X24700D01*
X19700Y78824D02*
X23700D01*
X19700Y76776D02*
X23700D01*
X19700D02*
Y78824D01*
X23700Y76776D02*
Y78824D01*
X20368Y84024D02*
X24368D01*
X20368Y81976D02*
X24368D01*
X20368D02*
Y84024D01*
X24368Y81976D02*
Y84024D01*
X57060Y86600D02*
Y89800D01*
X63360Y86600D02*
Y89800D01*
X57060D02*
X63360D01*
X57060Y86600D02*
X63360D01*
X60800Y76776D02*
X64800D01*
X60800Y78824D02*
X64800D01*
Y76776D02*
Y78824D01*
X60800Y76776D02*
Y78824D01*
X56400Y81976D02*
X60400D01*
X56400Y84024D02*
X60400D01*
Y81976D02*
Y84024D01*
X56400Y81976D02*
Y84024D01*
X20400Y57424D02*
X24400D01*
X20400Y55376D02*
X24400D01*
X20400D02*
Y57424D01*
X24400Y55376D02*
Y57424D01*
X34500Y48924D02*
X38500D01*
X34500Y46876D02*
X38500D01*
X34500D02*
Y48924D01*
X38500Y46876D02*
Y48924D01*
X60800Y52376D02*
X64800D01*
X60800Y54424D02*
X64800D01*
Y52376D02*
Y54424D01*
X60800Y52376D02*
Y54424D01*
X45500Y46776D02*
X49500D01*
X45500Y48824D02*
X49500D01*
Y46776D02*
Y48824D01*
X45500Y46776D02*
Y48824D01*
X30000Y86300D02*
X37800D01*
X30000Y91300D02*
X37800D01*
Y86300D02*
Y91300D01*
X30000Y86300D02*
Y91300D01*
X45600Y90800D02*
X53400D01*
X45600Y85800D02*
X53400D01*
X45600D02*
Y90800D01*
X53400Y85800D02*
Y90800D01*
X57644Y49100D02*
X65444D01*
X57644Y44100D02*
X65444D01*
X57644D02*
Y49100D01*
X65444Y44100D02*
Y49100D01*
X17956Y47400D02*
X25756D01*
X17956Y52400D02*
X25756D01*
Y47400D02*
Y52400D01*
X17956Y47400D02*
Y52400D01*
X196246Y103500D02*
Y107500D01*
X194199Y103500D02*
Y107500D01*
Y103500D02*
X196246D01*
X194199Y107500D02*
X196246D01*
X217068Y89976D02*
X221068D01*
X217068Y92024D02*
X221068D01*
X217068Y89976D02*
Y92024D01*
X221068Y89976D02*
Y92024D01*
X219395Y109485D02*
Y113485D01*
X221443Y109485D02*
Y113485D01*
X219395D02*
X221443D01*
X219395Y109485D02*
X221443D01*
X196193Y109567D02*
Y113567D01*
X194146Y109567D02*
Y113567D01*
Y109567D02*
X196193D01*
X194146Y113567D02*
X196193D01*
X216869Y124944D02*
X220869D01*
X216869Y126991D02*
X220869D01*
X216869Y124944D02*
Y126991D01*
X220869Y124944D02*
Y126991D01*
X193876Y78400D02*
Y82400D01*
X195923Y78400D02*
Y82400D01*
X193876D02*
X195923D01*
X193876Y78400D02*
X195923D01*
X221493Y102967D02*
Y106967D01*
X219446Y102967D02*
Y106967D01*
Y102967D02*
X221493D01*
X219446Y106967D02*
X221493D01*
X194199Y122083D02*
Y126083D01*
X196246Y122083D02*
Y126083D01*
X194199D02*
X196246D01*
X194199Y122083D02*
X196246D01*
X219646Y77967D02*
Y81967D01*
X221693Y77967D02*
Y81967D01*
X219646D02*
X221693D01*
X219646Y77967D02*
X221693D01*
X221423Y119200D02*
Y123200D01*
X219376Y119200D02*
Y123200D01*
Y119200D02*
X221423D01*
X219376Y123200D02*
X221423D01*
X196023Y87432D02*
Y91432D01*
X193976Y87432D02*
Y91432D01*
Y87432D02*
X196023D01*
X193976Y91432D02*
X196023D01*
X98100Y117000D02*
Y124800D01*
X93100Y117000D02*
Y124800D01*
Y117000D02*
X98100D01*
X93100Y124800D02*
X98100D01*
X133200Y97224D02*
X137200D01*
X133200Y95176D02*
X137200D01*
Y97224D01*
X133200Y95176D02*
Y97224D01*
X145673Y86211D02*
X149673D01*
X145673Y88258D02*
X149673D01*
X145673Y86211D02*
Y88258D01*
X149673Y86211D02*
Y88258D01*
X141200Y102076D02*
X145200D01*
X141200Y104124D02*
X145200D01*
X141200Y102076D02*
Y104124D01*
X145200Y102076D02*
Y104124D01*
X137500Y90276D02*
X141500D01*
X137500Y92324D02*
X141500D01*
X137500Y90276D02*
Y92324D01*
X141500Y90276D02*
Y92324D01*
X136705Y87411D02*
X140705D01*
X136705Y89458D02*
X140705D01*
X136705Y87411D02*
Y89458D01*
X140705Y87411D02*
Y89458D01*
X93200Y128556D02*
Y136356D01*
X98200Y128556D02*
Y136356D01*
X93200D02*
X98200D01*
X93200Y128556D02*
X98200D01*
X140449Y111134D02*
Y115134D01*
X142497Y111134D02*
Y115134D01*
X140449D02*
X142497D01*
X140449Y111134D02*
X142497D01*
X116676Y89400D02*
Y93400D01*
X118723Y89400D02*
Y93400D01*
X116676D02*
X118723D01*
X116676Y89400D02*
X118723D01*
X116576Y101700D02*
Y105700D01*
X118623Y101700D02*
Y105700D01*
X116576D02*
X118623D01*
X116576Y101700D02*
X118623D01*
X131797Y87867D02*
Y91867D01*
X129749Y87867D02*
Y91867D01*
Y87867D02*
X131797D01*
X129749Y91867D02*
X131797D01*
X125605Y105611D02*
X129605D01*
X125605Y107658D02*
X129605D01*
X125605Y105611D02*
Y107658D01*
X129605Y105611D02*
Y107658D01*
X132873Y108058D02*
X136873D01*
X132873Y106011D02*
X136873D01*
Y108058D01*
X132873Y106011D02*
Y108058D01*
X128876Y95168D02*
Y99168D01*
X130923Y95168D02*
Y99168D01*
X128876D02*
X130923D01*
X128876Y95168D02*
X130923D01*
X126023Y91700D02*
Y95700D01*
X123976Y91700D02*
Y95700D01*
Y91700D02*
X126023D01*
X123976Y95700D02*
X126023D01*
X80400Y91276D02*
X84400D01*
X80400Y93324D02*
X84400D01*
Y91276D02*
Y93324D01*
X80400Y91276D02*
Y93324D01*
X91000Y78976D02*
X95000D01*
X91000Y81024D02*
X95000D01*
Y78976D02*
Y81024D01*
X91000Y78976D02*
Y81024D01*
X91200Y72844D02*
Y80644D01*
X96200Y72844D02*
Y80644D01*
X91200D02*
X96200D01*
X91200Y72844D02*
X96200D01*
X101500Y85424D02*
X105500D01*
X101500Y83376D02*
X105500D01*
Y85424D01*
X101500Y83376D02*
Y85424D01*
X113200Y71676D02*
X117200D01*
X113200Y73724D02*
X117200D01*
X113200Y71676D02*
Y73724D01*
X117200Y71676D02*
Y73724D01*
X111973Y66611D02*
X115973D01*
X111973Y68658D02*
X115973D01*
X111973Y66611D02*
Y68658D01*
X115973Y66611D02*
Y68658D01*
X101776Y60732D02*
Y64732D01*
X103823Y60732D02*
Y64732D01*
X101776D02*
X103823D01*
X101776Y60732D02*
X103823D01*
X138500Y135800D02*
X146300D01*
X138500Y130800D02*
X146300D01*
Y135800D01*
X138500Y130800D02*
Y135800D01*
X135776Y114500D02*
Y118500D01*
X137823Y114500D02*
Y118500D01*
X135776D02*
X137823D01*
X135776Y114500D02*
X137823D01*
X146873Y128158D02*
X150873D01*
X146873Y126111D02*
X150873D01*
Y128158D01*
X146873Y126111D02*
Y128158D01*
X159749Y122434D02*
Y126434D01*
X161796Y122434D02*
Y126434D01*
X159749D02*
X161796D01*
X159749Y122434D02*
X161796D01*
X148600Y115724D02*
X152600D01*
X148600Y113676D02*
X152600D01*
Y115724D01*
X148600Y113676D02*
Y115724D01*
X141273Y97358D02*
X145273D01*
X141273Y95311D02*
X145273D01*
Y97358D01*
X141273Y95311D02*
Y97358D01*
X152141Y103358D02*
X156141D01*
X152141Y101311D02*
X156141D01*
Y103358D01*
X152141Y101311D02*
Y103358D01*
X125373Y102858D02*
X129373D01*
X125373Y100811D02*
X129373D01*
Y102858D01*
X125373Y100811D02*
Y102858D01*
X91100Y95476D02*
X95100D01*
X91100Y97524D02*
X95100D01*
Y95476D02*
Y97524D01*
X91100Y95476D02*
Y97524D01*
X91200Y109976D02*
X95200D01*
X91200Y112024D02*
X95200D01*
Y109976D02*
Y112024D01*
X91200Y109976D02*
Y112024D01*
X123083Y58900D02*
X130883D01*
X123083Y63900D02*
X130883D01*
X123083Y58900D02*
Y63900D01*
X130883Y58900D02*
Y63900D01*
X134456D02*
X142256D01*
X134456Y58900D02*
X142256D01*
Y63900D01*
X134456Y58900D02*
Y63900D01*
X155249Y80234D02*
Y84234D01*
X157297Y80234D02*
Y84234D01*
X155249D02*
X157297D01*
X155249Y80234D02*
X157297D01*
X153896Y83634D02*
Y87634D01*
X151849Y83634D02*
Y87634D01*
Y83634D02*
X153896D01*
X151849Y87634D02*
X153896D01*
X118235Y112444D02*
X121063Y115272D01*
X119682Y110996D02*
X122511Y113825D01*
X121063Y115272D02*
X122511Y113825D01*
X118235Y112444D02*
X119682Y110996D01*
X131373Y83611D02*
X135373D01*
X131373Y85658D02*
X135373D01*
X131373Y83611D02*
Y85658D01*
X135373Y83611D02*
Y85658D01*
X148973Y73158D02*
X152973D01*
X148973Y71111D02*
X152973D01*
Y73158D01*
X148973Y71111D02*
Y73158D01*
X166297Y85802D02*
Y89802D01*
X164249Y85802D02*
Y89802D01*
Y85802D02*
X166297D01*
X164249Y89802D02*
X166297D01*
X98084Y106044D02*
Y113844D01*
X93084Y106044D02*
Y113844D01*
Y106044D02*
X98084D01*
X93084Y113844D02*
X98084D01*
X105873Y90511D02*
X109873D01*
X105873Y92558D02*
X109873D01*
X105873Y90511D02*
Y92558D01*
X109873Y90511D02*
Y92558D01*
X142882Y76596D02*
X145711Y79425D01*
X141435Y78044D02*
X144263Y80872D01*
X141435Y78044D02*
X142882Y76596D01*
X144263Y80872D02*
X145711Y79425D01*
X107735Y116146D02*
X111735D01*
X107735Y114099D02*
X111735D01*
Y116146D01*
X107735Y114099D02*
Y116146D01*
X111273Y116911D02*
X115273D01*
X111273Y118958D02*
X115273D01*
X111273Y116911D02*
Y118958D01*
X115273Y116911D02*
Y118958D01*
X127213Y72862D02*
X131213D01*
X127213Y74909D02*
X131213D01*
X127213Y72862D02*
Y74909D01*
X131213Y72862D02*
Y74909D01*
X220523Y57100D02*
Y61100D01*
X218476Y57100D02*
Y61100D01*
Y57100D02*
X220523D01*
X218476Y61100D02*
X220523D01*
X70400Y83176D02*
X74400D01*
X70400Y85224D02*
X74400D01*
X70400Y83176D02*
Y85224D01*
X74400Y83176D02*
Y85224D01*
X38976Y105800D02*
Y109800D01*
X41023Y105800D02*
Y109800D01*
X38976D02*
X41023D01*
X38976Y105800D02*
X41023D01*
X21423Y105500D02*
Y109500D01*
X19376Y105500D02*
Y109500D01*
Y105500D02*
X21423D01*
X19376Y109500D02*
X21423D01*
X71400Y115976D02*
X75400D01*
X71400Y118024D02*
X75400D01*
Y115976D02*
Y118024D01*
X71400Y115976D02*
Y118024D01*
X45476Y140300D02*
Y144300D01*
X47523Y140300D02*
Y144300D01*
X45476Y140300D02*
X47523D01*
X45476Y144300D02*
X47523D01*
X77276Y139600D02*
Y143600D01*
X79323Y139600D02*
Y143600D01*
X77276Y139600D02*
X79323D01*
X77276Y143600D02*
X79323D01*
X42101Y110878D02*
X46101D01*
X42101Y112925D02*
X46101D01*
Y110878D02*
Y112925D01*
X42101Y110878D02*
Y112925D01*
X71400Y147876D02*
X75400D01*
X71400Y149924D02*
X75400D01*
Y147876D02*
Y149924D01*
X71400Y147876D02*
Y149924D01*
X76976Y129800D02*
Y133800D01*
X79023Y129800D02*
Y133800D01*
X76976Y129800D02*
X79023D01*
X76976Y133800D02*
X79023D01*
X53400Y149924D02*
X57400D01*
X53400Y147876D02*
X57400D01*
X53400D02*
Y149924D01*
X57400Y147876D02*
Y149924D01*
X59700Y115876D02*
X63700D01*
X59700Y117924D02*
X63700D01*
Y115876D02*
Y117924D01*
X59700Y115876D02*
Y117924D01*
X49376Y137300D02*
Y141300D01*
X51423Y137300D02*
Y141300D01*
X49376Y137300D02*
X51423D01*
X49376Y141300D02*
X51423D01*
X53076Y137300D02*
Y141300D01*
X55123Y137300D02*
Y141300D01*
X53076Y137300D02*
X55123D01*
X53076Y141300D02*
X55123D01*
X60476Y137300D02*
Y141300D01*
X62523Y137300D02*
Y141300D01*
X60476Y137300D02*
X62523D01*
X60476Y141300D02*
X62523D01*
X56776Y137300D02*
Y141300D01*
X58823Y137300D02*
Y141300D01*
X56776Y137300D02*
X58823D01*
X56776Y141300D02*
X58823D01*
X51100Y117532D02*
Y121532D01*
X49053Y117532D02*
Y121532D01*
X51100D01*
X49053Y117532D02*
X51100D01*
X54100D02*
Y121532D01*
X52053Y117532D02*
Y121532D01*
X54100D01*
X52053Y117532D02*
X54100D01*
X48100D02*
Y121532D01*
X46053Y117532D02*
Y121532D01*
X48100D01*
X46053Y117532D02*
X48100D01*
X57200D02*
Y121532D01*
X55153Y117532D02*
Y121532D01*
X57200D01*
X55153Y117532D02*
X57200D01*
D20*
X208350Y61800D02*
G03*
X210750Y61800I1200J0D01*
G01*
X196100Y57300D02*
G03*
X196100Y57300I-300J0D01*
G01*
X90200Y82700D02*
G03*
X87800Y82700I-1200J0D01*
G01*
X83800Y87700D02*
X86200D01*
X83800D02*
Y89700D01*
X86200D01*
X91800Y93400D02*
X94200D01*
Y91500D02*
Y93400D01*
X91800Y91500D02*
X94200D01*
X91800D02*
Y93400D01*
Y94700D01*
Y85900D02*
X94200D01*
Y84000D02*
Y85900D01*
X91800Y84000D02*
X94200D01*
X91800Y85900D02*
Y91500D01*
Y84000D02*
Y85900D01*
Y82700D02*
Y84000D01*
X90200Y82700D02*
X91800D01*
X87800D02*
X90200D01*
X86200D02*
X87800D01*
X86200D02*
Y87700D01*
Y89700D01*
Y94700D01*
X91800D01*
D101*
X193600Y37800D02*
Y61800D01*
X225500D01*
Y37800D02*
Y61800D01*
X193600Y37800D02*
X225500D01*
X80600Y62043D02*
Y67929D01*
X76600Y62043D02*
X80600D01*
X76600Y67929D02*
X80600D01*
X76600Y62043D02*
Y67929D01*
M02*
