G04*
G04 #@! TF.GenerationSoftware,Altium Limited,Altium Designer,21.4.1 (30)*
G04*
G04 Layer_Color=128*
%FSLAX25Y25*%
%MOIN*%
G70*
G04*
G04 #@! TF.SameCoordinates,690C2B1C-B9AF-4ECE-B77D-8E73C62371D7*
G04*
G04*
G04 #@! TF.FilePolarity,Positive*
G04*
G01*
G75*
%ADD18C,0.00200*%
D18*
X4169Y8200D02*
X12831D01*
X8500Y3869D02*
Y12531D01*
X26020Y147215D02*
X28579D01*
X27300Y145935D02*
Y148494D01*
X26020Y124459D02*
X28579D01*
X27300Y123179D02*
Y125738D01*
X11631Y118829D02*
X13993D01*
X12812Y117648D02*
Y120010D01*
X28087Y118829D02*
X30449D01*
X29268Y117648D02*
Y120010D01*
X11631Y152845D02*
X13993D01*
X12812Y151664D02*
Y154026D01*
X28087Y152845D02*
X30449D01*
X29268Y151664D02*
Y154026D01*
X4169Y167200D02*
X12831D01*
X8500Y162869D02*
Y171531D01*
X243069Y156100D02*
X251730D01*
X247400Y151769D02*
Y160431D01*
X243069Y8200D02*
X251730D01*
X247400Y3869D02*
Y12531D01*
X9028Y88800D02*
X12572D01*
X10800Y87028D02*
Y90572D01*
X9028Y98400D02*
X12572D01*
X10800Y96628D02*
Y100172D01*
X243602Y149607D02*
X244587D01*
X244094Y149114D02*
Y150099D01*
X243602Y133858D02*
X244587D01*
X244094Y133366D02*
Y134351D01*
X243602Y125984D02*
X244587D01*
X244094Y125492D02*
Y126477D01*
X243602Y62992D02*
X244587D01*
X244094Y62500D02*
Y63484D01*
X243602Y55118D02*
X244587D01*
X244094Y54626D02*
Y55610D01*
X243602Y47244D02*
X244587D01*
X244094Y46752D02*
Y47736D01*
X243602Y39370D02*
X244587D01*
X244094Y38878D02*
Y39862D01*
X243602Y31496D02*
X244587D01*
X244094Y31004D02*
Y31988D01*
X243602Y15748D02*
X244587D01*
X244094Y15256D02*
Y16240D01*
X235728Y165355D02*
X236713D01*
X236221Y164862D02*
Y165847D01*
X235728Y62992D02*
X236713D01*
X236221Y62500D02*
Y63484D01*
X235728Y55118D02*
X236713D01*
X236221Y54626D02*
Y55610D01*
X235728Y47244D02*
X236713D01*
X236221Y46752D02*
Y47736D01*
X235728Y39370D02*
X236713D01*
X236221Y38878D02*
Y39862D01*
X235728Y31496D02*
X236713D01*
X236221Y31004D02*
Y31988D01*
X235728Y23622D02*
X236713D01*
X236221Y23130D02*
Y24114D01*
X235728Y15748D02*
X236713D01*
X236221Y15256D02*
Y16240D01*
X235728Y7874D02*
X236713D01*
X236221Y7382D02*
Y8366D01*
X227854Y133858D02*
X228839D01*
X228346Y133366D02*
Y134351D01*
X227854Y125984D02*
X228839D01*
X228346Y125492D02*
Y126477D01*
X227854Y118110D02*
X228839D01*
X228346Y117618D02*
Y118603D01*
X227854Y110236D02*
X228839D01*
X228346Y109744D02*
Y110729D01*
X227854Y102362D02*
X228839D01*
X228346Y101870D02*
Y102855D01*
X227854Y62992D02*
X228839D01*
X228346Y62500D02*
Y63484D01*
X227854Y47244D02*
X228839D01*
X228346Y46752D02*
Y47736D01*
X227854Y39370D02*
X228839D01*
X228346Y38878D02*
Y39862D01*
X227854Y31496D02*
X228839D01*
X228346Y31004D02*
Y31988D01*
X227854Y15748D02*
X228839D01*
X228346Y15256D02*
Y16240D01*
X219980Y141733D02*
X220965D01*
X220472Y141240D02*
Y142225D01*
X219980Y133858D02*
X220965D01*
X220472Y133366D02*
Y134351D01*
X219980Y62992D02*
X220965D01*
X220472Y62500D02*
Y63484D01*
X219980Y15748D02*
X220965D01*
X220472Y15256D02*
Y16240D01*
X212106Y157481D02*
X213090D01*
X212598Y156988D02*
Y157973D01*
X212106Y141733D02*
X213090D01*
X212598Y141240D02*
Y142225D01*
X212106Y133858D02*
X213090D01*
X212598Y133366D02*
Y134351D01*
X212106Y62992D02*
X213090D01*
X212598Y62500D02*
Y63484D01*
X212106Y15748D02*
X213090D01*
X212598Y15256D02*
Y16240D01*
X204232Y62992D02*
X205217D01*
X204724Y62500D02*
Y63484D01*
X204232Y31496D02*
X205217D01*
X204724Y31004D02*
Y31988D01*
X204232Y15748D02*
X205217D01*
X204724Y15256D02*
Y16240D01*
X188484Y39370D02*
X189469D01*
X188976Y38878D02*
Y39862D01*
X188484Y31496D02*
X189469D01*
X188976Y31004D02*
Y31988D01*
X180610Y165355D02*
X181595D01*
X181102Y164862D02*
Y165847D01*
X180610Y39370D02*
X181595D01*
X181102Y38878D02*
Y39862D01*
X172736Y165355D02*
X173720D01*
X173228Y164862D02*
Y165847D01*
X172736Y47244D02*
X173720D01*
X173228Y46752D02*
Y47736D01*
X172736Y15748D02*
X173720D01*
X173228Y15256D02*
Y16240D01*
X164862Y149607D02*
X165846D01*
X165354Y149114D02*
Y150099D01*
X164862Y15748D02*
X165846D01*
X165354Y15256D02*
Y16240D01*
X156988Y165355D02*
X157972D01*
X157480Y164862D02*
Y165847D01*
X156988Y149607D02*
X157972D01*
X157480Y149114D02*
Y150099D01*
X156988Y31496D02*
X157972D01*
X157480Y31004D02*
Y31988D01*
X149114Y165355D02*
X150098D01*
X149606Y164862D02*
Y165847D01*
X149114Y31496D02*
X150098D01*
X149606Y31004D02*
Y31988D01*
X133366Y15748D02*
X134350D01*
X133858Y15256D02*
Y16240D01*
X133366Y7874D02*
X134350D01*
X133858Y7382D02*
Y8366D01*
X125492Y15748D02*
X126476D01*
X125984Y15256D02*
Y16240D01*
X117618Y165355D02*
X118602D01*
X118110Y164862D02*
Y165847D01*
X109744Y39370D02*
X110728D01*
X110236Y38878D02*
Y39862D01*
X93996Y141733D02*
X94980D01*
X94488Y141240D02*
Y142225D01*
X86122Y78740D02*
X87106D01*
X86614Y78248D02*
Y79232D01*
X86122Y70866D02*
X87106D01*
X86614Y70374D02*
Y71358D01*
X78248Y125984D02*
X79232D01*
X78740Y125492D02*
Y126477D01*
X78248Y102362D02*
X79232D01*
X78740Y101870D02*
Y102855D01*
X78248Y7874D02*
X79232D01*
X78740Y7382D02*
Y8366D01*
X70374Y165355D02*
X71358D01*
X70866Y164862D02*
Y165847D01*
X70374Y141733D02*
X71358D01*
X70866Y141240D02*
Y142225D01*
X70374Y133858D02*
X71358D01*
X70866Y133366D02*
Y134351D01*
X70374Y125984D02*
X71358D01*
X70866Y125492D02*
Y126477D01*
X70374Y39370D02*
X71358D01*
X70866Y38878D02*
Y39862D01*
X70374Y31496D02*
X71358D01*
X70866Y31004D02*
Y31988D01*
X70374Y23622D02*
X71358D01*
X70866Y23130D02*
Y24114D01*
X70374Y15748D02*
X71358D01*
X70866Y15256D02*
Y16240D01*
X70374Y7874D02*
X71358D01*
X70866Y7382D02*
Y8366D01*
X62500Y165355D02*
X63484D01*
X62992Y164862D02*
Y165847D01*
X62500Y133858D02*
X63484D01*
X62992Y133366D02*
Y134351D01*
X62500Y125984D02*
X63484D01*
X62992Y125492D02*
Y126477D01*
X62500Y31496D02*
X63484D01*
X62992Y31004D02*
Y31988D01*
X62500Y7874D02*
X63484D01*
X62992Y7382D02*
Y8366D01*
X54626Y165355D02*
X55610D01*
X55118Y164862D02*
Y165847D01*
X54626Y31496D02*
X55610D01*
X55118Y31004D02*
Y31988D01*
X54626Y7874D02*
X55610D01*
X55118Y7382D02*
Y8366D01*
X46752Y149607D02*
X47736D01*
X47244Y149114D02*
Y150099D01*
X46752Y102362D02*
X47736D01*
X47244Y101870D02*
Y102855D01*
X46752Y94488D02*
X47736D01*
X47244Y93996D02*
Y94981D01*
X46752Y31496D02*
X47736D01*
X47244Y31004D02*
Y31988D01*
X46752Y7874D02*
X47736D01*
X47244Y7382D02*
Y8366D01*
X38878Y149607D02*
X39862D01*
X39370Y149114D02*
Y150099D01*
X38878Y7874D02*
X39862D01*
X39370Y7382D02*
Y8366D01*
X31004Y47244D02*
X31988D01*
X31496Y46752D02*
Y47736D01*
X31004Y31496D02*
X31988D01*
X31496Y31004D02*
Y31988D01*
X31004Y7874D02*
X31988D01*
X31496Y7382D02*
Y8366D01*
X23130Y118110D02*
X24114D01*
X23622Y117618D02*
Y118603D01*
X23130Y7874D02*
X24114D01*
X23622Y7382D02*
Y8366D01*
X15256Y157481D02*
X16240D01*
X15748Y156988D02*
Y157973D01*
X15256Y149607D02*
X16240D01*
X15748Y149114D02*
Y150099D01*
X15256Y141733D02*
X16240D01*
X15748Y141240D02*
Y142225D01*
X15256Y133858D02*
X16240D01*
X15748Y133366D02*
Y134351D01*
X15256Y125984D02*
X16240D01*
X15748Y125492D02*
Y126477D01*
X15256Y7874D02*
X16240D01*
X15748Y7382D02*
Y8366D01*
X7382Y157481D02*
X8366D01*
X7874Y156988D02*
Y157973D01*
X7382Y149607D02*
X8366D01*
X7874Y149114D02*
Y150099D01*
X7382Y141733D02*
X8366D01*
X7874Y141240D02*
Y142225D01*
X7382Y133858D02*
X8366D01*
X7874Y133366D02*
Y134351D01*
X7382Y125984D02*
X8366D01*
X7874Y125492D02*
Y126477D01*
X7382Y118110D02*
X8366D01*
X7874Y117618D02*
Y118603D01*
X7382Y94488D02*
X8366D01*
X7874Y93996D02*
Y94981D01*
X7382Y78740D02*
X8366D01*
X7874Y78248D02*
Y79232D01*
X7382Y70866D02*
X8366D01*
X7874Y70374D02*
Y71358D01*
X7382Y62992D02*
X8366D01*
X7874Y62500D02*
Y63484D01*
X7382Y55118D02*
X8366D01*
X7874Y54626D02*
Y55610D01*
X7382Y47244D02*
X8366D01*
X7874Y46752D02*
Y47736D01*
X7382Y39370D02*
X8366D01*
X7874Y38878D02*
Y39862D01*
X7382Y31496D02*
X8366D01*
X7874Y31004D02*
Y31988D01*
X7382Y23622D02*
X8366D01*
X7874Y23130D02*
Y24114D01*
X7382Y15748D02*
X8366D01*
X7874Y15256D02*
Y16240D01*
X111586Y77878D02*
X112570D01*
X112078Y77386D02*
Y78370D01*
X110151Y77691D02*
X111135D01*
X110643Y77199D02*
Y78183D01*
X44108Y131700D02*
X45092D01*
X44600Y131208D02*
Y132192D01*
X44108Y130217D02*
X45092D01*
X44600Y129725D02*
Y130709D01*
X162808Y126500D02*
X163792D01*
X163300Y126008D02*
Y126992D01*
X164757Y111792D02*
X165741D01*
X165249Y111300D02*
Y112284D01*
X163278Y112706D02*
X164262D01*
X163770Y112214D02*
Y113198D01*
X115008Y93100D02*
X115992D01*
X115500Y92608D02*
Y93592D01*
X196808Y107900D02*
X197792D01*
X197300Y107408D02*
Y108392D01*
X146708Y92000D02*
X147692D01*
X147200Y91508D02*
Y92492D01*
X154208Y98458D02*
X155192D01*
X154700Y97966D02*
Y98950D01*
X154208Y100842D02*
X155192D01*
X154700Y100350D02*
Y101334D01*
X123100Y77600D02*
X124084D01*
X123592Y77108D02*
Y78092D01*
X154451Y115157D02*
X155435D01*
X154943Y114665D02*
Y115649D01*
X158108Y116400D02*
X159092D01*
X158600Y115908D02*
Y116892D01*
X154708Y120900D02*
X155692D01*
X155200Y120408D02*
Y121392D01*
X152692Y121125D02*
X153676D01*
X153184Y120633D02*
Y121618D01*
X163753Y120133D02*
X164737D01*
X164245Y119641D02*
Y120625D01*
X163608Y121808D02*
X164592D01*
X164100Y121316D02*
Y122300D01*
X191508Y100800D02*
X192492D01*
X192000Y100308D02*
Y101292D01*
X191208Y115592D02*
X192192D01*
X191700Y115100D02*
Y116084D01*
X203508Y108600D02*
X204492D01*
X204000Y108108D02*
Y109092D01*
X203525Y110082D02*
X204509D01*
X204017Y109590D02*
Y110575D01*
X158308Y121200D02*
X159292D01*
X158800Y120708D02*
Y121692D01*
X192608Y106900D02*
X193592D01*
X193100Y106408D02*
Y107392D01*
X196590Y110932D02*
X197574D01*
X197082Y110440D02*
Y111424D01*
X202408Y121400D02*
X203392D01*
X202900Y120908D02*
Y121892D01*
X193216Y119732D02*
X194200D01*
X193708Y119240D02*
Y120224D01*
X150508Y112392D02*
X151492D01*
X151000Y111900D02*
Y112884D01*
X150408Y117100D02*
X151392D01*
X150900Y116608D02*
Y117592D01*
X149756Y82148D02*
X150740D01*
X150248Y81656D02*
Y82640D01*
X196675Y86766D02*
X197660D01*
X197167Y86274D02*
Y87258D01*
X196649Y89941D02*
X197633D01*
X197141Y89449D02*
Y90434D01*
X196608Y92800D02*
X197592D01*
X197100Y92308D02*
Y93292D01*
X215408Y83600D02*
X216392D01*
X215900Y83108D02*
Y84092D01*
X218187Y117679D02*
X219171D01*
X218679Y117187D02*
Y118171D01*
X203008Y100400D02*
X203992D01*
X203500Y99908D02*
Y100892D01*
X211808Y99783D02*
X212792D01*
X212300Y99291D02*
Y100275D01*
X211808Y98300D02*
X212792D01*
X212300Y97808D02*
Y98792D01*
X192108Y126200D02*
X193092D01*
X192600Y125708D02*
Y126692D01*
X74135Y106707D02*
X75119D01*
X74627Y106215D02*
Y107199D01*
X100208Y104900D02*
X101192D01*
X100700Y104408D02*
Y105392D01*
X119108Y84100D02*
X120092D01*
X119600Y83608D02*
Y84592D01*
X143508Y66000D02*
X144492D01*
X144000Y65508D02*
Y66492D01*
X146408Y65100D02*
X147392D01*
X146900Y64608D02*
Y65592D01*
X162344Y67536D02*
X163328D01*
X162836Y67044D02*
Y68028D01*
X103008Y58400D02*
X103992D01*
X103500Y57908D02*
Y58892D01*
X103208Y67300D02*
X104192D01*
X103700Y66808D02*
Y67792D01*
X103108Y74000D02*
X104092D01*
X103600Y73508D02*
Y74492D01*
X163992Y100678D02*
X164977D01*
X164484Y100186D02*
Y101170D01*
X164608Y102027D02*
X165592D01*
X165100Y101535D02*
Y102519D01*
X150208Y110000D02*
X151192D01*
X150700Y109508D02*
Y110492D01*
X147108Y109800D02*
X148092D01*
X147600Y109308D02*
Y110292D01*
X134508Y116500D02*
X135492D01*
X135000Y116008D02*
Y116992D01*
X107308Y121600D02*
X108292D01*
X107800Y121108D02*
Y122092D01*
X99308Y124600D02*
X100292D01*
X99800Y124108D02*
Y125092D01*
X121608Y121200D02*
X122592D01*
X122100Y120708D02*
Y121692D01*
X115308Y125900D02*
X116292D01*
X115800Y125408D02*
Y126392D01*
X105308Y129900D02*
X106292D01*
X105800Y129408D02*
Y130392D01*
X109308Y132900D02*
X110292D01*
X109800Y132408D02*
Y133392D01*
X117108Y133355D02*
X118092D01*
X117600Y132863D02*
Y133847D01*
X59508Y114900D02*
X60492D01*
X60000Y114408D02*
Y115392D01*
X230408Y86600D02*
X231392D01*
X230900Y86108D02*
Y87092D01*
X184815Y148793D02*
X185799D01*
X185307Y148301D02*
Y149285D01*
X189325Y149200D02*
X190309D01*
X189817Y148708D02*
Y149692D01*
X190808Y149200D02*
X191792D01*
X191300Y148708D02*
Y149692D01*
X113996Y112985D02*
X114980D01*
X114488Y112493D02*
Y113477D01*
X138300Y108700D02*
X139284D01*
X138792Y108208D02*
Y109192D01*
X138408Y104700D02*
X139392D01*
X138900Y104208D02*
Y105192D01*
X119411Y88470D02*
X120395D01*
X119903Y87977D02*
Y88962D01*
X119608Y90100D02*
X120592D01*
X120100Y89608D02*
Y90592D01*
X123308Y85200D02*
X124292D01*
X123800Y84708D02*
Y85692D01*
X119908Y85700D02*
X120892D01*
X120400Y85208D02*
Y86192D01*
X115508Y82600D02*
X116492D01*
X116000Y82108D02*
Y83092D01*
X114949Y80938D02*
X115933D01*
X115441Y80446D02*
Y81430D01*
X111469Y86162D02*
X112454D01*
X111961Y85669D02*
Y86654D01*
X111569Y84462D02*
X112554D01*
X112061Y83969D02*
Y84954D01*
X95225Y16700D02*
X96209D01*
X95717Y16208D02*
Y17192D01*
X96708Y16700D02*
X97692D01*
X97200Y16208D02*
Y17192D01*
X106508Y77500D02*
X107492D01*
X107000Y77008D02*
Y77992D01*
X107889Y77500D02*
X108873D01*
X108381Y77008D02*
Y77992D01*
X89727Y16700D02*
X90711D01*
X90219Y16208D02*
Y17192D01*
X91209Y16700D02*
X92194D01*
X91701Y16208D02*
Y17192D01*
X104016Y81900D02*
X105000D01*
X104508Y81408D02*
Y82392D01*
X102600Y82340D02*
X103584D01*
X103092Y81848D02*
Y82832D01*
X192408Y88100D02*
X193392D01*
X192900Y87608D02*
Y88592D01*
X191673Y82692D02*
X192657D01*
X192165Y82200D02*
Y83184D01*
X196459Y81905D02*
X197443D01*
X196951Y81413D02*
Y82398D01*
X217908Y80100D02*
X218892D01*
X218400Y79608D02*
Y80592D01*
X211608Y83800D02*
X212592D01*
X212100Y83308D02*
Y84292D01*
X215008Y86200D02*
X215992D01*
X215500Y85708D02*
Y86692D01*
X203808Y55200D02*
X204792D01*
X204300Y54708D02*
Y55692D01*
X206608Y52300D02*
X207592D01*
X207100Y51808D02*
Y52792D01*
X211208Y47600D02*
X212192D01*
X211700Y47108D02*
Y48092D01*
X119416Y70400D02*
X120400D01*
X119908Y69908D02*
Y70892D01*
X119908Y65200D02*
X120892D01*
X120400Y64708D02*
Y65692D01*
X76849Y16700D02*
X77834D01*
X77342Y16208D02*
Y17192D01*
X78332Y16700D02*
X79316D01*
X78824Y16208D02*
Y17192D01*
X85409Y16700D02*
X86393D01*
X85901Y16208D02*
Y17192D01*
X83927Y16700D02*
X84911D01*
X84419Y16208D02*
Y17192D01*
X102589Y16700D02*
X103573D01*
X103081Y16208D02*
Y17192D01*
X101106Y16700D02*
X102090D01*
X101598Y16208D02*
Y17192D01*
X187208Y27800D02*
X188192D01*
X187700Y27308D02*
Y28292D01*
X199008Y13300D02*
X199992D01*
X199500Y12808D02*
Y13792D01*
X217401Y8991D02*
X218385D01*
X217893Y8499D02*
Y9483D01*
X126781Y96891D02*
X127765D01*
X127273Y96399D02*
Y97383D01*
X126877Y98519D02*
X127861D01*
X127369Y98027D02*
Y99011D01*
X51008Y67500D02*
X51992D01*
X51500Y67008D02*
Y67992D01*
X43508Y75000D02*
X44492D01*
X44000Y74508D02*
Y75492D01*
X46008Y75000D02*
X46992D01*
X46500Y74508D02*
Y75492D01*
X48508Y75000D02*
X49492D01*
X49000Y74508D02*
Y75492D01*
X48508Y72500D02*
X49492D01*
X49000Y72008D02*
Y72992D01*
X43508Y72500D02*
X44492D01*
X44000Y72008D02*
Y72992D01*
X46008Y72500D02*
X46992D01*
X46500Y72008D02*
Y72992D01*
X36008Y75000D02*
X36992D01*
X36500Y74508D02*
Y75492D01*
X38508Y75000D02*
X39492D01*
X39000Y74508D02*
Y75492D01*
X41008Y75000D02*
X41992D01*
X41500Y74508D02*
Y75492D01*
X41008Y72500D02*
X41992D01*
X41500Y72008D02*
Y72992D01*
X36008Y72500D02*
X36992D01*
X36500Y72008D02*
Y72992D01*
X38508Y72500D02*
X39492D01*
X39000Y72008D02*
Y72992D01*
X51008Y72500D02*
X51992D01*
X51500Y72008D02*
Y72992D01*
X48508Y70000D02*
X49492D01*
X49000Y69508D02*
Y70492D01*
X51008Y70000D02*
X51992D01*
X51500Y69508D02*
Y70492D01*
X46008Y70000D02*
X46992D01*
X46500Y69508D02*
Y70492D01*
X43508Y67500D02*
X44492D01*
X44000Y67008D02*
Y67992D01*
X48508Y67500D02*
X49492D01*
X49000Y67008D02*
Y67992D01*
X48508Y65000D02*
X49492D01*
X49000Y64508D02*
Y65492D01*
X46008Y67500D02*
X46992D01*
X46500Y67008D02*
Y67992D01*
X46008Y65000D02*
X46992D01*
X46500Y64508D02*
Y65492D01*
X41008Y70000D02*
X41992D01*
X41500Y69508D02*
Y70492D01*
X43508Y70000D02*
X44492D01*
X44000Y69508D02*
Y70492D01*
X36008Y70000D02*
X36992D01*
X36500Y69508D02*
Y70492D01*
X38508Y70000D02*
X39492D01*
X39000Y69508D02*
Y70492D01*
X41008Y67500D02*
X41992D01*
X41500Y67008D02*
Y67992D01*
X41008Y65000D02*
X41992D01*
X41500Y64508D02*
Y65492D01*
X36008Y67500D02*
X36992D01*
X36500Y67008D02*
Y67992D01*
X38508Y67500D02*
X39492D01*
X39000Y67008D02*
Y67992D01*
X33508Y72500D02*
X34492D01*
X34000Y72008D02*
Y72992D01*
X33508Y70000D02*
X34492D01*
X34000Y69508D02*
Y70492D01*
X33508Y75000D02*
X34492D01*
X34000Y74508D02*
Y75492D01*
X33508Y67500D02*
X34492D01*
X34000Y67008D02*
Y67992D01*
X33508Y65000D02*
X34492D01*
X34000Y64508D02*
Y65492D01*
X51008Y65000D02*
X51992D01*
X51500Y64508D02*
Y65492D01*
X48508Y62500D02*
X49492D01*
X49000Y62008D02*
Y62992D01*
X51008Y62500D02*
X51992D01*
X51500Y62008D02*
Y62992D01*
X43508Y62500D02*
X44492D01*
X44000Y62008D02*
Y62992D01*
X46008Y62500D02*
X46992D01*
X46500Y62008D02*
Y62992D01*
X48508Y60000D02*
X49492D01*
X49000Y59508D02*
Y60492D01*
X51008Y60000D02*
X51992D01*
X51500Y59508D02*
Y60492D01*
X43508Y60000D02*
X44492D01*
X44000Y59508D02*
Y60492D01*
X46008Y60000D02*
X46992D01*
X46500Y59508D02*
Y60492D01*
X43508Y65000D02*
X44492D01*
X44000Y64508D02*
Y65492D01*
X38508Y62500D02*
X39492D01*
X39000Y62008D02*
Y62992D01*
X38508Y65000D02*
X39492D01*
X39000Y64508D02*
Y65492D01*
X36008Y62500D02*
X36992D01*
X36500Y62008D02*
Y62992D01*
X41008Y62500D02*
X41992D01*
X41500Y62008D02*
Y62992D01*
X41008Y60000D02*
X41992D01*
X41500Y59508D02*
Y60492D01*
X38508Y60000D02*
X39492D01*
X39000Y59508D02*
Y60492D01*
X38508Y57500D02*
X39492D01*
X39000Y57008D02*
Y57992D01*
X48508Y57500D02*
X49492D01*
X49000Y57008D02*
Y57992D01*
X51008Y57500D02*
X51992D01*
X51500Y57008D02*
Y57992D01*
X43508Y57500D02*
X44492D01*
X44000Y57008D02*
Y57992D01*
X46008Y57500D02*
X46992D01*
X46500Y57008D02*
Y57992D01*
X41008Y57500D02*
X41992D01*
X41500Y57008D02*
Y57992D01*
X36008Y65000D02*
X36992D01*
X36500Y64508D02*
Y65492D01*
X33508Y60000D02*
X34492D01*
X34000Y59508D02*
Y60492D01*
X36008Y60000D02*
X36992D01*
X36500Y59508D02*
Y60492D01*
X33508Y62500D02*
X34492D01*
X34000Y62008D02*
Y62992D01*
X33508Y57500D02*
X34492D01*
X34000Y57008D02*
Y57992D01*
X36008Y57500D02*
X36992D01*
X36500Y57008D02*
Y57992D01*
X211453Y8949D02*
X212437D01*
X211945Y8457D02*
Y9441D01*
X29208Y12300D02*
X30192D01*
X29700Y11808D02*
Y12792D01*
X60708Y16500D02*
X61692D01*
X61200Y16008D02*
Y16992D01*
X60808Y14100D02*
X61792D01*
X61300Y13608D02*
Y14592D01*
X58508Y16500D02*
X59492D01*
X59000Y16008D02*
Y16992D01*
X58608Y14100D02*
X59592D01*
X59100Y13608D02*
Y14592D01*
X47708Y14800D02*
X48692D01*
X48200Y14308D02*
Y15292D01*
X50008Y13800D02*
X50992D01*
X50500Y13308D02*
Y14292D01*
X43308Y14900D02*
X44292D01*
X43800Y14408D02*
Y15392D01*
X45508Y13800D02*
X46492D01*
X46000Y13308D02*
Y14292D01*
X41208Y13800D02*
X42192D01*
X41700Y13308D02*
Y14292D01*
X29208Y19100D02*
X30192D01*
X29700Y18608D02*
Y19592D01*
X20708Y17000D02*
X21692D01*
X21200Y16508D02*
Y17492D01*
X32108Y15900D02*
X33092D01*
X32600Y15408D02*
Y16392D01*
X29208Y16600D02*
X30192D01*
X29700Y16108D02*
Y17092D01*
X29208Y14300D02*
X30192D01*
X29700Y13808D02*
Y14792D01*
X18608Y19400D02*
X19592D01*
X19100Y18908D02*
Y19892D01*
X20708Y19400D02*
X21692D01*
X21200Y18908D02*
Y19892D01*
X18608Y17000D02*
X19592D01*
X19100Y16508D02*
Y17492D01*
X64708Y24500D02*
X65692D01*
X65200Y24008D02*
Y24992D01*
X67308Y24500D02*
X68292D01*
X67800Y24008D02*
Y24992D01*
X59708Y24500D02*
X60692D01*
X60200Y24008D02*
Y24992D01*
X62208Y24500D02*
X63192D01*
X62700Y24008D02*
Y24992D01*
X54808Y24500D02*
X55792D01*
X55300Y24008D02*
Y24992D01*
X52308Y24500D02*
X53292D01*
X52800Y24008D02*
Y24992D01*
X57408Y24500D02*
X58392D01*
X57900Y24008D02*
Y24992D01*
X60808Y22800D02*
X61792D01*
X61300Y22308D02*
Y23292D01*
X60908Y20400D02*
X61892D01*
X61400Y19908D02*
Y20892D01*
X58608Y22800D02*
X59592D01*
X59100Y22308D02*
Y23292D01*
X58708Y20400D02*
X59692D01*
X59200Y19908D02*
Y20892D01*
X20708Y25100D02*
X21692D01*
X21200Y24608D02*
Y25592D01*
X20708Y22700D02*
X21692D01*
X21200Y22208D02*
Y23192D01*
X18608Y22700D02*
X19592D01*
X19100Y22208D02*
Y23192D01*
X18608Y25100D02*
X19592D01*
X19100Y24608D02*
Y25592D01*
X12408Y27200D02*
X13392D01*
X12900Y26708D02*
Y27692D01*
X14908Y27200D02*
X15892D01*
X15400Y26708D02*
Y27692D01*
X17508Y27200D02*
X18492D01*
X18000Y26708D02*
Y27692D01*
X27408Y27200D02*
X28392D01*
X27900Y26708D02*
Y27692D01*
X24808Y27200D02*
X25792D01*
X25300Y26708D02*
Y27692D01*
X22308Y27200D02*
X23292D01*
X22800Y26708D02*
Y27692D01*
X19908Y27200D02*
X20892D01*
X20400Y26708D02*
Y27692D01*
X37208Y15900D02*
X38192D01*
X37700Y15408D02*
Y16392D01*
X47108Y24100D02*
X48092D01*
X47600Y23608D02*
Y24592D01*
X67508Y44900D02*
X68492D01*
X68000Y44408D02*
Y45392D01*
X86671Y20500D02*
X87655D01*
X87163Y20008D02*
Y20992D01*
X86608Y9100D02*
X87592D01*
X87100Y8608D02*
Y9592D01*
X70008Y44900D02*
X70992D01*
X70500Y44408D02*
Y45392D01*
X92576Y20500D02*
X93560D01*
X93068Y20008D02*
Y20992D01*
X92513Y9100D02*
X93497D01*
X93005Y8608D02*
Y9592D01*
X51608Y44700D02*
X52592D01*
X52100Y44208D02*
Y45192D01*
X80702Y9100D02*
X81686D01*
X81194Y8608D02*
Y9592D01*
X54408Y44700D02*
X55392D01*
X54900Y44208D02*
Y45192D01*
X80765Y20500D02*
X81749D01*
X81257Y20008D02*
Y20992D01*
X98482Y20500D02*
X99466D01*
X98974Y20008D02*
Y20992D01*
X98408Y9100D02*
X99392D01*
X98900Y8608D02*
Y9592D01*
X70008Y47500D02*
X70992D01*
X70500Y47008D02*
Y47992D01*
X67508Y47500D02*
X68492D01*
X68000Y47008D02*
Y47992D01*
X15608Y48020D02*
X16592D01*
X16100Y47528D02*
Y48513D01*
X54408Y47200D02*
X55392D01*
X54900Y46708D02*
Y47692D01*
X51608Y47200D02*
X52592D01*
X52100Y46708D02*
Y47692D01*
X122408Y101500D02*
X123392D01*
X122900Y101008D02*
Y101992D01*
X123008Y104600D02*
X123992D01*
X123500Y104108D02*
Y105092D01*
X153200Y105096D02*
X154184D01*
X153692Y104603D02*
Y105588D01*
X187187Y13300D02*
X188172D01*
X187679Y12808D02*
Y13792D01*
X150362Y119745D02*
X151347D01*
X150855Y119253D02*
Y120237D01*
X198708Y63200D02*
X199692D01*
X199200Y62708D02*
Y63692D01*
X217808Y114900D02*
X218792D01*
X218300Y114408D02*
Y115392D01*
X217912Y162357D02*
X218896D01*
X218404Y161865D02*
Y162849D01*
X219582Y160687D02*
X220566D01*
X220074Y160195D02*
Y161179D01*
X221252Y159017D02*
X222237D01*
X221744Y158524D02*
Y159509D01*
X231274Y148995D02*
X232259D01*
X231766Y148502D02*
Y149487D01*
X232945Y147324D02*
X233929D01*
X233437Y146832D02*
Y147816D01*
X241296Y138973D02*
X242281D01*
X241788Y138480D02*
Y139465D01*
X242967Y137302D02*
X243951D01*
X243459Y136810D02*
Y137794D01*
X244637Y135632D02*
X245621D01*
X245129Y135140D02*
Y136124D01*
X246307Y133962D02*
X247291D01*
X246799Y133469D02*
Y134454D01*
X247025Y131711D02*
X248009D01*
X247517Y131219D02*
Y132203D01*
X247025Y129349D02*
X248009D01*
X247517Y128857D02*
Y129841D01*
X247025Y126987D02*
X248009D01*
X247517Y126494D02*
Y127479D01*
X247025Y124624D02*
X248009D01*
X247517Y124132D02*
Y125117D01*
X247025Y117538D02*
X248009D01*
X247517Y117046D02*
Y118030D01*
X247025Y105727D02*
X248009D01*
X247517Y105235D02*
Y106219D01*
X247025Y98640D02*
X248009D01*
X247517Y98148D02*
Y99132D01*
X247025Y86829D02*
X248009D01*
X247517Y86337D02*
Y87321D01*
X246377Y75108D02*
X247362D01*
X246870Y74616D02*
Y75601D01*
X244707Y73438D02*
X245691D01*
X245199Y72946D02*
Y73930D01*
X243037Y71768D02*
X244021D01*
X243529Y71276D02*
Y72260D01*
X241055Y70483D02*
X242039D01*
X241547Y69991D02*
Y70975D01*
X238692Y70483D02*
X239677D01*
X239184Y69991D02*
Y70975D01*
X236330Y70483D02*
X237314D01*
X236822Y69991D02*
Y70975D01*
X233968Y70483D02*
X234952D01*
X234460Y69991D02*
Y70975D01*
X231606Y70483D02*
X232590D01*
X232098Y69991D02*
Y70975D01*
X141587Y53718D02*
X142571D01*
X142079Y53226D02*
Y54210D01*
X140754Y48706D02*
X141738D01*
X141246Y48213D02*
Y49198D01*
X227741Y67317D02*
X228725D01*
X228233Y66825D02*
Y67809D01*
X230103Y67317D02*
X231087D01*
X230595Y66825D02*
Y67809D01*
X232465Y67317D02*
X233449D01*
X232957Y66825D02*
Y67809D01*
X234827Y67317D02*
X235812D01*
X235319Y66825D02*
Y67809D01*
X237190Y67317D02*
X238174D01*
X237682Y66825D02*
Y67809D01*
X239552Y67317D02*
X240536D01*
X240044Y66825D02*
Y67809D01*
X241914Y67317D02*
X242898D01*
X242406Y66825D02*
Y67809D01*
X244057Y68310D02*
X245041D01*
X244549Y67818D02*
Y68802D01*
X245727Y69981D02*
X246712D01*
X246219Y69489D02*
Y70473D01*
X247398Y71651D02*
X248382D01*
X247890Y71159D02*
Y72143D01*
X249068Y73321D02*
X250052D01*
X249560Y72829D02*
Y73813D01*
X250191Y75400D02*
X251175D01*
X250683Y74908D02*
Y75892D01*
X250191Y80124D02*
X251175D01*
X250683Y79632D02*
Y80616D01*
X250191Y82486D02*
X251175D01*
X250683Y81994D02*
Y82978D01*
X250191Y87211D02*
X251175D01*
X250683Y86719D02*
Y87703D01*
X250191Y91935D02*
X251175D01*
X250683Y91443D02*
Y92427D01*
X250191Y94297D02*
X251175D01*
X250683Y93805D02*
Y94789D01*
X250191Y99022D02*
X251175D01*
X250683Y98530D02*
Y99514D01*
X250191Y103746D02*
X251175D01*
X250683Y103254D02*
Y104238D01*
X250191Y106108D02*
X251175D01*
X250683Y105616D02*
Y106600D01*
X250191Y110833D02*
X251175D01*
X250683Y110341D02*
Y111325D01*
X250191Y117919D02*
X251175D01*
X250683Y117427D02*
Y118411D01*
X250191Y122644D02*
X251175D01*
X250683Y122152D02*
Y123136D01*
X250191Y125006D02*
X251175D01*
X250683Y124514D02*
Y125498D01*
X250191Y127368D02*
X251175D01*
X250683Y126876D02*
Y127860D01*
X250191Y129730D02*
X251175D01*
X250683Y129238D02*
Y130222D01*
X250191Y132092D02*
X251175D01*
X250683Y131600D02*
Y132585D01*
X250062Y134451D02*
X251046D01*
X250554Y133959D02*
Y134943D01*
X248512Y136234D02*
X249496D01*
X249004Y135742D02*
Y136726D01*
X246842Y137905D02*
X247826D01*
X247334Y137412D02*
Y138397D01*
X245171Y139575D02*
X246156D01*
X245664Y139083D02*
Y140067D01*
X243501Y141245D02*
X244485D01*
X243993Y140753D02*
Y141737D01*
X241831Y142915D02*
X242815D01*
X242323Y142423D02*
Y143408D01*
X240161Y144586D02*
X241145D01*
X240653Y144094D02*
Y145078D01*
X233479Y151267D02*
X234464D01*
X233971Y150775D02*
Y151759D01*
X231809Y152937D02*
X232793D01*
X232301Y152445D02*
Y153430D01*
X230139Y154608D02*
X231123D01*
X230631Y154116D02*
Y155100D01*
X226798Y157949D02*
X227782D01*
X227290Y157456D02*
Y158441D01*
X225128Y159619D02*
X226112D01*
X225620Y159127D02*
Y160111D01*
X223457Y161289D02*
X224442D01*
X223949Y160797D02*
Y161781D01*
X221787Y162960D02*
X222771D01*
X222279Y162467D02*
Y163452D01*
X220117Y164630D02*
X221101D01*
X220609Y164138D02*
Y165122D01*
X218446Y166300D02*
X219430D01*
X218938Y165808D02*
Y166792D01*
X192108Y91400D02*
X193092D01*
X192600Y90908D02*
Y91892D01*
X214708Y92800D02*
X215692D01*
X215200Y92308D02*
Y93292D01*
X211708Y88600D02*
X212692D01*
X212200Y88108D02*
Y89092D01*
X199349Y95809D02*
X200333D01*
X199841Y95317D02*
Y96302D01*
X195957Y102793D02*
X196941D01*
X196449Y102301D02*
Y103285D01*
X192776Y109989D02*
X193760D01*
X193268Y109497D02*
Y110482D01*
X196105Y95861D02*
X197089D01*
X196597Y95369D02*
Y96353D01*
X199379Y92586D02*
X200364D01*
X199872Y92094D02*
Y93078D01*
X199403Y89881D02*
X200387D01*
X199895Y89389D02*
Y90373D01*
X199308Y102200D02*
X200292D01*
X199800Y101708D02*
Y102692D01*
X196217Y99533D02*
X197201D01*
X196709Y99041D02*
Y100025D01*
X199608Y99600D02*
X200592D01*
X200100Y99108D02*
Y100092D01*
X183099Y168109D02*
X184083D01*
X183591Y167616D02*
Y168601D01*
X93508Y165045D02*
X94492D01*
X94000Y164553D02*
Y165537D01*
X89908Y165045D02*
X90892D01*
X90400Y164553D02*
Y165537D01*
X176861Y165045D02*
X177846D01*
X177353Y164553D02*
Y165537D01*
X170761Y165045D02*
X171746D01*
X171253Y164553D02*
Y165537D01*
X164761Y165045D02*
X165745D01*
X165253Y164553D02*
Y165537D01*
X152961Y165045D02*
X153946D01*
X153453Y164553D02*
Y165537D01*
X147061Y165045D02*
X148046D01*
X147553Y164553D02*
Y165537D01*
X6208Y115600D02*
X7192D01*
X6700Y115108D02*
Y116092D01*
X16208Y114400D02*
X17192D01*
X16700Y113908D02*
Y114892D01*
X71208Y123300D02*
X72192D01*
X71700Y122808D02*
Y123792D01*
X77708Y120600D02*
X78692D01*
X78200Y120108D02*
Y121092D01*
X187408Y148100D02*
X188392D01*
X187900Y147608D02*
Y148592D01*
X179408Y148900D02*
X180392D01*
X179900Y148408D02*
Y149392D01*
X183008Y150212D02*
X183992D01*
X183500Y149720D02*
Y150704D01*
X126608Y78000D02*
X127592D01*
X127100Y77508D02*
Y78492D01*
X122855Y81830D02*
X123839D01*
X123347Y81338D02*
Y82322D01*
X126808Y81600D02*
X127792D01*
X127300Y81108D02*
Y82092D01*
X131108Y81600D02*
X132092D01*
X131600Y81108D02*
Y82092D01*
X85008Y160100D02*
X85992D01*
X85500Y159608D02*
Y160592D01*
X84933Y163317D02*
X85917D01*
X85425Y162825D02*
Y163809D01*
X84933Y166860D02*
X85917D01*
X85425Y166368D02*
Y167353D01*
X80308Y145700D02*
X81292D01*
X80800Y145208D02*
Y146192D01*
X78083Y166868D02*
X79067D01*
X78575Y166376D02*
Y167360D01*
X78083Y163324D02*
X79067D01*
X78575Y162832D02*
Y163816D01*
X78083Y160175D02*
X79067D01*
X78575Y159683D02*
Y160667D01*
X154908Y77400D02*
X155892D01*
X155400Y76908D02*
Y77892D01*
X218661Y44049D02*
X219646D01*
X219153Y43557D02*
Y44541D01*
X184861Y43049D02*
X185845D01*
X185353Y42557D02*
Y43541D01*
X181108Y43000D02*
X182092D01*
X181600Y42508D02*
Y43492D01*
X177508Y42700D02*
X178492D01*
X178000Y42208D02*
Y43192D01*
X212008Y50800D02*
X212992D01*
X212500Y50308D02*
Y51292D01*
X55677Y115667D02*
X56661D01*
X56169Y115174D02*
Y116159D01*
X86608Y83000D02*
X87592D01*
X87100Y82508D02*
Y83492D01*
X82008Y75600D02*
X82992D01*
X82500Y75108D02*
Y76092D01*
X80308Y75600D02*
X81292D01*
X80800Y75108D02*
Y76092D01*
X190218Y43089D02*
X191203D01*
X190710Y42597D02*
Y43581D01*
X196808Y43100D02*
X197792D01*
X197300Y42608D02*
Y43592D01*
X154779Y74471D02*
X155763D01*
X155271Y73979D02*
Y74963D01*
X150414Y66082D02*
X151398D01*
X150906Y65590D02*
Y66574D01*
X146477Y70019D02*
X147461D01*
X146969Y69527D02*
Y70511D01*
X154351Y66247D02*
X155335D01*
X154843Y65755D02*
Y66739D01*
X154288Y70019D02*
X155272D01*
X154780Y69527D02*
Y70511D01*
X142477Y85767D02*
X143461D01*
X142969Y85275D02*
Y86259D01*
X142477Y81830D02*
X143461D01*
X142969Y81338D02*
Y82322D01*
X214508Y48300D02*
X215492D01*
X215000Y47808D02*
Y48792D01*
X220108Y47300D02*
X221092D01*
X220600Y46808D02*
Y47792D01*
X138540Y93641D02*
X139524D01*
X139032Y93149D02*
Y94133D01*
X222136Y156351D02*
X223120D01*
X222628Y155859D02*
Y156843D01*
X214508Y168000D02*
X215492D01*
X215000Y167508D02*
Y168492D01*
X212708Y165000D02*
X213692D01*
X213200Y164508D02*
Y165492D01*
X201408Y61600D02*
X202392D01*
X201900Y61108D02*
Y62092D01*
X196808Y46881D02*
X197792D01*
X197300Y46389D02*
Y47373D01*
X93308Y138000D02*
X94292D01*
X93800Y137508D02*
Y138492D01*
X102776Y150400D02*
X103760D01*
X103268Y149908D02*
Y150892D01*
X106713Y150496D02*
X107697D01*
X107205Y150004D02*
Y150988D01*
X100808Y150400D02*
X101792D01*
X101300Y149908D02*
Y150892D01*
X98808Y150700D02*
X99792D01*
X99300Y150208D02*
Y151192D01*
X108682Y150400D02*
X109666D01*
X109174Y149908D02*
Y150892D01*
X140160Y158090D02*
X141144D01*
X140652Y157598D02*
Y158582D01*
X116476Y157945D02*
X117460D01*
X116968Y157453D02*
Y158437D01*
X134193Y157945D02*
X135177D01*
X134685Y157453D02*
Y158437D01*
X105936Y158079D02*
X106920D01*
X106428Y157587D02*
Y158571D01*
X110571Y157945D02*
X111555D01*
X111063Y157453D02*
Y158437D01*
X122371Y157845D02*
X123355D01*
X122863Y157353D02*
Y158337D01*
X128287Y157945D02*
X129271D01*
X128779Y157453D02*
Y158437D01*
X143008Y109628D02*
X143992D01*
X143500Y109136D02*
Y110120D01*
X146008Y150600D02*
X146992D01*
X146500Y150108D02*
Y151092D01*
X142198Y150348D02*
X143182D01*
X142690Y149856D02*
Y150840D01*
X144115Y150400D02*
X145099D01*
X144607Y149908D02*
Y150892D01*
X138209Y150400D02*
X139193D01*
X138701Y149908D02*
Y150892D01*
X146108Y77600D02*
X147092D01*
X146600Y77108D02*
Y78092D01*
X146414Y73956D02*
X147398D01*
X146906Y73464D02*
Y74448D01*
X146477Y81830D02*
X147461D01*
X146969Y81338D02*
Y82322D01*
X150565Y74394D02*
X151549D01*
X151057Y73902D02*
Y74886D01*
X210608Y56900D02*
X211592D01*
X211100Y56408D02*
Y57392D01*
X214508Y53000D02*
X215492D01*
X215000Y52508D02*
Y53492D01*
X212708Y54900D02*
X213692D01*
X213200Y54408D02*
Y55392D01*
X97369Y96239D02*
X98353D01*
X97861Y95747D02*
Y96731D01*
X130511Y117545D02*
X131495D01*
X131003Y117053D02*
Y118038D01*
X127037Y114071D02*
X128021D01*
X127529Y113579D02*
Y114563D01*
X134208Y121300D02*
X135192D01*
X134700Y120808D02*
Y121792D01*
X130942Y112892D02*
X131927D01*
X131434Y112400D02*
Y113384D01*
X127479Y109429D02*
X128463D01*
X127971Y108937D02*
Y109921D01*
X148079Y134429D02*
X149063D01*
X148571Y133937D02*
Y134921D01*
X162508Y89500D02*
X163492D01*
X163000Y89008D02*
Y89992D01*
X211486Y106880D02*
X212470D01*
X211978Y106387D02*
Y107372D01*
X215259Y99088D02*
X216243D01*
X215751Y98596D02*
Y99580D01*
X199767Y76401D02*
X200751D01*
X200259Y75909D02*
Y76893D01*
X192787Y122791D02*
X193771D01*
X193279Y122298D02*
Y123283D01*
X158408Y107400D02*
X159392D01*
X158900Y106908D02*
Y107892D01*
X154814Y105893D02*
X155798D01*
X155306Y105401D02*
Y106386D01*
X162196Y107430D02*
X163180D01*
X162688Y106938D02*
Y107922D01*
X161940Y93158D02*
X162924D01*
X162432Y92666D02*
Y93650D01*
X150228Y97805D02*
X151212D01*
X150720Y97313D02*
Y98297D01*
X154314Y93691D02*
X155298D01*
X154806Y93198D02*
Y94183D01*
X158371Y93642D02*
X159355D01*
X158863Y93150D02*
Y94134D01*
X158371Y101400D02*
X159355D01*
X158863Y100908D02*
Y101892D01*
X134801Y113049D02*
X135785D01*
X135293Y112557D02*
Y113541D01*
X158045Y112709D02*
X159029D01*
X158537Y112217D02*
Y113201D01*
X192308Y84099D02*
X193292D01*
X192800Y83607D02*
Y84591D01*
X196308Y80300D02*
X197292D01*
X196800Y79808D02*
Y80792D01*
X203208Y78300D02*
X204192D01*
X203700Y77808D02*
Y78792D01*
X202608Y80500D02*
X203592D01*
X203100Y80008D02*
Y80992D01*
X192979Y113309D02*
X193963D01*
X193471Y112817D02*
Y113802D01*
X199757Y105050D02*
X200742D01*
X200249Y104558D02*
Y105542D01*
X199408Y115100D02*
X200392D01*
X199900Y114608D02*
Y115592D01*
X137108Y101300D02*
X138092D01*
X137600Y100808D02*
Y101792D01*
X149808Y101309D02*
X150792D01*
X150300Y100817D02*
Y101802D01*
X146302Y97817D02*
X147287D01*
X146795Y97325D02*
Y98309D01*
X211998Y80132D02*
X212982D01*
X212490Y79640D02*
Y80624D01*
X142929Y108021D02*
X143913D01*
X143421Y107529D02*
Y108513D01*
X146302Y105691D02*
X147287D01*
X146795Y105199D02*
Y106183D01*
X212001Y86428D02*
X212986D01*
X212493Y85936D02*
Y86920D01*
X142329Y117021D02*
X143313D01*
X142821Y116529D02*
Y117513D01*
X138598Y113091D02*
X139583D01*
X139090Y112598D02*
Y113583D01*
X199524Y112126D02*
X200508D01*
X200016Y111634D02*
Y112618D01*
X202587Y102245D02*
X203571D01*
X203079Y101753D02*
Y102737D01*
X131011Y108946D02*
X131996D01*
X131504Y108454D02*
Y109438D01*
X142623Y101400D02*
X143607D01*
X143115Y100908D02*
Y101892D01*
X159908Y89600D02*
X160892D01*
X160400Y89108D02*
Y90092D01*
X146880Y129191D02*
X147864D01*
X147372Y128698D02*
Y129683D01*
X138360Y117006D02*
X139344D01*
X138852Y116514D02*
Y117498D01*
X146608Y113100D02*
X147592D01*
X147100Y112608D02*
Y113592D01*
X150556Y124893D02*
X151540D01*
X151048Y124401D02*
Y125385D01*
X142297Y124623D02*
X143281D01*
X142789Y124131D02*
Y125115D01*
X142828Y128378D02*
X143813D01*
X143320Y127886D02*
Y128870D01*
X147308Y133000D02*
X148292D01*
X147800Y132508D02*
Y133492D01*
X142343Y120686D02*
X143327D01*
X142835Y120194D02*
Y121178D01*
X150240Y105609D02*
X151224D01*
X150732Y105117D02*
Y106102D01*
X160408Y129590D02*
X161392D01*
X160900Y129098D02*
Y130083D01*
X146560Y101400D02*
X147544D01*
X147052Y100908D02*
Y101892D01*
X212136Y122010D02*
X213121D01*
X212629Y121518D02*
Y122502D01*
X211908Y120400D02*
X212892D01*
X212400Y119908D02*
Y120893D01*
X216753Y127944D02*
X217737D01*
X217245Y127452D02*
Y128436D01*
X211749Y113234D02*
X212734D01*
X212242Y112742D02*
Y113726D01*
X202587Y117993D02*
X203571D01*
X203079Y117501D02*
Y118485D01*
X199129Y123532D02*
X200113D01*
X199621Y123040D02*
Y124024D01*
X215408Y104700D02*
X216392D01*
X215900Y104208D02*
Y105192D01*
X215505Y111349D02*
X216490D01*
X215997Y110857D02*
Y111842D01*
X228408Y149800D02*
X229392D01*
X228900Y149308D02*
Y150292D01*
X218408Y99100D02*
X219392D01*
X218900Y98608D02*
Y99592D01*
X142608Y118500D02*
X143592D01*
X143100Y118008D02*
Y118992D01*
X212001Y95877D02*
X212986D01*
X212493Y95385D02*
Y96369D01*
X158298Y85767D02*
X159283D01*
X158790Y85275D02*
Y86259D01*
X157208Y89600D02*
X158192D01*
X157700Y89108D02*
Y90092D01*
X122350Y132858D02*
X123335D01*
X122843Y132366D02*
Y133350D01*
X122320Y130700D02*
X123304D01*
X122812Y130208D02*
Y131192D01*
X99471Y121000D02*
X100455D01*
X99963Y120508D02*
Y121492D01*
X119508Y101009D02*
X120492D01*
X120000Y100517D02*
Y101502D01*
X119327Y105077D02*
X120311D01*
X119819Y104585D02*
Y105569D01*
X119585Y120929D02*
X120569D01*
X120077Y120437D02*
Y121421D01*
X119506Y124802D02*
X120490D01*
X119998Y124310D02*
Y125294D01*
X119508Y117100D02*
X120492D01*
X120000Y116608D02*
Y117592D01*
X122320Y113235D02*
X123304D01*
X122812Y112743D02*
Y113727D01*
X122320Y117500D02*
X123304D01*
X122812Y117008D02*
Y117992D01*
X122320Y108800D02*
X123304D01*
X122812Y108308D02*
Y109292D01*
X138308Y120400D02*
X139292D01*
X138800Y119908D02*
Y120892D01*
X199403Y86428D02*
X200387D01*
X199895Y85936D02*
Y86920D01*
X155508Y124853D02*
X156492D01*
X156000Y124361D02*
Y125345D01*
X158045Y124853D02*
X159029D01*
X158537Y124361D02*
Y125345D01*
X211508Y110100D02*
X212492D01*
X212000Y109608D02*
Y110592D01*
X211508Y103785D02*
X212492D01*
X212000Y103293D02*
Y104277D01*
X145908Y89600D02*
X146892D01*
X146400Y89108D02*
Y90092D01*
X147740Y89775D02*
X148724D01*
X148232Y89283D02*
Y90267D01*
X146608Y93909D02*
X147592D01*
X147100Y93417D02*
Y94402D01*
X222608Y2800D02*
X223592D01*
X223100Y2308D02*
Y3292D01*
X170408Y12700D02*
X171392D01*
X170900Y12208D02*
Y13192D01*
X167508Y12700D02*
X168492D01*
X168000Y12208D02*
Y13192D01*
X98823Y169445D02*
X99807D01*
X99315Y168953D02*
Y169937D01*
X150208Y85100D02*
X151192D01*
X150700Y84608D02*
Y85592D01*
X150414Y93691D02*
X151398D01*
X150906Y93198D02*
Y94183D01*
X194908Y149400D02*
X195892D01*
X195400Y148908D02*
Y149892D01*
X110708Y105200D02*
X111692D01*
X111200Y104708D02*
Y105692D01*
X196708Y149400D02*
X197692D01*
X197200Y148908D02*
Y149892D01*
X114908Y105700D02*
X115892D01*
X115400Y105208D02*
Y106192D01*
X200802Y149400D02*
X201786D01*
X201294Y148908D02*
Y149892D01*
X202771Y149400D02*
X203755D01*
X203263Y148908D02*
Y149892D01*
X115108Y102400D02*
X116092D01*
X115600Y101908D02*
Y102892D01*
X214587Y149400D02*
X215571D01*
X215079Y148908D02*
Y149892D01*
X212619Y149400D02*
X213603D01*
X213111Y148908D02*
Y149892D01*
X208708Y149400D02*
X209692D01*
X209200Y148908D02*
Y149892D01*
X134908Y90600D02*
X135892D01*
X135400Y90108D02*
Y91092D01*
X206708Y149400D02*
X207692D01*
X207200Y148908D02*
Y149892D01*
X142718Y94000D02*
X143702D01*
X143210Y93508D02*
Y94492D01*
X142718Y105117D02*
X143702D01*
X143210Y104625D02*
Y105610D01*
X143131Y89434D02*
X144115D01*
X143623Y88942D02*
Y89926D01*
X142608Y91800D02*
X143592D01*
X143100Y91308D02*
Y92292D01*
X127132Y85084D02*
X128116D01*
X127624Y84592D02*
Y85576D01*
X123008Y87265D02*
X123992D01*
X123500Y86773D02*
Y87757D01*
X134808Y97900D02*
X135792D01*
X135300Y97408D02*
Y98392D01*
X127517Y104608D02*
X128501D01*
X128009Y104116D02*
Y105100D01*
X119117Y93805D02*
X120101D01*
X119609Y93313D02*
Y94297D01*
X135064Y93277D02*
X136048D01*
X135556Y92785D02*
Y93769D01*
X123195Y89763D02*
X124179D01*
X123687Y89271D02*
Y90255D01*
X115651Y109321D02*
X116635D01*
X116143Y108828D02*
Y109813D01*
X111608Y93500D02*
X112592D01*
X112100Y93008D02*
Y93992D01*
X111005Y109793D02*
X111989D01*
X111497Y109301D02*
Y110285D01*
X86564Y110256D02*
X87548D01*
X87056Y109764D02*
Y110749D01*
X90008Y106400D02*
X90992D01*
X90500Y105908D02*
Y106892D01*
X81517Y109000D02*
X82501D01*
X82009Y108508D02*
Y109492D01*
X88908Y107400D02*
X89892D01*
X89400Y106908D02*
Y107892D01*
X91408Y113700D02*
X92392D01*
X91900Y113208D02*
Y114192D01*
X98908Y106300D02*
X99892D01*
X99400Y105808D02*
Y106792D01*
X90010Y101400D02*
X90994D01*
X90502Y100908D02*
Y101892D01*
X62551Y106043D02*
X63535D01*
X63043Y105551D02*
Y106536D01*
X65188Y106632D02*
X66173D01*
X65680Y106140D02*
Y107124D01*
X119053Y109288D02*
X120038D01*
X119546Y108796D02*
Y109780D01*
X230708Y82529D02*
X231692D01*
X231200Y82036D02*
Y83021D01*
X230708Y74586D02*
X231692D01*
X231200Y74094D02*
Y75078D01*
X230708Y78557D02*
X231692D01*
X231200Y78065D02*
Y79049D01*
X32908Y99659D02*
X33892D01*
X33400Y99167D02*
Y100152D01*
X222493Y168000D02*
X223477D01*
X222985Y167508D02*
Y168492D01*
X220097Y128083D02*
X221082D01*
X220590Y127591D02*
Y128576D01*
X222055Y122690D02*
X223040D01*
X222547Y122198D02*
Y123182D01*
X210613Y174600D02*
X211597D01*
X211105Y174108D02*
Y175092D01*
X198871Y168000D02*
X199855D01*
X199363Y167508D02*
Y168492D01*
X210619Y156645D02*
X211603D01*
X211111Y156153D02*
Y157137D01*
X198808Y156645D02*
X199792D01*
X199300Y156153D02*
Y157137D01*
X222055Y110092D02*
X223040D01*
X222547Y109599D02*
Y110584D01*
X222055Y106942D02*
X223040D01*
X222547Y106450D02*
Y107434D01*
X223008Y101800D02*
X223992D01*
X223500Y101308D02*
Y102292D01*
X215308Y108300D02*
X216292D01*
X215800Y107808D02*
Y108792D01*
X187065Y174835D02*
X188049D01*
X187557Y174343D02*
Y175327D01*
X128361Y169445D02*
X129346D01*
X128853Y168953D02*
Y169937D01*
X140161Y169445D02*
X141146D01*
X140653Y168953D02*
Y169937D01*
X127190Y124793D02*
X128174D01*
X127682Y124301D02*
Y125285D01*
X134661Y105049D02*
X135645D01*
X135153Y104557D02*
Y105541D01*
X222708Y91100D02*
X223692D01*
X223200Y90608D02*
Y91592D01*
X229208Y89000D02*
X230192D01*
X229700Y88508D02*
Y89492D01*
X222055Y84895D02*
X223040D01*
X222547Y84403D02*
Y85387D01*
X222055Y78596D02*
X223040D01*
X222547Y78104D02*
Y79088D01*
X221108Y60800D02*
X222092D01*
X221600Y60308D02*
Y61292D01*
X214608Y57400D02*
X215592D01*
X215100Y56908D02*
Y57892D01*
X209908Y52900D02*
X210892D01*
X210400Y52408D02*
Y53392D01*
X222609Y20455D02*
X223593D01*
X223101Y19963D02*
Y20947D01*
X210798Y20455D02*
X211783D01*
X211290Y19963D02*
Y20947D01*
X207508Y55300D02*
X208492D01*
X208000Y54808D02*
Y55792D01*
X205508Y57300D02*
X206492D01*
X206000Y56808D02*
Y57792D01*
X203308Y42300D02*
X204292D01*
X203800Y41808D02*
Y42792D01*
X198987Y20455D02*
X199971D01*
X199479Y19963D02*
Y20947D01*
X154288Y89704D02*
X155272D01*
X154780Y89212D02*
Y90196D01*
X138708Y82400D02*
X139692D01*
X139200Y81908D02*
Y82892D01*
X132308Y93600D02*
X133292D01*
X132800Y93108D02*
Y94092D01*
X127108Y90200D02*
X128092D01*
X127600Y89708D02*
Y90692D01*
X125415Y89693D02*
X126399D01*
X125907Y89201D02*
Y90185D01*
X143008Y48500D02*
X143992D01*
X143500Y48008D02*
Y48992D01*
X143008Y50119D02*
X143992D01*
X143500Y49627D02*
Y50611D01*
X139308Y10600D02*
X140292D01*
X139800Y10108D02*
Y11092D01*
X144308Y10600D02*
X145292D01*
X144800Y10108D02*
Y11092D01*
X144308Y4300D02*
X145292D01*
X144800Y3808D02*
Y4792D01*
X139308Y4300D02*
X140292D01*
X139800Y3808D02*
Y4792D01*
X134603Y70019D02*
X135587D01*
X135095Y69527D02*
Y70511D01*
X134808Y57800D02*
X135792D01*
X135300Y57308D02*
Y58292D01*
X127991Y57800D02*
X128975D01*
X128483Y57308D02*
Y58292D01*
X129008Y56300D02*
X129992D01*
X129500Y55808D02*
Y56792D01*
X136408Y57800D02*
X137392D01*
X136900Y57308D02*
Y58292D01*
X122104Y20500D02*
X123088D01*
X122596Y20008D02*
Y20992D01*
X122041Y9100D02*
X123025D01*
X122533Y8608D02*
Y9592D01*
X116539Y169445D02*
X117523D01*
X117031Y168953D02*
Y169937D01*
X104728Y169445D02*
X105712D01*
X105220Y168953D02*
Y169937D01*
X99408Y128600D02*
X100392D01*
X99900Y128108D02*
Y129092D01*
X115308Y120600D02*
X116292D01*
X115800Y120108D02*
Y121092D01*
X95008Y126700D02*
X95992D01*
X95500Y126208D02*
Y127192D01*
X93108Y126700D02*
X94092D01*
X93600Y126208D02*
Y127192D01*
X71208Y150900D02*
X72192D01*
X71700Y150408D02*
Y151392D01*
X63008Y151000D02*
X63992D01*
X63500Y150508D02*
Y151492D01*
X80308Y143800D02*
X81292D01*
X80800Y143308D02*
Y144292D01*
X61014Y143166D02*
X61999D01*
X61507Y142673D02*
Y143658D01*
X57314Y143166D02*
X58299D01*
X57807Y142673D02*
Y143658D01*
X80198Y133500D02*
X81182D01*
X80690Y133008D02*
Y133992D01*
X103568Y116899D02*
X104552D01*
X104060Y116407D02*
Y117391D01*
X111308Y90400D02*
X112292D01*
X111800Y89908D02*
Y90892D01*
X108808Y105200D02*
X109792D01*
X109300Y104708D02*
Y105692D01*
X80308Y120200D02*
X81292D01*
X80800Y119708D02*
Y120692D01*
X72808Y114400D02*
X73792D01*
X73300Y113908D02*
Y114892D01*
X88108Y96500D02*
X89092D01*
X88600Y96008D02*
Y96992D01*
X74108Y92500D02*
X75092D01*
X74600Y92008D02*
Y92992D01*
X71008Y96500D02*
X71992D01*
X71500Y96008D02*
Y96992D01*
X74108Y96500D02*
X75092D01*
X74600Y96008D02*
Y96992D01*
X74108Y94500D02*
X75092D01*
X74600Y94008D02*
Y94992D01*
X71008Y94500D02*
X71992D01*
X71500Y94008D02*
Y94992D01*
X71008Y92500D02*
X71992D01*
X71500Y92008D02*
Y92992D01*
X56708Y151100D02*
X57692D01*
X57200Y150608D02*
Y151592D01*
X51408Y161500D02*
X52392D01*
X51900Y161008D02*
Y161992D01*
X53614Y143166D02*
X54599D01*
X54107Y142673D02*
Y143658D01*
X43783Y145817D02*
X44767D01*
X44275Y145324D02*
Y146309D01*
X49915Y143166D02*
X50899D01*
X50407Y142673D02*
Y143658D01*
X44308Y127500D02*
X45292D01*
X44800Y127008D02*
Y127992D01*
X43783Y135974D02*
X44767D01*
X44275Y135482D02*
Y136466D01*
X43762Y141858D02*
X44746D01*
X44254Y141366D02*
Y142350D01*
X37208Y149300D02*
X38192D01*
X37700Y148808D02*
Y149792D01*
X35508Y137900D02*
X36492D01*
X36000Y137408D02*
Y138392D01*
X43783Y118257D02*
X44767D01*
X44275Y117765D02*
Y118749D01*
X52577Y115667D02*
X53562D01*
X53069Y115174D02*
Y116159D01*
X46577Y115667D02*
X47561D01*
X47069Y115174D02*
Y116159D01*
X49577Y115667D02*
X50561D01*
X50069Y115174D02*
Y116159D01*
X54747Y90200D02*
X55731D01*
X55239Y89708D02*
Y90692D01*
X41920Y114178D02*
X42904D01*
X42412Y113686D02*
Y114670D01*
X41008Y92300D02*
X41992D01*
X41500Y91808D02*
Y92792D01*
X21408Y113000D02*
X22392D01*
X21900Y112508D02*
Y113492D01*
X19508Y113000D02*
X20492D01*
X20000Y112508D02*
Y113492D01*
X22008Y108800D02*
X22992D01*
X22500Y108308D02*
Y109292D01*
X37708Y100900D02*
X38692D01*
X38200Y100408D02*
Y101392D01*
X36508Y93800D02*
X37492D01*
X37000Y93308D02*
Y94292D01*
X7808Y104000D02*
X8792D01*
X8300Y103508D02*
Y104492D01*
X35008Y100800D02*
X35992D01*
X35500Y100308D02*
Y101292D01*
X26808Y90466D02*
X27792D01*
X27300Y89974D02*
Y90958D01*
X103308Y86500D02*
X104292D01*
X103800Y86008D02*
Y86992D01*
X95008Y88000D02*
X95992D01*
X95500Y87508D02*
Y88492D01*
X99408Y87589D02*
X100392D01*
X99900Y87097D02*
Y88081D01*
X115208Y77000D02*
X116192D01*
X115700Y76508D02*
Y77492D01*
X115163Y70234D02*
X116147D01*
X115655Y69742D02*
Y70726D01*
X92508Y88000D02*
X93492D01*
X93000Y87508D02*
Y88492D01*
X90008Y88000D02*
X90992D01*
X90500Y87508D02*
Y88492D01*
X75560Y86120D02*
X76545D01*
X76053Y85628D02*
Y86612D01*
X54747Y88334D02*
X55731D01*
X55239Y87842D02*
Y88826D01*
X60575Y79732D02*
X61560D01*
X61067Y79240D02*
Y80224D01*
X54747Y86355D02*
X55731D01*
X55239Y85862D02*
Y86847D01*
X90985Y71000D02*
X91969D01*
X91477Y70508D02*
Y71492D01*
X92508Y71000D02*
X93492D01*
X93000Y70508D02*
Y71492D01*
X66908Y68600D02*
X67892D01*
X67400Y68108D02*
Y69092D01*
X110308Y27300D02*
X111292D01*
X110800Y26808D02*
Y27792D01*
X110230Y9100D02*
X111214D01*
X110722Y8608D02*
Y9592D01*
X80608Y65000D02*
X81592D01*
X81100Y64508D02*
Y65492D01*
X66808Y65900D02*
X67792D01*
X67300Y65408D02*
Y66392D01*
X66708Y63100D02*
X67692D01*
X67200Y62608D02*
Y63592D01*
X63908Y67300D02*
X64892D01*
X64400Y66808D02*
Y67792D01*
X58508Y57200D02*
X59492D01*
X59000Y56708D02*
Y57692D01*
X61675Y51232D02*
X62660D01*
X62168Y50740D02*
Y51724D01*
X26808Y88600D02*
X27792D01*
X27300Y88108D02*
Y89092D01*
X26808Y86620D02*
X27792D01*
X27300Y86128D02*
Y87112D01*
X17308Y80500D02*
X18292D01*
X17800Y80008D02*
Y80992D01*
X10408Y80291D02*
X11392D01*
X10900Y79799D02*
Y80783D01*
X25008Y78600D02*
X25992D01*
X25500Y78108D02*
Y79092D01*
X26161Y76900D02*
X27145D01*
X26653Y76408D02*
Y77392D01*
X41308Y50100D02*
X42292D01*
X41800Y49608D02*
Y50592D01*
X25308Y56400D02*
X26292D01*
X25800Y55908D02*
Y56892D01*
X16908Y56000D02*
X17892D01*
X17400Y55508D02*
Y56492D01*
X15608Y50000D02*
X16592D01*
X16100Y49508D02*
Y50492D01*
X15608Y51866D02*
X16592D01*
X16100Y51374D02*
Y52358D01*
X79108Y68400D02*
X80092D01*
X79600Y67908D02*
Y68892D01*
X88828Y124134D02*
X89812D01*
X89320Y123642D02*
Y124627D01*
X216587Y168000D02*
X217571D01*
X217079Y167508D02*
Y168492D01*
X216524Y156645D02*
X217509D01*
X217016Y156153D02*
Y157137D01*
X204750Y168000D02*
X205734D01*
X205242Y167508D02*
Y168492D01*
X192939Y168000D02*
X193923D01*
X193431Y167508D02*
Y168492D01*
X179508Y172900D02*
X180492D01*
X180000Y172408D02*
Y173392D01*
X199208Y159900D02*
X200192D01*
X199700Y159408D02*
Y160392D01*
X196608Y160000D02*
X197592D01*
X197100Y159508D02*
Y160492D01*
X192902Y156645D02*
X193886D01*
X193394Y156153D02*
Y157137D01*
X162162Y85767D02*
X163146D01*
X162654Y85275D02*
Y86259D01*
X134256Y169445D02*
X135240D01*
X134748Y168953D02*
Y169937D01*
X138540Y77893D02*
X139524D01*
X139032Y77401D02*
Y78385D01*
X134603Y81830D02*
X135587D01*
X135095Y81338D02*
Y82322D01*
X123195Y74015D02*
X124179D01*
X123687Y73522D02*
Y74507D01*
X221661Y57300D02*
X222645D01*
X222153Y56808D02*
Y57792D01*
X193208Y27400D02*
X194192D01*
X193700Y26908D02*
Y27892D01*
X228515Y20455D02*
X229499D01*
X229007Y19963D02*
Y20947D01*
X228478Y12610D02*
X229462D01*
X228970Y12118D02*
Y13102D01*
X216704Y20455D02*
X217688D01*
X217196Y19963D02*
Y20947D01*
X204904Y20555D02*
X205888D01*
X205396Y20063D02*
Y21047D01*
X204908Y13890D02*
X205892D01*
X205400Y13398D02*
Y14382D01*
X193093Y13300D02*
X194077D01*
X193585Y12808D02*
Y13792D01*
X146497Y43893D02*
X147481D01*
X146989Y43400D02*
Y44385D01*
X144708Y44300D02*
X145692D01*
X145200Y43808D02*
Y44792D01*
X141639Y43827D02*
X142623D01*
X142131Y43334D02*
Y44319D01*
X123008Y65400D02*
X123992D01*
X123500Y64908D02*
Y65892D01*
X133408Y50300D02*
X134392D01*
X133900Y49808D02*
Y50792D01*
X133408Y46800D02*
X134392D01*
X133900Y46308D02*
Y47292D01*
X123008Y57800D02*
X123992D01*
X123500Y57308D02*
Y58292D01*
X142751Y41774D02*
X143736D01*
X143244Y41282D02*
Y42266D01*
X161108Y29300D02*
X162092D01*
X161600Y28808D02*
Y29792D01*
X142751Y38274D02*
X143736D01*
X143244Y37782D02*
Y38766D01*
X140708Y41800D02*
X141692D01*
X141200Y41308D02*
Y42292D01*
X138308Y43700D02*
X139292D01*
X138800Y43208D02*
Y44192D01*
X141908Y40100D02*
X142892D01*
X142400Y39608D02*
Y40592D01*
X162408Y27800D02*
X163392D01*
X162900Y27308D02*
Y28292D01*
X136008Y43700D02*
X136992D01*
X136500Y43208D02*
Y44192D01*
X128009Y20500D02*
X128993D01*
X128501Y20008D02*
Y20992D01*
X127946Y9100D02*
X128930D01*
X128438Y8608D02*
Y9592D01*
X122456Y169445D02*
X123440D01*
X122948Y168953D02*
Y169937D01*
X110634Y169445D02*
X111618D01*
X111126Y168953D02*
Y169937D01*
X111108Y112500D02*
X112092D01*
X111600Y112008D02*
Y112992D01*
X80198Y130047D02*
X81182D01*
X80690Y129555D02*
Y130539D01*
X74808Y151100D02*
X75792D01*
X75300Y150608D02*
Y151592D01*
X56908Y132700D02*
X57892D01*
X57400Y132208D02*
Y133192D01*
X34249Y155896D02*
X35233D01*
X34741Y155404D02*
Y156388D01*
X53108Y151100D02*
X54092D01*
X53600Y150608D02*
Y151592D01*
X74808Y114600D02*
X75792D01*
X75300Y114108D02*
Y115092D01*
X68708Y115500D02*
X69692D01*
X69200Y115008D02*
Y115992D01*
X66308Y115800D02*
X67292D01*
X66800Y115308D02*
Y116292D01*
X56908Y126400D02*
X57892D01*
X57400Y125908D02*
Y126892D01*
X63008Y114500D02*
X63992D01*
X63500Y114008D02*
Y114992D01*
X116208Y27300D02*
X117192D01*
X116700Y26808D02*
Y27792D01*
X103510Y93700D02*
X104494D01*
X104002Y93208D02*
Y94192D01*
X97084Y83100D02*
X98068D01*
X97576Y82608D02*
Y83592D01*
X116135Y9100D02*
X117120D01*
X116627Y8608D02*
Y9592D01*
X109008Y17400D02*
X109992D01*
X109500Y16908D02*
Y17892D01*
X104313Y9100D02*
X105297D01*
X104805Y8608D02*
Y9592D01*
X77008Y68400D02*
X77992D01*
X77500Y67908D02*
Y68892D01*
X71942Y85966D02*
X72926D01*
X72434Y85474D02*
Y86458D01*
X75608Y63300D02*
X76592D01*
X76100Y62808D02*
Y63792D01*
X75608Y61900D02*
X76592D01*
X76100Y61408D02*
Y62392D01*
X71908Y51700D02*
X72892D01*
X72400Y51208D02*
Y52192D01*
X71908Y50000D02*
X72892D01*
X72400Y49508D02*
Y50492D01*
X209108Y165000D02*
X210092D01*
X209600Y164508D02*
Y165492D01*
X210808Y163500D02*
X211792D01*
X211300Y163008D02*
Y163992D01*
X127132Y93700D02*
X128116D01*
X127624Y93208D02*
Y94192D01*
X85452Y94921D02*
X86436D01*
X85944Y94429D02*
Y95413D01*
X83152Y94921D02*
X84136D01*
X83644Y94429D02*
Y95413D01*
X95208Y90200D02*
X96192D01*
X95700Y89708D02*
Y90692D01*
X92108Y90200D02*
X93092D01*
X92600Y89708D02*
Y90692D01*
X230708Y80543D02*
X231692D01*
X231200Y80051D02*
Y81035D01*
X230708Y84514D02*
X231692D01*
X231200Y84022D02*
Y85006D01*
X230708Y72600D02*
X231692D01*
X231200Y72108D02*
Y73092D01*
X230708Y76571D02*
X231692D01*
X231200Y76079D02*
Y77064D01*
X119358Y73926D02*
X120342D01*
X119850Y73434D02*
Y74418D01*
X90533Y122064D02*
X91517D01*
X91025Y121572D02*
Y122556D01*
X212665Y168000D02*
X213650D01*
X213158Y167508D02*
Y168492D01*
X171908Y22600D02*
X172892D01*
X172400Y22108D02*
Y23092D01*
X206208Y165000D02*
X207192D01*
X206700Y164508D02*
Y165492D01*
X202608Y165000D02*
X203592D01*
X203100Y164508D02*
Y165492D01*
X204308Y163500D02*
X205292D01*
X204800Y163008D02*
Y163992D01*
X86608Y84650D02*
X87592D01*
X87100Y84158D02*
Y85142D01*
X88508Y80800D02*
X89492D01*
X89000Y80308D02*
Y81292D01*
X86608Y86300D02*
X87592D01*
X87100Y85808D02*
Y86792D01*
X80198Y90000D02*
X81182D01*
X80690Y89508D02*
Y90492D01*
X80198Y88500D02*
X81182D01*
X80690Y88008D02*
Y88992D01*
X24108Y80500D02*
X25092D01*
X24600Y80008D02*
Y80992D01*
X99308Y119200D02*
X100292D01*
X99800Y118708D02*
Y119692D01*
X194908Y168000D02*
X195892D01*
X195400Y167508D02*
Y168492D01*
X202846Y168000D02*
X203830D01*
X203338Y167508D02*
Y168492D01*
X200746Y168000D02*
X201730D01*
X201238Y167508D02*
Y168492D01*
X138540Y85767D02*
X139524D01*
X139032Y85275D02*
Y86259D01*
X65008Y99900D02*
X65992D01*
X65500Y99408D02*
Y100392D01*
X65008Y90300D02*
X65992D01*
X65500Y89808D02*
Y90792D01*
X65008Y87800D02*
X65992D01*
X65500Y87308D02*
Y88292D01*
X63008Y99000D02*
X63992D01*
X63500Y98508D02*
Y99492D01*
X63008Y96500D02*
X63992D01*
X63500Y96008D02*
Y96992D01*
X65008Y95200D02*
X65992D01*
X65500Y94708D02*
Y95692D01*
X65008Y97700D02*
X65992D01*
X65500Y97208D02*
Y98192D01*
X65008Y92700D02*
X65992D01*
X65500Y92208D02*
Y93192D01*
X63008Y91500D02*
X63992D01*
X63500Y91008D02*
Y91992D01*
X63008Y94000D02*
X63992D01*
X63500Y93508D02*
Y94492D01*
X75694Y64986D02*
X76678D01*
X76186Y64494D02*
Y65478D01*
X39343Y83652D02*
X40328D01*
X39835Y83160D02*
Y84145D01*
X140308Y81700D02*
X141292D01*
X140800Y81208D02*
Y82192D01*
X140308Y50200D02*
X141292D01*
X140800Y49708D02*
Y50692D01*
X27008Y51000D02*
X27992D01*
X27500Y50508D02*
Y51492D01*
X29508Y51000D02*
X30492D01*
X30000Y50508D02*
Y51492D01*
X29508Y53000D02*
X30492D01*
X30000Y52508D02*
Y53492D01*
X27008Y53000D02*
X27992D01*
X27500Y52508D02*
Y53492D01*
X53008Y49300D02*
X53992D01*
X53500Y48808D02*
Y49792D01*
X37386Y82320D02*
X38371D01*
X37879Y81828D02*
Y82812D01*
X37408Y84600D02*
X38392D01*
X37900Y84108D02*
Y85092D01*
X43008Y171000D02*
X43992D01*
X43500Y170508D02*
Y171492D01*
X47152Y84452D02*
X48136D01*
X47644Y83960D02*
Y84944D01*
X43008Y167000D02*
X43992D01*
X43500Y166508D02*
Y167492D01*
X43008Y169000D02*
X43992D01*
X43500Y168508D02*
Y169492D01*
X181282Y13300D02*
X182266D01*
X181774Y12808D02*
Y13792D01*
X176908Y18400D02*
X177892D01*
X177400Y17908D02*
Y18892D01*
X146067Y169445D02*
X147051D01*
X146559Y168953D02*
Y169937D01*
X228398Y168000D02*
X229382D01*
X228890Y167508D02*
Y168492D01*
X47225Y82317D02*
X48210D01*
X47718Y81825D02*
Y82809D01*
X41617Y101941D02*
X42601D01*
X42109Y101448D02*
Y102433D01*
X90010Y99659D02*
X90994D01*
X90502Y99167D02*
Y100152D01*
X103408Y101400D02*
X104392D01*
X103900Y100908D02*
Y101892D01*
X40508Y99500D02*
X41492D01*
X41000Y99008D02*
Y99992D01*
X115075Y115433D02*
X116059D01*
X115567Y114941D02*
Y115925D01*
X215108Y95900D02*
X216092D01*
X215600Y95408D02*
Y96392D01*
X229208Y97700D02*
X230192D01*
X229700Y97208D02*
Y98192D01*
X218508Y92900D02*
X219492D01*
X219000Y92408D02*
Y93392D01*
X72208Y71000D02*
X73192D01*
X72700Y70508D02*
Y71492D01*
X134661Y108986D02*
X135645D01*
X135153Y108494D02*
Y109478D01*
X60408Y67700D02*
X61392D01*
X60900Y67208D02*
Y68192D01*
X61908Y67700D02*
X62892D01*
X62400Y67208D02*
Y68192D01*
X132808Y89700D02*
X133792D01*
X133300Y89208D02*
Y90192D01*
X10908Y53500D02*
X11892D01*
X11400Y53008D02*
Y53992D01*
X111384Y70078D02*
X112368D01*
X111876Y69585D02*
Y70570D01*
X97084Y80400D02*
X98068D01*
X97576Y79908D02*
Y80892D01*
X107408Y85100D02*
X108392D01*
X107900Y84608D02*
Y85592D01*
X97084Y78621D02*
X98068D01*
X97576Y78129D02*
Y79113D01*
X80608Y63000D02*
X81592D01*
X81100Y62508D02*
Y63492D01*
X124430Y168510D02*
X125414D01*
X124922Y168018D02*
Y169002D01*
X136241Y168510D02*
X137225D01*
X136733Y168018D02*
Y169002D01*
X136241Y150400D02*
X137225D01*
X136733Y149908D02*
Y150892D01*
X107508Y117600D02*
X108492D01*
X108000Y117108D02*
Y118092D01*
X118524Y150400D02*
X119509D01*
X119016Y149908D02*
Y150892D01*
X113183Y129311D02*
X114168D01*
X113675Y128819D02*
Y129804D01*
X126398Y168510D02*
X127383D01*
X126890Y168018D02*
Y169002D01*
X138209Y168510D02*
X139193D01*
X138701Y168018D02*
Y169002D01*
X142146Y168510D02*
X143131D01*
X142638Y168018D02*
Y169002D01*
X144115Y168510D02*
X145099D01*
X144607Y168018D02*
Y169002D01*
X38008Y170500D02*
X38992D01*
X38500Y170008D02*
Y170992D01*
X38008Y167500D02*
X38992D01*
X38500Y167008D02*
Y167992D01*
X111905Y125004D02*
X112890D01*
X112397Y124512D02*
Y125496D01*
X120493Y150400D02*
X121477D01*
X120985Y149908D02*
Y150892D01*
X124430Y150400D02*
X125414D01*
X124922Y149908D02*
Y150892D01*
X111282Y121000D02*
X112266D01*
X111774Y120508D02*
Y121492D01*
X126398Y150400D02*
X127383D01*
X126890Y149908D02*
Y150892D01*
X99471Y113126D02*
X100455D01*
X99963Y112634D02*
Y113618D01*
X112619Y168510D02*
X113603D01*
X113111Y168018D02*
Y169002D01*
X130335Y150400D02*
X131319D01*
X130827Y149908D02*
Y150892D01*
X132304Y150400D02*
X133288D01*
X132796Y149908D02*
Y150892D01*
X118524Y168510D02*
X119509D01*
X119016Y168018D02*
Y169002D01*
X112619Y150400D02*
X113603D01*
X113111Y149908D02*
Y150892D01*
X103408Y113126D02*
X104392D01*
X103900Y112634D02*
Y113618D01*
X114587Y168510D02*
X115571D01*
X115079Y168018D02*
Y169002D01*
X130335Y168510D02*
X131319D01*
X130827Y168018D02*
Y169002D01*
X132304Y168510D02*
X133288D01*
X132796Y168018D02*
Y169002D01*
X99471Y117063D02*
X100455D01*
X99963Y116571D02*
Y117555D01*
X103408Y124937D02*
X104392D01*
X103900Y124445D02*
Y125429D01*
X120493Y168510D02*
X121477D01*
X120985Y168018D02*
Y169002D01*
X114587Y150400D02*
X115571D01*
X115079Y149908D02*
Y150892D01*
X103408Y121000D02*
X104392D01*
X103900Y120508D02*
Y121492D01*
X106713Y168510D02*
X107697D01*
X107205Y168018D02*
Y169002D01*
X103608Y109600D02*
X104592D01*
X104100Y109108D02*
Y110092D01*
X108682Y168510D02*
X109666D01*
X109174Y168018D02*
Y169002D01*
X107545Y109600D02*
X108529D01*
X108037Y109108D02*
Y110092D01*
X107365Y112644D02*
X108349D01*
X107857Y112152D02*
Y113136D01*
X108271Y28500D02*
X109255D01*
X108763Y28008D02*
Y28992D01*
X107008Y97300D02*
X107992D01*
X107500Y96808D02*
Y97792D01*
X106302Y28500D02*
X107286D01*
X106794Y28008D02*
Y28992D01*
X103308Y97600D02*
X104292D01*
X103800Y97108D02*
Y98092D01*
X100808Y168510D02*
X101792D01*
X101300Y168018D02*
Y169002D01*
X102776Y168510D02*
X103760D01*
X103268Y168018D02*
Y169002D01*
X107108Y105700D02*
X108092D01*
X107600Y105208D02*
Y106192D01*
X120082Y28500D02*
X121066D01*
X120574Y28008D02*
Y28992D01*
X107273Y94105D02*
X108258D01*
X107766Y93613D02*
Y94597D01*
X118113Y28500D02*
X119097D01*
X118605Y28008D02*
Y28992D01*
X99308Y85200D02*
X100292D01*
X99800Y84708D02*
Y85692D01*
X120082Y10390D02*
X121066D01*
X120574Y9898D02*
Y10882D01*
X114176Y28500D02*
X115160D01*
X114668Y28008D02*
Y28992D01*
X111284Y88784D02*
X112268D01*
X111776Y88292D02*
Y89276D01*
X107308Y89100D02*
X108292D01*
X107800Y88608D02*
Y89592D01*
X112208Y28500D02*
X113192D01*
X112700Y28008D02*
Y28992D01*
X125987Y28500D02*
X126971D01*
X126479Y28008D02*
Y28992D01*
X99308Y89700D02*
X100292D01*
X99800Y89208D02*
Y90192D01*
X118113Y10390D02*
X119097D01*
X118605Y9898D02*
Y10882D01*
X114176Y10390D02*
X115160D01*
X114668Y9898D02*
Y10882D01*
X99895Y97036D02*
X100879D01*
X100387Y96544D02*
Y97528D01*
X112208Y10390D02*
X113192D01*
X112700Y9898D02*
Y10882D01*
X98991Y99404D02*
X99976D01*
X99483Y98912D02*
Y99896D01*
X115208Y89700D02*
X116192D01*
X115700Y89208D02*
Y90192D01*
X124019Y28500D02*
X125003D01*
X124511Y28008D02*
Y28992D01*
X224550Y13890D02*
X225535D01*
X225042Y13398D02*
Y14382D01*
X125987Y10390D02*
X126971D01*
X126479Y9898D02*
Y10882D01*
X124019Y10390D02*
X125003D01*
X124511Y9898D02*
Y10882D01*
X99608Y94000D02*
X100592D01*
X100100Y93508D02*
Y94492D01*
X212697Y27700D02*
X213681D01*
X213189Y27208D02*
Y28192D01*
X150310Y80602D02*
X151294D01*
X150802Y80110D02*
Y81094D01*
X224508Y27700D02*
X225492D01*
X225000Y27208D02*
Y28192D01*
X150508Y89490D02*
X151492D01*
X151000Y88998D02*
Y89983D01*
X183260Y13890D02*
X184244D01*
X183752Y13398D02*
Y14382D01*
X130667Y77553D02*
X131651D01*
X131159Y77061D02*
Y78045D01*
X214665Y27700D02*
X215649D01*
X215157Y27208D02*
Y28192D01*
X134666Y66082D02*
X135650D01*
X135158Y65590D02*
Y66574D01*
X206834Y13890D02*
X207818D01*
X207326Y13398D02*
Y14382D01*
X194980Y27700D02*
X195964D01*
X195472Y27208D02*
Y28192D01*
X142338Y73964D02*
X143322D01*
X142830Y73472D02*
Y74456D01*
X196949Y27700D02*
X197933D01*
X197441Y27208D02*
Y28192D01*
X189165Y13890D02*
X190149D01*
X189657Y13398D02*
Y14382D01*
X134597Y74036D02*
X135581D01*
X135089Y73544D02*
Y74528D01*
X212739Y13890D02*
X213723D01*
X213231Y13398D02*
Y14382D01*
X130667Y66082D02*
X131651D01*
X131159Y65590D02*
Y66574D01*
X208802Y13890D02*
X209786D01*
X209294Y13398D02*
Y14382D01*
X130667Y70019D02*
X131651D01*
X131159Y69527D02*
Y70511D01*
X195071Y13890D02*
X196055D01*
X195563Y13398D02*
Y14382D01*
X139108Y70700D02*
X140092D01*
X139600Y70208D02*
Y71192D01*
X197039Y13890D02*
X198023D01*
X197531Y13398D02*
Y14382D01*
X134666Y77893D02*
X135650D01*
X135158Y77401D02*
Y78385D01*
X191134Y13890D02*
X192118D01*
X191626Y13398D02*
Y14382D01*
X138544Y66022D02*
X139528D01*
X139036Y65530D02*
Y66514D01*
X185316Y13890D02*
X186300D01*
X185808Y13398D02*
Y14382D01*
X174608Y45800D02*
X175592D01*
X175100Y45308D02*
Y46292D01*
X175208Y52400D02*
X176192D01*
X175700Y51908D02*
Y52892D01*
X175137Y49229D02*
X176121D01*
X175629Y48737D02*
Y49721D01*
X171708Y56000D02*
X172692D01*
X172200Y55508D02*
Y56492D01*
X119808Y58200D02*
X120792D01*
X120300Y57708D02*
Y58692D01*
X226519Y13890D02*
X227503D01*
X227011Y13398D02*
Y14382D01*
X126792Y66082D02*
X127776D01*
X127284Y65590D02*
Y66574D01*
X214708Y13890D02*
X215692D01*
X215200Y13398D02*
Y14382D01*
X206791Y27700D02*
X207775D01*
X207283Y27208D02*
Y28192D01*
X150408Y76600D02*
X151392D01*
X150900Y76108D02*
Y77092D01*
X208760Y27700D02*
X209744D01*
X209252Y27208D02*
Y28192D01*
X150329Y78841D02*
X151313D01*
X150821Y78348D02*
Y79333D01*
X200886Y27700D02*
X201870D01*
X201378Y27208D02*
Y28192D01*
X142540Y70019D02*
X143524D01*
X143032Y69527D02*
Y70511D01*
X200976Y13890D02*
X201960D01*
X201468Y13398D02*
Y14382D01*
X183108Y30400D02*
X184092D01*
X183600Y29908D02*
Y30892D01*
X185208Y30400D02*
X186192D01*
X185700Y29908D02*
Y30892D01*
X226476Y27700D02*
X227460D01*
X226968Y27208D02*
Y28192D01*
X218602Y27700D02*
X219586D01*
X219094Y27208D02*
Y28192D01*
X220571Y27700D02*
X221555D01*
X221063Y27208D02*
Y28192D01*
X126792Y70019D02*
X127776D01*
X127284Y69527D02*
Y70511D01*
X218645Y13890D02*
X219629D01*
X219137Y13398D02*
Y14382D01*
X220613Y13890D02*
X221597D01*
X221105Y13398D02*
Y14382D01*
X202854Y27700D02*
X203838D01*
X203346Y27208D02*
Y28192D01*
X138603Y73956D02*
X139587D01*
X139095Y73464D02*
Y74448D01*
X202945Y13890D02*
X203929D01*
X203437Y13398D02*
Y14382D01*
X189075Y27700D02*
X190059D01*
X189567Y27208D02*
Y28192D01*
X191043Y27700D02*
X192027D01*
X191535Y27208D02*
Y28192D01*
X150414Y70019D02*
X151398D01*
X150906Y69527D02*
Y70511D01*
X72008Y59000D02*
X72992D01*
X72500Y58508D02*
Y59492D01*
X43308Y82200D02*
X44292D01*
X43800Y81708D02*
Y82692D01*
X159308Y64600D02*
X160292D01*
X159800Y64108D02*
Y65092D01*
X245008Y78200D02*
X245992D01*
X245500Y77708D02*
Y78692D01*
X196979Y58271D02*
X197963D01*
X197471Y57779D02*
Y58763D01*
X133508Y54500D02*
X134492D01*
X134000Y54008D02*
Y54992D01*
X147208Y85300D02*
X148192D01*
X147700Y84808D02*
Y85792D01*
X27908Y136821D02*
X28892D01*
X28400Y136329D02*
Y137313D01*
X222008Y99500D02*
X222992D01*
X222500Y99008D02*
Y99992D01*
X244108Y120200D02*
X245092D01*
X244600Y119708D02*
Y120692D01*
X244008Y114300D02*
X244992D01*
X244500Y113808D02*
Y114792D01*
X243908Y108100D02*
X244892D01*
X244400Y107608D02*
Y108592D01*
X243908Y102200D02*
X244892D01*
X244400Y101708D02*
Y102692D01*
X72608Y102800D02*
X73592D01*
X73100Y102308D02*
Y103292D01*
X67808Y100600D02*
X68792D01*
X68300Y100108D02*
Y101092D01*
X244508Y84200D02*
X245492D01*
X245000Y83708D02*
Y84692D01*
X244008Y96100D02*
X244992D01*
X244500Y95608D02*
Y96592D01*
X243808Y90200D02*
X244792D01*
X244300Y89708D02*
Y90692D01*
X222055Y119541D02*
X223040D01*
X222547Y119048D02*
Y120033D01*
X222055Y116391D02*
X223040D01*
X222547Y115899D02*
Y116883D01*
X222055Y113241D02*
X223040D01*
X222547Y112749D02*
Y113733D01*
X222055Y103793D02*
X223040D01*
X222547Y103300D02*
Y104285D01*
X222055Y88044D02*
X223040D01*
X222547Y87552D02*
Y88537D01*
X222055Y81745D02*
X223040D01*
X222547Y81253D02*
Y82237D01*
X75608Y102800D02*
X76592D01*
X76100Y102308D02*
Y103292D01*
X58508Y68500D02*
X59492D01*
X59000Y68008D02*
Y68992D01*
X45208Y82300D02*
X46192D01*
X45700Y81808D02*
Y82792D01*
X16008Y87700D02*
X16992D01*
X16500Y87208D02*
Y88192D01*
X17108Y94000D02*
X18092D01*
X17600Y93508D02*
Y94492D01*
X17108Y91500D02*
X18092D01*
X17600Y91008D02*
Y91992D01*
X15108Y90200D02*
X16092D01*
X15600Y89708D02*
Y90692D01*
X15108Y92700D02*
X16092D01*
X15600Y92208D02*
Y93192D01*
X15108Y105200D02*
X16092D01*
X15600Y104708D02*
Y105692D01*
X15108Y102700D02*
X16092D01*
X15600Y102208D02*
Y103192D01*
X15108Y100200D02*
X16092D01*
X15600Y99708D02*
Y100692D01*
X15108Y97700D02*
X16092D01*
X15600Y97208D02*
Y98192D01*
X15108Y95200D02*
X16092D01*
X15600Y94708D02*
Y95692D01*
X17108Y96500D02*
X18092D01*
X17600Y96008D02*
Y96992D01*
X17108Y99000D02*
X18092D01*
X17600Y98508D02*
Y99492D01*
X17108Y101500D02*
X18092D01*
X17600Y101008D02*
Y101992D01*
X17108Y104000D02*
X18092D01*
X17600Y103508D02*
Y104492D01*
X17108Y106500D02*
X18092D01*
X17600Y106008D02*
Y106992D01*
X58427Y75785D02*
X59411D01*
X58919Y75293D02*
Y76278D01*
X58508Y71000D02*
X59492D01*
X59000Y70508D02*
Y71492D01*
X58508Y55300D02*
X59492D01*
X59000Y54808D02*
Y55792D01*
X43276Y50100D02*
X44260D01*
X43768Y49608D02*
Y50592D01*
X39408Y50100D02*
X40392D01*
X39900Y49608D02*
Y50592D01*
X58408Y60700D02*
X59392D01*
X58900Y60208D02*
Y61192D01*
X56108Y78500D02*
X57092D01*
X56600Y78008D02*
Y78992D01*
X26318Y74990D02*
X27302D01*
X26810Y74498D02*
Y75482D01*
X43808Y107500D02*
X44792D01*
X44300Y107008D02*
Y107992D01*
X27808Y128989D02*
X28792D01*
X28300Y128497D02*
Y129481D01*
X27808Y140800D02*
X28792D01*
X28300Y140308D02*
Y141292D01*
X45409Y114201D02*
X46393D01*
X45901Y113709D02*
Y114694D01*
X80408Y139900D02*
X81392D01*
X80900Y139408D02*
Y140392D01*
X34508Y151900D02*
X35492D01*
X35000Y151408D02*
Y152392D01*
X43762Y139900D02*
X44746D01*
X44254Y139408D02*
Y140392D01*
X45508Y134000D02*
X46492D01*
X46000Y133508D02*
Y134492D01*
X27829Y132884D02*
X28813D01*
X28321Y132392D02*
Y133376D01*
X43783Y124163D02*
X44767D01*
X44275Y123671D02*
Y124655D01*
M02*
