G04*
G04 #@! TF.GenerationSoftware,Altium Limited,Altium Designer,21.4.1 (30)*
G04*
G04 Layer_Color=16711935*
%FSLAX25Y25*%
%MOIN*%
G70*
G04*
G04 #@! TF.SameCoordinates,690C2B1C-B9AF-4ECE-B77D-8E73C62371D7*
G04*
G04*
G04 #@! TF.FilePolarity,Negative*
G04*
G01*
G75*
%ADD23R,0.03353X0.04337*%
%ADD25R,0.05715X0.04140*%
%ADD44R,0.02762X0.02762*%
%ADD49R,0.02447X0.02447*%
%ADD50R,0.02762X0.02762*%
%ADD53R,0.02447X0.02447*%
%ADD54R,0.04140X0.05715*%
%ADD55R,0.09843X0.09843*%
%ADD56C,0.02959*%
%ADD57O,0.05912X0.02762*%
%ADD58O,0.07093X0.02762*%
%ADD59C,0.07874*%
%ADD60C,0.05906*%
%ADD61C,0.01384*%
%ADD125R,0.07093X0.04140*%
%ADD126R,0.03353X0.01975*%
G04:AMPARAMS|DCode=127|XSize=65.42mil|YSize=15.02mil|CornerRadius=3.38mil|HoleSize=0mil|Usage=FLASHONLY|Rotation=0.000|XOffset=0mil|YOffset=0mil|HoleType=Round|Shape=RoundedRectangle|*
%AMROUNDEDRECTD127*
21,1,0.06542,0.00827,0,0,0.0*
21,1,0.05866,0.01502,0,0,0.0*
1,1,0.00676,0.02933,-0.00413*
1,1,0.00676,-0.02933,-0.00413*
1,1,0.00676,-0.02933,0.00413*
1,1,0.00676,0.02933,0.00413*
%
%ADD127ROUNDEDRECTD127*%
G04:AMPARAMS|DCode=128|XSize=65.42mil|YSize=15.02mil|CornerRadius=3.38mil|HoleSize=0mil|Usage=FLASHONLY|Rotation=270.000|XOffset=0mil|YOffset=0mil|HoleType=Round|Shape=RoundedRectangle|*
%AMROUNDEDRECTD128*
21,1,0.06542,0.00827,0,0,270.0*
21,1,0.05866,0.01502,0,0,270.0*
1,1,0.00676,-0.00413,-0.02933*
1,1,0.00676,-0.00413,0.02933*
1,1,0.00676,0.00413,0.02933*
1,1,0.00676,0.00413,-0.02933*
%
%ADD128ROUNDEDRECTD128*%
%ADD129R,0.01424X0.03707*%
%ADD130R,0.06404X0.07093*%
%ADD131R,0.05912X0.05124*%
%ADD132R,0.04337X0.03353*%
%ADD133P,0.03461X4X360.0*%
D23*
X25161Y138300D02*
D03*
X20239D02*
D03*
X50260Y88800D02*
D03*
X45339D02*
D03*
X39760D02*
D03*
X34839D02*
D03*
X25161Y132300D02*
D03*
X20239D02*
D03*
D25*
X95600Y118144D02*
D03*
Y123656D02*
D03*
X95700Y135212D02*
D03*
Y129700D02*
D03*
X93700Y79500D02*
D03*
Y73988D02*
D03*
X95584Y107188D02*
D03*
Y112700D02*
D03*
D44*
X225700Y99400D02*
D03*
Y103600D02*
D03*
X109695Y97274D02*
D03*
Y101474D02*
D03*
X113300Y97200D02*
D03*
Y101400D02*
D03*
X199500Y56100D02*
D03*
Y60300D02*
D03*
Y46700D02*
D03*
Y42500D02*
D03*
D49*
X217335Y91000D02*
D03*
X220800D02*
D03*
X217137Y125967D02*
D03*
X220602D02*
D03*
X136932Y96200D02*
D03*
X133467D02*
D03*
X145941Y87234D02*
D03*
X149405D02*
D03*
X141467Y103100D02*
D03*
X144932D02*
D03*
X137768Y91300D02*
D03*
X141232D02*
D03*
X136973Y88434D02*
D03*
X140437D02*
D03*
X125873Y106634D02*
D03*
X129337D02*
D03*
X136605Y107034D02*
D03*
X133141D02*
D03*
X105232Y84400D02*
D03*
X101768D02*
D03*
X113468Y72700D02*
D03*
X116932D02*
D03*
X112241Y67634D02*
D03*
X115705D02*
D03*
X150605Y127134D02*
D03*
X147141D02*
D03*
X152332Y114700D02*
D03*
X148867D02*
D03*
X145005Y96334D02*
D03*
X141541D02*
D03*
X155873Y102334D02*
D03*
X152408D02*
D03*
X129105Y101834D02*
D03*
X125641D02*
D03*
X131641Y84634D02*
D03*
X135105D02*
D03*
X152705Y72134D02*
D03*
X149241D02*
D03*
X106141Y91534D02*
D03*
X109605D02*
D03*
X111468Y115122D02*
D03*
X108003D02*
D03*
X111541Y117934D02*
D03*
X115005D02*
D03*
X127481Y73886D02*
D03*
X130945D02*
D03*
X70667Y84200D02*
D03*
X74132D02*
D03*
D50*
X230400Y91300D02*
D03*
X226200D02*
D03*
Y95400D02*
D03*
X230400D02*
D03*
X209199Y159186D02*
D03*
X204999D02*
D03*
X51800Y163900D02*
D03*
X47600D02*
D03*
X43300D02*
D03*
X39100D02*
D03*
D53*
X195222Y103768D02*
D03*
Y107233D02*
D03*
X220419Y113217D02*
D03*
Y109752D02*
D03*
X195169Y109835D02*
D03*
Y113300D02*
D03*
X194900Y82132D02*
D03*
Y78668D02*
D03*
X220469Y103235D02*
D03*
Y106700D02*
D03*
X195222Y125815D02*
D03*
Y122351D02*
D03*
X220670Y81700D02*
D03*
Y78235D02*
D03*
X220400Y119468D02*
D03*
Y122932D02*
D03*
X195000Y87700D02*
D03*
Y91164D02*
D03*
X141473Y114867D02*
D03*
Y111402D02*
D03*
X117700Y93132D02*
D03*
Y89668D02*
D03*
X117600Y105432D02*
D03*
Y101968D02*
D03*
X130773Y88134D02*
D03*
Y91599D02*
D03*
X129900Y98900D02*
D03*
Y95435D02*
D03*
X125000Y91968D02*
D03*
Y95432D02*
D03*
X102800Y64464D02*
D03*
Y61000D02*
D03*
X136800Y118232D02*
D03*
Y114768D02*
D03*
X160773Y126167D02*
D03*
Y122702D02*
D03*
X156273Y83967D02*
D03*
Y80502D02*
D03*
X152873Y83902D02*
D03*
Y87367D02*
D03*
X165273Y86070D02*
D03*
Y89534D02*
D03*
X219500Y57368D02*
D03*
Y60832D02*
D03*
X40000Y109532D02*
D03*
Y106068D02*
D03*
X20400Y105768D02*
D03*
Y109232D02*
D03*
D54*
X145156Y133300D02*
D03*
X139644D02*
D03*
X124227Y61400D02*
D03*
X129739D02*
D03*
X141112D02*
D03*
X135600D02*
D03*
D55*
X8500Y8200D02*
D03*
Y167200D02*
D03*
X247400Y156100D02*
D03*
Y8200D02*
D03*
D56*
X27300Y147215D02*
D03*
Y124459D02*
D03*
D57*
X12812Y118829D02*
D03*
Y152845D02*
D03*
D58*
X29268Y118829D02*
D03*
Y152845D02*
D03*
D59*
X20300Y168400D02*
D03*
X245900D02*
D03*
Y24400D02*
D03*
D60*
X10800Y88800D02*
D03*
Y98400D02*
D03*
D61*
X150900Y117100D02*
D03*
X212300Y99783D02*
D03*
Y98300D02*
D03*
X144000Y66000D02*
D03*
X111961Y86162D02*
D03*
X112061Y84462D02*
D03*
X104508Y81900D02*
D03*
X103092Y82340D02*
D03*
X211945Y8949D02*
D03*
X215200Y92800D02*
D03*
X85500Y160100D02*
D03*
X85425Y163317D02*
D03*
Y166860D02*
D03*
X80800Y145700D02*
D03*
X78575Y166868D02*
D03*
Y163324D02*
D03*
Y160175D02*
D03*
X220600Y47300D02*
D03*
D125*
X93000Y85000D02*
D03*
Y96417D02*
D03*
D126*
X227500Y72657D02*
D03*
Y74626D02*
D03*
Y76594D02*
D03*
Y78563D02*
D03*
Y80531D02*
D03*
Y82500D02*
D03*
Y84468D02*
D03*
Y86437D02*
D03*
X234980Y72657D02*
D03*
Y74626D02*
D03*
Y76594D02*
D03*
Y78563D02*
D03*
Y80531D02*
D03*
Y82500D02*
D03*
Y84468D02*
D03*
Y86437D02*
D03*
D127*
X84862Y118236D02*
D03*
Y120205D02*
D03*
Y122173D02*
D03*
Y124142D02*
D03*
Y126110D02*
D03*
Y128079D02*
D03*
Y130047D02*
D03*
Y132016D02*
D03*
Y133984D02*
D03*
Y135953D02*
D03*
Y137921D02*
D03*
Y139890D02*
D03*
Y141858D02*
D03*
Y143827D02*
D03*
Y145795D02*
D03*
Y147764D02*
D03*
X40138D02*
D03*
Y145795D02*
D03*
Y143827D02*
D03*
Y141858D02*
D03*
Y139890D02*
D03*
Y137921D02*
D03*
Y135953D02*
D03*
Y133984D02*
D03*
Y132016D02*
D03*
Y130047D02*
D03*
Y128079D02*
D03*
Y126110D02*
D03*
Y124142D02*
D03*
Y122173D02*
D03*
Y120205D02*
D03*
Y118236D02*
D03*
D128*
X47736Y110638D02*
D03*
X49705D02*
D03*
X51673D02*
D03*
X53641D02*
D03*
X55610D02*
D03*
X57578D02*
D03*
X59547D02*
D03*
X61516D02*
D03*
X63484D02*
D03*
X65453D02*
D03*
X67421D02*
D03*
X69390D02*
D03*
X71358D02*
D03*
X73327D02*
D03*
X75295D02*
D03*
X77264D02*
D03*
Y155362D02*
D03*
X75295D02*
D03*
X73327D02*
D03*
X71358D02*
D03*
X69390D02*
D03*
X67421D02*
D03*
X65453D02*
D03*
X63484D02*
D03*
X61516D02*
D03*
X59547D02*
D03*
X57578D02*
D03*
X55610D02*
D03*
X53641D02*
D03*
X51673D02*
D03*
X49705D02*
D03*
X47736D02*
D03*
D129*
X70147Y100150D02*
D03*
X72116D02*
D03*
X74084D02*
D03*
X76053D02*
D03*
X74084Y88850D02*
D03*
X72116D02*
D03*
X70147D02*
D03*
X76053D02*
D03*
D130*
X73100Y94500D02*
D03*
D131*
X34727Y110691D02*
D03*
Y103998D02*
D03*
X26066Y110691D02*
D03*
Y103998D02*
D03*
D132*
X15200Y80361D02*
D03*
Y75439D02*
D03*
X68800Y71339D02*
D03*
Y76261D02*
D03*
X21400Y75439D02*
D03*
Y80361D02*
D03*
X62800Y76261D02*
D03*
Y71339D02*
D03*
X33600Y124779D02*
D03*
Y129700D02*
D03*
D133*
X121598Y114359D02*
D03*
X119148Y111909D02*
D03*
X142348Y77509D02*
D03*
X144798Y79959D02*
D03*
M02*
