M48
;Layer_Color=9474304
;FILE_FORMAT=2:5
INCH,LZ
;TYPE=PLATED
T1F00S00C0.00984
T3F00S00C0.03543
T4F00S00C0.08661
;TYPE=NON_PLATED
T5F00S00C0.02559
%
T01
X0015748Y0007874
X0023622
X0031496
X00297Y00123
Y00143
Y00166
Y00191
X00326Y00159
X00377
X00212Y0017
X00191
Y00194
X00212
Y00227
X00191
Y00251
X00212
X00204Y00272
X0018
X00154
X00129
X0007874Y0023622
Y0031496
Y003937
Y0047244
Y0055118
X00114Y00535
X00161Y0051866
Y005
Y004802
X00174Y0056
X00258Y00564
X00275Y0053
Y0051
X003
Y0053
X0031496Y0047244
X0034Y00575
Y006
X00365
Y00625
Y0065
Y00675
Y007
Y00725
Y0075
X0034
Y00725
Y007
Y00675
Y0065
Y00625
X00365Y00575
X0037879Y008232
X00379Y00846
X0037Y00938
X00355Y01008
X00334Y0099659
X00273Y0090466
Y00886
Y008662
X00246Y00805
X00255Y00786
X0026653Y00769
X002681Y007499
X00178Y00805
X00109Y0080291
X0007874Y007874
Y0070866
Y0062992
Y0094488
X00156Y00952
Y00927
Y00902
X00176Y00915
Y0094
Y00965
Y0099
Y01015
Y0104
Y01065
X00156Y01052
Y01027
Y01002
Y00977
X00165Y00877
X00083Y0104
X00067Y01156
X0007874Y011811
Y0125984
X0015748
Y0133858
Y0141733
Y0149607
X0007874
Y0141733
Y0133858
X0028321Y0132884
X00283Y0128989
X00284Y0136821
X00283Y01408
X0036Y01379
X00377Y01493
X0035Y01519
X0023622Y011811
X00219Y0113
X002
X00167Y01144
X00225Y01088
X00228Y00272
X00253
X00279
X0031496Y0031496
X0007874Y0015748
X00417Y00138
X00438Y00149
X0046Y00138
X00482Y00148
X00505Y00138
X00591Y00141
X00613
X00612Y00165
X0059
X00592Y00204
X00614
X00613Y00228
X00591
X00602Y00245
X00579
X00553
X00528
X00476Y00241
X0047244Y0031496
X0055118
X0062992
X00627Y00245
X00652
X00678
X0070866Y0023622
Y0031496
Y003937
X00705Y00449
X0068
Y00475
X00705
X00724Y005
Y00517
X00725Y0059
X00761Y00619
Y00633
X0076186Y0064986
X00775Y00684
X00796
X00811Y0065
Y0063
X00808Y00756
X00825
X0086614Y007874
X0089Y00808
X00871Y0083
Y008465
Y00863
X00905Y0088
X0093
X00955
X00957Y00902
X00926
X00998Y00897
X00999Y0087589
X00998Y00852
X0097576Y00831
Y00804
Y0078621
X0103092Y008234
X0104508Y00819
X01038Y00865
X01079Y00851
X01078Y00891
X0111776Y0088784
X01118Y00904
X01121Y00935
X01155Y00931
X01157Y00897
X01201Y00901
X0119903Y008847
X01204Y00857
X01196Y00841
X0116Y00826
X0115441Y0080938
X01157Y0077
X0112078Y0077878
X0110643Y0077691
X0108381Y00775
X0107
X01036Y0074
X01037Y00673
X01035Y00584
X01203Y00582
X01235Y00578
X0128483
X01295Y00563
X0134Y00545
X01339Y00503
Y00468
X01365Y00437
X01388
X0142131Y0043827
X01412Y00418
X0143244Y0041774
X01424Y00401
X0143244Y0038274
X01452Y00443
X0146989Y0043893
X01435Y00485
Y0050119
X01408Y00502
X0141246Y0048706
X0142079Y0053718
X01369Y00578
X01353
X0135158Y0066082
X0139036Y0066022
X0144Y0066
X01469Y00651
X0150906Y0066082
Y0070019
X015478
X0154843Y0066247
X01598Y00646
X0162836Y0067536
X0155271Y0074471
X01554Y00774
X01509Y00766
X0150821Y0078841
X0150802Y0080602
X0150248Y0082148
X01507Y00851
X01477Y00853
X0146969Y008183
X0142969
X01408Y00817
X01392Y00824
X0139032Y0085767
X0142969
X0143623Y0089434
X01431Y00918
X014321Y0094
X01471Y0093909
X01472Y0092
X01464Y00896
X0148232Y0089775
X0151Y008949
X015478Y0089704
X01577Y00896
X01604
X0163Y00895
X0162654Y0085767
X015879
X0158863Y0093642
X0162432Y0093158
X0154806Y0093691
X0150906
X015072Y0097805
X01503Y0101309
X0147052Y01014
X0146795Y0097817
X0143115Y01014
X014321Y0105117
X0143421Y0108021
X01435Y0109628
X01476Y01098
X01507Y011
X0151Y0112392
X01471Y01131
X0146795Y0105691
X0150732Y0105609
X0153692Y0105096
X0155306Y0105893
X01589Y01074
X0162688Y010743
X016377Y0112706
X0165249Y0111792
X0158537Y0112709
X01586Y01164
X0154943Y0115157
X01509Y01171
X0150855Y0119745
X0153184Y0121125
X01552Y01209
X01588Y01212
X0158537Y0124853
X0156
X0151048Y0124893
X0147372Y0129191
X01478Y0133
X0148571Y0134429
X014332Y0128378
X0142789Y0124623
X0142835Y0120686
X01431Y01185
X0142821Y0117021
X0138852Y0117006
X01388Y01204
X01347Y01213
X0135Y01165
X0135293Y0113049
X013909Y0113091
X0138792Y01087
X0135153Y0108986
X0131504Y0108946
X0131434Y0112892
X0131003Y0117545
X0127529Y0114071
X0127971Y0109429
X0128009Y0104608
X01235Y01046
X01229Y01015
X012Y0101009
X0119819Y0105077
X0119546Y0109288
X0116143Y0109321
X01154Y01057
X01156Y01024
X01112Y01052
X01093
X01076Y01057
X0108037Y01096
X0107857Y0112644
X01116Y01125
X0111497Y0109793
X0114488Y0112985
X0115567Y0115433
X01158Y01206
X0111774Y0121
X01078Y01216
X0108Y01176
X010406Y0116899
X01039Y0113126
X01041Y01096
X0099963Y0113126
Y0117063
X00998Y01192
X0099963Y0121
X00998Y01246
X00999Y01286
X00955Y01267
X00936
X008932Y0124134
X0091025Y0122064
X00919Y01137
X0087056Y0110256
X00894Y01074
X00905Y01064
X0090502Y01014
Y0099659
X00886Y00965
X0085944Y0094921
X0083644
X008069Y009
Y00885
X0076053Y008612
X0072434Y0085966
X00715Y00925
Y00945
Y00965
X00746
Y00945
Y00925
X00655Y00927
Y00903
Y00878
X00635Y00915
Y0094
Y00965
Y0099
X00655Y00999
Y00977
Y00952
X00683Y01006
X00731Y01028
X00761
X007874Y0102362
X0074627Y0106707
X00753Y01146
X00733Y01144
X00692Y01155
X00668Y01158
X00635Y01145
X006Y01149
X0056169Y0115667
X0053069
X0050069
X0047069
X0045901Y0114201
X0042412Y0114178
X0044275Y0118257
Y0124163
X00448Y01275
X00446Y0130217
Y01317
X0046Y0134
X0044275Y0135974
X0044254Y01399
Y0141858
X0044275Y0145817
X0047244Y0149607
X00536Y01511
X00572
X00635Y0151
X00717Y01509
X00753Y01511
X00808Y01457
Y01438
X00809Y01399
X008069Y01335
Y0130047
X007874Y0125984
X00782Y01206
X00808Y01202
X00717Y01233
X0070866Y0125984
Y0133858
Y0141733
X0061507Y0143166
X0057807
X0054107
X0050407
X00574Y01327
Y01264
X0062992Y0125984
Y0133858
X0063043Y0106043
X006568Y0106632
X0082009Y0109
X00994Y01063
X01007Y01049
X01039Y01014
X01038Y00976
X0100387Y0097036
X0099483Y0099404
X0097861Y0096239
X01001Y0094
X0104002Y00937
X0107766Y0094105
X01075Y00973
X0111961Y0086162
X0112061Y0084462
X01238Y00852
X01235Y0087265
X0123687Y0089763
X0125907Y0089693
X01276Y00902
X0127624Y00937
X0127273Y0096891
X0127369Y0098519
X01353Y00979
X0135556Y0093277
X01354Y00906
X01333Y00897
X01328Y00936
X0139032Y0093641
X01376Y01013
X01389Y01047
X0135153Y0105049
X0122812Y01088
Y0113235
Y01175
X012Y01171
X0120077Y0120929
X01221Y01212
X0119998Y0124802
X01158Y01259
X0112397Y0125004
X0113675Y0129311
X01098Y01329
X01058Y01299
X01039Y0124937
Y0121
X01176Y0133355
X0122843Y0132858
X0122812Y01307
X0127682Y0124793
X012689Y01504
X0124922
X0120985
X0119016
X0115079
X0113111
X0109174
X0107205Y0150496
X0103268Y01504
X01013
X00993Y01507
X0094488Y0141733
X00938Y0138
X0130827Y01504
X0132796
X0136733
X0138701
X014269Y0150348
X0144607Y01504
X01465Y01506
X015748Y0149607
X0165354
X01799Y01489
X01835Y0150212
X0185307Y0148793
X01879Y01481
X0189817Y01492
X01913
X01926Y01262
X0193279Y0122791
X0193708Y0119732
X01917Y0115592
X0193471Y0113309
X0193268Y0109989
X01931Y01069
X0192Y01008
X01926Y00914
X01929Y00881
X01928Y0084099
X0192165Y0082692
X019071Y0043089
X0185353Y0043049
X01816Y0043
X0178Y00427
X01751Y00458
X0173228Y0047244
X0175629Y0049229
X01757Y00524
X01722Y0056
X0181102Y003937
X0188976
Y0031496
X01857Y00304
X01836
X01877Y00278
X0189567Y00277
X0191535
X01937Y00274
X0193585Y00133
X0191626Y001389
X0189657
X0187679Y00133
X0185808Y001389
X0183752
X0181774Y00133
X01774Y00184
X0173228Y0015748
X01709Y00127
X0168
X0165354Y0015748
X01724Y00226
X01629Y00278
X01616Y00293
X015748Y0031496
X0149606
X01448Y00106
X01398
Y00043
X01448
X0133858Y0007874
X0128438Y00091
X0126479Y001039
X0124511
X0122533Y00091
X0120574Y001039
X0118605
X0116627Y00091
X0114668Y001039
X01127
X0110722Y00091
X0104805
X00989
X0093005
X00871
X0081194
X007874Y0007874
X0070866
Y0015748
X0077342Y00167
X0078824
X0084419
X0085901
X0090219
X0091701
X0095717
X00972
X0101598
X0103081
X01095Y00174
X01108Y00273
X01127Y00285
X0114668
X01167Y00273
X0118605Y00285
X0120574
X0124511
X0126479
X0128501Y00205
X0122596
X0125984Y0015748
X0133858
X0108763Y00285
X0106794
X0110236Y003937
X0098974Y00205
X0093068
X0087163
X0081257
X0062992Y0007874
X0055118
X0047244
X003937
X00399Y00501
X00418
X0043768
X0044Y00575
Y006
Y00625
X00465
Y0065
X0049
Y00675
X00515
Y007
Y00725
X0049
Y0075
X00465
X0044
Y00725
X00465
Y007
X0049
X00465Y00675
X0044
Y007
X00415
Y00725
Y0075
X0039
Y00725
Y007
Y00675
X00415
Y0065
X0044
X0039
Y00625
X00415
Y006
X0039
Y00575
X00415
X00465
Y006
X0049
Y00625
X00515
Y0065
Y006
Y00575
X0049
X0059Y00572
Y00553
X00589Y00607
X0059Y00685
Y0071
X0058919Y0075785
X00566Y00785
X0061067Y0079732
X00609Y00677
X00624
X00644Y00673
X00674Y00686
X00673Y00659
X00672Y00631
X00727Y0071
X0086614Y0070866
X0091477Y0071
X0093
X0111876Y0070078
X0115655Y0070234
X0119908Y00704
X011985Y0073926
X0123687Y0074015
X0123592Y00776
X01271Y0078
X01273Y00816
X0127624Y0085084
X01316Y00816
X0135095Y008183
X0135158Y0077893
X0139032
X0139095Y0073956
X014283Y0073964
X0146906Y0073956
X01466Y00776
X0151057Y0074394
X0146969Y0070019
X0143032
X01396Y00707
X0135095Y0070019
X0131159
X0127284
Y0066082
X0131159
X01235Y00654
X01204Y00652
X0123347Y008183
X0131159Y0077553
X0135089Y0074036
X0119609Y0093805
X01547Y0098458
Y0100842
X0158863Y01014
X0164484Y0100678
X01651Y0102027
X0164245Y0120133
X01641Y0121808
X01633Y01265
X01609Y012959
X00443Y01075
X0042109Y0101941
X0041Y00995
X00382Y01009
X0047244Y0102362
Y0094488
X00415Y00923
X0039835Y0083652
X00438Y00822
X00457Y00823
X0047718Y0082317
X0047644Y0084452
X0055239Y0086355
Y0088334
Y00902
X00535Y00493
X00549Y00472
Y00447
X00521
Y00472
X0062168Y0051232
X003937Y0149607
X01954Y01494
X01972
X0201294
X0203263
X02072
X02092
X0213111
X0215079
X0212598Y0141733
X0220472
Y0133858
X022059Y0128083
X0217245Y0127944
X0212629Y012201
X02124Y01204
X0212242Y0113234
X0212Y01101
X0211978Y010688
X0212Y0103785
X02123Y0099783
Y00983
X0212493Y0095877
X02156Y00959
X0215751Y0099088
X02189Y00991
X02225Y00995
X02235Y01018
X0222547Y0103793
Y0106942
Y0110092
Y0113241
Y0116391
Y0119541
Y012269
X0218679Y0117679
X02183Y01149
X0215997Y0111349
X02158Y01083
X02159Y01047
X02152Y00928
X0219Y00929
X02232Y00911
X0222547Y0088044
Y0084895
Y0081745
Y0078596
X02184Y00801
X021249Y0080132
X02121Y00838
X0212493Y0086428
X02122Y00886
X02155Y00862
X02159Y00836
X02031Y00805
X02037Y00783
X0200259Y0076401
X01968Y00803
X0196951Y0081905
X0197167Y0086766
X0199895Y0086428
Y0089881
X0199872Y0092586
X01971Y00928
X0197141Y0089941
X0196597Y0095861
X0199841Y0095809
X02001Y00996
X01998Y01022
X0200249Y010505
X0203079Y0102245
X02035Y01004
X0196709Y0099533
X0196449Y0102793
X01973Y01079
X0197082Y0110932
X0200016Y0112126
X01999Y01151
X0203079Y0117993
X02029Y01214
X0199621Y0123532
X0204017Y0110082
X0204Y01086
X0228346Y0110236
Y011811
Y0125984
Y0133858
X0244094
X0245129Y0135632
X0246799Y0133962
X0247517Y0131711
Y0129349
Y0126987
Y0124624
X0250683Y0125006
Y0122644
Y0117919
X0247517Y0117538
X02446Y01202
X02445Y01143
X02444Y01081
X0247517Y0105727
X0250683Y0106108
Y0103746
Y0099022
X0247517Y009864
X02445Y00961
X02443Y00902
X0247517Y0086829
X0250683Y0087211
Y0082486
Y0080124
Y00754
X024956Y0073321
X024789Y0071651
X0246219Y0069981
X0244549Y006831
X0242406Y0067317
X0240044
X0237682
X0235319
X0232957
X0230595
X0228233
X0228346Y0062992
X0236221
X0244094
Y0055118
Y0047244
Y003937
Y0031496
X0236221
Y003937
Y0047244
Y0055118
X0228346Y0047244
X02206Y00473
X0219153Y0044049
X0215Y00483
X02117Y00476
X02125Y00508
X02104Y00529
X02071Y00523
X0208Y00553
X02043Y00552
X0206Y00573
X02111Y00569
X02132Y00549
X0215Y0053
X02151Y00574
X0222153Y00573
X02216Y00608
X0220472Y0062992
X0212598
X0204724
X02019Y00616
X01992Y00632
X0197471Y0058271
X01973Y0046881
Y00431
X02038Y00423
X0204724Y0031496
X0203346Y00277
X0201378
X0197441
X0195472
X0199479Y0020455
X0205396Y0020555
X0204724Y0015748
X02054Y001389
X0207326
X0209294
X0213231
X02152
X0219137
X0221105
X0220472Y0015748
X0225042Y001389
X0227011
X0228346Y0015748
X022897Y001261
X0229007Y0020455
X0223101
X0217196
X021129
X0212598Y0015748
X0211945Y0008949
X0217893Y0008991
X02231Y00028
X0236221Y0007874
Y0015748
X0244094
X0236221Y0023622
X0226968Y00277
X0225
X0221063
X0219094
X0215157
X0213189
X0209252
X0207283
X0203437Y001389
X0201468
X01995Y00133
X0197531Y001389
X0195563
X0228346Y0031496
Y003937
X0232098Y0070483
X023446
X0236822
X0239184
X0241547
X0243529Y0071768
X0245199Y0073438
X024687Y0075108
X02455Y00782
X0245Y00842
X0250683Y0091935
Y0094297
X02444Y01022
X0250683Y0110833
Y0127368
Y012973
Y0132092
X0250554Y0134451
X0249004Y0136234
X0247334Y0137905
X0245664Y0139575
X0243993Y0141245
X0242323Y0142915
X0240653Y0144586
X0241788Y0138973
X0243459Y0137302
X0244094Y0125984
Y0149607
X0233971Y0151267
X0232301Y0152937
X0231766Y0148995
X0233437Y0147324
X02289Y01498
X0212598Y0133858
X0228346Y0102362
X02297Y00977
Y0089
X02309Y00866
X02312Y0084514
Y0082529
Y0080543
Y0078557
Y0076571
Y0074586
Y00726
X0230631Y0154608
X022729Y0157949
X022562Y0159619
X0223949Y0161289
X0222279Y016296
X0220609Y016463
X0218938Y01663
X0217079Y0168
X0215
X0213158
X02132Y0165
X02113Y01635
X02096Y0165
X02067
X02048Y01635
X02031Y0165
X0203338Y0168
X0205242
X0201238
X0199363
X01954
X01971Y016
X01997Y01599
X01993Y0156645
X0211111
X0212598Y0157481
X0217016Y0156645
X0222628Y0156351
X0221744Y0159017
X0220074Y0160687
X0218404Y0162357
X0222985Y0168
X022889
X0236221Y0165355
X0211105Y01746
X0187557Y0174835
X018Y01729
X0183591Y0168109
X0181102Y0165355
X0177353Y0165045
X0173228Y0165355
X0171253Y0165045
X0165253
X015748Y0165355
X0153453Y0165045
X0149606Y0165355
X0147553Y0165045
X0146559Y0169445
X0144607Y016851
X0142638
X0140653Y0169445
X0138701Y016851
X0136733
X0134748Y0169445
X0132796Y016851
X0130827
X0128853Y0169445
X012689Y016851
X0124922
X0122948Y0169445
X0120985Y016851
X0119016
X0117031Y0169445
X0115079Y016851
X0113111
X0111126Y0169445
X0109174Y016851
X0107205
X010522Y0169445
X0103268Y016851
X01013
X0099315Y0169445
X0094Y0165045
X00904
X0085425Y0163317
X00855Y01601
X0085425Y016686
X0078575Y0166868
Y0163324
Y0160175
X0070866Y0165355
X0062992
X0055118
X00519Y01615
X00435Y0167
Y0169
Y0171
X00385Y01705
Y01675
X0106428Y0158079
X0111063Y0157945
X0116968
X0122863Y0157845
X0128779Y0157945
X0134685
X0140652Y015809
X011811Y0165355
X0193431Y0168
X0193394Y0156645
X0034741Y0155896
X0015748Y0157481
X0007874
T03
X00108Y00888
Y00984
T04
X00085Y00082
X02474Y00082
Y01561
X00085Y01672
T05
X00273Y0124459
Y0147215
M30
