G04*
G04 #@! TF.GenerationSoftware,Altium Limited,Altium Designer,21.4.1 (30)*
G04*
G04 Layer_Color=8388736*
%FSLAX25Y25*%
%MOIN*%
G70*
G04*
G04 #@! TF.SameCoordinates,690C2B1C-B9AF-4ECE-B77D-8E73C62371D7*
G04*
G04*
G04 #@! TF.FilePolarity,Negative*
G04*
G01*
G75*
%ADD20C,0.00000*%
%ADD21R,0.01581X0.05124*%
%ADD22R,0.02762X0.06502*%
%ADD23R,0.03353X0.04337*%
%ADD24R,0.13786X0.04258*%
%ADD25R,0.05715X0.04140*%
%ADD26R,0.06699X0.04337*%
%ADD27R,0.03353X0.03943*%
G04:AMPARAMS|DCode=28|XSize=25.26mil|YSize=19.75mil|CornerRadius=5.94mil|HoleSize=0mil|Usage=FLASHONLY|Rotation=90.000|XOffset=0mil|YOffset=0mil|HoleType=Round|Shape=RoundedRectangle|*
%AMROUNDEDRECTD28*
21,1,0.02526,0.00787,0,0,90.0*
21,1,0.01339,0.01975,0,0,90.0*
1,1,0.01187,0.00394,0.00669*
1,1,0.01187,0.00394,-0.00669*
1,1,0.01187,-0.00394,-0.00669*
1,1,0.01187,-0.00394,0.00669*
%
%ADD28ROUNDEDRECTD28*%
%ADD29R,0.03550X0.03550*%
%ADD30R,0.04337X0.03943*%
%ADD31R,0.04258X0.13786*%
%ADD32R,0.08746X0.06306*%
%ADD33R,0.13600X0.17100*%
%ADD34R,0.03400X0.01700*%
%ADD35C,0.02368*%
%ADD36R,0.05600X0.02400*%
%ADD37R,0.05600X0.02600*%
G04:AMPARAMS|DCode=38|XSize=37.86mil|YSize=14.63mil|CornerRadius=3.33mil|HoleSize=0mil|Usage=FLASHONLY|Rotation=0.000|XOffset=0mil|YOffset=0mil|HoleType=Round|Shape=RoundedRectangle|*
%AMROUNDEDRECTD38*
21,1,0.03786,0.00797,0,0,0.0*
21,1,0.03120,0.01463,0,0,0.0*
1,1,0.00666,0.01560,-0.00399*
1,1,0.00666,-0.01560,-0.00399*
1,1,0.00666,-0.01560,0.00399*
1,1,0.00666,0.01560,0.00399*
%
%ADD38ROUNDEDRECTD38*%
G04:AMPARAMS|DCode=39|XSize=37.86mil|YSize=14.63mil|CornerRadius=3.33mil|HoleSize=0mil|Usage=FLASHONLY|Rotation=270.000|XOffset=0mil|YOffset=0mil|HoleType=Round|Shape=RoundedRectangle|*
%AMROUNDEDRECTD39*
21,1,0.03786,0.00797,0,0,270.0*
21,1,0.03120,0.01463,0,0,270.0*
1,1,0.00666,-0.00399,-0.01560*
1,1,0.00666,-0.00399,0.01560*
1,1,0.00666,0.00399,0.01560*
1,1,0.00666,0.00399,-0.01560*
%
%ADD39ROUNDEDRECTD39*%
%ADD40R,0.22447X0.22447*%
%ADD41C,0.01378*%
%ADD42R,0.04888X0.01581*%
%ADD43R,0.04888X0.02762*%
%ADD44R,0.02762X0.02762*%
%ADD45R,0.04731X0.05124*%
%ADD46C,0.02093*%
%ADD47R,0.04061X0.03077*%
%ADD48R,0.04061X0.02290*%
%ADD49R,0.02447X0.02447*%
%ADD50R,0.02762X0.02762*%
%ADD51R,0.03943X0.04337*%
%ADD52R,0.03550X0.03550*%
%ADD53R,0.02447X0.02447*%
%ADD54R,0.04140X0.05715*%
%ADD55R,0.09843X0.09843*%
%ADD56C,0.02959*%
%ADD57O,0.05912X0.02762*%
%ADD58O,0.07093X0.02762*%
%ADD59C,0.07874*%
%ADD60C,0.05906*%
%ADD61C,0.01384*%
D20*
X102845Y126934D02*
G03*
X102845Y126934I-984J0D01*
G01*
X106782D02*
G03*
X106782Y126934I-984J0D01*
G01*
X110719D02*
G03*
X110719Y126934I-984J0D01*
G01*
X114656D02*
G03*
X114656Y126934I-984J0D01*
G01*
X118593D02*
G03*
X118593Y126934I-984J0D01*
G01*
X122530D02*
G03*
X122530Y126934I-984J0D01*
G01*
X126468D02*
G03*
X126468Y126934I-984J0D01*
G01*
X130404D02*
G03*
X130404Y126934I-984J0D01*
G01*
X134342D02*
G03*
X134342Y126934I-984J0D01*
G01*
X138278D02*
G03*
X138278Y126934I-984J0D01*
G01*
X142216D02*
G03*
X142216Y126934I-984J0D01*
G01*
X146152D02*
G03*
X146152Y126934I-984J0D01*
G01*
X150090D02*
G03*
X150090Y126934I-984J0D01*
G01*
X154026D02*
G03*
X154026Y126934I-984J0D01*
G01*
X157964D02*
G03*
X157964Y126934I-984J0D01*
G01*
X161900D02*
G03*
X161900Y126934I-984J0D01*
G01*
X102845Y122996D02*
G03*
X102845Y122996I-984J0D01*
G01*
X106782D02*
G03*
X106782Y122996I-984J0D01*
G01*
X110719D02*
G03*
X110719Y122996I-984J0D01*
G01*
X114656D02*
G03*
X114656Y122996I-984J0D01*
G01*
X118593D02*
G03*
X118593Y122996I-984J0D01*
G01*
X122530D02*
G03*
X122530Y122996I-984J0D01*
G01*
X126468D02*
G03*
X126468Y122996I-984J0D01*
G01*
X130404D02*
G03*
X130404Y122996I-984J0D01*
G01*
X134342D02*
G03*
X134342Y122996I-984J0D01*
G01*
X138278D02*
G03*
X138278Y122996I-984J0D01*
G01*
X142216D02*
G03*
X142216Y122996I-984J0D01*
G01*
X146152D02*
G03*
X146152Y122996I-984J0D01*
G01*
X150090D02*
G03*
X150090Y122996I-984J0D01*
G01*
X154026D02*
G03*
X154026Y122996I-984J0D01*
G01*
X157964D02*
G03*
X157964Y122996I-984J0D01*
G01*
X161900D02*
G03*
X161900Y122996I-984J0D01*
G01*
X102845Y119060D02*
G03*
X102845Y119060I-984J0D01*
G01*
X106782D02*
G03*
X106782Y119060I-984J0D01*
G01*
X110719D02*
G03*
X110719Y119060I-984J0D01*
G01*
X114656D02*
G03*
X114656Y119060I-984J0D01*
G01*
X118593D02*
G03*
X118593Y119060I-984J0D01*
G01*
X122530D02*
G03*
X122530Y119060I-984J0D01*
G01*
X126468D02*
G03*
X126468Y119060I-984J0D01*
G01*
X130404D02*
G03*
X130404Y119060I-984J0D01*
G01*
X134342D02*
G03*
X134342Y119060I-984J0D01*
G01*
X138278D02*
G03*
X138278Y119060I-984J0D01*
G01*
X142216D02*
G03*
X142216Y119060I-984J0D01*
G01*
X146152D02*
G03*
X146152Y119060I-984J0D01*
G01*
X150090D02*
G03*
X150090Y119060I-984J0D01*
G01*
X154026D02*
G03*
X154026Y119060I-984J0D01*
G01*
X157964D02*
G03*
X157964Y119060I-984J0D01*
G01*
X161900D02*
G03*
X161900Y119060I-984J0D01*
G01*
X102845Y115122D02*
G03*
X102845Y115122I-984J0D01*
G01*
X106782D02*
G03*
X106782Y115122I-984J0D01*
G01*
X110719D02*
G03*
X110719Y115122I-984J0D01*
G01*
X114656D02*
G03*
X114656Y115122I-984J0D01*
G01*
X118593D02*
G03*
X118593Y115122I-984J0D01*
G01*
X122530D02*
G03*
X122530Y115122I-984J0D01*
G01*
X126468D02*
G03*
X126468Y115122I-984J0D01*
G01*
X130404D02*
G03*
X130404Y115122I-984J0D01*
G01*
X134342D02*
G03*
X134342Y115122I-984J0D01*
G01*
X138278D02*
G03*
X138278Y115122I-984J0D01*
G01*
X142216D02*
G03*
X142216Y115122I-984J0D01*
G01*
X146152D02*
G03*
X146152Y115122I-984J0D01*
G01*
X150090D02*
G03*
X150090Y115122I-984J0D01*
G01*
X154026D02*
G03*
X154026Y115122I-984J0D01*
G01*
X157964D02*
G03*
X157964Y115122I-984J0D01*
G01*
X161900D02*
G03*
X161900Y115122I-984J0D01*
G01*
X102845Y111185D02*
G03*
X102845Y111185I-984J0D01*
G01*
X106782D02*
G03*
X106782Y111185I-984J0D01*
G01*
X110719D02*
G03*
X110719Y111185I-984J0D01*
G01*
X114656D02*
G03*
X114656Y111185I-984J0D01*
G01*
X118593D02*
G03*
X118593Y111185I-984J0D01*
G01*
X122530D02*
G03*
X122530Y111185I-984J0D01*
G01*
X126468D02*
G03*
X126468Y111185I-984J0D01*
G01*
X130404D02*
G03*
X130404Y111185I-984J0D01*
G01*
X134342D02*
G03*
X134342Y111185I-984J0D01*
G01*
X138278D02*
G03*
X138278Y111185I-984J0D01*
G01*
X142216D02*
G03*
X142216Y111185I-984J0D01*
G01*
X146152D02*
G03*
X146152Y111185I-984J0D01*
G01*
X150090D02*
G03*
X150090Y111185I-984J0D01*
G01*
X154026D02*
G03*
X154026Y111185I-984J0D01*
G01*
X157964D02*
G03*
X157964Y111185I-984J0D01*
G01*
X161900D02*
G03*
X161900Y111185I-984J0D01*
G01*
X102845Y107248D02*
G03*
X102845Y107248I-984J0D01*
G01*
X106782D02*
G03*
X106782Y107248I-984J0D01*
G01*
X110719D02*
G03*
X110719Y107248I-984J0D01*
G01*
X114656D02*
G03*
X114656Y107248I-984J0D01*
G01*
X118593D02*
G03*
X118593Y107248I-984J0D01*
G01*
X122530D02*
G03*
X122530Y107248I-984J0D01*
G01*
X126468D02*
G03*
X126468Y107248I-984J0D01*
G01*
X130404D02*
G03*
X130404Y107248I-984J0D01*
G01*
X134342D02*
G03*
X134342Y107248I-984J0D01*
G01*
X138278D02*
G03*
X138278Y107248I-984J0D01*
G01*
X142216D02*
G03*
X142216Y107248I-984J0D01*
G01*
X146152D02*
G03*
X146152Y107248I-984J0D01*
G01*
X150090D02*
G03*
X150090Y107248I-984J0D01*
G01*
X154026D02*
G03*
X154026Y107248I-984J0D01*
G01*
X157964D02*
G03*
X157964Y107248I-984J0D01*
G01*
X161900D02*
G03*
X161900Y107248I-984J0D01*
G01*
X102845Y103311D02*
G03*
X102845Y103311I-984J0D01*
G01*
X106782D02*
G03*
X106782Y103311I-984J0D01*
G01*
X110719D02*
G03*
X110719Y103311I-984J0D01*
G01*
X114656D02*
G03*
X114656Y103311I-984J0D01*
G01*
X118593D02*
G03*
X118593Y103311I-984J0D01*
G01*
X122530D02*
G03*
X122530Y103311I-984J0D01*
G01*
X126468D02*
G03*
X126468Y103311I-984J0D01*
G01*
X130404D02*
G03*
X130404Y103311I-984J0D01*
G01*
X134342D02*
G03*
X134342Y103311I-984J0D01*
G01*
X138278D02*
G03*
X138278Y103311I-984J0D01*
G01*
X142216D02*
G03*
X142216Y103311I-984J0D01*
G01*
X146152D02*
G03*
X146152Y103311I-984J0D01*
G01*
X150090D02*
G03*
X150090Y103311I-984J0D01*
G01*
X154026D02*
G03*
X154026Y103311I-984J0D01*
G01*
X157964D02*
G03*
X157964Y103311I-984J0D01*
G01*
X161900D02*
G03*
X161900Y103311I-984J0D01*
G01*
X102845Y99374D02*
G03*
X102845Y99374I-984J0D01*
G01*
X106782D02*
G03*
X106782Y99374I-984J0D01*
G01*
X110719D02*
G03*
X110719Y99374I-984J0D01*
G01*
X114656D02*
G03*
X114656Y99374I-984J0D01*
G01*
X118593D02*
G03*
X118593Y99374I-984J0D01*
G01*
X122530D02*
G03*
X122530Y99374I-984J0D01*
G01*
X126468D02*
G03*
X126468Y99374I-984J0D01*
G01*
X130404D02*
G03*
X130404Y99374I-984J0D01*
G01*
X134342D02*
G03*
X134342Y99374I-984J0D01*
G01*
X138278D02*
G03*
X138278Y99374I-984J0D01*
G01*
X142216D02*
G03*
X142216Y99374I-984J0D01*
G01*
X146152D02*
G03*
X146152Y99374I-984J0D01*
G01*
X150090D02*
G03*
X150090Y99374I-984J0D01*
G01*
X154026D02*
G03*
X154026Y99374I-984J0D01*
G01*
X157964D02*
G03*
X157964Y99374I-984J0D01*
G01*
X161900D02*
G03*
X161900Y99374I-984J0D01*
G01*
X102845Y95437D02*
G03*
X102845Y95437I-984J0D01*
G01*
X106782D02*
G03*
X106782Y95437I-984J0D01*
G01*
X110719D02*
G03*
X110719Y95437I-984J0D01*
G01*
X114656D02*
G03*
X114656Y95437I-984J0D01*
G01*
X118593D02*
G03*
X118593Y95437I-984J0D01*
G01*
X122530D02*
G03*
X122530Y95437I-984J0D01*
G01*
X126468D02*
G03*
X126468Y95437I-984J0D01*
G01*
X130404D02*
G03*
X130404Y95437I-984J0D01*
G01*
X134342D02*
G03*
X134342Y95437I-984J0D01*
G01*
X138278D02*
G03*
X138278Y95437I-984J0D01*
G01*
X142216D02*
G03*
X142216Y95437I-984J0D01*
G01*
X146152D02*
G03*
X146152Y95437I-984J0D01*
G01*
X150090D02*
G03*
X150090Y95437I-984J0D01*
G01*
X154026D02*
G03*
X154026Y95437I-984J0D01*
G01*
X157964D02*
G03*
X157964Y95437I-984J0D01*
G01*
X161900D02*
G03*
X161900Y95437I-984J0D01*
G01*
X102845Y91500D02*
G03*
X102845Y91500I-984J0D01*
G01*
X106782D02*
G03*
X106782Y91500I-984J0D01*
G01*
X110719D02*
G03*
X110719Y91500I-984J0D01*
G01*
X114656D02*
G03*
X114656Y91500I-984J0D01*
G01*
X118593D02*
G03*
X118593Y91500I-984J0D01*
G01*
X122530D02*
G03*
X122530Y91500I-984J0D01*
G01*
X126468D02*
G03*
X126468Y91500I-984J0D01*
G01*
X130404D02*
G03*
X130404Y91500I-984J0D01*
G01*
X134342D02*
G03*
X134342Y91500I-984J0D01*
G01*
X138278D02*
G03*
X138278Y91500I-984J0D01*
G01*
X142216D02*
G03*
X142216Y91500I-984J0D01*
G01*
X146152D02*
G03*
X146152Y91500I-984J0D01*
G01*
X150090D02*
G03*
X150090Y91500I-984J0D01*
G01*
X154026D02*
G03*
X154026Y91500I-984J0D01*
G01*
X157964D02*
G03*
X157964Y91500I-984J0D01*
G01*
X161900D02*
G03*
X161900Y91500I-984J0D01*
G01*
X102845Y87563D02*
G03*
X102845Y87563I-984J0D01*
G01*
X106782D02*
G03*
X106782Y87563I-984J0D01*
G01*
X110719D02*
G03*
X110719Y87563I-984J0D01*
G01*
X114656D02*
G03*
X114656Y87563I-984J0D01*
G01*
X118593D02*
G03*
X118593Y87563I-984J0D01*
G01*
X122530D02*
G03*
X122530Y87563I-984J0D01*
G01*
X126468D02*
G03*
X126468Y87563I-984J0D01*
G01*
X130404D02*
G03*
X130404Y87563I-984J0D01*
G01*
X134342D02*
G03*
X134342Y87563I-984J0D01*
G01*
X138278D02*
G03*
X138278Y87563I-984J0D01*
G01*
X142216D02*
G03*
X142216Y87563I-984J0D01*
G01*
X146152D02*
G03*
X146152Y87563I-984J0D01*
G01*
X150090D02*
G03*
X150090Y87563I-984J0D01*
G01*
X154026D02*
G03*
X154026Y87563I-984J0D01*
G01*
X157964D02*
G03*
X157964Y87563I-984J0D01*
G01*
X161900D02*
G03*
X161900Y87563I-984J0D01*
G01*
X102845Y83626D02*
G03*
X102845Y83626I-984J0D01*
G01*
X106782D02*
G03*
X106782Y83626I-984J0D01*
G01*
X110719D02*
G03*
X110719Y83626I-984J0D01*
G01*
X114656D02*
G03*
X114656Y83626I-984J0D01*
G01*
X118593D02*
G03*
X118593Y83626I-984J0D01*
G01*
X122530D02*
G03*
X122530Y83626I-984J0D01*
G01*
X126468D02*
G03*
X126468Y83626I-984J0D01*
G01*
X130404D02*
G03*
X130404Y83626I-984J0D01*
G01*
X134342D02*
G03*
X134342Y83626I-984J0D01*
G01*
X138278D02*
G03*
X138278Y83626I-984J0D01*
G01*
X142216D02*
G03*
X142216Y83626I-984J0D01*
G01*
X146152D02*
G03*
X146152Y83626I-984J0D01*
G01*
X150090D02*
G03*
X150090Y83626I-984J0D01*
G01*
X154026D02*
G03*
X154026Y83626I-984J0D01*
G01*
X157964D02*
G03*
X157964Y83626I-984J0D01*
G01*
X161900D02*
G03*
X161900Y83626I-984J0D01*
G01*
X102845Y79689D02*
G03*
X102845Y79689I-984J0D01*
G01*
X106782D02*
G03*
X106782Y79689I-984J0D01*
G01*
X110719D02*
G03*
X110719Y79689I-984J0D01*
G01*
X114656D02*
G03*
X114656Y79689I-984J0D01*
G01*
X118593D02*
G03*
X118593Y79689I-984J0D01*
G01*
X122530D02*
G03*
X122530Y79689I-984J0D01*
G01*
X126468D02*
G03*
X126468Y79689I-984J0D01*
G01*
X130404D02*
G03*
X130404Y79689I-984J0D01*
G01*
X134342D02*
G03*
X134342Y79689I-984J0D01*
G01*
X138278D02*
G03*
X138278Y79689I-984J0D01*
G01*
X142216D02*
G03*
X142216Y79689I-984J0D01*
G01*
X146152D02*
G03*
X146152Y79689I-984J0D01*
G01*
X150090D02*
G03*
X150090Y79689I-984J0D01*
G01*
X154026D02*
G03*
X154026Y79689I-984J0D01*
G01*
X157964D02*
G03*
X157964Y79689I-984J0D01*
G01*
X161900D02*
G03*
X161900Y79689I-984J0D01*
G01*
X102845Y75752D02*
G03*
X102845Y75752I-984J0D01*
G01*
X106782D02*
G03*
X106782Y75752I-984J0D01*
G01*
X110719D02*
G03*
X110719Y75752I-984J0D01*
G01*
X114656D02*
G03*
X114656Y75752I-984J0D01*
G01*
X118593D02*
G03*
X118593Y75752I-984J0D01*
G01*
X122530D02*
G03*
X122530Y75752I-984J0D01*
G01*
X126468D02*
G03*
X126468Y75752I-984J0D01*
G01*
X130404D02*
G03*
X130404Y75752I-984J0D01*
G01*
X134342D02*
G03*
X134342Y75752I-984J0D01*
G01*
X138278D02*
G03*
X138278Y75752I-984J0D01*
G01*
X142216D02*
G03*
X142216Y75752I-984J0D01*
G01*
X146152D02*
G03*
X146152Y75752I-984J0D01*
G01*
X150090D02*
G03*
X150090Y75752I-984J0D01*
G01*
X154026D02*
G03*
X154026Y75752I-984J0D01*
G01*
X157964D02*
G03*
X157964Y75752I-984J0D01*
G01*
X161900D02*
G03*
X161900Y75752I-984J0D01*
G01*
X102845Y71815D02*
G03*
X102845Y71815I-984J0D01*
G01*
X106782D02*
G03*
X106782Y71815I-984J0D01*
G01*
X110719D02*
G03*
X110719Y71815I-984J0D01*
G01*
X114656D02*
G03*
X114656Y71815I-984J0D01*
G01*
X118593D02*
G03*
X118593Y71815I-984J0D01*
G01*
X122530D02*
G03*
X122530Y71815I-984J0D01*
G01*
X126468D02*
G03*
X126468Y71815I-984J0D01*
G01*
X130404D02*
G03*
X130404Y71815I-984J0D01*
G01*
X134342D02*
G03*
X134342Y71815I-984J0D01*
G01*
X138278D02*
G03*
X138278Y71815I-984J0D01*
G01*
X142216D02*
G03*
X142216Y71815I-984J0D01*
G01*
X146152D02*
G03*
X146152Y71815I-984J0D01*
G01*
X150090D02*
G03*
X150090Y71815I-984J0D01*
G01*
X154026D02*
G03*
X154026Y71815I-984J0D01*
G01*
X157964D02*
G03*
X157964Y71815I-984J0D01*
G01*
X161900D02*
G03*
X161900Y71815I-984J0D01*
G01*
X102845Y67878D02*
G03*
X102845Y67878I-984J0D01*
G01*
X106782D02*
G03*
X106782Y67878I-984J0D01*
G01*
X110719D02*
G03*
X110719Y67878I-984J0D01*
G01*
X114656D02*
G03*
X114656Y67878I-984J0D01*
G01*
X118593D02*
G03*
X118593Y67878I-984J0D01*
G01*
X122530D02*
G03*
X122530Y67878I-984J0D01*
G01*
X126468D02*
G03*
X126468Y67878I-984J0D01*
G01*
X130404D02*
G03*
X130404Y67878I-984J0D01*
G01*
X134342D02*
G03*
X134342Y67878I-984J0D01*
G01*
X138278D02*
G03*
X138278Y67878I-984J0D01*
G01*
X142216D02*
G03*
X142216Y67878I-984J0D01*
G01*
X146152D02*
G03*
X146152Y67878I-984J0D01*
G01*
X150090D02*
G03*
X150090Y67878I-984J0D01*
G01*
X154026D02*
G03*
X154026Y67878I-984J0D01*
G01*
X157964D02*
G03*
X157964Y67878I-984J0D01*
G01*
X161900D02*
G03*
X161900Y67878I-984J0D01*
G01*
D21*
X108785Y5745D02*
D03*
X106816D02*
D03*
X102879D02*
D03*
X100911D02*
D03*
X102879Y23855D02*
D03*
X100911D02*
D03*
X96974Y5745D02*
D03*
X95005D02*
D03*
X96974Y23855D02*
D03*
X95005D02*
D03*
X91068Y5745D02*
D03*
X89100D02*
D03*
X91068Y23855D02*
D03*
X89100D02*
D03*
X124533Y5745D02*
D03*
X83194D02*
D03*
X85163D02*
D03*
X126501D02*
D03*
X83194Y23855D02*
D03*
X85163D02*
D03*
X124533D02*
D03*
X112722Y5745D02*
D03*
X114690D02*
D03*
X118627D02*
D03*
X126501Y23855D02*
D03*
X112722D02*
D03*
X114690D02*
D03*
X120596Y5745D02*
D03*
X118627Y23855D02*
D03*
X120596D02*
D03*
X106816D02*
D03*
X108785D02*
D03*
X81226D02*
D03*
Y5745D02*
D03*
X93037D02*
D03*
X104848D02*
D03*
Y23855D02*
D03*
X116659Y5745D02*
D03*
Y23855D02*
D03*
X93037D02*
D03*
X128470Y5745D02*
D03*
Y23855D02*
D03*
X87131Y5745D02*
D03*
X110753D02*
D03*
X98942D02*
D03*
X87131Y23855D02*
D03*
X98942D02*
D03*
X110753D02*
D03*
X122564D02*
D03*
Y5745D02*
D03*
X228975Y23810D02*
D03*
X228859Y171400D02*
D03*
Y153290D02*
D03*
X215079Y171400D02*
D03*
X203268D02*
D03*
X201300D02*
D03*
X195394D02*
D03*
X207205D02*
D03*
X189489D02*
D03*
X203268Y153290D02*
D03*
X191457D02*
D03*
X195394D02*
D03*
X201300D02*
D03*
X213111D02*
D03*
X215079D02*
D03*
X209174D02*
D03*
X213111Y171400D02*
D03*
X220985D02*
D03*
X226890D02*
D03*
X220985Y153290D02*
D03*
X226890D02*
D03*
X209174Y171400D02*
D03*
X217048Y153290D02*
D03*
X193426D02*
D03*
X205237D02*
D03*
X181615D02*
D03*
Y171400D02*
D03*
X193426D02*
D03*
X205237D02*
D03*
X217048D02*
D03*
X197363D02*
D03*
X207205Y153290D02*
D03*
X189489D02*
D03*
X197363D02*
D03*
X183583Y171400D02*
D03*
X187520Y153290D02*
D03*
Y171400D02*
D03*
X199331Y153290D02*
D03*
X211142D02*
D03*
X199331Y171400D02*
D03*
X211142D02*
D03*
X222953Y153290D02*
D03*
Y171400D02*
D03*
X219016D02*
D03*
X224922D02*
D03*
X219016Y153290D02*
D03*
X224922D02*
D03*
X191457Y171400D02*
D03*
X185552D02*
D03*
X183583Y153290D02*
D03*
X185552D02*
D03*
X140622Y172700D02*
D03*
X128811D02*
D03*
X140622Y154590D02*
D03*
X128811D02*
D03*
X223070Y23810D02*
D03*
X211259D02*
D03*
X223070Y5700D02*
D03*
X211259D02*
D03*
X199448Y23810D02*
D03*
X187637D02*
D03*
Y5700D02*
D03*
X199448D02*
D03*
X117000Y172700D02*
D03*
X105189D02*
D03*
X117000Y154590D02*
D03*
X105189D02*
D03*
X134716D02*
D03*
Y172700D02*
D03*
X217164Y23810D02*
D03*
X205353D02*
D03*
X193542D02*
D03*
X228975Y5700D02*
D03*
X217164D02*
D03*
X205353D02*
D03*
X193542D02*
D03*
X122905Y172700D02*
D03*
Y154590D02*
D03*
X111094Y172700D02*
D03*
X99283D02*
D03*
X111094Y154590D02*
D03*
X99283D02*
D03*
X181731Y5700D02*
D03*
Y23810D02*
D03*
X146527Y154590D02*
D03*
Y172700D02*
D03*
X124874D02*
D03*
X136685D02*
D03*
Y154590D02*
D03*
X138653D02*
D03*
X142590D02*
D03*
X118968D02*
D03*
X126842Y172700D02*
D03*
X138653D02*
D03*
X142590D02*
D03*
X144559D02*
D03*
Y154590D02*
D03*
X120937D02*
D03*
X124874D02*
D03*
X126842D02*
D03*
X113063Y172700D02*
D03*
X130779Y154590D02*
D03*
X132748D02*
D03*
X118968Y172700D02*
D03*
X113063Y154590D02*
D03*
X115031Y172700D02*
D03*
X130779D02*
D03*
X132748D02*
D03*
X101252Y154590D02*
D03*
X120937Y172700D02*
D03*
X115031Y154590D02*
D03*
X107157D02*
D03*
X103220D02*
D03*
X107157Y172700D02*
D03*
X109126D02*
D03*
Y154590D02*
D03*
X101252Y172700D02*
D03*
X103220D02*
D03*
X225038Y5700D02*
D03*
X213227Y23810D02*
D03*
X225038D02*
D03*
X183700Y5700D02*
D03*
X215196Y23810D02*
D03*
X207322Y5700D02*
D03*
X195511Y23810D02*
D03*
X197479D02*
D03*
X189605Y5700D02*
D03*
X213227D02*
D03*
X209290D02*
D03*
X195511D02*
D03*
X197479D02*
D03*
X191574D02*
D03*
X185668D02*
D03*
X227007D02*
D03*
X215196D02*
D03*
X207322Y23810D02*
D03*
X209290D02*
D03*
X201416D02*
D03*
Y5700D02*
D03*
X183700Y23810D02*
D03*
X185668D02*
D03*
X227007D02*
D03*
X219133D02*
D03*
X221101D02*
D03*
X219133Y5700D02*
D03*
X221101D02*
D03*
X203385Y23810D02*
D03*
Y5700D02*
D03*
X189605Y23810D02*
D03*
X191574D02*
D03*
D22*
X47600Y41200D02*
D03*
X42600D02*
D03*
X37600D02*
D03*
X32600D02*
D03*
X47600Y19940D02*
D03*
X42600D02*
D03*
X37600D02*
D03*
X32600D02*
D03*
D23*
X32739Y12900D02*
D03*
X37660D02*
D03*
X28760Y159600D02*
D03*
X23839D02*
D03*
D24*
X20600Y30400D02*
D03*
Y39731D02*
D03*
X60300Y28035D02*
D03*
Y37365D02*
D03*
D25*
X24900Y18244D02*
D03*
Y23756D02*
D03*
X15400Y23800D02*
D03*
Y18288D02*
D03*
X55200Y20956D02*
D03*
Y15444D02*
D03*
X65100Y20956D02*
D03*
Y15444D02*
D03*
D26*
X167498Y7420D02*
D03*
X142301D02*
D03*
X167498Y22380D02*
D03*
X142301D02*
D03*
D27*
X37139Y96600D02*
D03*
X42060D02*
D03*
X19039Y88400D02*
D03*
X23960D02*
D03*
X62721Y88200D02*
D03*
X57800D02*
D03*
D28*
X37700Y140300D02*
D03*
Y146442D02*
D03*
Y124958D02*
D03*
Y131100D02*
D03*
D29*
X241865Y120032D02*
D03*
X248164D02*
D03*
Y114089D02*
D03*
X241865D02*
D03*
X248164Y108146D02*
D03*
X241865D02*
D03*
X248164Y102203D02*
D03*
X241865D02*
D03*
X248164Y96260D02*
D03*
X241865D02*
D03*
X248164Y90318D02*
D03*
X241865D02*
D03*
X248164Y84375D02*
D03*
X241865D02*
D03*
X248164Y78432D02*
D03*
X241865D02*
D03*
D30*
X82700Y83557D02*
D03*
Y78242D02*
D03*
X93700Y106357D02*
D03*
Y101042D02*
D03*
D31*
X60365Y100800D02*
D03*
X51034D02*
D03*
X30500Y100626D02*
D03*
X21169D02*
D03*
D32*
X32900Y168900D02*
D03*
X49553D02*
D03*
D33*
X209550Y49800D02*
D03*
D34*
X225000Y57300D02*
D03*
Y52300D02*
D03*
Y47300D02*
D03*
Y42300D02*
D03*
X194100D02*
D03*
Y47300D02*
D03*
Y52300D02*
D03*
Y57300D02*
D03*
D35*
X101861Y126934D02*
D03*
X105798D02*
D03*
X109735D02*
D03*
X113672D02*
D03*
X117609D02*
D03*
X121546D02*
D03*
X125483D02*
D03*
X129420D02*
D03*
X133357D02*
D03*
X137294D02*
D03*
X141231D02*
D03*
X145168D02*
D03*
X149105D02*
D03*
X153042D02*
D03*
X156979D02*
D03*
X160916D02*
D03*
X101861Y122996D02*
D03*
X105798D02*
D03*
X109735D02*
D03*
X113672D02*
D03*
X117609D02*
D03*
X121546D02*
D03*
X125483D02*
D03*
X129420D02*
D03*
X133357D02*
D03*
X137294D02*
D03*
X141231D02*
D03*
X145168D02*
D03*
X149105D02*
D03*
X153042D02*
D03*
X156979D02*
D03*
X160916D02*
D03*
X101861Y119060D02*
D03*
X105798D02*
D03*
X109735D02*
D03*
X113672D02*
D03*
X117609D02*
D03*
X121546D02*
D03*
X125483D02*
D03*
X129420D02*
D03*
X133357D02*
D03*
X137294D02*
D03*
X141231D02*
D03*
X145168D02*
D03*
X149105D02*
D03*
X153042D02*
D03*
X156979D02*
D03*
X160916D02*
D03*
X101861Y115122D02*
D03*
X105798D02*
D03*
X109735D02*
D03*
X113672D02*
D03*
X117609D02*
D03*
X121546D02*
D03*
X125483D02*
D03*
X129420D02*
D03*
X133357D02*
D03*
X137294D02*
D03*
X141231D02*
D03*
X145168D02*
D03*
X149105D02*
D03*
X153042D02*
D03*
X156979D02*
D03*
X160916D02*
D03*
X101861Y111185D02*
D03*
X105798D02*
D03*
X109735D02*
D03*
X113672D02*
D03*
X117609D02*
D03*
X121546D02*
D03*
X125483D02*
D03*
X129420D02*
D03*
X133357D02*
D03*
X137294D02*
D03*
X141231D02*
D03*
X145168D02*
D03*
X149105D02*
D03*
X153042D02*
D03*
X156979D02*
D03*
X160916D02*
D03*
X101861Y107248D02*
D03*
X105798D02*
D03*
X109735D02*
D03*
X113672D02*
D03*
X117609D02*
D03*
X121546D02*
D03*
X125483D02*
D03*
X129420D02*
D03*
X133357D02*
D03*
X137294D02*
D03*
X141231D02*
D03*
X145168D02*
D03*
X149105D02*
D03*
X153042D02*
D03*
X156979D02*
D03*
X160916D02*
D03*
X101861Y103311D02*
D03*
X105798D02*
D03*
X109735D02*
D03*
X113672D02*
D03*
X117609D02*
D03*
X121546D02*
D03*
X125483D02*
D03*
X129420D02*
D03*
X133357D02*
D03*
X137294D02*
D03*
X141231D02*
D03*
X145168D02*
D03*
X149105D02*
D03*
X153042D02*
D03*
X156979D02*
D03*
X160916D02*
D03*
X101861Y99374D02*
D03*
X105798D02*
D03*
X109735D02*
D03*
X113672D02*
D03*
X117609D02*
D03*
X121546D02*
D03*
X125483D02*
D03*
X129420D02*
D03*
X133357D02*
D03*
X137294D02*
D03*
X141231D02*
D03*
X145168D02*
D03*
X149105D02*
D03*
X153042D02*
D03*
X156979D02*
D03*
X160916D02*
D03*
X101861Y95437D02*
D03*
X105798D02*
D03*
X109735D02*
D03*
X113672D02*
D03*
X117609D02*
D03*
X121546D02*
D03*
X125483D02*
D03*
X129420D02*
D03*
X133357D02*
D03*
X137294D02*
D03*
X141231D02*
D03*
X145168D02*
D03*
X149105D02*
D03*
X153042D02*
D03*
X156979D02*
D03*
X160916D02*
D03*
X101861Y91500D02*
D03*
X105798D02*
D03*
X109735D02*
D03*
X113672D02*
D03*
X117609D02*
D03*
X121546D02*
D03*
X125483D02*
D03*
X129420D02*
D03*
X133357D02*
D03*
X137294D02*
D03*
X141231D02*
D03*
X145168D02*
D03*
X149105D02*
D03*
X153042D02*
D03*
X156979D02*
D03*
X160916D02*
D03*
X101861Y87563D02*
D03*
X105798D02*
D03*
X109735D02*
D03*
X113672D02*
D03*
X117609D02*
D03*
X121546D02*
D03*
X125483D02*
D03*
X129420D02*
D03*
X133357D02*
D03*
X137294D02*
D03*
X141231D02*
D03*
X145168D02*
D03*
X149105D02*
D03*
X153042D02*
D03*
X156979D02*
D03*
X160916D02*
D03*
X101861Y83626D02*
D03*
X105798D02*
D03*
X109735D02*
D03*
X113672D02*
D03*
X117609D02*
D03*
X121546D02*
D03*
X125483D02*
D03*
X129420D02*
D03*
X133357D02*
D03*
X137294D02*
D03*
X141231D02*
D03*
X145168D02*
D03*
X149105D02*
D03*
X153042D02*
D03*
X156979D02*
D03*
X160916D02*
D03*
X101861Y79689D02*
D03*
X105798D02*
D03*
X109735D02*
D03*
X113672D02*
D03*
X117609D02*
D03*
X121546D02*
D03*
X125483D02*
D03*
X129420D02*
D03*
X133357D02*
D03*
X137294D02*
D03*
X141231D02*
D03*
X145168D02*
D03*
X149105D02*
D03*
X153042D02*
D03*
X156979D02*
D03*
X160916D02*
D03*
X101861Y75752D02*
D03*
X105798D02*
D03*
X109735D02*
D03*
X113672D02*
D03*
X117609D02*
D03*
X121546D02*
D03*
X125483D02*
D03*
X129420D02*
D03*
X133357D02*
D03*
X137294D02*
D03*
X141231D02*
D03*
X145168D02*
D03*
X149105D02*
D03*
X153042D02*
D03*
X156979D02*
D03*
X160916D02*
D03*
X101861Y71815D02*
D03*
X105798D02*
D03*
X109735D02*
D03*
X113672D02*
D03*
X117609D02*
D03*
X121546D02*
D03*
X125483D02*
D03*
X129420D02*
D03*
X133357D02*
D03*
X137294D02*
D03*
X141231D02*
D03*
X145168D02*
D03*
X149105D02*
D03*
X153042D02*
D03*
X156979D02*
D03*
X160916D02*
D03*
X101861Y67878D02*
D03*
X105798D02*
D03*
X109735D02*
D03*
X113672D02*
D03*
X117609D02*
D03*
X121546D02*
D03*
X125483D02*
D03*
X129420D02*
D03*
X133357D02*
D03*
X137294D02*
D03*
X141231D02*
D03*
X145168D02*
D03*
X149105D02*
D03*
X153042D02*
D03*
X156979D02*
D03*
X160916D02*
D03*
D36*
X84700Y88700D02*
D03*
D37*
X93300Y92400D02*
D03*
Y85000D02*
D03*
D38*
X29276Y76927D02*
D03*
Y74958D02*
D03*
Y72990D02*
D03*
Y71021D02*
D03*
Y69053D02*
D03*
Y67084D02*
D03*
Y65116D02*
D03*
Y63147D02*
D03*
Y61179D02*
D03*
Y59210D02*
D03*
Y57242D02*
D03*
Y55273D02*
D03*
X56323D02*
D03*
Y57242D02*
D03*
Y59210D02*
D03*
Y61179D02*
D03*
Y63147D02*
D03*
Y65116D02*
D03*
Y67084D02*
D03*
Y69053D02*
D03*
Y71021D02*
D03*
Y72990D02*
D03*
Y74958D02*
D03*
Y76927D02*
D03*
D39*
X53627Y79624D02*
D03*
X51658D02*
D03*
X49690D02*
D03*
X47721D02*
D03*
X45753D02*
D03*
X43784D02*
D03*
X41816D02*
D03*
X39847D02*
D03*
X37879D02*
D03*
X35910D02*
D03*
X33942D02*
D03*
X31973D02*
D03*
Y52576D02*
D03*
X33942D02*
D03*
X35910D02*
D03*
X37879D02*
D03*
X39847D02*
D03*
X41816D02*
D03*
X43784D02*
D03*
X45753D02*
D03*
X47721D02*
D03*
X49690D02*
D03*
X51658D02*
D03*
X53627D02*
D03*
D40*
X42800Y66100D02*
D03*
D41*
X79623Y63027D02*
D03*
X77556Y66944D02*
D03*
X79623D02*
D03*
X77556Y63027D02*
D03*
Y64986D02*
D03*
X79623D02*
D03*
D42*
X31512Y128947D02*
D03*
Y130916D02*
D03*
Y132884D02*
D03*
Y134853D02*
D03*
Y136821D02*
D03*
Y138790D02*
D03*
Y140758D02*
D03*
Y142727D02*
D03*
D43*
Y145286D02*
D03*
Y126388D02*
D03*
Y123238D02*
D03*
Y148435D02*
D03*
D44*
X37200Y152000D02*
D03*
Y156200D02*
D03*
X38200Y107362D02*
D03*
Y103162D02*
D03*
X42100Y107362D02*
D03*
Y103162D02*
D03*
X10900Y73391D02*
D03*
Y77591D02*
D03*
X15100Y73400D02*
D03*
Y77600D02*
D03*
X69900Y71257D02*
D03*
Y67057D02*
D03*
Y75100D02*
D03*
Y79300D02*
D03*
X15600Y60162D02*
D03*
Y55962D02*
D03*
X11400Y60162D02*
D03*
Y55962D02*
D03*
X69900Y59000D02*
D03*
Y63200D02*
D03*
Y55100D02*
D03*
Y50900D02*
D03*
X131200Y53400D02*
D03*
Y49200D02*
D03*
X231300Y52800D02*
D03*
Y57000D02*
D03*
X76600Y104800D02*
D03*
Y109000D02*
D03*
X68400Y104800D02*
D03*
Y109000D02*
D03*
X72500Y104800D02*
D03*
Y109000D02*
D03*
X80400Y104800D02*
D03*
Y109000D02*
D03*
D45*
X137600Y40200D02*
D03*
Y50200D02*
D03*
X146655D02*
D03*
Y40200D02*
D03*
D46*
X195222Y125815D02*
D03*
X198372D02*
D03*
X201521D02*
D03*
X214120D02*
D03*
X217269D02*
D03*
X220419D02*
D03*
X195222Y122666D02*
D03*
X198372D02*
D03*
X201521D02*
D03*
X214120D02*
D03*
X217269D02*
D03*
X220419D02*
D03*
X195222Y119516D02*
D03*
X198372D02*
D03*
X201521D02*
D03*
X214120D02*
D03*
X217269D02*
D03*
X220419D02*
D03*
X195222Y116367D02*
D03*
X198372D02*
D03*
X201521D02*
D03*
X214120D02*
D03*
X217269D02*
D03*
X220419D02*
D03*
X195222Y113217D02*
D03*
X198372D02*
D03*
X201521D02*
D03*
X214120D02*
D03*
X217269D02*
D03*
X220419D02*
D03*
X195222Y110067D02*
D03*
X198372D02*
D03*
X201521D02*
D03*
X214120D02*
D03*
X217269D02*
D03*
X220419D02*
D03*
X195222Y106918D02*
D03*
X198372D02*
D03*
X201521D02*
D03*
X214120D02*
D03*
X217269D02*
D03*
X220419D02*
D03*
X195222Y103768D02*
D03*
X198372D02*
D03*
X201521D02*
D03*
X214120D02*
D03*
X217269D02*
D03*
X220419D02*
D03*
X195222Y100618D02*
D03*
X198372D02*
D03*
X201521D02*
D03*
X214120D02*
D03*
X217269D02*
D03*
X220419D02*
D03*
X195222Y97469D02*
D03*
X198372D02*
D03*
X201521D02*
D03*
X214120D02*
D03*
X217269D02*
D03*
X220419D02*
D03*
X195222Y94319D02*
D03*
X198372D02*
D03*
X201521D02*
D03*
X214120D02*
D03*
X217269D02*
D03*
X220419D02*
D03*
X195222Y91170D02*
D03*
X198372D02*
D03*
X201521D02*
D03*
X214120D02*
D03*
X217269D02*
D03*
X220419D02*
D03*
X195222Y88020D02*
D03*
X198372D02*
D03*
X201521D02*
D03*
X214120D02*
D03*
X217269D02*
D03*
X220419D02*
D03*
X195222Y84870D02*
D03*
X198372D02*
D03*
X201521D02*
D03*
X214120D02*
D03*
X217269D02*
D03*
X220419D02*
D03*
X195222Y81721D02*
D03*
X198372D02*
D03*
X201521D02*
D03*
X214120D02*
D03*
X217269D02*
D03*
X220419D02*
D03*
X195222Y78571D02*
D03*
X198372D02*
D03*
X201521D02*
D03*
X214120D02*
D03*
X217269D02*
D03*
X220419D02*
D03*
D47*
X75275Y166860D02*
D03*
Y156624D02*
D03*
X82125D02*
D03*
Y166860D02*
D03*
X186550Y56000D02*
D03*
Y45764D02*
D03*
X179700D02*
D03*
Y56000D02*
D03*
D48*
X75275Y163317D02*
D03*
Y160167D02*
D03*
X82125D02*
D03*
Y163317D02*
D03*
X186550Y52457D02*
D03*
Y49307D02*
D03*
X179700D02*
D03*
Y52457D02*
D03*
D49*
X71667Y120800D02*
D03*
X75132D02*
D03*
X61067Y69700D02*
D03*
X64532D02*
D03*
X61067Y64900D02*
D03*
X64532D02*
D03*
X19967Y77800D02*
D03*
X23432D02*
D03*
X20636Y83000D02*
D03*
X24101D02*
D03*
X64532Y77800D02*
D03*
X61067D02*
D03*
X60132Y83000D02*
D03*
X56668D02*
D03*
X20667Y56400D02*
D03*
X24132D02*
D03*
X34767Y47900D02*
D03*
X38232D02*
D03*
X64532Y53400D02*
D03*
X61067D02*
D03*
X49232Y47800D02*
D03*
X45768D02*
D03*
X84132Y92300D02*
D03*
X80668D02*
D03*
X94732Y80000D02*
D03*
X91268D02*
D03*
X94832Y96500D02*
D03*
X91368D02*
D03*
X94932Y111000D02*
D03*
X91467D02*
D03*
X75132Y117000D02*
D03*
X71667D02*
D03*
X45834Y111901D02*
D03*
X42369D02*
D03*
X75132Y148900D02*
D03*
X71667D02*
D03*
X53667D02*
D03*
X57132D02*
D03*
X63432Y116900D02*
D03*
X59967D02*
D03*
D50*
X169600Y28400D02*
D03*
X165400D02*
D03*
X65400Y61100D02*
D03*
X61200D02*
D03*
X19100Y73400D02*
D03*
X23300D02*
D03*
X65400Y73500D02*
D03*
X61200D02*
D03*
X19800Y60339D02*
D03*
X24000D02*
D03*
X65400Y57200D02*
D03*
X61200D02*
D03*
X14200Y110200D02*
D03*
X10000D02*
D03*
X14200Y114500D02*
D03*
X10000D02*
D03*
D51*
X54715Y132700D02*
D03*
X49400D02*
D03*
X54715Y126400D02*
D03*
X49400D02*
D03*
D52*
X5800Y103950D02*
D03*
Y110249D02*
D03*
D53*
X73700Y66832D02*
D03*
Y63368D02*
D03*
X41500Y87168D02*
D03*
Y90632D02*
D03*
X46500Y140568D02*
D03*
Y144032D02*
D03*
X78300Y139868D02*
D03*
Y143332D02*
D03*
X78000Y130068D02*
D03*
Y133532D02*
D03*
X50400Y137568D02*
D03*
Y141032D02*
D03*
X54100Y137568D02*
D03*
Y141032D02*
D03*
X61500Y137568D02*
D03*
Y141032D02*
D03*
X57800Y137568D02*
D03*
Y141032D02*
D03*
X50076Y121265D02*
D03*
Y117800D02*
D03*
X53076Y121265D02*
D03*
Y117800D02*
D03*
X47076Y121265D02*
D03*
Y117800D02*
D03*
X56176Y121265D02*
D03*
Y117800D02*
D03*
D54*
X36656Y88800D02*
D03*
X31144D02*
D03*
X46744Y88300D02*
D03*
X52256D02*
D03*
X58788Y46600D02*
D03*
X64300D02*
D03*
X24612Y49900D02*
D03*
X19100D02*
D03*
D55*
X8500Y8200D02*
D03*
Y167200D02*
D03*
X247400Y156100D02*
D03*
Y8200D02*
D03*
D56*
X27300Y147215D02*
D03*
Y124459D02*
D03*
D57*
X12812Y118829D02*
D03*
Y152845D02*
D03*
D58*
X29268Y118829D02*
D03*
Y152845D02*
D03*
D59*
X20300Y168400D02*
D03*
X245900D02*
D03*
Y24400D02*
D03*
D60*
X10800Y88800D02*
D03*
Y98400D02*
D03*
D61*
X150900Y117100D02*
D03*
X212300Y99783D02*
D03*
Y98300D02*
D03*
X144000Y66000D02*
D03*
X111961Y86162D02*
D03*
X112061Y84462D02*
D03*
X104508Y81900D02*
D03*
X103092Y82340D02*
D03*
X211945Y8949D02*
D03*
X215200Y92800D02*
D03*
X85500Y160100D02*
D03*
X85425Y163317D02*
D03*
Y166860D02*
D03*
X80800Y145700D02*
D03*
X78575Y166868D02*
D03*
Y163324D02*
D03*
Y160175D02*
D03*
X220600Y47300D02*
D03*
M02*
