G04*
G04 #@! TF.GenerationSoftware,Altium Limited,Altium Designer,21.4.1 (30)*
G04*
G04 Layer_Color=65535*
%FSLAX25Y25*%
%MOIN*%
G70*
G04*
G04 #@! TF.SameCoordinates,690C2B1C-B9AF-4ECE-B77D-8E73C62371D7*
G04*
G04*
G04 #@! TF.FilePolarity,Positive*
G04*
G01*
G75*
%ADD10C,0.01000*%
%ADD11C,0.00787*%
%ADD12C,0.00984*%
%ADD13C,0.00500*%
%ADD14C,0.00600*%
%ADD15C,0.00394*%
%ADD16C,0.00400*%
%ADD17C,0.00591*%
%ADD18C,0.00200*%
%ADD19C,0.00300*%
G36*
X30257Y24271D02*
X32226D01*
Y25058D01*
X31045Y26239D01*
X30257D01*
Y24271D01*
D02*
G37*
D10*
X79666Y28605D02*
G03*
X79666Y28605I-400J0D01*
G01*
X231219Y148540D02*
G03*
X231219Y148540I-400J0D01*
G01*
X180172Y28560D02*
G03*
X180172Y28560I-400J0D01*
G01*
X148887Y149840D02*
G03*
X148887Y149840I-400J0D01*
G01*
X5000Y87100D02*
X6999D01*
X5000Y96600D02*
X6999D01*
X5999Y97599D02*
Y95600D01*
D11*
X32226Y24271D02*
G03*
X30257Y26239I-1969J0D01*
G01*
X20993Y44895D02*
G03*
X20993Y44895I-394J0D01*
G01*
X60694Y42530D02*
G03*
X60694Y42530I-394J0D01*
G01*
X38094Y136678D02*
G03*
X38094Y136678I-394J0D01*
G01*
X238716Y120032D02*
G03*
X238716Y120032I-394J0D01*
G01*
X46264Y100800D02*
G03*
X46264Y100800I-394J0D01*
G01*
X36058Y100626D02*
G03*
X36058Y100626I-394J0D01*
G01*
X57368Y168900D02*
G03*
X57368Y168900I-394J0D01*
G01*
X96349Y126934D02*
G03*
X96349Y126934I-394J0D01*
G01*
X54020Y83009D02*
G03*
X54020Y83009I-394J0D01*
G01*
X79935Y60665D02*
G03*
X79935Y60665I-235J0D01*
G01*
X151379Y40200D02*
G03*
X151379Y40200I-394J0D01*
G01*
X189214Y127193D02*
G03*
X189214Y127193I-394J0D01*
G01*
X71613Y166860D02*
G03*
X71613Y166860I-394J0D01*
G01*
X176038Y56000D02*
G03*
X176038Y56000I-394J0D01*
G01*
X238716Y114089D02*
G03*
X238716Y114089I-394J0D01*
G01*
Y108146D02*
G03*
X238716Y108146I-394J0D01*
G01*
Y102203D02*
G03*
X238716Y102203I-394J0D01*
G01*
Y96260D02*
G03*
X238716Y96260I-394J0D01*
G01*
Y90318D02*
G03*
X238716Y90318I-394J0D01*
G01*
Y84375D02*
G03*
X238716Y84375I-394J0D01*
G01*
Y78432D02*
G03*
X238716Y78432I-394J0D01*
G01*
X6194Y113793D02*
G03*
X6194Y113793I-394J0D01*
G01*
X38094Y134722D02*
G03*
X38094Y134722I-394J0D01*
G01*
X49942Y24271D02*
Y36869D01*
X30257Y24271D02*
Y36869D01*
X49942D01*
X30257Y24271D02*
X49942D01*
X97924Y63941D02*
Y130870D01*
X164853D01*
Y63941D02*
Y130870D01*
X97924Y63941D02*
X164853D01*
D12*
X29746Y19940D02*
G03*
X29746Y19940I-492J0D01*
G01*
D13*
X160412Y14900D02*
G03*
X160412Y14900I-5512J0D01*
G01*
X147370Y4861D02*
X162429D01*
X164939Y11135D02*
Y18665D01*
X144860Y11135D02*
Y18665D01*
X147370Y24939D02*
X162429D01*
X244700Y121607D02*
X245330D01*
X244700Y118457D02*
X245330D01*
X32703Y163861D02*
X49750D01*
X32703Y173939D02*
X49750D01*
X32703Y173112D02*
Y173939D01*
Y163861D02*
Y164687D01*
X49750Y173112D02*
Y173939D01*
Y163861D02*
Y164687D01*
X28823Y52124D02*
Y53895D01*
Y52124D02*
X30595D01*
X28823Y78305D02*
Y80076D01*
X30595D01*
X55005Y52124D02*
X56776D01*
Y53895D01*
X55005Y80076D02*
X56776D01*
Y78305D02*
Y80076D01*
X17615Y153435D02*
X23875D01*
X2575D02*
X8009D01*
X2575Y118238D02*
Y153435D01*
X17615Y118238D02*
X23875D01*
X2575D02*
X8009D01*
X135828Y35357D02*
Y36184D01*
X148427Y35357D02*
Y36184D01*
X135828Y35357D02*
X148427D01*
X135828Y55042D02*
X148427D01*
Y54216D02*
Y55042D01*
X135828Y54216D02*
Y55042D01*
X190321Y115973D02*
Y129752D01*
X199947D01*
X190321Y74634D02*
X199947D01*
X190321D02*
Y88414D01*
X215695Y129752D02*
X225321D01*
Y115973D02*
Y129752D01*
X215695Y74634D02*
X225321D01*
Y88414D01*
X75235Y169041D02*
X82165D01*
X4225Y106785D02*
Y107415D01*
X7375Y106785D02*
Y107415D01*
X179660Y58181D02*
X186590D01*
X179660Y43583D02*
X186590D01*
X244700Y112514D02*
X245330D01*
X244700Y115664D02*
X245330D01*
X244700Y106571D02*
X245330D01*
X244700Y109721D02*
X245330D01*
X244700Y100628D02*
X245330D01*
X244700Y103778D02*
X245330D01*
X244700Y94686D02*
X245330D01*
X244700Y97835D02*
X245330D01*
X244700Y88743D02*
X245330D01*
X244700Y91892D02*
X245330D01*
X244700Y82800D02*
X245330D01*
X244700Y85949D02*
X245330D01*
X244700Y76857D02*
X245330D01*
X244700Y80007D02*
X245330D01*
X35672Y125549D02*
Y130509D01*
X39727Y125549D02*
Y130509D01*
D14*
X190450Y60900D02*
G03*
X190450Y60900I-400J0D01*
G01*
X89390Y83803D02*
G03*
X87800Y82690I-405J-1114D01*
G01*
X226000Y59460D02*
Y62300D01*
X193100Y37300D02*
Y40140D01*
Y59460D02*
Y62300D01*
X226000D01*
Y37300D02*
Y40140D01*
X193100Y37300D02*
X226000D01*
X87800Y82700D02*
X90100D01*
X86200D02*
X87800D01*
X86200D02*
Y86400D01*
Y94700D02*
X90100D01*
X86200Y91000D02*
Y94700D01*
X91800Y87400D02*
Y90000D01*
X252500Y123500D02*
X252600Y32000D01*
D15*
X130322Y3783D02*
X135046D01*
Y25830D01*
X130322D02*
X135046D01*
X74533D02*
X79257D01*
X74533Y3783D02*
Y25830D01*
Y3783D02*
X79257D01*
X175038Y173362D02*
X179763D01*
X175038Y151315D02*
Y173362D01*
Y151315D02*
X179763D01*
X230827D02*
X235552D01*
Y173362D01*
X230827D02*
X235552D01*
X175038Y3738D02*
X179763D01*
X175038D02*
Y25785D01*
X179763D01*
X230827D02*
X235552D01*
Y3738D02*
Y25785D01*
X230827Y3738D02*
X235552D01*
X92707Y174662D02*
X97431D01*
X92707Y152615D02*
Y174662D01*
Y152615D02*
X97431D01*
X148496D02*
X153220D01*
Y174662D01*
X148496D02*
X153220D01*
D16*
X30600Y10300D02*
X39800D01*
X30600D02*
Y15500D01*
X39800D01*
Y10300D02*
Y15500D01*
X12500Y27265D02*
X28300D01*
X12500D02*
Y43065D01*
X28300D01*
Y27265D02*
Y43065D01*
X52200Y24900D02*
X68000D01*
X52200D02*
Y40700D01*
X68000D01*
Y24900D02*
Y40700D01*
X28200Y15700D02*
Y26300D01*
X21600Y15700D02*
X28200D01*
X21600Y26300D02*
X28200D01*
X21600Y15700D02*
Y26300D01*
X12100Y15744D02*
Y26344D01*
X18700D01*
X12100Y15744D02*
X18700D01*
Y26344D01*
X51900Y12900D02*
Y23500D01*
X58500D01*
X51900Y12900D02*
X58500D01*
Y23500D01*
X61800Y12900D02*
Y23500D01*
X68400D01*
X61800Y12900D02*
X68400D01*
Y23500D01*
X35000Y99000D02*
X44200D01*
Y94200D02*
Y99000D01*
X35000Y94200D02*
X44200D01*
X35000D02*
Y99000D01*
X35672Y140891D02*
Y145851D01*
X39727Y140891D02*
Y145851D01*
X47826Y92926D02*
X63574D01*
Y108674D01*
X47826D02*
X63574D01*
X47826Y92926D02*
Y108674D01*
X18034Y92926D02*
X33834D01*
Y108726D01*
X18034D02*
X33834D01*
X18034Y92926D02*
Y108726D01*
X21700Y162200D02*
X30900D01*
Y157000D02*
Y162200D01*
X21700Y157000D02*
X30900D01*
X21700D02*
Y162200D01*
X35400Y150200D02*
X39000D01*
Y158000D01*
X35400D02*
X39000D01*
X35400Y150200D02*
Y158000D01*
X75235Y154443D02*
X82165D01*
X70000Y122500D02*
X76800D01*
Y115300D02*
Y122500D01*
X70000Y115300D02*
Y122500D01*
X56000Y135900D02*
Y142700D01*
X52200Y135900D02*
X56000D01*
X52200Y142700D02*
X56000D01*
X40200Y101500D02*
Y109100D01*
X90944Y98188D02*
Y109212D01*
Y103700D02*
X96456D01*
Y98188D02*
Y109212D01*
X78500Y103000D02*
Y110600D01*
X74600Y103100D02*
Y110700D01*
X70500Y103100D02*
Y110700D01*
X70100Y118900D02*
X76800D01*
X57900Y115200D02*
Y116144D01*
X57866D02*
X57900D01*
Y118600D02*
X65100D01*
X59700Y135900D02*
Y142700D01*
X56000Y135900D02*
X59700D01*
X56000Y142700D02*
X59700D01*
X52200Y135900D02*
Y142700D01*
X16900Y71600D02*
Y75200D01*
X17000D01*
X16900D02*
X25100D01*
X16900D02*
Y79400D01*
X68100Y57100D02*
X71700D01*
Y49100D02*
Y57100D01*
X68100Y49100D02*
Y57300D01*
X66200Y62900D02*
X67200D01*
X59400Y51700D02*
Y66600D01*
X66200Y55400D02*
X67200D01*
X36400Y109162D02*
X43900D01*
X66600Y103000D02*
X82200D01*
Y110800D01*
X66600Y103000D02*
Y110800D01*
X82200D01*
X163600Y30200D02*
X171400D01*
Y26600D02*
Y30200D01*
X163600Y26600D02*
X171400D01*
X163600D02*
Y30200D01*
X67200Y55400D02*
Y62900D01*
X36400Y101362D02*
Y109162D01*
Y101362D02*
X43900D01*
Y109162D01*
X12700Y71591D02*
Y79391D01*
X9100Y71591D02*
X12700D01*
X9100D02*
Y79391D01*
X12700D01*
X13300Y71600D02*
X25100D01*
Y75200D01*
X13300Y71600D02*
Y79400D01*
X16900D01*
X68100Y65257D02*
Y73200D01*
X71700D01*
Y65257D02*
Y73200D01*
X59400Y75300D02*
X67200D01*
Y71700D02*
Y75300D01*
X59400Y71700D02*
X67200D01*
X59400D02*
Y75300D01*
X71700Y73300D02*
Y81100D01*
X68100Y73300D02*
Y81100D01*
X71700D01*
X13800Y54162D02*
Y61962D01*
X17400D01*
Y54162D02*
Y61962D01*
X13800Y54162D02*
X17400D01*
X18000Y58539D02*
X25800D01*
X18000D02*
Y62139D01*
X25800D01*
Y58539D02*
Y62139D01*
X9600Y54162D02*
Y61962D01*
X13200D01*
Y54162D02*
Y61962D01*
X9600Y54162D02*
X13200D01*
X71700Y57200D02*
Y65100D01*
X68100Y57100D02*
Y65100D01*
X71700D01*
X68100Y49100D02*
X71700D01*
X129400Y47400D02*
Y55200D01*
X133000D01*
Y47400D02*
Y55200D01*
X129400Y47400D02*
X133000D01*
X8200Y112000D02*
X16000D01*
Y108400D02*
Y112000D01*
X8200Y108400D02*
X16000D01*
X8200D02*
Y112000D01*
Y116300D02*
X16000D01*
Y112700D02*
Y116300D01*
X8200Y112700D02*
X16000D01*
X8200D02*
Y116300D01*
X233100Y51000D02*
Y58800D01*
X229500Y51000D02*
X233100D01*
X229500D02*
Y58800D01*
X233100D01*
X57569Y134275D02*
Y135456D01*
X46545D02*
X57569D01*
X46545Y134275D02*
Y135456D01*
Y129944D02*
Y131125D01*
Y129944D02*
X57569D01*
Y131125D01*
X52057Y129944D02*
Y135456D01*
X75400Y61700D02*
Y68500D01*
X71700Y61700D02*
X75400D01*
X71700Y68500D02*
X75400D01*
X59400Y71400D02*
X66200D01*
Y68000D02*
Y71400D01*
X59400Y68000D02*
Y71400D01*
Y68000D02*
X66200D01*
X39800Y85500D02*
Y92300D01*
X43200D01*
X39800Y85500D02*
X43200D01*
Y92300D01*
X59400Y66600D02*
X66200D01*
Y62900D02*
Y66600D01*
X26100Y86000D02*
Y90800D01*
X16900D02*
X26100D01*
X16900Y86000D02*
Y90800D01*
Y86000D02*
X26100D01*
X18300Y79500D02*
X25100D01*
Y76100D02*
Y79500D01*
X18300Y76100D02*
Y79500D01*
Y76100D02*
X25100D01*
X18968Y84700D02*
X25768D01*
Y81300D02*
Y84700D01*
X18968Y81300D02*
Y84700D01*
Y81300D02*
X25768D01*
X55660Y85800D02*
Y90600D01*
Y85800D02*
X64860D01*
Y90600D01*
X55660D02*
X64860D01*
X59400Y76100D02*
X66200D01*
X59400D02*
Y79500D01*
X66200Y76100D02*
Y79500D01*
X59400D02*
X66200D01*
X55000Y81300D02*
X61800D01*
X55000D02*
Y84700D01*
X61800Y81300D02*
Y84700D01*
X55000D02*
X61800D01*
X19000Y58100D02*
X25800D01*
Y54700D02*
Y58100D01*
X19000Y54700D02*
Y58100D01*
Y54700D02*
X25800D01*
X33100Y49600D02*
X39900D01*
Y46200D02*
Y49600D01*
X33100Y46200D02*
Y49600D01*
Y46200D02*
X39900D01*
X59400Y51700D02*
X66200D01*
Y55400D01*
X44100Y46100D02*
X50900D01*
X44100D02*
Y49500D01*
X50900Y46100D02*
Y49500D01*
X44100D02*
X50900D01*
X28600Y92100D02*
X39200D01*
Y85500D02*
Y92100D01*
X28600Y85500D02*
Y92100D01*
Y85500D02*
X39200D01*
X44200Y85000D02*
X54800D01*
X44200D02*
Y91600D01*
X54800Y85000D02*
Y91600D01*
X44200D02*
X54800D01*
X56244Y43300D02*
X66844D01*
X56244D02*
Y49900D01*
X66844Y43300D02*
Y49900D01*
X56244D02*
X66844D01*
X16556Y53200D02*
X27156D01*
Y46600D02*
Y53200D01*
X16556Y46600D02*
Y53200D01*
Y46600D02*
X27156D01*
X79000Y90600D02*
X85800D01*
X79000D02*
Y94000D01*
X85800Y90600D02*
Y94000D01*
X79000D02*
X85800D01*
X89600Y78300D02*
X96400D01*
X89600D02*
Y81700D01*
X96400Y78300D02*
Y81700D01*
X89600D02*
X96400D01*
X89700Y94800D02*
X96500D01*
X89700D02*
Y98200D01*
X96500Y94800D02*
Y98200D01*
X89700D02*
X96500D01*
X89800Y109300D02*
X96600D01*
X89800D02*
Y112700D01*
X96600Y109300D02*
Y112700D01*
X89800D02*
X96600D01*
X70000Y115300D02*
X76800D01*
X44800Y138900D02*
Y145700D01*
X48200D01*
X44800Y138900D02*
X48200D01*
Y145700D01*
X76600Y138200D02*
Y145000D01*
X80000D01*
X76600Y138200D02*
X80000D01*
Y145000D01*
X40701Y110202D02*
X47501D01*
X40701D02*
Y113602D01*
X47501Y110202D02*
Y113602D01*
X40701D02*
X47501D01*
X70000Y147200D02*
X76800D01*
X70000D02*
Y150600D01*
X76800Y147200D02*
Y150600D01*
X70000D02*
X76800D01*
X76300Y128400D02*
Y135200D01*
X79700D01*
X76300Y128400D02*
X79700D01*
Y135200D01*
X52000Y150600D02*
X58800D01*
Y147200D02*
Y150600D01*
X52000Y147200D02*
Y150600D01*
Y147200D02*
X58800D01*
X57900Y115200D02*
X65100D01*
Y118600D01*
X48700Y135900D02*
Y142700D01*
X52100D01*
X48700Y135900D02*
X52100D01*
X59700Y142700D02*
X63200D01*
X59700Y135900D02*
X63200D01*
Y142700D01*
X48376Y116132D02*
X51776D01*
X48376Y122932D02*
X51776D01*
X51376Y116132D02*
X54776D01*
X51376Y122932D02*
X54776D01*
X45376Y116132D02*
X48776D01*
X45376Y122932D02*
X48776D01*
X45376Y116132D02*
Y122932D01*
X57876Y116132D02*
Y122932D01*
X54476Y116132D02*
X57876D01*
X54476Y122932D02*
X57876D01*
D17*
X79944Y86412D02*
X81125D01*
X79944Y75388D02*
Y86412D01*
Y75388D02*
X81125D01*
X84275D02*
X85456D01*
X79944Y80900D02*
X85456D01*
Y75388D02*
Y86412D01*
X84275D02*
X85456D01*
X109790Y140385D02*
Y143534D01*
X110840Y142484D01*
X111889Y143534D01*
Y140385D01*
X113464Y142484D02*
X114513D01*
X115038Y141959D01*
Y140385D01*
X113464D01*
X112939Y140910D01*
X113464Y141435D01*
X115038D01*
X118187Y143534D02*
Y140385D01*
X116612D01*
X116087Y140910D01*
Y141959D01*
X116612Y142484D01*
X118187D01*
X120810Y140385D02*
X119761D01*
X119236Y140910D01*
Y141959D01*
X119761Y142484D01*
X120810D01*
X121335Y141959D01*
Y141435D01*
X119236D01*
X125533Y143534D02*
Y140385D01*
X127108D01*
X127632Y140910D01*
Y141435D01*
Y141959D01*
X127108Y142484D01*
X125533D01*
X128682D02*
Y140910D01*
X129207Y140385D01*
X130781D01*
Y139860D01*
X130256Y139336D01*
X129731D01*
X130781Y140385D02*
Y142484D01*
X131831D02*
X132355D01*
Y141959D01*
X131831D01*
Y142484D01*
Y140910D02*
X132355D01*
Y140385D01*
X131831D01*
Y140910D01*
X139702Y143009D02*
X139177Y143534D01*
X138128D01*
X137603Y143009D01*
Y142484D01*
X138128Y141959D01*
X139177D01*
X139702Y141435D01*
Y140910D01*
X139177Y140385D01*
X138128D01*
X137603Y140910D01*
X141276Y142484D02*
X142326D01*
X142850Y141959D01*
Y140385D01*
X141276D01*
X140752Y140910D01*
X141276Y141435D01*
X142850D01*
X143900Y140385D02*
Y142484D01*
X145474D01*
X145999Y141959D01*
Y140385D01*
X147573Y143009D02*
Y142484D01*
X147049D01*
X148098D01*
X147573D01*
Y140910D01*
X148098Y140385D01*
X149672D02*
X150722D01*
X150197D01*
Y142484D01*
X149672D01*
X152821D02*
X153871D01*
X154395Y141959D01*
Y140385D01*
X152821D01*
X152296Y140910D01*
X152821Y141435D01*
X154395D01*
X156494Y139336D02*
X157019D01*
X157544Y139860D01*
Y142484D01*
X155970D01*
X155445Y141959D01*
Y140910D01*
X155970Y140385D01*
X157544D01*
X159118D02*
X160168D01*
X160693Y140910D01*
Y141959D01*
X160168Y142484D01*
X159118D01*
X158593Y141959D01*
Y140910D01*
X159118Y140385D01*
X164891D02*
Y143534D01*
X166465D01*
X166990Y143009D01*
Y141959D01*
X166465Y141435D01*
X164891D01*
X165940D02*
X166990Y140385D01*
X168564D02*
X169614D01*
X170138Y140910D01*
Y141959D01*
X169614Y142484D01*
X168564D01*
X168039Y141959D01*
Y140910D01*
X168564Y140385D01*
X173287Y143534D02*
Y140385D01*
X171713D01*
X171188Y140910D01*
Y141959D01*
X171713Y142484D01*
X173287D01*
X174337D02*
Y140385D01*
Y141435D01*
X174861Y141959D01*
X175386Y142484D01*
X175911D01*
X177485Y140385D02*
X178535D01*
X178010D01*
Y142484D01*
X177485D01*
X181158Y139336D02*
X181683D01*
X182208Y139860D01*
Y142484D01*
X180634D01*
X180109Y141959D01*
Y140910D01*
X180634Y140385D01*
X182208D01*
X183257Y142484D02*
Y140910D01*
X183782Y140385D01*
X185356D01*
Y142484D01*
X187980Y140385D02*
X186931D01*
X186406Y140910D01*
Y141959D01*
X186931Y142484D01*
X187980D01*
X188505Y141959D01*
Y141435D01*
X186406D01*
X189555Y142484D02*
X191654D01*
X189555Y140385D01*
X191654D01*
X109790Y134140D02*
X111365D01*
X111889Y134665D01*
X111365Y135189D01*
X110315D01*
X109790Y135714D01*
X110315Y136239D01*
X111889D01*
X113464D02*
X114513D01*
X115038Y135714D01*
Y134140D01*
X113464D01*
X112939Y134665D01*
X113464Y135189D01*
X115038D01*
X116087Y134140D02*
Y136239D01*
X117662D01*
X118187Y135714D01*
Y134140D01*
X119761Y136764D02*
Y136239D01*
X119236D01*
X120286D01*
X119761D01*
Y134665D01*
X120286Y134140D01*
X121860D02*
X122909D01*
X122385D01*
Y136239D01*
X121860D01*
X125008D02*
X126058D01*
X126583Y135714D01*
Y134140D01*
X125008D01*
X124484Y134665D01*
X125008Y135189D01*
X126583D01*
X128682Y133090D02*
X129207D01*
X129731Y133615D01*
Y136239D01*
X128157D01*
X127632Y135714D01*
Y134665D01*
X128157Y134140D01*
X129731D01*
X131306Y136764D02*
Y136239D01*
X130781D01*
X131831D01*
X131306D01*
Y134665D01*
X131831Y134140D01*
X133405D02*
Y136239D01*
X133930D01*
X134454Y135714D01*
Y134140D01*
Y135714D01*
X134979Y136239D01*
X135504Y135714D01*
Y134140D01*
X136553D02*
X138128D01*
X138652Y134665D01*
X138128Y135189D01*
X137078D01*
X136553Y135714D01*
X137078Y136239D01*
X138652D01*
X141276Y135189D02*
Y135714D01*
X140752D01*
Y135189D01*
X141276D01*
X141801Y135714D01*
Y136764D01*
X141276Y137289D01*
X140227D01*
X139702Y136764D01*
Y134665D01*
X140227Y134140D01*
X141801D01*
X143900Y133090D02*
X144425D01*
X144950Y133615D01*
Y136239D01*
X143375D01*
X142851Y135714D01*
Y134665D01*
X143375Y134140D01*
X144950D01*
X145999D02*
Y136239D01*
X146524D01*
X147049Y135714D01*
Y134140D01*
Y135714D01*
X147573Y136239D01*
X148098Y135714D01*
Y134140D01*
X149672Y136239D02*
X150722D01*
X151247Y135714D01*
Y134140D01*
X149672D01*
X149148Y134665D01*
X149672Y135189D01*
X151247D01*
X152296Y134140D02*
X153346D01*
X152821D01*
Y136239D01*
X152296D01*
X154920Y134140D02*
X155970D01*
X155445D01*
Y137289D01*
X154920D01*
X157544Y134140D02*
Y134665D01*
X158069D01*
Y134140D01*
X157544D01*
X162267Y136239D02*
X160693D01*
X160168Y135714D01*
Y134665D01*
X160693Y134140D01*
X162267D01*
X163841D02*
X164891D01*
X165416Y134665D01*
Y135714D01*
X164891Y136239D01*
X163841D01*
X163316Y135714D01*
Y134665D01*
X163841Y134140D01*
X166465D02*
Y136239D01*
X166990D01*
X167515Y135714D01*
Y134140D01*
Y135714D01*
X168039Y136239D01*
X168564Y135714D01*
Y134140D01*
X153575Y29050D02*
X153050Y29574D01*
X152001D01*
X151476Y29050D01*
Y28525D01*
X152001Y28000D01*
X153050D01*
X153575Y27475D01*
Y26950D01*
X153050Y26426D01*
X152001D01*
X151476Y26950D01*
X154625Y29050D02*
X155149Y29574D01*
X156199D01*
X156724Y29050D01*
Y28525D01*
X156199Y28000D01*
X155674D01*
X156199D01*
X156724Y27475D01*
Y26950D01*
X156199Y26426D01*
X155149D01*
X154625Y26950D01*
X178427Y148650D02*
X177902Y149174D01*
X176852D01*
X176327Y148650D01*
Y146550D01*
X176852Y146026D01*
X177902D01*
X178427Y146550D01*
X179476Y146026D02*
Y149174D01*
X181575Y146026D01*
Y149174D01*
X182625D02*
X184724D01*
X183674D01*
Y146026D01*
X187347D02*
Y149174D01*
X185773Y147600D01*
X187872D01*
X190676Y134174D02*
Y131550D01*
X191201Y131026D01*
X192250D01*
X192775Y131550D01*
Y134174D01*
X195924D02*
X194874Y133650D01*
X193825Y132600D01*
Y131550D01*
X194349Y131026D01*
X195399D01*
X195924Y131550D01*
Y132075D01*
X195399Y132600D01*
X193825D01*
X5451Y158150D02*
X4927Y158674D01*
X3877D01*
X3352Y158150D01*
Y156050D01*
X3877Y155526D01*
X4927D01*
X5451Y156050D01*
X6501Y155526D02*
Y158674D01*
X8600Y155526D01*
Y158674D01*
X9649D02*
X11748D01*
X10699D01*
Y155526D01*
X12798D02*
X13848D01*
X13323D01*
Y158674D01*
X12798Y158150D01*
X19476Y68674D02*
Y66050D01*
X20001Y65526D01*
X21050D01*
X21575Y66050D01*
Y68674D01*
X22625D02*
X24724D01*
Y68150D01*
X22625Y66050D01*
Y65526D01*
X81576Y100374D02*
Y97750D01*
X82101Y97226D01*
X83150D01*
X83675Y97750D01*
Y100374D01*
X86824D02*
X84725D01*
Y98800D01*
X85774Y99325D01*
X86299D01*
X86824Y98800D01*
Y97750D01*
X86299Y97226D01*
X85249D01*
X84725Y97750D01*
X97576Y135574D02*
Y132950D01*
X98101Y132426D01*
X99150D01*
X99675Y132950D01*
Y135574D01*
X102299Y132426D02*
Y135574D01*
X100725Y134000D01*
X102824D01*
X193126Y66874D02*
Y64250D01*
X193651Y63726D01*
X194700D01*
X195225Y64250D01*
Y66874D01*
X196275Y66350D02*
X196799Y66874D01*
X197849D01*
X198374Y66350D01*
Y65825D01*
X197849Y65300D01*
X197324D01*
X197849D01*
X198374Y64775D01*
Y64250D01*
X197849Y63726D01*
X196799D01*
X196275Y64250D01*
X241690Y68388D02*
Y65239D01*
X243264D01*
X243789Y65764D01*
Y67863D01*
X243264Y68388D01*
X241690D01*
X244838Y65239D02*
X245888D01*
X245363D01*
Y68388D01*
X244838Y67863D01*
X247462Y65239D02*
X248512D01*
X247987D01*
Y68388D01*
X247462Y67863D01*
X241690Y63802D02*
Y60654D01*
X243264D01*
X243789Y61179D01*
Y63278D01*
X243264Y63802D01*
X241690D01*
X244838Y60654D02*
X245888D01*
X245363D01*
Y63802D01*
X244838Y63278D01*
X247462D02*
X247987Y63802D01*
X249037D01*
X249561Y63278D01*
Y61179D01*
X249037Y60654D01*
X247987D01*
X247462Y61179D01*
Y63278D01*
X241690Y59217D02*
Y56069D01*
X243264D01*
X243789Y56593D01*
Y58692D01*
X243264Y59217D01*
X241690D01*
X244838Y56593D02*
X245363Y56069D01*
X246413D01*
X246937Y56593D01*
Y58692D01*
X246413Y59217D01*
X245363D01*
X244838Y58692D01*
Y58168D01*
X245363Y57643D01*
X246937D01*
X241690Y54632D02*
Y51483D01*
X243264D01*
X243789Y52008D01*
Y54107D01*
X243264Y54632D01*
X241690D01*
X244838Y54107D02*
X245363Y54632D01*
X246413D01*
X246937Y54107D01*
Y53582D01*
X246413Y53058D01*
X246937Y52533D01*
Y52008D01*
X246413Y51483D01*
X245363D01*
X244838Y52008D01*
Y52533D01*
X245363Y53058D01*
X244838Y53582D01*
Y54107D01*
X245363Y53058D02*
X246413D01*
X241690Y50047D02*
Y46898D01*
X243264D01*
X243789Y47423D01*
Y49522D01*
X243264Y50047D01*
X241690D01*
X244838D02*
X246937D01*
Y49522D01*
X244838Y47423D01*
Y46898D01*
X241690Y45461D02*
Y42313D01*
X243264D01*
X243789Y42838D01*
Y44937D01*
X243264Y45461D01*
X241690D01*
X246937D02*
X245888Y44937D01*
X244838Y43887D01*
Y42838D01*
X245363Y42313D01*
X246413D01*
X246937Y42838D01*
Y43362D01*
X246413Y43887D01*
X244838D01*
X241690Y40876D02*
Y37728D01*
X243264D01*
X243789Y38252D01*
Y40352D01*
X243264Y40876D01*
X241690D01*
X246937D02*
X244838D01*
Y39302D01*
X245888Y39827D01*
X246413D01*
X246937Y39302D01*
Y38252D01*
X246413Y37728D01*
X245363D01*
X244838Y38252D01*
X241690Y36291D02*
Y33142D01*
X243264D01*
X243789Y33667D01*
Y35766D01*
X243264Y36291D01*
X241690D01*
X246413Y33142D02*
Y36291D01*
X244838Y34717D01*
X246937D01*
X97527Y148049D02*
X97002Y148574D01*
X95952D01*
X95427Y148049D01*
Y145950D01*
X95952Y145426D01*
X97002D01*
X97527Y145950D01*
X98576Y145426D02*
Y148574D01*
X100675Y145426D01*
Y148574D01*
X101725D02*
X103824D01*
X102774D01*
Y145426D01*
X106972Y148574D02*
X104873D01*
Y147000D01*
X105923Y147525D01*
X106448D01*
X106972Y147000D01*
Y145950D01*
X106448Y145426D01*
X105398D01*
X104873Y145950D01*
X122926Y32649D02*
X122402Y33174D01*
X121352D01*
X120827Y32649D01*
Y30550D01*
X121352Y30026D01*
X122402D01*
X122926Y30550D01*
X123976Y30026D02*
Y33174D01*
X126075Y30026D01*
Y33174D01*
X127125D02*
X129224D01*
X128174D01*
Y30026D01*
X130273Y32649D02*
X130798Y33174D01*
X131848D01*
X132372Y32649D01*
Y32125D01*
X131848Y31600D01*
X131323D01*
X131848D01*
X132372Y31075D01*
Y30550D01*
X131848Y30026D01*
X130798D01*
X130273Y30550D01*
X227326Y31650D02*
X226802Y32174D01*
X225752D01*
X225227Y31650D01*
Y29550D01*
X225752Y29026D01*
X226802D01*
X227326Y29550D01*
X228376Y29026D02*
Y32174D01*
X230475Y29026D01*
Y32174D01*
X231525D02*
X233624D01*
X232574D01*
Y29026D01*
X236772D02*
X234673D01*
X236772Y31125D01*
Y31650D01*
X236247Y32174D01*
X235198D01*
X234673Y31650D01*
D18*
X80729Y66843D02*
Y68013D01*
X79559D02*
X80729D01*
Y61959D02*
Y63129D01*
X79559Y61959D02*
X80729D01*
X76450D02*
X77620D01*
X76450Y68013D02*
X77620D01*
X76450Y61959D02*
Y63129D01*
Y66843D02*
Y68013D01*
D19*
X57569Y127975D02*
Y129156D01*
X46545D02*
X57569D01*
X46545Y127975D02*
Y129156D01*
Y123644D02*
Y124825D01*
Y123644D02*
X57569D01*
Y124825D01*
X52057Y123644D02*
Y129156D01*
M02*
