G04*
G04 #@! TF.GenerationSoftware,Altium Limited,Altium Designer,21.4.1 (30)*
G04*
G04 Layer_Physical_Order=2*
G04 Layer_Color=32768*
%FSLAX25Y25*%
%MOIN*%
G70*
G04*
G04 #@! TF.SameCoordinates,690C2B1C-B9AF-4ECE-B77D-8E73C62371D7*
G04*
G04*
G04 #@! TF.FilePolarity,Negative*
G04*
G01*
G75*
%ADD109C,0.04000*%
%ADD110C,0.03759*%
%ADD111C,0.04743*%
%ADD112C,0.02184*%
D109*
X-0Y-0D02*
Y161417D01*
Y-0D02*
X255905Y-0D01*
Y177165D01*
X-0D02*
X255905D01*
X-0Y161417D02*
Y177165D01*
D110*
X27300Y147215D02*
D03*
Y124459D02*
D03*
D111*
X10800Y98400D02*
D03*
D112*
X112078Y77878D02*
D03*
X110643Y77691D02*
D03*
X44600Y131700D02*
D03*
Y130217D02*
D03*
X163300Y126500D02*
D03*
X165249Y111792D02*
D03*
X163770Y112706D02*
D03*
X115500Y93100D02*
D03*
X197300Y107900D02*
D03*
X147200Y92000D02*
D03*
X154700Y98458D02*
D03*
Y100842D02*
D03*
X123592Y77600D02*
D03*
X154943Y115157D02*
D03*
X158600Y116400D02*
D03*
X155200Y120900D02*
D03*
X153184Y121125D02*
D03*
X164245Y120133D02*
D03*
X164100Y121808D02*
D03*
X192000Y100800D02*
D03*
X204000Y108600D02*
D03*
X204017Y110082D02*
D03*
X197082Y110932D02*
D03*
X193708Y119732D02*
D03*
X151000Y112392D02*
D03*
X150900Y117100D02*
D03*
X150248Y82148D02*
D03*
X197167Y86766D02*
D03*
X197141Y89941D02*
D03*
X197100Y92800D02*
D03*
X215900Y83600D02*
D03*
X203500Y100400D02*
D03*
X212300Y99783D02*
D03*
Y98300D02*
D03*
X192600Y126200D02*
D03*
X74627Y106707D02*
D03*
X100700Y104900D02*
D03*
X119600Y84100D02*
D03*
X144000Y66000D02*
D03*
X146900Y65100D02*
D03*
X103700Y67300D02*
D03*
X164484Y100678D02*
D03*
X165100Y102027D02*
D03*
X150700Y110000D02*
D03*
X147600Y109800D02*
D03*
X135000Y116500D02*
D03*
X107800Y121600D02*
D03*
X99800Y124600D02*
D03*
X122100Y121200D02*
D03*
X115800Y125900D02*
D03*
X105800Y129900D02*
D03*
X109800Y132900D02*
D03*
X117600Y133355D02*
D03*
X230900Y86600D02*
D03*
X185307Y148793D02*
D03*
X189817Y149200D02*
D03*
X191300D02*
D03*
X114488Y112985D02*
D03*
X138900Y104700D02*
D03*
X119903Y88470D02*
D03*
X123800Y85200D02*
D03*
X120400Y85700D02*
D03*
X116000Y82600D02*
D03*
X115441Y80938D02*
D03*
X111961Y86162D02*
D03*
X112061Y84462D02*
D03*
X95717Y16700D02*
D03*
X97200D02*
D03*
X107000Y77500D02*
D03*
X108381D02*
D03*
X90219Y16700D02*
D03*
X91701D02*
D03*
X104508Y81900D02*
D03*
X103092Y82340D02*
D03*
X192900Y88100D02*
D03*
X192165Y82692D02*
D03*
X196951Y81905D02*
D03*
X218400Y80100D02*
D03*
X212100Y83800D02*
D03*
X215500Y86200D02*
D03*
X119908Y70400D02*
D03*
X77342Y16700D02*
D03*
X78824D02*
D03*
X85901D02*
D03*
X84419D02*
D03*
X103081D02*
D03*
X101598D02*
D03*
X217893Y8991D02*
D03*
X127273Y96891D02*
D03*
X127369Y98519D02*
D03*
X65200Y24500D02*
D03*
X67800D02*
D03*
X60200D02*
D03*
X62700D02*
D03*
X55300D02*
D03*
X52800D02*
D03*
X57900D02*
D03*
X61300Y22800D02*
D03*
X61400Y20400D02*
D03*
X59100Y22800D02*
D03*
X59200Y20400D02*
D03*
X21200Y25100D02*
D03*
Y22700D02*
D03*
X19100D02*
D03*
Y25100D02*
D03*
X12900Y27200D02*
D03*
X15400D02*
D03*
X18000D02*
D03*
X27900D02*
D03*
X25300D02*
D03*
X22800D02*
D03*
X20400D02*
D03*
X37700Y15900D02*
D03*
X47600Y24100D02*
D03*
X93068Y20500D02*
D03*
X93005Y9100D02*
D03*
X52100Y44700D02*
D03*
X81194Y9100D02*
D03*
X54900Y44700D02*
D03*
X81257Y20500D02*
D03*
X54900Y47200D02*
D03*
X52100D02*
D03*
X122900Y101500D02*
D03*
X123500Y104600D02*
D03*
X153692Y105096D02*
D03*
X150855Y119745D02*
D03*
X199200Y63200D02*
D03*
X215200Y92800D02*
D03*
X212200Y88600D02*
D03*
X199841Y95809D02*
D03*
X196449Y102793D02*
D03*
X193268Y109989D02*
D03*
X196597Y95861D02*
D03*
X199872Y92586D02*
D03*
X199895Y89881D02*
D03*
X199800Y102200D02*
D03*
X196709Y99533D02*
D03*
X183591Y168109D02*
D03*
X6700Y115600D02*
D03*
X16700Y114400D02*
D03*
X78200Y120600D02*
D03*
X179900Y148900D02*
D03*
X183500Y150212D02*
D03*
X127100Y78000D02*
D03*
X123347Y81830D02*
D03*
X127300Y81600D02*
D03*
X85500Y160100D02*
D03*
X85425Y163317D02*
D03*
Y166860D02*
D03*
X80800Y145700D02*
D03*
X78575Y166868D02*
D03*
Y163324D02*
D03*
Y160175D02*
D03*
X87100Y83000D02*
D03*
X197300Y43100D02*
D03*
X155271Y74471D02*
D03*
X150906Y66082D02*
D03*
X146969Y70019D02*
D03*
X154843Y66247D02*
D03*
X154780Y70019D02*
D03*
X220600Y47300D02*
D03*
X139032Y93641D02*
D03*
X215000Y168000D02*
D03*
X213200Y165000D02*
D03*
X201900Y61600D02*
D03*
X197300Y46881D02*
D03*
X93800Y138000D02*
D03*
X103268Y150400D02*
D03*
X107205Y150496D02*
D03*
X101300Y150400D02*
D03*
X99300Y150700D02*
D03*
X109174Y150400D02*
D03*
X134685Y157945D02*
D03*
X111063D02*
D03*
X122863Y157845D02*
D03*
X143500Y109628D02*
D03*
X146500Y150600D02*
D03*
X142690Y150348D02*
D03*
X144607Y150400D02*
D03*
X138701D02*
D03*
X146600Y77600D02*
D03*
X146969Y81830D02*
D03*
X151057Y74394D02*
D03*
X97861Y96239D02*
D03*
X131003Y117545D02*
D03*
X127529Y114071D02*
D03*
X134700Y121300D02*
D03*
X131434Y112892D02*
D03*
X127971Y109429D02*
D03*
X148571Y134429D02*
D03*
X211978Y106880D02*
D03*
X200259Y76401D02*
D03*
X158900Y107400D02*
D03*
X155306Y105893D02*
D03*
X162432Y93158D02*
D03*
X150720Y97805D02*
D03*
X154806Y93691D02*
D03*
X158863Y93642D02*
D03*
Y101400D02*
D03*
X158537Y112709D02*
D03*
X203700Y78300D02*
D03*
X203100Y80500D02*
D03*
X200249Y105050D02*
D03*
X199900Y115100D02*
D03*
X137600Y101300D02*
D03*
X146795Y97817D02*
D03*
X212490Y80132D02*
D03*
X143421Y108021D02*
D03*
X146795Y105691D02*
D03*
X212493Y86428D02*
D03*
X142821Y117021D02*
D03*
X139090Y113091D02*
D03*
X200016Y112126D02*
D03*
X203079Y102245D02*
D03*
X143115Y101400D02*
D03*
X160400Y89600D02*
D03*
X138852Y117006D02*
D03*
X151048Y124893D02*
D03*
X142789Y124623D02*
D03*
X147800Y133000D02*
D03*
X142835Y120686D02*
D03*
X150732Y105609D02*
D03*
X160900Y129590D02*
D03*
X147052Y101400D02*
D03*
X212629Y122010D02*
D03*
X212400Y120400D02*
D03*
X217245Y127944D02*
D03*
X212242Y113234D02*
D03*
X203079Y117993D02*
D03*
X199621Y123532D02*
D03*
X215900Y104700D02*
D03*
X215997Y111349D02*
D03*
X228900Y149800D02*
D03*
X218900Y99100D02*
D03*
X143100Y118500D02*
D03*
X212493Y95877D02*
D03*
X158790Y85767D02*
D03*
X157700Y89600D02*
D03*
X122843Y132858D02*
D03*
X122812Y130700D02*
D03*
X99963Y121000D02*
D03*
X119819Y105077D02*
D03*
X120077Y120929D02*
D03*
X119998Y124802D02*
D03*
X120000Y117100D02*
D03*
X122812Y113235D02*
D03*
Y117500D02*
D03*
Y108800D02*
D03*
X138800Y120400D02*
D03*
X199895Y86428D02*
D03*
X156000Y124853D02*
D03*
X158537D02*
D03*
X212000Y110100D02*
D03*
Y103785D02*
D03*
X146400Y89600D02*
D03*
X148232Y89775D02*
D03*
X147100Y93909D02*
D03*
X99315Y169445D02*
D03*
X150906Y93691D02*
D03*
X195400Y149400D02*
D03*
X111200Y105200D02*
D03*
X197200Y149400D02*
D03*
X115400Y105700D02*
D03*
X201294Y149400D02*
D03*
X203263D02*
D03*
X115600Y102400D02*
D03*
X215079Y149400D02*
D03*
X213111D02*
D03*
X209200D02*
D03*
X135400Y90600D02*
D03*
X207200Y149400D02*
D03*
X143623Y89434D02*
D03*
X127624Y85084D02*
D03*
X123500Y87265D02*
D03*
X135300Y97900D02*
D03*
X128009Y104608D02*
D03*
X119609Y93805D02*
D03*
X135556Y93277D02*
D03*
X123687Y89763D02*
D03*
X116143Y109321D02*
D03*
X112100Y93500D02*
D03*
X111497Y109793D02*
D03*
X90500Y106400D02*
D03*
X82009Y109000D02*
D03*
X89400Y107400D02*
D03*
X99400Y106300D02*
D03*
X90502Y101400D02*
D03*
X63043Y106043D02*
D03*
X65680Y106632D02*
D03*
X231200Y82529D02*
D03*
Y74586D02*
D03*
Y78557D02*
D03*
X79600Y68400D02*
D03*
X89320Y124134D02*
D03*
X217079Y168000D02*
D03*
X217016Y156645D02*
D03*
X205242Y168000D02*
D03*
X193431D02*
D03*
X180000Y172900D02*
D03*
X199700Y159900D02*
D03*
X197100Y160000D02*
D03*
X193394Y156645D02*
D03*
X162654Y85767D02*
D03*
X134748Y169445D02*
D03*
X139032Y77893D02*
D03*
X135095Y81830D02*
D03*
X123687Y74015D02*
D03*
X222153Y57300D02*
D03*
X193700Y27400D02*
D03*
X229007Y20455D02*
D03*
X228970Y12610D02*
D03*
X217196Y20455D02*
D03*
X205396Y20555D02*
D03*
X205400Y13890D02*
D03*
X193585Y13300D02*
D03*
X146989Y43893D02*
D03*
X145200Y44300D02*
D03*
X142131Y43827D02*
D03*
X123500Y65400D02*
D03*
X133900Y50300D02*
D03*
Y46800D02*
D03*
X123500Y57800D02*
D03*
X143244Y41774D02*
D03*
X161600Y29300D02*
D03*
X143244Y38274D02*
D03*
X141200Y41800D02*
D03*
X138800Y43700D02*
D03*
X142400Y40100D02*
D03*
X162900Y27800D02*
D03*
X136500Y43700D02*
D03*
X128501Y20500D02*
D03*
X128438Y9100D02*
D03*
X122948Y169445D02*
D03*
X111126D02*
D03*
X111600Y112500D02*
D03*
X80690Y130047D02*
D03*
X75300Y151100D02*
D03*
X57400Y132700D02*
D03*
X34741Y155896D02*
D03*
X53600Y151100D02*
D03*
X75300Y114600D02*
D03*
X69200Y115500D02*
D03*
X66800Y115800D02*
D03*
X57400Y126400D02*
D03*
X63500Y114500D02*
D03*
X116700Y27300D02*
D03*
X104002Y93700D02*
D03*
X97576Y83100D02*
D03*
X116627Y9100D02*
D03*
X109500Y17400D02*
D03*
X104805Y9100D02*
D03*
X77500Y68400D02*
D03*
X72434Y85966D02*
D03*
X76100Y63300D02*
D03*
Y61900D02*
D03*
X72400Y51700D02*
D03*
Y50000D02*
D03*
X209600Y165000D02*
D03*
X211300Y163500D02*
D03*
X127624Y93700D02*
D03*
X85944Y94921D02*
D03*
X83644D02*
D03*
X95700Y90200D02*
D03*
X92600D02*
D03*
X231200Y80543D02*
D03*
Y84514D02*
D03*
Y72600D02*
D03*
Y76571D02*
D03*
X119850Y73926D02*
D03*
X91025Y122064D02*
D03*
X213158Y168000D02*
D03*
X172400Y22600D02*
D03*
X206700Y165000D02*
D03*
X203100D02*
D03*
X204800Y163500D02*
D03*
X87100Y84650D02*
D03*
X89000Y80800D02*
D03*
X87100Y86300D02*
D03*
X80690Y90000D02*
D03*
Y88500D02*
D03*
X24600Y80500D02*
D03*
X99800Y119200D02*
D03*
X195400Y168000D02*
D03*
X203338D02*
D03*
X201238D02*
D03*
X139032Y85767D02*
D03*
X65500Y99900D02*
D03*
Y90300D02*
D03*
Y87800D02*
D03*
X63500Y99000D02*
D03*
Y96500D02*
D03*
X65500Y95200D02*
D03*
Y97700D02*
D03*
Y92700D02*
D03*
X63500Y91500D02*
D03*
Y94000D02*
D03*
X76186Y64986D02*
D03*
X39835Y83652D02*
D03*
X140800Y81700D02*
D03*
Y50200D02*
D03*
X27500Y51000D02*
D03*
X30000D02*
D03*
Y53000D02*
D03*
X27500D02*
D03*
X53500Y49300D02*
D03*
X37879Y82320D02*
D03*
X37900Y84600D02*
D03*
X43500Y171000D02*
D03*
X47644Y84452D02*
D03*
X43500Y167000D02*
D03*
Y169000D02*
D03*
X181774Y13300D02*
D03*
X177400Y18400D02*
D03*
X146559Y169445D02*
D03*
X228890Y168000D02*
D03*
X47718Y82317D02*
D03*
X42109Y101941D02*
D03*
X90502Y99659D02*
D03*
X103900Y101400D02*
D03*
X41000Y99500D02*
D03*
X115567Y115433D02*
D03*
X215600Y95900D02*
D03*
X229700Y97700D02*
D03*
X219000Y92900D02*
D03*
X72700Y71000D02*
D03*
X135153Y108986D02*
D03*
X60900Y67700D02*
D03*
X62400D02*
D03*
X133300Y89700D02*
D03*
X11400Y53500D02*
D03*
X111876Y70078D02*
D03*
X97576Y80400D02*
D03*
X107900Y85100D02*
D03*
X97576Y78621D02*
D03*
X81100Y63000D02*
D03*
X124922Y168510D02*
D03*
X136733D02*
D03*
Y150400D02*
D03*
X108000Y117600D02*
D03*
X119016Y150400D02*
D03*
X113675Y129311D02*
D03*
X126890Y168510D02*
D03*
X138701D02*
D03*
X142638D02*
D03*
X144607D02*
D03*
X38500Y170500D02*
D03*
Y167500D02*
D03*
X112397Y125004D02*
D03*
X120985Y150400D02*
D03*
X124922D02*
D03*
X111774Y121000D02*
D03*
X126890Y150400D02*
D03*
X99963Y113126D02*
D03*
X113111Y168510D02*
D03*
X130827Y150400D02*
D03*
X132796D02*
D03*
X119016Y168510D02*
D03*
X113111Y150400D02*
D03*
X103900Y113126D02*
D03*
X115079Y168510D02*
D03*
X130827D02*
D03*
X132796D02*
D03*
X99963Y117063D02*
D03*
X103900Y124937D02*
D03*
X120985Y168510D02*
D03*
X115079Y150400D02*
D03*
X103900Y121000D02*
D03*
X107205Y168510D02*
D03*
X104100Y109600D02*
D03*
X109174Y168510D02*
D03*
X108037Y109600D02*
D03*
X107857Y112644D02*
D03*
X108763Y28500D02*
D03*
X107500Y97300D02*
D03*
X106794Y28500D02*
D03*
X103800Y97600D02*
D03*
X101300Y168510D02*
D03*
X103268D02*
D03*
X107600Y105700D02*
D03*
X120574Y28500D02*
D03*
X107766Y94105D02*
D03*
X118605Y28500D02*
D03*
X99800Y85200D02*
D03*
X120574Y10390D02*
D03*
X114668Y28500D02*
D03*
X111776Y88784D02*
D03*
X107800Y89100D02*
D03*
X112700Y28500D02*
D03*
X126479D02*
D03*
X99800Y89700D02*
D03*
X118605Y10390D02*
D03*
X114668D02*
D03*
X100387Y97036D02*
D03*
X112700Y10390D02*
D03*
X99483Y99404D02*
D03*
X115700Y89700D02*
D03*
X124511Y28500D02*
D03*
X225042Y13890D02*
D03*
X126479Y10390D02*
D03*
X124511D02*
D03*
X100100Y94000D02*
D03*
X213189Y27700D02*
D03*
X150802Y80602D02*
D03*
X225000Y27700D02*
D03*
X151000Y89490D02*
D03*
X183752Y13890D02*
D03*
X131159Y77553D02*
D03*
X215157Y27700D02*
D03*
X135158Y66082D02*
D03*
X207326Y13890D02*
D03*
X195472Y27700D02*
D03*
X142830Y73964D02*
D03*
X197441Y27700D02*
D03*
X189657Y13890D02*
D03*
X135089Y74036D02*
D03*
X213231Y13890D02*
D03*
X131159Y66082D02*
D03*
X209294Y13890D02*
D03*
X131159Y70019D02*
D03*
X195563Y13890D02*
D03*
X139600Y70700D02*
D03*
X197531Y13890D02*
D03*
X135158Y77893D02*
D03*
X191626Y13890D02*
D03*
X139036Y66022D02*
D03*
X185808Y13890D02*
D03*
X175100Y45800D02*
D03*
X175700Y52400D02*
D03*
X175629Y49229D02*
D03*
X172200Y56000D02*
D03*
X120300Y58200D02*
D03*
X227011Y13890D02*
D03*
X127284Y66082D02*
D03*
X215200Y13890D02*
D03*
X207283Y27700D02*
D03*
X150900Y76600D02*
D03*
X209252Y27700D02*
D03*
X150821Y78841D02*
D03*
X201378Y27700D02*
D03*
X143032Y70019D02*
D03*
X201468Y13890D02*
D03*
X183600Y30400D02*
D03*
X185700D02*
D03*
X226968Y27700D02*
D03*
X219094D02*
D03*
X221063D02*
D03*
X127284Y70019D02*
D03*
X219137Y13890D02*
D03*
X221105D02*
D03*
X203346Y27700D02*
D03*
X139095Y73956D02*
D03*
X203437Y13890D02*
D03*
X189567Y27700D02*
D03*
X191535D02*
D03*
X150906Y70019D02*
D03*
X72500Y59000D02*
D03*
X43800Y82200D02*
D03*
X159800Y64600D02*
D03*
X245500Y78200D02*
D03*
X197471Y58271D02*
D03*
X134000Y54500D02*
D03*
X147700Y85300D02*
D03*
X28400Y136821D02*
D03*
X222500Y99500D02*
D03*
X244600Y120200D02*
D03*
X244500Y114300D02*
D03*
X244400Y108100D02*
D03*
Y102200D02*
D03*
X73100Y102800D02*
D03*
X68300Y100600D02*
D03*
X245000Y84200D02*
D03*
X244500Y96100D02*
D03*
X244300Y90200D02*
D03*
X222547Y119541D02*
D03*
Y116391D02*
D03*
Y113241D02*
D03*
Y103793D02*
D03*
Y88044D02*
D03*
Y81745D02*
D03*
X76100Y102800D02*
D03*
X59000Y68500D02*
D03*
X45700Y82300D02*
D03*
X16500Y87700D02*
D03*
X17600Y94000D02*
D03*
Y91500D02*
D03*
X15600Y90200D02*
D03*
Y92700D02*
D03*
Y105200D02*
D03*
Y102700D02*
D03*
Y100200D02*
D03*
Y97700D02*
D03*
Y95200D02*
D03*
X17600Y96500D02*
D03*
Y99000D02*
D03*
Y101500D02*
D03*
Y104000D02*
D03*
Y106500D02*
D03*
X58919Y75785D02*
D03*
X59000Y71000D02*
D03*
Y55300D02*
D03*
X43768Y50100D02*
D03*
X39900D02*
D03*
X58900Y60700D02*
D03*
X56600Y78500D02*
D03*
X26810Y74990D02*
D03*
X44300Y107500D02*
D03*
X28300Y128989D02*
D03*
Y140800D02*
D03*
X45901Y114201D02*
D03*
X80900Y139900D02*
D03*
X35000Y151900D02*
D03*
X44254Y139900D02*
D03*
X46000Y134000D02*
D03*
X28321Y132884D02*
D03*
X44275Y124163D02*
D03*
M02*
