G04*
G04 #@! TF.GenerationSoftware,Altium Limited,Altium Designer,21.4.1 (30)*
G04*
G04 Layer_Physical_Order=4*
G04 Layer_Color=16440176*
%FSLAX25Y25*%
%MOIN*%
G70*
G04*
G04 #@! TF.SameCoordinates,690C2B1C-B9AF-4ECE-B77D-8E73C62371D7*
G04*
G04*
G04 #@! TF.FilePolarity,Positive*
G04*
G01*
G75*
%ADD10C,0.01000*%
%ADD14C,0.00600*%
%ADD55R,0.09843X0.09843*%
%ADD60C,0.05906*%
%ADD105O,0.07087X0.03543*%
%ADD106O,0.08268X0.04134*%
%ADD108C,0.01181*%
G36*
X254902Y1003D02*
X1003Y1003D01*
Y161417D01*
Y176162D01*
X254902D01*
Y1003D01*
D02*
G37*
%LPC*%
G36*
X180197Y173890D02*
X179803D01*
X179439Y173740D01*
X179160Y173461D01*
X179009Y173097D01*
Y172703D01*
X179160Y172339D01*
X179439Y172060D01*
X179803Y171909D01*
X180197D01*
X180561Y172060D01*
X180840Y172339D01*
X180990Y172703D01*
Y173097D01*
X180840Y173461D01*
X180561Y173740D01*
X180197Y173890D01*
D02*
G37*
G36*
X38697Y171491D02*
X38303D01*
X37939Y171340D01*
X37660Y171061D01*
X37509Y170697D01*
Y170303D01*
X37660Y169939D01*
X37939Y169660D01*
X38303Y169509D01*
X38697D01*
X39061Y169660D01*
X39340Y169939D01*
X39490Y170303D01*
Y170697D01*
X39340Y171061D01*
X39061Y171340D01*
X38697Y171491D01*
D02*
G37*
G36*
X146756Y170435D02*
X146362D01*
X145998Y170285D01*
X145719Y170006D01*
X145568Y169642D01*
X145441Y169549D01*
X145068Y169391D01*
X144804Y169501D01*
X144410D01*
X144046Y169350D01*
X143946Y169250D01*
X143623Y169126D01*
X143300Y169250D01*
X143200Y169350D01*
X142835Y169501D01*
X142441D01*
X142077Y169350D01*
X141799Y169071D01*
X141648Y168707D01*
Y168313D01*
X141799Y167949D01*
X141925Y167823D01*
Y156661D01*
X141979Y156388D01*
X142134Y156157D01*
X146230Y152060D01*
X146234Y152037D01*
X146084Y151500D01*
X145939Y151440D01*
X145780Y151281D01*
X145656Y151162D01*
X145168Y151240D01*
X144804Y151391D01*
X144410D01*
X144046Y151240D01*
X143949Y151143D01*
X143682Y150994D01*
X143300Y151139D01*
X143251Y151188D01*
X142887Y151339D01*
X142493D01*
X142129Y151188D01*
X141850Y150909D01*
X141734Y150627D01*
X141700Y150545D01*
X141223Y150578D01*
X141214Y150619D01*
Y155327D01*
X141159Y155600D01*
X141005Y155832D01*
X139415Y157421D01*
Y167823D01*
X139541Y167949D01*
X139692Y168313D01*
Y168707D01*
X139541Y169071D01*
X139262Y169350D01*
X138898Y169501D01*
X138504D01*
X138140Y169350D01*
X138040Y169250D01*
X137717Y169126D01*
X137394Y169250D01*
X137294Y169350D01*
X136930Y169501D01*
X136536D01*
X136238Y169378D01*
X135956Y169486D01*
X135738Y169624D01*
Y169642D01*
X135588Y170006D01*
X135309Y170285D01*
X134945Y170435D01*
X134551D01*
X134187Y170285D01*
X133908Y170006D01*
X133757Y169642D01*
X133630Y169549D01*
X133257Y169391D01*
X132993Y169501D01*
X132599D01*
X132235Y169350D01*
X132134Y169250D01*
X131812Y169126D01*
X131489Y169250D01*
X131388Y169350D01*
X131024Y169501D01*
X130630D01*
X130266Y169350D01*
X129988Y169071D01*
X129837Y168707D01*
Y168313D01*
X129988Y167949D01*
X130114Y167823D01*
Y154277D01*
X128095Y152258D01*
X127940Y152027D01*
X127886Y151753D01*
Y151512D01*
X127665Y151374D01*
X127386Y151267D01*
X127087Y151391D01*
X126693D01*
X126329Y151240D01*
X126229Y151139D01*
X125906Y151016D01*
X125583Y151139D01*
X125483Y151240D01*
X125119Y151391D01*
X124725D01*
X124361Y151240D01*
X124082Y150961D01*
X123931Y150597D01*
Y150203D01*
X124082Y149839D01*
X124208Y149713D01*
Y146882D01*
X123861Y146603D01*
X123414Y146797D01*
Y152114D01*
X127395Y156095D01*
X127550Y156327D01*
X127604Y156600D01*
Y167823D01*
X127730Y167949D01*
X127881Y168313D01*
Y168707D01*
X127730Y169071D01*
X127452Y169350D01*
X127087Y169501D01*
X126693D01*
X126329Y169350D01*
X126229Y169250D01*
X125906Y169126D01*
X125583Y169250D01*
X125483Y169350D01*
X125119Y169501D01*
X124725D01*
X124438Y169382D01*
X124133Y169503D01*
X123938Y169635D01*
Y169642D01*
X123788Y170006D01*
X123509Y170285D01*
X123145Y170435D01*
X122751D01*
X122387Y170285D01*
X122108Y170006D01*
X121957Y169642D01*
X121790Y169523D01*
X121457Y169387D01*
X121182Y169501D01*
X120788D01*
X120424Y169350D01*
X120323Y169250D01*
X120001Y169126D01*
X119678Y169250D01*
X119577Y169350D01*
X119213Y169501D01*
X118819D01*
X118455Y169350D01*
X118177Y169071D01*
X118026Y168707D01*
Y168529D01*
X104595Y155098D01*
X104440Y154867D01*
X104386Y154594D01*
Y151390D01*
X103886Y151183D01*
X103829Y151240D01*
X103465Y151391D01*
X103071D01*
X102707Y151240D01*
X102607Y151139D01*
X102284Y151016D01*
X101961Y151139D01*
X101861Y151240D01*
X101497Y151391D01*
X101103D01*
X100739Y151240D01*
X100704Y151205D01*
X100141Y151261D01*
X100123Y151277D01*
X99861Y151540D01*
X99836Y151550D01*
X99718Y152140D01*
X115098Y167520D01*
X115276D01*
X115640Y167670D01*
X115919Y167949D01*
X116070Y168313D01*
Y168707D01*
X115919Y169071D01*
X115640Y169350D01*
X115276Y169501D01*
X114882D01*
X114518Y169350D01*
X114418Y169250D01*
X114095Y169126D01*
X113772Y169250D01*
X113672Y169350D01*
X113308Y169501D01*
X112914D01*
X112616Y169378D01*
X112334Y169486D01*
X112116Y169624D01*
Y169642D01*
X111966Y170006D01*
X111687Y170285D01*
X111323Y170435D01*
X110929D01*
X110565Y170285D01*
X110286Y170006D01*
X110135Y169642D01*
X110008Y169549D01*
X109635Y169391D01*
X109371Y169501D01*
X108977D01*
X108613Y169350D01*
X108512Y169250D01*
X108190Y169126D01*
X107867Y169250D01*
X107766Y169350D01*
X107402Y169501D01*
X107008D01*
X106644Y169350D01*
X106366Y169071D01*
X106215Y168707D01*
Y168529D01*
X83614Y145928D01*
X83146Y146084D01*
X83113Y146110D01*
Y147346D01*
X103287Y167520D01*
X103465D01*
X103829Y167670D01*
X104108Y167949D01*
X104259Y168313D01*
Y168707D01*
X104108Y169071D01*
X103829Y169350D01*
X103465Y169501D01*
X103071D01*
X102707Y169350D01*
X102607Y169250D01*
X102284Y169126D01*
X101961Y169250D01*
X101861Y169350D01*
X101497Y169501D01*
X101103D01*
X100805Y169378D01*
X100523Y169486D01*
X100305Y169624D01*
Y169642D01*
X100154Y170006D01*
X99876Y170285D01*
X99512Y170435D01*
X99118D01*
X98754Y170285D01*
X98475Y170006D01*
X98324Y169642D01*
Y169248D01*
X98475Y168884D01*
X98754Y168605D01*
X99118Y168454D01*
X99512D01*
X99538Y168465D01*
X99822Y168041D01*
X76195Y144415D01*
X76040Y144183D01*
X75986Y143910D01*
Y117500D01*
X76040Y117227D01*
X76195Y116995D01*
X88926Y104264D01*
X89158Y104109D01*
X89087Y103614D01*
X81995D01*
X74204Y111405D01*
X73973Y111559D01*
X73700Y111614D01*
X20495D01*
X17690Y114419D01*
Y114597D01*
X17540Y114961D01*
X17261Y115240D01*
X16897Y115391D01*
X16503D01*
X16139Y115240D01*
X15860Y114961D01*
X15709Y114597D01*
Y114203D01*
X15860Y113839D01*
X16139Y113560D01*
X16503Y113409D01*
X16681D01*
X19695Y110395D01*
X19927Y110241D01*
X20200Y110186D01*
X73404D01*
X81195Y102395D01*
X81427Y102241D01*
X81700Y102186D01*
X89234D01*
X89548Y101686D01*
X89511Y101597D01*
Y101203D01*
X89662Y100839D01*
X89916Y100530D01*
X89662Y100221D01*
X89511Y99856D01*
Y99462D01*
X89662Y99098D01*
X89941Y98820D01*
X90305Y98669D01*
X90699D01*
X91063Y98820D01*
X91342Y99098D01*
X91492Y99462D01*
Y99856D01*
X91342Y100221D01*
X91088Y100530D01*
X91342Y100839D01*
X91492Y101203D01*
Y101597D01*
X91456Y101686D01*
X91770Y102186D01*
X98700D01*
Y100118D01*
X98304D01*
X98031Y100063D01*
X97799Y99909D01*
X93803Y95912D01*
X93648Y95681D01*
X93594Y95408D01*
Y91314D01*
X93377Y91176D01*
X93094Y91067D01*
X92797Y91190D01*
X92403D01*
X92039Y91040D01*
X91760Y90761D01*
X91609Y90397D01*
Y90003D01*
X91760Y89639D01*
X92039Y89360D01*
X92403Y89209D01*
X92797D01*
X93094Y89332D01*
X93377Y89224D01*
X93594Y89086D01*
Y87506D01*
X93648Y87233D01*
X93722Y87122D01*
X89695Y83095D01*
X89540Y82864D01*
X89486Y82591D01*
Y81984D01*
X89197Y81791D01*
X88803D01*
X88439Y81640D01*
X88160Y81361D01*
X88009Y80997D01*
Y80603D01*
X88160Y80239D01*
X88439Y79960D01*
X88803Y79809D01*
X89197D01*
X89486Y79616D01*
Y32890D01*
X89540Y32617D01*
X89695Y32385D01*
X111709Y10371D01*
Y10193D01*
X111860Y9829D01*
X112139Y9550D01*
X112503Y9399D01*
X112897D01*
X113261Y9550D01*
X113361Y9650D01*
X113684Y9773D01*
X114007Y9650D01*
X114107Y9550D01*
X114471Y9399D01*
X114865D01*
X115194Y9535D01*
X115447Y9408D01*
X115637Y9250D01*
Y8903D01*
X115788Y8539D01*
X116066Y8260D01*
X116430Y8109D01*
X116824D01*
X117189Y8260D01*
X117467Y8539D01*
X117618Y8903D01*
Y9269D01*
X117710Y9352D01*
X117973Y9508D01*
X118056Y9545D01*
X118408Y9399D01*
X118802D01*
X119166Y9550D01*
X119267Y9650D01*
X119590Y9773D01*
X119912Y9650D01*
X120013Y9550D01*
X120377Y9399D01*
X120771D01*
X121135Y9550D01*
X121414Y9829D01*
X121564Y10193D01*
Y10587D01*
X121414Y10951D01*
X121135Y11229D01*
X120771Y11380D01*
X120593D01*
X110199Y21774D01*
X110390Y22236D01*
X111655D01*
X123520Y10371D01*
Y10193D01*
X123671Y9829D01*
X123950Y9550D01*
X124314Y9399D01*
X124708D01*
X125072Y9550D01*
X125172Y9650D01*
X125495Y9773D01*
X125818Y9650D01*
X125918Y9550D01*
X126282Y9399D01*
X126676D01*
X127005Y9535D01*
X127258Y9408D01*
X127448Y9250D01*
Y8903D01*
X127599Y8539D01*
X127877Y8260D01*
X128241Y8109D01*
X128635D01*
X128999Y8260D01*
X129278Y8539D01*
X129429Y8903D01*
Y9297D01*
X129278Y9661D01*
X128999Y9940D01*
X128635Y10091D01*
X128241D01*
X127912Y9954D01*
X127660Y10082D01*
X127470Y10239D01*
Y10587D01*
X127319Y10951D01*
X127040Y11229D01*
X126676Y11380D01*
X126498D01*
X113074Y24805D01*
X112842Y24959D01*
X112569Y25014D01*
X109395D01*
X107309Y27100D01*
X107355Y27660D01*
X107456Y27760D01*
X107779Y27884D01*
X108101Y27760D01*
X108202Y27660D01*
X108566Y27509D01*
X108960D01*
X109324Y27660D01*
X109602Y27939D01*
X109753Y28303D01*
Y28697D01*
X109602Y29061D01*
X109324Y29340D01*
X108960Y29491D01*
X108782D01*
X105814Y32459D01*
Y33670D01*
X106314Y33877D01*
X111709Y28481D01*
Y28303D01*
X111860Y27939D01*
X112139Y27660D01*
X112503Y27509D01*
X112897D01*
X113261Y27660D01*
X113361Y27760D01*
X113684Y27884D01*
X114007Y27760D01*
X114107Y27660D01*
X114471Y27509D01*
X114865D01*
X115229Y27660D01*
X115247Y27678D01*
X115541Y27563D01*
X115709Y27433D01*
Y27103D01*
X115860Y26739D01*
X116139Y26460D01*
X116503Y26309D01*
X116897D01*
X117261Y26460D01*
X117540Y26739D01*
X117690Y27103D01*
Y27307D01*
X117819Y27435D01*
X118112Y27605D01*
X118152Y27615D01*
X118408Y27509D01*
X118802D01*
X119166Y27660D01*
X119267Y27760D01*
X119590Y27884D01*
X119912Y27760D01*
X120013Y27660D01*
X120377Y27509D01*
X120771D01*
X121135Y27660D01*
X121414Y27939D01*
X121564Y28303D01*
Y28697D01*
X121414Y29061D01*
X121135Y29340D01*
X120771Y29491D01*
X120593D01*
X114963Y35120D01*
Y64700D01*
X116386D01*
Y35911D01*
X116440Y35638D01*
X116595Y35406D01*
X123520Y28481D01*
Y28303D01*
X123671Y27939D01*
X123950Y27660D01*
X124314Y27509D01*
X124708D01*
X125072Y27660D01*
X125172Y27760D01*
X125495Y27884D01*
X125818Y27760D01*
X125918Y27660D01*
X126282Y27509D01*
X126676D01*
X127040Y27660D01*
X127319Y27939D01*
X127356Y28027D01*
X127932Y28159D01*
X153495Y2595D01*
X153727Y2441D01*
X154000Y2386D01*
X216221D01*
X216494Y2441D01*
X216726Y2595D01*
X227030Y12899D01*
X227208D01*
X227532Y13033D01*
X227783Y12906D01*
X227979Y12750D01*
Y12413D01*
X228130Y12049D01*
X228409Y11770D01*
X228773Y11620D01*
X229167D01*
X229531Y11770D01*
X229810Y12049D01*
X229960Y12413D01*
Y12807D01*
X229810Y13171D01*
X229531Y13450D01*
X229167Y13601D01*
X228773D01*
X228449Y13467D01*
X228198Y13593D01*
X228001Y13750D01*
Y14087D01*
X227851Y14451D01*
X227572Y14729D01*
X227208Y14880D01*
X226814D01*
X226450Y14729D01*
X226349Y14629D01*
X226027Y14506D01*
X225704Y14629D01*
X225603Y14729D01*
X225239Y14880D01*
X224845D01*
X224481Y14729D01*
X224203Y14451D01*
X224052Y14087D01*
Y13908D01*
X219368Y9225D01*
X219291Y9219D01*
X218807Y9371D01*
X218733Y9552D01*
X218454Y9831D01*
X218388Y10163D01*
X221124Y12899D01*
X221302D01*
X221666Y13050D01*
X221945Y13329D01*
X222096Y13693D01*
Y14087D01*
X221945Y14451D01*
X221666Y14729D01*
X221302Y14880D01*
X220908D01*
X220544Y14729D01*
X220444Y14629D01*
X220121Y14506D01*
X219798Y14629D01*
X219698Y14729D01*
X219334Y14880D01*
X218940D01*
X218576Y14729D01*
X218297Y14451D01*
X218146Y14087D01*
Y13908D01*
X211651Y7414D01*
X210386D01*
X210195Y7876D01*
X215219Y12899D01*
X215397D01*
X215761Y13050D01*
X216040Y13329D01*
X216190Y13693D01*
Y14087D01*
X216040Y14451D01*
X215761Y14729D01*
X215397Y14880D01*
X215003D01*
X214639Y14729D01*
X214538Y14629D01*
X214215Y14506D01*
X213893Y14629D01*
X213792Y14729D01*
X213428Y14880D01*
X213034D01*
X212670Y14729D01*
X212392Y14451D01*
X212241Y14087D01*
Y13919D01*
X208197Y9875D01*
X206985D01*
X206778Y10375D01*
X209303Y12899D01*
X209491D01*
X209855Y13050D01*
X210134Y13329D01*
X210285Y13693D01*
Y14087D01*
X210134Y14451D01*
X209855Y14729D01*
X209491Y14880D01*
X209097D01*
X208733Y14729D01*
X208633Y14629D01*
X208310Y14506D01*
X207987Y14629D01*
X207887Y14729D01*
X207523Y14880D01*
X207129D01*
X206765Y14729D01*
X206689Y14654D01*
X206363Y14506D01*
X206036Y14654D01*
X205961Y14729D01*
X205597Y14880D01*
X205203D01*
X204839Y14729D01*
X204742Y14633D01*
X204418Y14506D01*
X204094Y14633D01*
X203998Y14729D01*
X203634Y14880D01*
X203456D01*
X192040Y26296D01*
X192095Y26849D01*
X192128Y26892D01*
X192247Y27011D01*
X192725Y26977D01*
X192822Y26932D01*
X192860Y26839D01*
X193139Y26560D01*
X193503Y26409D01*
X193897D01*
X194261Y26560D01*
X194437Y26736D01*
X194911Y26860D01*
X195275Y26709D01*
X195669D01*
X196033Y26860D01*
X196134Y26961D01*
X196457Y27084D01*
X196779Y26961D01*
X196880Y26860D01*
X197244Y26709D01*
X197638D01*
X198002Y26860D01*
X198281Y27139D01*
X198431Y27503D01*
Y27897D01*
X198281Y28261D01*
X198154Y28387D01*
Y34617D01*
X198100Y34890D01*
X197945Y35121D01*
X163800Y69267D01*
Y70037D01*
X164262Y70229D01*
X200664Y33826D01*
Y28387D01*
X200538Y28261D01*
X200387Y27897D01*
Y27503D01*
X200538Y27139D01*
X200817Y26860D01*
X201181Y26709D01*
X201575D01*
X201939Y26860D01*
X202039Y26961D01*
X202362Y27084D01*
X202685Y26961D01*
X202785Y26860D01*
X203149Y26709D01*
X203543D01*
X203907Y26860D01*
X204186Y27139D01*
X204337Y27503D01*
Y27897D01*
X204186Y28261D01*
X204060Y28387D01*
Y34653D01*
X204006Y34927D01*
X203851Y35158D01*
X197400Y41609D01*
X197444Y41840D01*
X197575Y42142D01*
X197861Y42260D01*
X198042Y42441D01*
X198631Y42559D01*
X206570Y34621D01*
Y28387D01*
X206444Y28261D01*
X206293Y27897D01*
Y27503D01*
X206444Y27139D01*
X206722Y26860D01*
X207086Y26709D01*
X207480D01*
X207844Y26860D01*
X207945Y26961D01*
X208267Y27084D01*
X208590Y26961D01*
X208691Y26860D01*
X209055Y26709D01*
X209449D01*
X209813Y26860D01*
X210091Y27139D01*
X210242Y27503D01*
Y27897D01*
X210091Y28261D01*
X209965Y28387D01*
Y38518D01*
X210466Y38725D01*
X212492Y36699D01*
Y28404D01*
X212349Y28261D01*
X212198Y27897D01*
Y27503D01*
X212349Y27139D01*
X212628Y26860D01*
X212992Y26709D01*
X213386D01*
X213750Y26860D01*
X213850Y26961D01*
X214173Y27084D01*
X214496Y26961D01*
X214596Y26860D01*
X214960Y26709D01*
X215354D01*
X215718Y26860D01*
X215997Y27139D01*
X216148Y27503D01*
Y27897D01*
X215997Y28261D01*
X215887Y28370D01*
Y36396D01*
X216388Y36603D01*
X218397Y34593D01*
Y28404D01*
X218255Y28261D01*
X218104Y27897D01*
Y27503D01*
X218255Y27139D01*
X218533Y26860D01*
X218897Y26709D01*
X219291D01*
X219655Y26860D01*
X219756Y26961D01*
X220079Y27084D01*
X220401Y26961D01*
X220502Y26860D01*
X220866Y26709D01*
X221260D01*
X221624Y26860D01*
X221903Y27139D01*
X222053Y27503D01*
Y27897D01*
X221903Y28261D01*
X221777Y28387D01*
Y36445D01*
X221722Y36718D01*
X221568Y36950D01*
X218000Y40517D01*
Y41537D01*
X218462Y41729D01*
X224303Y35888D01*
Y28404D01*
X224160Y28261D01*
X224009Y27897D01*
Y27503D01*
X224160Y27139D01*
X224439Y26860D01*
X224803Y26709D01*
X225197D01*
X225561Y26860D01*
X225661Y26961D01*
X225984Y27084D01*
X226307Y26961D01*
X226407Y26860D01*
X226771Y26709D01*
X227165D01*
X227529Y26860D01*
X227808Y27139D01*
X227959Y27503D01*
Y27897D01*
X227808Y28261D01*
X227682Y28387D01*
Y38331D01*
X227628Y38605D01*
X227473Y38836D01*
X220500Y45809D01*
X220707Y46309D01*
X220797D01*
X221161Y46460D01*
X221440Y46739D01*
X221590Y47103D01*
Y47497D01*
X221440Y47861D01*
X221161Y48140D01*
X220797Y48291D01*
X220403D01*
X220039Y48140D01*
X219760Y47861D01*
X219609Y47497D01*
Y47407D01*
X219109Y47200D01*
X218000Y48309D01*
Y58900D01*
X207409D01*
X191471Y74838D01*
X191662Y75300D01*
X224200D01*
Y129100D01*
X212777D01*
X212460Y129486D01*
X212492Y129650D01*
X212376Y130236D01*
X212044Y130732D01*
X211548Y131063D01*
X210963Y131180D01*
X210538Y131095D01*
X210463Y131136D01*
X210186Y131413D01*
X210145Y131488D01*
X210229Y131913D01*
X210113Y132498D01*
X209782Y132994D01*
X209285Y133326D01*
X208700Y133442D01*
X208115Y133326D01*
X207619Y132994D01*
X207630Y132983D01*
X206873Y132227D01*
X206528Y131985D01*
X206183Y132227D01*
X206005Y132405D01*
X205773Y132559D01*
X205500Y132614D01*
X167828D01*
X167555Y132559D01*
X167324Y132405D01*
X165223Y130304D01*
X163800D01*
Y130600D01*
X161662D01*
X161471Y131062D01*
X164027Y133618D01*
X200011D01*
X200284Y133672D01*
X200516Y133827D01*
X215098Y148409D01*
X215276D01*
X215640Y148560D01*
X215919Y148839D01*
X216070Y149203D01*
Y149597D01*
X215919Y149961D01*
X215640Y150240D01*
X215276Y150391D01*
X214882D01*
X214518Y150240D01*
X214418Y150139D01*
X214095Y150016D01*
X213772Y150139D01*
X213672Y150240D01*
X213308Y150391D01*
X212914D01*
X212550Y150240D01*
X212271Y149961D01*
X212120Y149597D01*
Y149419D01*
X199247Y136545D01*
X163731D01*
X163573Y136514D01*
X162993D01*
X162735Y137014D01*
X162858Y137186D01*
X197700D01*
X197973Y137241D01*
X198205Y137395D01*
X209219Y148409D01*
X209397D01*
X209761Y148560D01*
X210040Y148839D01*
X210190Y149203D01*
Y149597D01*
X210040Y149961D01*
X209761Y150240D01*
X209397Y150391D01*
X209003D01*
X208639Y150240D01*
X208516Y150117D01*
X208200Y150013D01*
X207884Y150117D01*
X207761Y150240D01*
X207397Y150391D01*
X207003D01*
X206639Y150240D01*
X206360Y149961D01*
X206209Y149597D01*
Y149419D01*
X197004Y140214D01*
X195450D01*
X195401Y140714D01*
X195536Y140741D01*
X195767Y140895D01*
X203282Y148409D01*
X203460D01*
X203824Y148560D01*
X204102Y148839D01*
X204253Y149203D01*
Y149597D01*
X204102Y149961D01*
X203824Y150240D01*
X203460Y150391D01*
X203066D01*
X202702Y150240D01*
X202601Y150139D01*
X202278Y150016D01*
X201956Y150139D01*
X201855Y150240D01*
X201491Y150391D01*
X201097D01*
X200733Y150240D01*
X200454Y149961D01*
X200304Y149597D01*
Y149419D01*
X194399Y143514D01*
X192687D01*
X192638Y144014D01*
X192773Y144041D01*
X193005Y144195D01*
X197219Y148409D01*
X197397D01*
X197761Y148560D01*
X198040Y148839D01*
X198190Y149203D01*
Y149597D01*
X198040Y149961D01*
X197761Y150240D01*
X197397Y150391D01*
X197003D01*
X196639Y150240D01*
X196626Y150227D01*
X196300Y150003D01*
X195973Y150227D01*
X195961Y150240D01*
X195597Y150391D01*
X195203D01*
X194839Y150240D01*
X194560Y149961D01*
X194409Y149597D01*
Y149419D01*
X192204Y147214D01*
X154900D01*
X154627Y147159D01*
X154395Y147005D01*
X150214Y142823D01*
X149714Y143030D01*
Y152400D01*
X149659Y152673D01*
X149504Y152905D01*
X145321Y157088D01*
Y167823D01*
X145447Y167949D01*
X145598Y168313D01*
X145725Y168406D01*
X146098Y168564D01*
X146362Y168454D01*
X146756D01*
X147120Y168605D01*
X147399Y168884D01*
X147549Y169248D01*
Y169642D01*
X147399Y170006D01*
X147120Y170285D01*
X146756Y170435D01*
D02*
G37*
G36*
X195597Y168991D02*
X195203D01*
X194839Y168840D01*
X194738Y168739D01*
X194416Y168616D01*
X194093Y168739D01*
X193992Y168840D01*
X193628Y168991D01*
X193234D01*
X192870Y168840D01*
X192592Y168561D01*
X192441Y168197D01*
Y167803D01*
X192592Y167439D01*
X192870Y167160D01*
X193234Y167009D01*
X193628D01*
X193992Y167160D01*
X194093Y167261D01*
X194416Y167384D01*
X194738Y167261D01*
X194839Y167160D01*
X195203Y167009D01*
X195597D01*
X195961Y167160D01*
X196240Y167439D01*
X196390Y167803D01*
Y168197D01*
X196240Y168561D01*
X195961Y168840D01*
X195597Y168991D01*
D02*
G37*
G36*
X205439D02*
X205045D01*
X204681Y168840D01*
X204617Y168775D01*
X204290Y168616D01*
X203964Y168775D01*
X203899Y168840D01*
X203535Y168991D01*
X203141D01*
X202777Y168840D01*
X202584Y168646D01*
X202288Y168596D01*
X201993Y168646D01*
X201799Y168840D01*
X201435Y168991D01*
X201041D01*
X200677Y168840D01*
X200398Y168561D01*
X200248Y168197D01*
Y167803D01*
X200398Y167439D01*
X200677Y167160D01*
X201041Y167009D01*
X201435D01*
X201799Y167160D01*
X201993Y167353D01*
X202288Y167403D01*
X202584Y167353D01*
X202777Y167160D01*
X203141Y167009D01*
X203535D01*
X203899Y167160D01*
X203964Y167225D01*
X204290Y167384D01*
X204617Y167225D01*
X204681Y167160D01*
X205045Y167009D01*
X205439D01*
X205803Y167160D01*
X206082Y167439D01*
X206233Y167803D01*
Y168197D01*
X206082Y168561D01*
X205803Y168840D01*
X205439Y168991D01*
D02*
G37*
G36*
X217276D02*
X216882D01*
X216518Y168840D01*
X216339Y168661D01*
X216040Y168601D01*
X215740Y168661D01*
X215561Y168840D01*
X215197Y168991D01*
X214803D01*
X214439Y168840D01*
X214405Y168806D01*
X214079Y168610D01*
X213752Y168806D01*
X213719Y168840D01*
X213354Y168991D01*
X212961D01*
X212596Y168840D01*
X212318Y168561D01*
X212167Y168197D01*
Y167803D01*
X212318Y167439D01*
X212596Y167160D01*
X212961Y167009D01*
X213354D01*
X213719Y167160D01*
X213752Y167194D01*
X214079Y167390D01*
X214405Y167194D01*
X214439Y167160D01*
X214803Y167009D01*
X215197D01*
X215561Y167160D01*
X215740Y167339D01*
X216040Y167399D01*
X216339Y167339D01*
X216518Y167160D01*
X216882Y167009D01*
X217276D01*
X217640Y167160D01*
X217919Y167439D01*
X218070Y167803D01*
Y168197D01*
X217919Y168561D01*
X217640Y168840D01*
X217276Y168991D01*
D02*
G37*
G36*
X183788Y169099D02*
X183394D01*
X183030Y168948D01*
X182751Y168670D01*
X182600Y168306D01*
Y167912D01*
X182751Y167548D01*
X183030Y167269D01*
X183394Y167118D01*
X183788D01*
X184152Y167269D01*
X184431Y167548D01*
X184582Y167912D01*
Y168306D01*
X184431Y168670D01*
X184152Y168948D01*
X183788Y169099D01*
D02*
G37*
G36*
X229087Y168991D02*
X228693D01*
X228329Y168840D01*
X228051Y168561D01*
X227900Y168197D01*
Y167803D01*
X228051Y167439D01*
X228329Y167160D01*
X228693Y167009D01*
X229087D01*
X229451Y167160D01*
X229730Y167439D01*
X229881Y167803D01*
Y168197D01*
X229730Y168561D01*
X229451Y168840D01*
X229087Y168991D01*
D02*
G37*
G36*
X38697Y168491D02*
X38303D01*
X37939Y168340D01*
X37660Y168061D01*
X37509Y167697D01*
Y167303D01*
X37660Y166939D01*
X37939Y166660D01*
X38303Y166509D01*
X38697D01*
X39061Y166660D01*
X39340Y166939D01*
X39490Y167303D01*
Y167697D01*
X39340Y168061D01*
X39061Y168340D01*
X38697Y168491D01*
D02*
G37*
G36*
X43697Y171991D02*
X43303D01*
X42939Y171840D01*
X42660Y171561D01*
X42509Y171197D01*
Y170803D01*
X42660Y170439D01*
X42783Y170316D01*
X42886Y170000D01*
X42783Y169684D01*
X42660Y169561D01*
X42509Y169197D01*
Y168803D01*
X42660Y168439D01*
X42783Y168316D01*
X42886Y168000D01*
X42783Y167684D01*
X42660Y167561D01*
X42509Y167197D01*
Y166803D01*
X42660Y166439D01*
X42939Y166160D01*
X43303Y166009D01*
X43697D01*
X44061Y166160D01*
X44340Y166439D01*
X44490Y166803D01*
Y167197D01*
X44340Y167561D01*
X44217Y167684D01*
X44113Y168000D01*
X44217Y168316D01*
X44340Y168439D01*
X44490Y168803D01*
Y169197D01*
X44340Y169561D01*
X44217Y169684D01*
X44113Y170000D01*
X44217Y170316D01*
X44340Y170439D01*
X44490Y170803D01*
Y171197D01*
X44340Y171561D01*
X44061Y171840D01*
X43697Y171991D01*
D02*
G37*
G36*
X78772Y167858D02*
X78378D01*
X78013Y167707D01*
X77735Y167429D01*
X77584Y167065D01*
Y166671D01*
X77735Y166306D01*
X78013Y166028D01*
X78378Y165877D01*
X78772D01*
X79136Y166028D01*
X79414Y166306D01*
X79565Y166671D01*
Y167065D01*
X79414Y167429D01*
X79136Y167707D01*
X78772Y167858D01*
D02*
G37*
G36*
X85622Y167851D02*
X85228D01*
X84864Y167700D01*
X84585Y167422D01*
X84434Y167058D01*
Y166664D01*
X84585Y166299D01*
X84864Y166021D01*
X85228Y165870D01*
X85622D01*
X85986Y166021D01*
X86265Y166299D01*
X86416Y166664D01*
Y167058D01*
X86265Y167422D01*
X85986Y167700D01*
X85622Y167851D01*
D02*
G37*
G36*
X213397Y165990D02*
X213003D01*
X212639Y165840D01*
X212360Y165561D01*
X212209Y165197D01*
Y164803D01*
X212283Y164625D01*
X211865Y164342D01*
X211860Y164340D01*
X211497Y164490D01*
X211103D01*
X210981Y164440D01*
X210590Y164803D01*
Y165197D01*
X210440Y165561D01*
X210161Y165840D01*
X209797Y165990D01*
X209403D01*
X209039Y165840D01*
X208760Y165561D01*
X208609Y165197D01*
Y164803D01*
X208760Y164439D01*
X209039Y164160D01*
X209403Y164009D01*
X209797D01*
X209918Y164060D01*
X210309Y163697D01*
Y163303D01*
X210460Y162939D01*
X210739Y162660D01*
X211103Y162509D01*
X211497D01*
X211861Y162660D01*
X212140Y162939D01*
X212290Y163303D01*
Y163697D01*
X212216Y163875D01*
X212635Y164158D01*
X212640Y164160D01*
X213003Y164009D01*
X213397D01*
X213761Y164160D01*
X214040Y164439D01*
X214190Y164803D01*
Y165197D01*
X214040Y165561D01*
X213761Y165840D01*
X213397Y165990D01*
D02*
G37*
G36*
X206897D02*
X206503D01*
X206139Y165840D01*
X205860Y165561D01*
X205709Y165197D01*
Y164803D01*
X205783Y164625D01*
X205365Y164342D01*
X205360Y164340D01*
X204997Y164490D01*
X204603D01*
X204481Y164440D01*
X204090Y164803D01*
Y165197D01*
X203940Y165561D01*
X203661Y165840D01*
X203297Y165990D01*
X202903D01*
X202539Y165840D01*
X202260Y165561D01*
X202109Y165197D01*
Y164803D01*
X202260Y164439D01*
X202539Y164160D01*
X202903Y164009D01*
X203297D01*
X203418Y164060D01*
X203809Y163697D01*
Y163303D01*
X203960Y162939D01*
X204239Y162660D01*
X204603Y162509D01*
X204997D01*
X205361Y162660D01*
X205640Y162939D01*
X205790Y163303D01*
Y163697D01*
X205716Y163875D01*
X206135Y164158D01*
X206140Y164160D01*
X206503Y164009D01*
X206897D01*
X207261Y164160D01*
X207540Y164439D01*
X207690Y164803D01*
Y165197D01*
X207540Y165561D01*
X207261Y165840D01*
X206897Y165990D01*
D02*
G37*
G36*
X245900Y173279D02*
X244637Y173112D01*
X243460Y172625D01*
X242450Y171850D01*
X241675Y170839D01*
X241187Y169663D01*
X241021Y168400D01*
X241187Y167137D01*
X241675Y165961D01*
X242450Y164950D01*
X243460Y164175D01*
X244637Y163687D01*
X245900Y163521D01*
X247163Y163687D01*
X248339Y164175D01*
X249350Y164950D01*
X250125Y165961D01*
X250612Y167137D01*
X250779Y168400D01*
X250612Y169663D01*
X250125Y170839D01*
X249350Y171850D01*
X248339Y172625D01*
X247163Y173112D01*
X245900Y173279D01*
D02*
G37*
G36*
X20300D02*
X19037Y173112D01*
X17860Y172625D01*
X16850Y171850D01*
X16075Y170839D01*
X15587Y169663D01*
X15421Y168400D01*
X15587Y167137D01*
X16075Y165961D01*
X16850Y164950D01*
X17860Y164175D01*
X19037Y163687D01*
X20300Y163521D01*
X21563Y163687D01*
X22739Y164175D01*
X23750Y164950D01*
X24525Y165961D01*
X25012Y167137D01*
X25179Y168400D01*
X25012Y169663D01*
X24525Y170839D01*
X23750Y171850D01*
X22739Y172625D01*
X21563Y173112D01*
X20300Y173279D01*
D02*
G37*
G36*
X78772Y164315D02*
X78378D01*
X78013Y164164D01*
X77735Y163885D01*
X77584Y163521D01*
Y163127D01*
X77735Y162763D01*
X78013Y162485D01*
X78378Y162334D01*
X78772D01*
X79136Y162485D01*
X79414Y162763D01*
X79565Y163127D01*
Y163521D01*
X79414Y163885D01*
X79136Y164164D01*
X78772Y164315D01*
D02*
G37*
G36*
X85622Y164308D02*
X85228D01*
X84864Y164157D01*
X84585Y163878D01*
X84434Y163514D01*
Y163120D01*
X84585Y162756D01*
X84864Y162478D01*
X85228Y162327D01*
X85622D01*
X85986Y162478D01*
X86265Y162756D01*
X86416Y163120D01*
Y163514D01*
X86265Y163878D01*
X85986Y164157D01*
X85622Y164308D01*
D02*
G37*
G36*
X78772Y161165D02*
X78378D01*
X78013Y161014D01*
X77735Y160736D01*
X77584Y160372D01*
Y159978D01*
X77735Y159614D01*
X78013Y159335D01*
X78378Y159184D01*
X78772D01*
X79136Y159335D01*
X79414Y159614D01*
X79565Y159978D01*
Y160372D01*
X79414Y160736D01*
X79136Y161014D01*
X78772Y161165D01*
D02*
G37*
G36*
X85697Y161091D02*
X85303D01*
X84939Y160940D01*
X84660Y160661D01*
X84509Y160297D01*
Y159903D01*
X84660Y159539D01*
X84939Y159260D01*
X85303Y159109D01*
X85697D01*
X86061Y159260D01*
X86340Y159539D01*
X86490Y159903D01*
Y160297D01*
X86340Y160661D01*
X86061Y160940D01*
X85697Y161091D01*
D02*
G37*
G36*
X197297Y160991D02*
X196903D01*
X196539Y160840D01*
X196260Y160561D01*
X196109Y160197D01*
Y159803D01*
X196260Y159439D01*
X196539Y159160D01*
X196903Y159009D01*
X197297D01*
X197661Y159160D01*
X197940Y159439D01*
X198090Y159803D01*
Y160197D01*
X197940Y160561D01*
X197661Y160840D01*
X197297Y160991D01*
D02*
G37*
G36*
X199897Y160890D02*
X199503D01*
X199139Y160740D01*
X198860Y160461D01*
X198709Y160097D01*
Y159703D01*
X198860Y159339D01*
X199139Y159060D01*
X199503Y158909D01*
X199897D01*
X200261Y159060D01*
X200540Y159339D01*
X200690Y159703D01*
Y160097D01*
X200540Y160461D01*
X200261Y160740D01*
X199897Y160890D01*
D02*
G37*
G36*
X217213Y157635D02*
X216819D01*
X216455Y157485D01*
X216177Y157206D01*
X216026Y156842D01*
Y156448D01*
X216177Y156084D01*
X216455Y155805D01*
X216819Y155654D01*
X217213D01*
X217577Y155805D01*
X217856Y156084D01*
X218007Y156448D01*
Y156842D01*
X217856Y157206D01*
X217577Y157485D01*
X217213Y157635D01*
D02*
G37*
G36*
X193591D02*
X193197D01*
X192833Y157485D01*
X192554Y157206D01*
X192404Y156842D01*
Y156448D01*
X192554Y156084D01*
X192833Y155805D01*
X193197Y155654D01*
X193591D01*
X193955Y155805D01*
X194234Y156084D01*
X194385Y156448D01*
Y156842D01*
X194234Y157206D01*
X193955Y157485D01*
X193591Y157635D01*
D02*
G37*
G36*
X34938Y156886D02*
X34544D01*
X34180Y156736D01*
X33901Y156457D01*
X33750Y156093D01*
Y155699D01*
X33901Y155335D01*
X34180Y155056D01*
X34544Y154905D01*
X34938D01*
X35302Y155056D01*
X35581Y155335D01*
X35731Y155699D01*
Y156093D01*
X35581Y156457D01*
X35302Y156736D01*
X34938Y156886D01*
D02*
G37*
G36*
X35197Y152891D02*
X34803D01*
X34439Y152740D01*
X34160Y152461D01*
X34009Y152097D01*
Y151703D01*
X34160Y151339D01*
X34439Y151060D01*
X34803Y150909D01*
X35197D01*
X35561Y151060D01*
X35840Y151339D01*
X35990Y151703D01*
Y152097D01*
X35840Y152461D01*
X35561Y152740D01*
X35197Y152891D01*
D02*
G37*
G36*
X75497Y152091D02*
X75103D01*
X74739Y151940D01*
X74460Y151661D01*
X74309Y151297D01*
Y150903D01*
X74460Y150539D01*
X74739Y150260D01*
X75103Y150109D01*
X75497D01*
X75861Y150260D01*
X76140Y150539D01*
X76290Y150903D01*
Y151297D01*
X76140Y151661D01*
X75861Y151940D01*
X75497Y152091D01*
D02*
G37*
G36*
X53797D02*
X53403D01*
X53039Y151940D01*
X52760Y151661D01*
X52609Y151297D01*
Y150903D01*
X52760Y150539D01*
X53039Y150260D01*
X53403Y150109D01*
X53797D01*
X54161Y150260D01*
X54440Y150539D01*
X54590Y150903D01*
Y151297D01*
X54440Y151661D01*
X54161Y151940D01*
X53797Y152091D01*
D02*
G37*
G36*
X191497Y150190D02*
X191103D01*
X190739Y150040D01*
X190559Y149859D01*
X190378Y150040D01*
X190014Y150190D01*
X189620D01*
X189256Y150040D01*
X188977Y149761D01*
X188827Y149397D01*
Y149003D01*
X188977Y148639D01*
X189256Y148360D01*
X189620Y148209D01*
X190014D01*
X190378Y148360D01*
X190559Y148540D01*
X190739Y148360D01*
X191103Y148209D01*
X191497D01*
X191861Y148360D01*
X192140Y148639D01*
X192290Y149003D01*
Y149397D01*
X192140Y149761D01*
X191861Y150040D01*
X191497Y150190D01*
D02*
G37*
G36*
X229097Y150791D02*
X228703D01*
X228339Y150640D01*
X228060Y150361D01*
X227909Y149997D01*
Y149603D01*
X228060Y149239D01*
X228339Y148960D01*
X228703Y148809D01*
X229097D01*
X229461Y148960D01*
X229740Y149239D01*
X229890Y149603D01*
Y149997D01*
X229740Y150361D01*
X229461Y150640D01*
X229097Y150791D01*
D02*
G37*
G36*
X180097Y149890D02*
X179703D01*
X179339Y149740D01*
X179060Y149461D01*
X178909Y149097D01*
Y148703D01*
X179060Y148339D01*
X179339Y148060D01*
X179703Y147909D01*
X180097D01*
X180461Y148060D01*
X180740Y148339D01*
X180890Y148703D01*
Y149097D01*
X180740Y149461D01*
X180461Y149740D01*
X180097Y149890D01*
D02*
G37*
G36*
X183697Y151202D02*
X183303D01*
X182939Y151051D01*
X182660Y150773D01*
X182509Y150409D01*
Y150015D01*
X182660Y149651D01*
X182939Y149372D01*
X183303Y149221D01*
X183697D01*
X183907Y149308D01*
X184240Y149049D01*
X184316Y148974D01*
Y148596D01*
X184467Y148232D01*
X184746Y147953D01*
X185110Y147802D01*
X185504D01*
X185868Y147953D01*
X186147Y148232D01*
X186297Y148596D01*
Y148990D01*
X186147Y149354D01*
X185868Y149633D01*
X185504Y149783D01*
X185110D01*
X184900Y149696D01*
X184567Y149955D01*
X184490Y150031D01*
Y150409D01*
X184340Y150773D01*
X184061Y151051D01*
X183697Y151202D01*
D02*
G37*
G36*
X27634Y148894D02*
X26966D01*
X26348Y148639D01*
X25876Y148166D01*
X25620Y147549D01*
Y146881D01*
X25876Y146263D01*
X26348Y145791D01*
X26966Y145535D01*
X27634D01*
X28251Y145791D01*
X28724Y146263D01*
X28979Y146881D01*
Y147549D01*
X28724Y148166D01*
X28251Y148639D01*
X27634Y148894D01*
D02*
G37*
G36*
X28497Y141790D02*
X28103D01*
X27739Y141640D01*
X27460Y141361D01*
X27309Y140997D01*
Y140603D01*
X27460Y140239D01*
X27739Y139960D01*
X28103Y139809D01*
X28497D01*
X28861Y139960D01*
X29140Y140239D01*
X29290Y140603D01*
Y140997D01*
X29140Y141361D01*
X28861Y141640D01*
X28497Y141790D01*
D02*
G37*
G36*
X44451Y140891D02*
X44057D01*
X43693Y140740D01*
X43414Y140461D01*
X43264Y140097D01*
Y139703D01*
X43414Y139339D01*
X43693Y139060D01*
X44057Y138909D01*
X44451D01*
X44815Y139060D01*
X45094Y139339D01*
X45245Y139703D01*
Y140097D01*
X45094Y140461D01*
X44815Y140740D01*
X44451Y140891D01*
D02*
G37*
G36*
X28597Y137812D02*
X28203D01*
X27839Y137661D01*
X27560Y137382D01*
X27409Y137018D01*
Y136624D01*
X27560Y136260D01*
X27839Y135981D01*
X28203Y135830D01*
X28597D01*
X28961Y135981D01*
X29240Y136260D01*
X29390Y136624D01*
Y137018D01*
X29240Y137382D01*
X28961Y137661D01*
X28597Y137812D01*
D02*
G37*
G36*
X46197Y134991D02*
X45803D01*
X45439Y134840D01*
X45160Y134561D01*
X45009Y134197D01*
Y133803D01*
X45160Y133439D01*
X45439Y133160D01*
X45803Y133009D01*
X46197D01*
X46561Y133160D01*
X46840Y133439D01*
X46990Y133803D01*
Y134197D01*
X46840Y134561D01*
X46561Y134840D01*
X46197Y134991D01*
D02*
G37*
G36*
X28518Y133875D02*
X28124D01*
X27760Y133724D01*
X27481Y133445D01*
X27330Y133081D01*
Y132687D01*
X27481Y132323D01*
X27760Y132044D01*
X28124Y131894D01*
X28518D01*
X28882Y132044D01*
X29161Y132323D01*
X29311Y132687D01*
Y133081D01*
X29161Y133445D01*
X28882Y133724D01*
X28518Y133875D01*
D02*
G37*
G36*
X57597Y133691D02*
X57203D01*
X56839Y133540D01*
X56560Y133261D01*
X56409Y132897D01*
Y132503D01*
X56560Y132139D01*
X56839Y131860D01*
X57203Y131709D01*
X57597D01*
X57961Y131860D01*
X58240Y132139D01*
X58390Y132503D01*
Y132897D01*
X58240Y133261D01*
X57961Y133540D01*
X57597Y133691D01*
D02*
G37*
G36*
X44797Y132691D02*
X44403D01*
X44039Y132540D01*
X43760Y132261D01*
X43609Y131897D01*
Y131503D01*
X43760Y131139D01*
X43940Y130959D01*
X43760Y130778D01*
X43609Y130414D01*
Y130020D01*
X43760Y129656D01*
X44039Y129377D01*
X44403Y129227D01*
X44797D01*
X45161Y129377D01*
X45440Y129656D01*
X45590Y130020D01*
Y130414D01*
X45440Y130778D01*
X45259Y130959D01*
X45440Y131139D01*
X45590Y131503D01*
Y131897D01*
X45440Y132261D01*
X45161Y132540D01*
X44797Y132691D01*
D02*
G37*
G36*
X28497Y129980D02*
X28103D01*
X27739Y129829D01*
X27460Y129550D01*
X27309Y129186D01*
Y128792D01*
X27460Y128428D01*
X27739Y128149D01*
X28103Y127998D01*
X28497D01*
X28861Y128149D01*
X29140Y128428D01*
X29290Y128792D01*
Y129186D01*
X29140Y129550D01*
X28861Y129829D01*
X28497Y129980D01*
D02*
G37*
G36*
X57597Y127391D02*
X57203D01*
X56839Y127240D01*
X56560Y126961D01*
X56409Y126597D01*
Y126203D01*
X56560Y125839D01*
X56839Y125560D01*
X57203Y125409D01*
X57597D01*
X57961Y125560D01*
X58240Y125839D01*
X58390Y126203D01*
Y126597D01*
X58240Y126961D01*
X57961Y127240D01*
X57597Y127391D01*
D02*
G37*
G36*
X44472Y125154D02*
X44078D01*
X43714Y125003D01*
X43436Y124724D01*
X43285Y124360D01*
Y123966D01*
X43436Y123602D01*
X43714Y123323D01*
X44078Y123172D01*
X44472D01*
X44837Y123323D01*
X45115Y123602D01*
X45266Y123966D01*
Y124360D01*
X45115Y124724D01*
X44837Y125003D01*
X44472Y125154D01*
D02*
G37*
G36*
X27634Y126138D02*
X26966D01*
X26348Y125883D01*
X25876Y125410D01*
X25620Y124793D01*
Y124125D01*
X25876Y123507D01*
X26348Y123035D01*
X26966Y122779D01*
X27634D01*
X28251Y123035D01*
X28724Y123507D01*
X28979Y124125D01*
Y124793D01*
X28724Y125410D01*
X28251Y125883D01*
X27634Y126138D01*
D02*
G37*
G36*
X244797Y121191D02*
X244403D01*
X244039Y121040D01*
X243760Y120761D01*
X243609Y120397D01*
Y120003D01*
X243760Y119639D01*
X244039Y119360D01*
X244403Y119209D01*
X244797D01*
X245161Y119360D01*
X245440Y119639D01*
X245590Y120003D01*
Y120397D01*
X245440Y120761D01*
X245161Y121040D01*
X244797Y121191D01*
D02*
G37*
G36*
X6897Y116590D02*
X6503D01*
X6139Y116440D01*
X5860Y116161D01*
X5709Y115797D01*
Y115403D01*
X5860Y115039D01*
X6139Y114760D01*
X6503Y114609D01*
X6897D01*
X7261Y114760D01*
X7540Y115039D01*
X7690Y115403D01*
Y115797D01*
X7540Y116161D01*
X7261Y116440D01*
X6897Y116590D01*
D02*
G37*
G36*
X66997Y116790D02*
X66603D01*
X66239Y116640D01*
X65960Y116361D01*
X65809Y115997D01*
Y115603D01*
X65960Y115239D01*
X66239Y114960D01*
X66603Y114809D01*
X66997D01*
X67361Y114960D01*
X67640Y115239D01*
X67709Y115407D01*
X68209Y115308D01*
Y115303D01*
X68360Y114939D01*
X68639Y114660D01*
X69003Y114509D01*
X69397D01*
X69761Y114660D01*
X70040Y114939D01*
X70190Y115303D01*
Y115697D01*
X70040Y116061D01*
X69761Y116340D01*
X69397Y116490D01*
X69003D01*
X68639Y116340D01*
X68360Y116061D01*
X68290Y115893D01*
X67790Y115992D01*
Y115997D01*
X67640Y116361D01*
X67361Y116640D01*
X66997Y116790D01*
D02*
G37*
G36*
X75497Y115591D02*
X75103D01*
X74739Y115440D01*
X74460Y115161D01*
X74309Y114797D01*
Y114403D01*
X74460Y114039D01*
X74739Y113760D01*
X75103Y113609D01*
X75497D01*
X75861Y113760D01*
X76140Y114039D01*
X76290Y114403D01*
Y114797D01*
X76140Y115161D01*
X75861Y115440D01*
X75497Y115591D01*
D02*
G37*
G36*
X63697Y115490D02*
X63303D01*
X62939Y115340D01*
X62660Y115061D01*
X62509Y114697D01*
Y114303D01*
X62660Y113939D01*
X62939Y113660D01*
X63303Y113509D01*
X63697D01*
X64061Y113660D01*
X64340Y113939D01*
X64490Y114303D01*
Y114697D01*
X64340Y115061D01*
X64061Y115340D01*
X63697Y115490D01*
D02*
G37*
G36*
X244697Y115290D02*
X244303D01*
X243939Y115140D01*
X243660Y114861D01*
X243509Y114497D01*
Y114103D01*
X243660Y113739D01*
X243939Y113460D01*
X244303Y113309D01*
X244697D01*
X245061Y113460D01*
X245340Y113739D01*
X245490Y114103D01*
Y114497D01*
X245340Y114861D01*
X245061Y115140D01*
X244697Y115290D01*
D02*
G37*
G36*
X46098Y115192D02*
X45704D01*
X45340Y115041D01*
X45062Y114763D01*
X44911Y114399D01*
Y114005D01*
X45062Y113640D01*
X45340Y113362D01*
X45704Y113211D01*
X46098D01*
X46463Y113362D01*
X46741Y113640D01*
X46892Y114005D01*
Y114399D01*
X46741Y114763D01*
X46463Y115041D01*
X46098Y115192D01*
D02*
G37*
G36*
X82206Y109991D02*
X81812D01*
X81448Y109840D01*
X81169Y109561D01*
X81019Y109197D01*
Y108803D01*
X81169Y108439D01*
X81448Y108160D01*
X81812Y108009D01*
X82206D01*
X82570Y108160D01*
X82849Y108439D01*
X83000Y108803D01*
Y109197D01*
X82849Y109561D01*
X82570Y109840D01*
X82206Y109991D01*
D02*
G37*
G36*
X244597Y109090D02*
X244203D01*
X243839Y108940D01*
X243560Y108661D01*
X243409Y108297D01*
Y107903D01*
X243560Y107539D01*
X243839Y107260D01*
X244203Y107109D01*
X244597D01*
X244961Y107260D01*
X245240Y107539D01*
X245390Y107903D01*
Y108297D01*
X245240Y108661D01*
X244961Y108940D01*
X244597Y109090D01*
D02*
G37*
G36*
X17797Y107491D02*
X17403D01*
X17039Y107340D01*
X16760Y107061D01*
X16609Y106697D01*
Y106303D01*
X16612Y106295D01*
X16188Y106012D01*
X16161Y106040D01*
X15797Y106191D01*
X15403D01*
X15039Y106040D01*
X14760Y105761D01*
X14609Y105397D01*
Y105003D01*
X14760Y104639D01*
X15039Y104360D01*
X15403Y104209D01*
X15797D01*
X15939Y104268D01*
X16422Y103976D01*
X16422Y103931D01*
X15937Y103632D01*
X15797Y103691D01*
X15403D01*
X15039Y103540D01*
X14760Y103261D01*
X14609Y102897D01*
Y102503D01*
X14760Y102139D01*
X15039Y101860D01*
X15403Y101709D01*
X15797D01*
X15939Y101768D01*
X16422Y101476D01*
X16422Y101432D01*
X15937Y101132D01*
X15797Y101190D01*
X15403D01*
X15039Y101040D01*
X14760Y100761D01*
X14609Y100397D01*
Y100003D01*
X14760Y99639D01*
X15039Y99360D01*
X15403Y99209D01*
X15797D01*
X15939Y99268D01*
X16422Y98976D01*
X16422Y98932D01*
X15937Y98632D01*
X15797Y98690D01*
X15403D01*
X15039Y98540D01*
X14760Y98261D01*
X14652Y98001D01*
X14153Y98101D01*
X14153Y98287D01*
Y98841D01*
X13924Y99694D01*
X13483Y100459D01*
X12858Y101083D01*
X12094Y101524D01*
X11241Y101753D01*
X10358D01*
X9506Y101524D01*
X8741Y101083D01*
X8117Y100459D01*
X7676Y99694D01*
X7447Y98841D01*
Y97958D01*
X7676Y97106D01*
X8117Y96341D01*
X8741Y95717D01*
X9506Y95276D01*
X10358Y95047D01*
X11241D01*
X12094Y95276D01*
X12858Y95717D01*
X13483Y96341D01*
X13924Y97106D01*
X14059Y97610D01*
X14109Y97797D01*
X14609Y97731D01*
X14609Y97503D01*
X14760Y97139D01*
X15039Y96860D01*
X15403Y96709D01*
X15797D01*
X15939Y96768D01*
X16422Y96476D01*
X16422Y96432D01*
X15937Y96132D01*
X15797Y96191D01*
X15403D01*
X15039Y96040D01*
X14760Y95761D01*
X14609Y95397D01*
Y95003D01*
X14760Y94639D01*
X15039Y94360D01*
X15403Y94209D01*
X15797D01*
X15939Y94268D01*
X16422Y93976D01*
X16422Y93932D01*
X15937Y93632D01*
X15797Y93691D01*
X15403D01*
X15039Y93540D01*
X14760Y93261D01*
X14609Y92897D01*
Y92503D01*
X14760Y92139D01*
X15039Y91860D01*
X15403Y91709D01*
X15797D01*
X15939Y91768D01*
X16422Y91476D01*
X16422Y91432D01*
X15937Y91132D01*
X15797Y91190D01*
X15403D01*
X15039Y91040D01*
X14760Y90761D01*
X14609Y90397D01*
Y90003D01*
X14760Y89639D01*
X15039Y89360D01*
X15403Y89209D01*
X15797D01*
X16161Y89360D01*
X16440Y89639D01*
X16590Y90003D01*
Y90397D01*
X16587Y90405D01*
X17011Y90688D01*
X17039Y90660D01*
X17403Y90509D01*
X17797D01*
X18161Y90660D01*
X18440Y90939D01*
X18590Y91303D01*
Y91697D01*
X18440Y92061D01*
X18161Y92340D01*
X17797Y92491D01*
X17403D01*
X17261Y92432D01*
X16777Y92724D01*
X16777Y92768D01*
X17262Y93068D01*
X17403Y93009D01*
X17797D01*
X18161Y93160D01*
X18440Y93439D01*
X18590Y93803D01*
Y94197D01*
X18440Y94561D01*
X18161Y94840D01*
X17797Y94990D01*
X17403D01*
X17261Y94932D01*
X16777Y95224D01*
X16777Y95268D01*
X17262Y95568D01*
X17403Y95509D01*
X17797D01*
X18161Y95660D01*
X18440Y95939D01*
X18590Y96303D01*
Y96697D01*
X18440Y97061D01*
X18161Y97340D01*
X17797Y97491D01*
X17403D01*
X17261Y97432D01*
X16777Y97724D01*
X16777Y97768D01*
X17262Y98068D01*
X17403Y98009D01*
X17797D01*
X18161Y98160D01*
X18440Y98439D01*
X18590Y98803D01*
Y99197D01*
X18440Y99561D01*
X18161Y99840D01*
X17797Y99990D01*
X17403D01*
X17261Y99932D01*
X16777Y100224D01*
X16777Y100268D01*
X17262Y100568D01*
X17403Y100509D01*
X17797D01*
X18161Y100660D01*
X18440Y100939D01*
X18590Y101303D01*
Y101697D01*
X18440Y102061D01*
X18161Y102340D01*
X17797Y102490D01*
X17403D01*
X17261Y102432D01*
X16777Y102724D01*
X16777Y102768D01*
X17262Y103068D01*
X17403Y103009D01*
X17797D01*
X18161Y103160D01*
X18440Y103439D01*
X18590Y103803D01*
Y104197D01*
X18440Y104561D01*
X18161Y104840D01*
X17797Y104990D01*
X17403D01*
X17261Y104932D01*
X16777Y105224D01*
X16777Y105268D01*
X17262Y105568D01*
X17403Y105509D01*
X17797D01*
X18161Y105660D01*
X18440Y105939D01*
X18590Y106303D01*
Y106697D01*
X18440Y107061D01*
X18161Y107340D01*
X17797Y107491D01*
D02*
G37*
G36*
X74824Y107697D02*
X74430D01*
X74066Y107546D01*
X73787Y107268D01*
X73636Y106904D01*
Y106510D01*
X73787Y106146D01*
X74066Y105867D01*
X74430Y105716D01*
X74824D01*
X75188Y105867D01*
X75467Y106146D01*
X75617Y106510D01*
Y106904D01*
X75467Y107268D01*
X75188Y107546D01*
X74824Y107697D01*
D02*
G37*
G36*
X65878Y107623D02*
X65483D01*
X65119Y107472D01*
X64841Y107193D01*
X64690Y106829D01*
Y106435D01*
X64841Y106071D01*
X65119Y105792D01*
X65483Y105642D01*
X65878D01*
X66242Y105792D01*
X66520Y106071D01*
X66671Y106435D01*
Y106829D01*
X66520Y107193D01*
X66242Y107472D01*
X65878Y107623D01*
D02*
G37*
G36*
X63240Y107034D02*
X62846D01*
X62482Y106883D01*
X62204Y106605D01*
X62053Y106240D01*
Y105846D01*
X62204Y105482D01*
X62482Y105204D01*
X62846Y105053D01*
X63240D01*
X63604Y105204D01*
X63883Y105482D01*
X64034Y105846D01*
Y106240D01*
X63883Y106605D01*
X63604Y106883D01*
X63240Y107034D01*
D02*
G37*
G36*
X44497Y108491D02*
X44103D01*
X43739Y108340D01*
X43460Y108061D01*
X43309Y107697D01*
Y107303D01*
X43382Y107127D01*
Y102722D01*
X43198Y102628D01*
X42882Y102568D01*
X42670Y102780D01*
X42306Y102931D01*
X41912D01*
X41548Y102780D01*
X41269Y102502D01*
X41119Y102137D01*
Y101743D01*
X41269Y101379D01*
X41548Y101101D01*
X41912Y100950D01*
X42306D01*
X42670Y101101D01*
X42882Y101312D01*
X43198Y101253D01*
X43382Y101159D01*
Y83129D01*
X43331Y83078D01*
X43239Y83040D01*
X42960Y82761D01*
X42809Y82397D01*
Y82003D01*
X42960Y81639D01*
X43239Y81360D01*
X43603Y81209D01*
X43997D01*
X44361Y81360D01*
X44473Y81472D01*
X44691Y81622D01*
X45116Y81483D01*
X45139Y81460D01*
X45315Y81387D01*
X54282Y72420D01*
Y56000D01*
X54352Y55649D01*
X54551Y55351D01*
X55251Y54651D01*
X55549Y54452D01*
X55900Y54382D01*
X58627D01*
X58803Y54309D01*
X59197D01*
X59561Y54460D01*
X59840Y54739D01*
X59990Y55103D01*
Y55497D01*
X59840Y55861D01*
X59561Y56140D01*
X59197Y56291D01*
X58803D01*
X58627Y56218D01*
X56280D01*
X56117Y56380D01*
Y72800D01*
X56048Y73151D01*
X55849Y73449D01*
X48308Y80989D01*
X48403Y81602D01*
X48557Y81756D01*
X48708Y82120D01*
Y82514D01*
X48557Y82878D01*
X48318Y83118D01*
X48281Y83280D01*
X48287Y83694D01*
X48484Y83891D01*
X48634Y84255D01*
Y84649D01*
X48484Y85013D01*
X48205Y85291D01*
X47841Y85442D01*
X47447D01*
X47083Y85291D01*
X46804Y85013D01*
X46653Y84649D01*
Y84255D01*
X46804Y83891D01*
X47008Y83687D01*
X46989Y83174D01*
X46628Y82945D01*
X46391Y83009D01*
X46261Y83140D01*
X45897Y83290D01*
X45503D01*
X45217Y83481D01*
Y107127D01*
X45290Y107303D01*
Y107697D01*
X45140Y108061D01*
X44861Y108340D01*
X44497Y108491D01*
D02*
G37*
G36*
X76297Y103790D02*
X75903D01*
X75539Y103640D01*
X75260Y103361D01*
X75109Y102997D01*
Y102603D01*
X75260Y102239D01*
X75539Y101960D01*
X75903Y101809D01*
X76297D01*
X76661Y101960D01*
X76940Y102239D01*
X77090Y102603D01*
Y102997D01*
X76940Y103361D01*
X76661Y103640D01*
X76297Y103790D01*
D02*
G37*
G36*
X73297D02*
X72903D01*
X72539Y103640D01*
X72260Y103361D01*
X72109Y102997D01*
Y102603D01*
X72260Y102239D01*
X72539Y101960D01*
X72903Y101809D01*
X73297D01*
X73661Y101960D01*
X73940Y102239D01*
X74090Y102603D01*
Y102997D01*
X73940Y103361D01*
X73661Y103640D01*
X73297Y103790D01*
D02*
G37*
G36*
X244597Y103191D02*
X244203D01*
X243839Y103040D01*
X243560Y102761D01*
X243409Y102397D01*
Y102003D01*
X243560Y101639D01*
X243839Y101360D01*
X244203Y101209D01*
X244597D01*
X244961Y101360D01*
X245240Y101639D01*
X245390Y102003D01*
Y102397D01*
X245240Y102761D01*
X244961Y103040D01*
X244597Y103191D01*
D02*
G37*
G36*
X65697Y100891D02*
X65303D01*
X64939Y100740D01*
X64660Y100461D01*
X64509Y100097D01*
X64256Y99952D01*
X64009Y99861D01*
X63697Y99990D01*
X63303D01*
X62939Y99840D01*
X62660Y99561D01*
X62509Y99197D01*
Y98803D01*
X62660Y98439D01*
X62939Y98160D01*
X63303Y98009D01*
X63697D01*
X63837Y98068D01*
X64322Y97768D01*
X64322Y97724D01*
X63839Y97432D01*
X63697Y97491D01*
X63303D01*
X62939Y97340D01*
X62660Y97061D01*
X62509Y96697D01*
Y96303D01*
X62660Y95939D01*
X62939Y95660D01*
X63303Y95509D01*
X63697D01*
X63837Y95568D01*
X64322Y95268D01*
X64322Y95224D01*
X63839Y94932D01*
X63697Y94990D01*
X63303D01*
X62939Y94840D01*
X62660Y94561D01*
X62509Y94197D01*
Y93803D01*
X62660Y93439D01*
X62939Y93160D01*
X63303Y93009D01*
X63697D01*
X63837Y93068D01*
X64322Y92768D01*
X64322Y92724D01*
X63839Y92432D01*
X63697Y92491D01*
X63303D01*
X62939Y92340D01*
X62660Y92061D01*
X62509Y91697D01*
Y91303D01*
X62660Y90939D01*
X62939Y90660D01*
X63303Y90509D01*
X63697D01*
X64047Y90654D01*
X64227Y90593D01*
X64509Y90401D01*
Y90103D01*
X64660Y89739D01*
X64939Y89460D01*
X65303Y89309D01*
X65697D01*
X66061Y89460D01*
X66340Y89739D01*
X66490Y90103D01*
Y90497D01*
X66340Y90861D01*
X66061Y91140D01*
X65801Y91247D01*
Y91752D01*
X66061Y91860D01*
X66340Y92139D01*
X66490Y92503D01*
Y92897D01*
X66340Y93261D01*
X66061Y93540D01*
X65697Y93691D01*
X65303D01*
X65162Y93632D01*
X64677Y93932D01*
X64677Y93976D01*
X65161Y94268D01*
X65303Y94209D01*
X65697D01*
X66061Y94360D01*
X66340Y94639D01*
X66490Y95003D01*
Y95397D01*
X66340Y95761D01*
X66061Y96040D01*
X65697Y96191D01*
X65303D01*
X65162Y96132D01*
X64677Y96432D01*
X64677Y96476D01*
X65161Y96768D01*
X65303Y96709D01*
X65697D01*
X66061Y96860D01*
X66340Y97139D01*
X66490Y97503D01*
Y97897D01*
X66340Y98261D01*
X66061Y98540D01*
Y99060D01*
X66340Y99339D01*
X66490Y99703D01*
Y100097D01*
X66340Y100461D01*
X66061Y100740D01*
X65697Y100891D01*
D02*
G37*
G36*
X68497Y101591D02*
X68103D01*
X67739Y101440D01*
X67460Y101161D01*
X67309Y100797D01*
Y100403D01*
X67460Y100039D01*
X67739Y99760D01*
X68103Y99609D01*
X68497D01*
X68861Y99760D01*
X69140Y100039D01*
X69290Y100403D01*
Y100797D01*
X69140Y101161D01*
X68861Y101440D01*
X68497Y101591D01*
D02*
G37*
G36*
X41197Y100490D02*
X40803D01*
X40439Y100340D01*
X40160Y100061D01*
X40009Y99697D01*
Y99303D01*
X40160Y98939D01*
X40439Y98660D01*
X40803Y98509D01*
X41197D01*
X41561Y98660D01*
X41840Y98939D01*
X41990Y99303D01*
Y99697D01*
X41840Y100061D01*
X41561Y100340D01*
X41197Y100490D01*
D02*
G37*
G36*
X229897Y98690D02*
X229503D01*
X229139Y98540D01*
X228860Y98261D01*
X228709Y97897D01*
Y97503D01*
X228860Y97139D01*
X229139Y96860D01*
X229503Y96709D01*
X229897D01*
X230261Y96860D01*
X230540Y97139D01*
X230690Y97503D01*
Y97897D01*
X230540Y98261D01*
X230261Y98540D01*
X229897Y98690D01*
D02*
G37*
G36*
X86141Y95912D02*
X85747D01*
X85383Y95761D01*
X85104Y95482D01*
X85065Y95386D01*
X84523D01*
X84484Y95482D01*
X84205Y95761D01*
X83841Y95912D01*
X83447D01*
X83083Y95761D01*
X82804Y95482D01*
X82653Y95118D01*
Y94724D01*
X82804Y94360D01*
X83083Y94081D01*
X83447Y93930D01*
X83841D01*
X84205Y94081D01*
X84484Y94360D01*
X84523Y94456D01*
X85065D01*
X85104Y94360D01*
X85383Y94081D01*
X85747Y93930D01*
X86141D01*
X86505Y94081D01*
X86784Y94360D01*
X86935Y94724D01*
Y95118D01*
X86784Y95482D01*
X86505Y95761D01*
X86141Y95912D01*
D02*
G37*
G36*
X244697Y97091D02*
X244303D01*
X243939Y96940D01*
X243660Y96661D01*
X243509Y96297D01*
Y95903D01*
X243660Y95539D01*
X243939Y95260D01*
X244303Y95109D01*
X244697D01*
X245061Y95260D01*
X245340Y95539D01*
X245490Y95903D01*
Y96297D01*
X245340Y96661D01*
X245061Y96940D01*
X244697Y97091D01*
D02*
G37*
G36*
X244497Y91190D02*
X244103D01*
X243739Y91040D01*
X243460Y90761D01*
X243309Y90397D01*
Y90003D01*
X243460Y89639D01*
X243739Y89360D01*
X244103Y89209D01*
X244497D01*
X244861Y89360D01*
X245140Y89639D01*
X245290Y90003D01*
Y90397D01*
X245140Y90761D01*
X244861Y91040D01*
X244497Y91190D01*
D02*
G37*
G36*
X80887Y90991D02*
X80493D01*
X80129Y90840D01*
X79851Y90561D01*
X79700Y90197D01*
Y89803D01*
X79851Y89439D01*
X80040Y89250D01*
X79851Y89061D01*
X79700Y88697D01*
Y88303D01*
X79851Y87939D01*
X80129Y87660D01*
X80493Y87509D01*
X80887D01*
X81252Y87660D01*
X81530Y87939D01*
X81681Y88303D01*
Y88697D01*
X81530Y89061D01*
X81341Y89250D01*
X81530Y89439D01*
X81681Y89803D01*
Y90197D01*
X81530Y90561D01*
X81252Y90840D01*
X80887Y90991D01*
D02*
G37*
G36*
X65697Y88791D02*
X65303D01*
X64939Y88640D01*
X64660Y88361D01*
X64509Y87997D01*
Y87603D01*
X64660Y87239D01*
X64939Y86960D01*
X65303Y86809D01*
X65697D01*
X66061Y86960D01*
X66340Y87239D01*
X66490Y87603D01*
Y87997D01*
X66340Y88361D01*
X66061Y88640D01*
X65697Y88791D01*
D02*
G37*
G36*
X16697Y88691D02*
X16303D01*
X15939Y88540D01*
X15660Y88261D01*
X15509Y87897D01*
Y87503D01*
X15660Y87139D01*
X15939Y86860D01*
X16303Y86709D01*
X16697D01*
X17061Y86860D01*
X17340Y87139D01*
X17490Y87503D01*
Y87897D01*
X17340Y88261D01*
X17061Y88540D01*
X16697Y88691D01*
D02*
G37*
G36*
X72631Y86957D02*
X72237D01*
X71873Y86806D01*
X71594Y86527D01*
X71443Y86163D01*
Y85769D01*
X71594Y85405D01*
X71873Y85126D01*
X72237Y84975D01*
X72631D01*
X72995Y85126D01*
X73273Y85405D01*
X73424Y85769D01*
Y86163D01*
X73273Y86527D01*
X72995Y86806D01*
X72631Y86957D01*
D02*
G37*
G36*
X245197Y85190D02*
X244803D01*
X244439Y85040D01*
X244160Y84761D01*
X244009Y84397D01*
Y84003D01*
X244160Y83639D01*
X244439Y83360D01*
X244803Y83209D01*
X245197D01*
X245561Y83360D01*
X245840Y83639D01*
X245990Y84003D01*
Y84397D01*
X245840Y84761D01*
X245561Y85040D01*
X245197Y85190D01*
D02*
G37*
G36*
X38097Y85590D02*
X37703D01*
X37339Y85440D01*
X37060Y85161D01*
X36909Y84797D01*
Y84403D01*
X37060Y84039D01*
X37339Y83760D01*
X37399Y83735D01*
Y83194D01*
X37317Y83160D01*
X37039Y82881D01*
X36888Y82517D01*
Y82123D01*
X37039Y81759D01*
X37317Y81481D01*
X37681Y81330D01*
X38076D01*
X38440Y81481D01*
X38718Y81759D01*
X38869Y82123D01*
Y82511D01*
X38896Y82537D01*
X39222Y82774D01*
X39291Y82806D01*
X39638Y82662D01*
X40033D01*
X40397Y82813D01*
X40675Y83091D01*
X40826Y83455D01*
Y83850D01*
X40675Y84214D01*
X40397Y84492D01*
X40033Y84643D01*
X39638D01*
X39390Y84540D01*
X38991Y84717D01*
X38890Y84797D01*
X38740Y85161D01*
X38461Y85440D01*
X38097Y85590D01*
D02*
G37*
G36*
X87297Y87291D02*
X86903D01*
X86539Y87140D01*
X86260Y86861D01*
X86109Y86497D01*
Y86103D01*
X86260Y85739D01*
X86524Y85475D01*
X86260Y85211D01*
X86109Y84847D01*
Y84453D01*
X86260Y84089D01*
X86524Y83825D01*
X86260Y83561D01*
X86109Y83197D01*
Y82803D01*
X86260Y82439D01*
X86539Y82160D01*
X86903Y82009D01*
X87297D01*
X87661Y82160D01*
X87940Y82439D01*
X88090Y82803D01*
Y83197D01*
X87940Y83561D01*
X87676Y83825D01*
X87940Y84089D01*
X88090Y84453D01*
Y84847D01*
X87940Y85211D01*
X87676Y85475D01*
X87940Y85739D01*
X88090Y86103D01*
Y86497D01*
X87940Y86861D01*
X87661Y87140D01*
X87297Y87291D01*
D02*
G37*
G36*
X24797Y81490D02*
X24403D01*
X24039Y81340D01*
X23760Y81061D01*
X23609Y80697D01*
Y80303D01*
X23760Y79939D01*
X24039Y79660D01*
X24403Y79509D01*
X24797D01*
X25161Y79660D01*
X25440Y79939D01*
X25590Y80303D01*
Y80697D01*
X25440Y81061D01*
X25161Y81340D01*
X24797Y81490D01*
D02*
G37*
G36*
X56797Y79491D02*
X56403D01*
X56039Y79340D01*
X55760Y79061D01*
X55609Y78697D01*
Y78303D01*
X55760Y77939D01*
X56039Y77660D01*
X56403Y77509D01*
X56797D01*
X57161Y77660D01*
X57440Y77939D01*
X57590Y78303D01*
Y78697D01*
X57440Y79061D01*
X57161Y79340D01*
X56797Y79491D01*
D02*
G37*
G36*
X245697Y79190D02*
X245303D01*
X244939Y79040D01*
X244660Y78761D01*
X244509Y78397D01*
Y78003D01*
X244660Y77639D01*
X244939Y77360D01*
X245303Y77209D01*
X245697D01*
X246061Y77360D01*
X246340Y77639D01*
X246490Y78003D01*
Y78397D01*
X246340Y78761D01*
X246061Y79040D01*
X245697Y79190D01*
D02*
G37*
G36*
X59116Y76776D02*
X58722D01*
X58358Y76625D01*
X58079Y76346D01*
X57928Y75982D01*
Y75588D01*
X58079Y75224D01*
X58358Y74946D01*
X58722Y74795D01*
X59116D01*
X59480Y74946D01*
X59759Y75224D01*
X59909Y75588D01*
Y75982D01*
X59759Y76346D01*
X59480Y76625D01*
X59116Y76776D01*
D02*
G37*
G36*
X27007Y75980D02*
X26613D01*
X26249Y75829D01*
X25970Y75551D01*
X25820Y75187D01*
Y74793D01*
X25970Y74429D01*
X26249Y74150D01*
X26613Y73999D01*
X27007D01*
X27371Y74150D01*
X27650Y74429D01*
X27801Y74793D01*
Y75187D01*
X27650Y75551D01*
X27371Y75829D01*
X27007Y75980D01*
D02*
G37*
G36*
X72897Y71991D02*
X72503D01*
X72327Y71918D01*
X59373D01*
X59197Y71991D01*
X58803D01*
X58439Y71840D01*
X58160Y71561D01*
X58009Y71197D01*
Y70803D01*
X58160Y70439D01*
X58439Y70160D01*
X58803Y70009D01*
X59197D01*
X59373Y70082D01*
X72327D01*
X72503Y70009D01*
X72897D01*
X73261Y70160D01*
X73540Y70439D01*
X73690Y70803D01*
Y71197D01*
X73540Y71561D01*
X73261Y71840D01*
X72897Y71991D01*
D02*
G37*
G36*
X231097Y87590D02*
X230703D01*
X230339Y87440D01*
X230060Y87161D01*
X229909Y86797D01*
Y86403D01*
X230060Y86039D01*
X230339Y85760D01*
X230376Y85745D01*
X230455Y85171D01*
X230360Y85075D01*
X230209Y84711D01*
Y84317D01*
X230360Y83953D01*
X230473Y83841D01*
X230585Y83521D01*
X230473Y83202D01*
X230360Y83090D01*
X230209Y82726D01*
Y82331D01*
X230360Y81967D01*
X230473Y81855D01*
X230585Y81536D01*
X230473Y81216D01*
X230360Y81104D01*
X230209Y80740D01*
Y80346D01*
X230360Y79982D01*
X230473Y79869D01*
X230585Y79550D01*
X230473Y79231D01*
X230360Y79118D01*
X230209Y78754D01*
Y78360D01*
X230360Y77996D01*
X230473Y77883D01*
X230585Y77564D01*
X230473Y77245D01*
X230360Y77132D01*
X230209Y76768D01*
Y76374D01*
X230360Y76010D01*
X230473Y75898D01*
X230585Y75578D01*
X230473Y75259D01*
X230360Y75147D01*
X230209Y74783D01*
Y74389D01*
X230360Y74024D01*
X230473Y73912D01*
X230585Y73593D01*
X230473Y73273D01*
X230360Y73161D01*
X230209Y72797D01*
Y72403D01*
X230360Y72039D01*
X230639Y71760D01*
X231003Y71609D01*
X231397D01*
X231761Y71760D01*
X232040Y72039D01*
X232190Y72403D01*
Y72797D01*
X232040Y73161D01*
X231927Y73273D01*
X231815Y73593D01*
X231927Y73912D01*
X232040Y74024D01*
X232190Y74389D01*
Y74783D01*
X232040Y75147D01*
X231927Y75259D01*
X231815Y75578D01*
X231927Y75898D01*
X232040Y76010D01*
X232190Y76374D01*
Y76768D01*
X232040Y77132D01*
X231927Y77245D01*
X231815Y77564D01*
X231927Y77883D01*
X232040Y77996D01*
X232190Y78360D01*
Y78754D01*
X232040Y79118D01*
X231927Y79231D01*
X231815Y79550D01*
X231927Y79869D01*
X232040Y79982D01*
X232190Y80346D01*
Y80740D01*
X232040Y81104D01*
X231927Y81216D01*
X231815Y81536D01*
X231927Y81855D01*
X232040Y81967D01*
X232190Y82331D01*
Y82726D01*
X232040Y83090D01*
X231927Y83202D01*
X231815Y83521D01*
X231927Y83841D01*
X232040Y83953D01*
X232190Y84317D01*
Y84711D01*
X232040Y85075D01*
X231761Y85354D01*
X231724Y85369D01*
X231644Y85944D01*
X231740Y86039D01*
X231890Y86403D01*
Y86797D01*
X231740Y87161D01*
X231461Y87440D01*
X231097Y87590D01*
D02*
G37*
G36*
X79797Y69390D02*
X79403D01*
X79039Y69240D01*
X78845Y69046D01*
X78550Y68997D01*
X78254Y69046D01*
X78061Y69240D01*
X77697Y69390D01*
X77303D01*
X76939Y69240D01*
X76660Y68961D01*
X76509Y68597D01*
Y68203D01*
X76660Y67839D01*
X76939Y67560D01*
X77303Y67409D01*
X77697D01*
X78061Y67560D01*
X78254Y67753D01*
X78550Y67803D01*
X78845Y67753D01*
X79039Y67560D01*
X79403Y67409D01*
X79797D01*
X80161Y67560D01*
X80440Y67839D01*
X80590Y68203D01*
Y68597D01*
X80440Y68961D01*
X80161Y69240D01*
X79797Y69390D01*
D02*
G37*
G36*
X59197Y69490D02*
X58803D01*
X58439Y69340D01*
X58160Y69061D01*
X58009Y68697D01*
Y68303D01*
X58160Y67939D01*
X58439Y67660D01*
X58803Y67509D01*
X59197D01*
X59409Y67597D01*
X59728Y67537D01*
X59968Y67360D01*
X60060Y67139D01*
X60339Y66860D01*
X60703Y66709D01*
X61097D01*
X61461Y66860D01*
X61650Y67049D01*
X61839Y66860D01*
X62203Y66709D01*
X62597D01*
X62961Y66860D01*
X63240Y67139D01*
X63390Y67503D01*
Y67897D01*
X63240Y68261D01*
X62961Y68540D01*
X62597Y68691D01*
X62203D01*
X61839Y68540D01*
X61650Y68351D01*
X61461Y68540D01*
X61097Y68691D01*
X60703D01*
X60490Y68603D01*
X60172Y68663D01*
X59931Y68839D01*
X59840Y69061D01*
X59561Y69340D01*
X59197Y69490D01*
D02*
G37*
G36*
X81297Y63990D02*
X80903D01*
X80539Y63840D01*
X80260Y63561D01*
X80109Y63197D01*
Y62803D01*
X80260Y62439D01*
X80539Y62160D01*
X80903Y62009D01*
X81297D01*
X81661Y62160D01*
X81940Y62439D01*
X82090Y62803D01*
Y63197D01*
X81940Y63561D01*
X81661Y63840D01*
X81297Y63990D01*
D02*
G37*
G36*
X76383Y65976D02*
X75989D01*
X75625Y65826D01*
X75346Y65547D01*
X75195Y65183D01*
Y64789D01*
X75346Y64425D01*
X75307Y63908D01*
X75260Y63861D01*
X75109Y63497D01*
Y63103D01*
X75260Y62739D01*
X75399Y62600D01*
X75260Y62461D01*
X75109Y62097D01*
Y61703D01*
X75260Y61339D01*
X75539Y61060D01*
X75903Y60909D01*
X76297D01*
X76661Y61060D01*
X76940Y61339D01*
X77090Y61703D01*
Y62097D01*
X76940Y62461D01*
X76801Y62600D01*
X76940Y62739D01*
X77090Y63103D01*
Y63497D01*
X76940Y63861D01*
X76978Y64378D01*
X77026Y64425D01*
X77176Y64789D01*
Y65183D01*
X77026Y65547D01*
X76747Y65826D01*
X76383Y65976D01*
D02*
G37*
G36*
X59097Y61690D02*
X58703D01*
X58339Y61540D01*
X58060Y61261D01*
X57909Y60897D01*
Y60503D01*
X58060Y60139D01*
X58339Y59860D01*
X58515Y59787D01*
X59951Y58351D01*
X60249Y58152D01*
X60600Y58082D01*
X72127D01*
X72303Y58009D01*
X72697D01*
X73061Y58160D01*
X73340Y58439D01*
X73490Y58803D01*
Y59197D01*
X73340Y59561D01*
X73061Y59840D01*
X72697Y59991D01*
X72303D01*
X72127Y59918D01*
X60980D01*
X59812Y61085D01*
X59740Y61261D01*
X59461Y61540D01*
X59097Y61690D01*
D02*
G37*
G36*
X222350Y58290D02*
X221956D01*
X221592Y58140D01*
X221314Y57861D01*
X221163Y57497D01*
Y57103D01*
X221314Y56739D01*
X221592Y56460D01*
X221956Y56309D01*
X222350D01*
X222714Y56460D01*
X222993Y56739D01*
X223144Y57103D01*
Y57497D01*
X222993Y57861D01*
X222714Y58140D01*
X222350Y58290D01*
D02*
G37*
G36*
X11597Y54491D02*
X11203D01*
X10839Y54340D01*
X10560Y54061D01*
X10409Y53697D01*
Y53303D01*
X10560Y52939D01*
X10839Y52660D01*
X11203Y52509D01*
X11597D01*
X11961Y52660D01*
X12240Y52939D01*
X12390Y53303D01*
Y53697D01*
X12240Y54061D01*
X11961Y54340D01*
X11597Y54491D01*
D02*
G37*
G36*
X30197Y53991D02*
X29803D01*
X29439Y53840D01*
X29160Y53561D01*
X29009Y53197D01*
Y52803D01*
X29160Y52439D01*
X29283Y52316D01*
X29386Y52000D01*
X29283Y51684D01*
X29160Y51561D01*
X29009Y51197D01*
Y50803D01*
X29160Y50439D01*
X29439Y50160D01*
X29803Y50009D01*
X30197D01*
X30561Y50160D01*
X30840Y50439D01*
X30990Y50803D01*
Y51197D01*
X30840Y51561D01*
X30717Y51684D01*
X30613Y52000D01*
X30717Y52316D01*
X30840Y52439D01*
X30990Y52803D01*
Y53197D01*
X30840Y53561D01*
X30561Y53840D01*
X30197Y53991D01*
D02*
G37*
G36*
X27697D02*
X27303D01*
X26939Y53840D01*
X26660Y53561D01*
X26509Y53197D01*
Y52803D01*
X26660Y52439D01*
X26783Y52316D01*
X26886Y52000D01*
X26783Y51684D01*
X26660Y51561D01*
X26509Y51197D01*
Y50803D01*
X26660Y50439D01*
X26939Y50160D01*
X27303Y50009D01*
X27697D01*
X28061Y50160D01*
X28340Y50439D01*
X28490Y50803D01*
Y51197D01*
X28340Y51561D01*
X28217Y51684D01*
X28113Y52000D01*
X28217Y52316D01*
X28340Y52439D01*
X28490Y52803D01*
Y53197D01*
X28340Y53561D01*
X28061Y53840D01*
X27697Y53991D01*
D02*
G37*
G36*
X72597Y52691D02*
X72203D01*
X71839Y52540D01*
X71560Y52261D01*
X71409Y51897D01*
Y51503D01*
X71560Y51139D01*
X71829Y50850D01*
X71560Y50561D01*
X71409Y50197D01*
Y49803D01*
X71560Y49439D01*
X71839Y49160D01*
X72203Y49009D01*
X72597D01*
X72961Y49160D01*
X73240Y49439D01*
X73390Y49803D01*
Y50197D01*
X73240Y50561D01*
X72970Y50850D01*
X73240Y51139D01*
X73390Y51503D01*
Y51897D01*
X73240Y52261D01*
X72961Y52540D01*
X72597Y52691D01*
D02*
G37*
G36*
X53697Y50291D02*
X53303D01*
X52939Y50140D01*
X52660Y49861D01*
X52509Y49497D01*
Y49103D01*
X52660Y48739D01*
X52939Y48460D01*
X53303Y48309D01*
X53697D01*
X54061Y48460D01*
X54340Y48739D01*
X54490Y49103D01*
Y49497D01*
X54340Y49861D01*
X54061Y50140D01*
X53697Y50291D01*
D02*
G37*
G36*
X55097Y48191D02*
X54703D01*
X54339Y48040D01*
X54060Y47761D01*
X53909Y47397D01*
Y47003D01*
X54060Y46639D01*
X54339Y46360D01*
X54703Y46209D01*
X55097D01*
X55461Y46360D01*
X55740Y46639D01*
X55890Y47003D01*
Y47397D01*
X55740Y47761D01*
X55461Y48040D01*
X55097Y48191D01*
D02*
G37*
G36*
X52297D02*
X51903D01*
X51539Y48040D01*
X51260Y47761D01*
X51109Y47397D01*
Y47003D01*
X51260Y46639D01*
X51539Y46360D01*
X51903Y46209D01*
X52297D01*
X52661Y46360D01*
X52940Y46639D01*
X53090Y47003D01*
Y47397D01*
X52940Y47761D01*
X52661Y48040D01*
X52297Y48191D01*
D02*
G37*
G36*
X55097Y45691D02*
X54703D01*
X54339Y45540D01*
X54060Y45261D01*
X53909Y44897D01*
Y44503D01*
X54060Y44139D01*
X54339Y43860D01*
X54703Y43709D01*
X55097D01*
X55461Y43860D01*
X55740Y44139D01*
X55890Y44503D01*
Y44897D01*
X55740Y45261D01*
X55461Y45540D01*
X55097Y45691D01*
D02*
G37*
G36*
X52297D02*
X51903D01*
X51539Y45540D01*
X51260Y45261D01*
X51109Y44897D01*
Y44503D01*
X51260Y44139D01*
X51539Y43860D01*
X51903Y43709D01*
X52297D01*
X52661Y43860D01*
X52940Y44139D01*
X53090Y44503D01*
Y44897D01*
X52940Y45261D01*
X52661Y45540D01*
X52297Y45691D01*
D02*
G37*
G36*
X22997Y28190D02*
X22603D01*
X22239Y28040D01*
X21960Y27761D01*
X21852Y27501D01*
X21347D01*
X21240Y27761D01*
X20961Y28040D01*
X20597Y28190D01*
X20203D01*
X19839Y28040D01*
X19560Y27761D01*
X19452Y27501D01*
X18947D01*
X18840Y27761D01*
X18561Y28040D01*
X18197Y28190D01*
X17803D01*
X17439Y28040D01*
X17160Y27761D01*
X17009Y27397D01*
Y27003D01*
X17160Y26639D01*
X17439Y26360D01*
X17803Y26209D01*
X18101D01*
X18284Y25940D01*
X18347Y25747D01*
X18260Y25661D01*
X18109Y25297D01*
Y24903D01*
X18260Y24539D01*
X18539Y24260D01*
X18799Y24152D01*
Y23647D01*
X18539Y23540D01*
X18260Y23261D01*
X18109Y22897D01*
Y22503D01*
X18260Y22139D01*
X18539Y21860D01*
X18903Y21709D01*
X19297D01*
X19661Y21860D01*
X19854Y22053D01*
X20150Y22103D01*
X20445Y22053D01*
X20639Y21860D01*
X21003Y21709D01*
X21397D01*
X21761Y21860D01*
X22040Y22139D01*
X22190Y22503D01*
Y22897D01*
X22040Y23261D01*
X21761Y23540D01*
X21501Y23647D01*
Y24152D01*
X21761Y24260D01*
X22040Y24539D01*
X22190Y24903D01*
Y25297D01*
X22040Y25661D01*
X21761Y25940D01*
X21502Y26047D01*
X21324Y26552D01*
X21402Y26680D01*
X21960Y26639D01*
X22239Y26360D01*
X22603Y26209D01*
X22997D01*
X23361Y26360D01*
X23640Y26639D01*
X23790Y27003D01*
Y27397D01*
X23640Y27761D01*
X23361Y28040D01*
X22997Y28190D01*
D02*
G37*
G36*
X28097D02*
X27703D01*
X27339Y28040D01*
X27060Y27761D01*
X26909Y27397D01*
Y27003D01*
X27060Y26639D01*
X27339Y26360D01*
X27703Y26209D01*
X28097D01*
X28461Y26360D01*
X28740Y26639D01*
X28890Y27003D01*
Y27397D01*
X28740Y27761D01*
X28461Y28040D01*
X28097Y28190D01*
D02*
G37*
G36*
X25497D02*
X25103D01*
X24739Y28040D01*
X24460Y27761D01*
X24309Y27397D01*
Y27003D01*
X24460Y26639D01*
X24739Y26360D01*
X25103Y26209D01*
X25497D01*
X25861Y26360D01*
X26140Y26639D01*
X26290Y27003D01*
Y27397D01*
X26140Y27761D01*
X25861Y28040D01*
X25497Y28190D01*
D02*
G37*
G36*
X15597D02*
X15203D01*
X14839Y28040D01*
X14560Y27761D01*
X14409Y27397D01*
Y27003D01*
X14560Y26639D01*
X14839Y26360D01*
X15203Y26209D01*
X15597D01*
X15961Y26360D01*
X16240Y26639D01*
X16390Y27003D01*
Y27397D01*
X16240Y27761D01*
X15961Y28040D01*
X15597Y28190D01*
D02*
G37*
G36*
X13097D02*
X12703D01*
X12339Y28040D01*
X12060Y27761D01*
X11909Y27397D01*
Y27003D01*
X12060Y26639D01*
X12339Y26360D01*
X12703Y26209D01*
X13097D01*
X13461Y26360D01*
X13740Y26639D01*
X13890Y27003D01*
Y27397D01*
X13740Y27761D01*
X13461Y28040D01*
X13097Y28190D01*
D02*
G37*
G36*
X62897Y25490D02*
X62503D01*
X62139Y25340D01*
X61860Y25061D01*
X61709Y24697D01*
Y24631D01*
X61528Y24477D01*
X61190Y24671D01*
Y24697D01*
X61040Y25061D01*
X60761Y25340D01*
X60397Y25490D01*
X60003D01*
X59639Y25340D01*
X59360Y25061D01*
X59320Y24965D01*
X58779D01*
X58740Y25061D01*
X58461Y25340D01*
X58097Y25490D01*
X57703D01*
X57339Y25340D01*
X57060Y25061D01*
X56909Y24697D01*
Y24303D01*
X57060Y23939D01*
X57339Y23660D01*
X57703Y23509D01*
X57780D01*
X58118Y23018D01*
X58109Y22997D01*
Y22603D01*
X58260Y22239D01*
X58539Y21960D01*
X58805Y21850D01*
X58871Y21495D01*
X58855Y21329D01*
X58639Y21240D01*
X58360Y20961D01*
X58209Y20597D01*
Y20203D01*
X58360Y19839D01*
X58639Y19560D01*
X59003Y19409D01*
X59397D01*
X59761Y19560D01*
X60040Y19839D01*
X60560D01*
X60839Y19560D01*
X61203Y19409D01*
X61597D01*
X61961Y19560D01*
X62240Y19839D01*
X62390Y20203D01*
Y20597D01*
X62240Y20961D01*
X61961Y21240D01*
X61695Y21350D01*
X61628Y21705D01*
X61645Y21871D01*
X61861Y21960D01*
X62140Y22239D01*
X62290Y22603D01*
Y22997D01*
X62261Y23068D01*
X62351Y23232D01*
X62619Y23509D01*
X62897D01*
X63261Y23660D01*
X63540Y23939D01*
X63690Y24303D01*
Y24697D01*
X63540Y25061D01*
X63261Y25340D01*
X62897Y25490D01*
D02*
G37*
G36*
X67997D02*
X67603D01*
X67239Y25340D01*
X66960Y25061D01*
X66809Y24697D01*
Y24303D01*
X66960Y23939D01*
X67239Y23660D01*
X67603Y23509D01*
X67997D01*
X68361Y23660D01*
X68640Y23939D01*
X68790Y24303D01*
Y24697D01*
X68640Y25061D01*
X68361Y25340D01*
X67997Y25490D01*
D02*
G37*
G36*
X65397D02*
X65003D01*
X64639Y25340D01*
X64360Y25061D01*
X64209Y24697D01*
Y24303D01*
X64360Y23939D01*
X64639Y23660D01*
X65003Y23509D01*
X65397D01*
X65761Y23660D01*
X66040Y23939D01*
X66190Y24303D01*
Y24697D01*
X66040Y25061D01*
X65761Y25340D01*
X65397Y25490D01*
D02*
G37*
G36*
X55497D02*
X55103D01*
X54739Y25340D01*
X54460Y25061D01*
X54309Y24697D01*
Y24303D01*
X54460Y23939D01*
X54739Y23660D01*
X55103Y23509D01*
X55497D01*
X55861Y23660D01*
X56140Y23939D01*
X56290Y24303D01*
Y24697D01*
X56140Y25061D01*
X55861Y25340D01*
X55497Y25490D01*
D02*
G37*
G36*
X52997D02*
X52603D01*
X52239Y25340D01*
X51960Y25061D01*
X51809Y24697D01*
Y24303D01*
X51960Y23939D01*
X52239Y23660D01*
X52603Y23509D01*
X52997D01*
X53361Y23660D01*
X53640Y23939D01*
X53790Y24303D01*
Y24697D01*
X53640Y25061D01*
X53361Y25340D01*
X52997Y25490D01*
D02*
G37*
G36*
X43965Y51091D02*
X43571D01*
X43207Y50940D01*
X42929Y50661D01*
X42778Y50297D01*
Y49903D01*
X42851Y49727D01*
Y27931D01*
X42921Y27580D01*
X43119Y27283D01*
X46687Y23715D01*
X46760Y23539D01*
X47039Y23260D01*
X47403Y23109D01*
X47797D01*
X48161Y23260D01*
X48440Y23539D01*
X48590Y23903D01*
Y24297D01*
X48440Y24661D01*
X48161Y24940D01*
X47985Y25013D01*
X44686Y28311D01*
Y49727D01*
X44759Y49903D01*
Y50297D01*
X44608Y50661D01*
X44329Y50940D01*
X43965Y51091D01*
D02*
G37*
G36*
X205593Y21546D02*
X205199D01*
X204835Y21395D01*
X204556Y21116D01*
X204405Y20752D01*
Y20358D01*
X204556Y19994D01*
X204835Y19715D01*
X205199Y19565D01*
X205593D01*
X205957Y19715D01*
X206236Y19994D01*
X206386Y20358D01*
Y20752D01*
X206236Y21116D01*
X205957Y21395D01*
X205593Y21546D01*
D02*
G37*
G36*
X245900Y29279D02*
X244637Y29112D01*
X243460Y28625D01*
X242450Y27850D01*
X241675Y26839D01*
X241187Y25663D01*
X241021Y24400D01*
X241187Y23137D01*
X241675Y21961D01*
X242450Y20950D01*
X243460Y20175D01*
X244637Y19687D01*
X245900Y19521D01*
X247163Y19687D01*
X248339Y20175D01*
X249350Y20950D01*
X250125Y21961D01*
X250612Y23137D01*
X250779Y24400D01*
X250612Y25663D01*
X250125Y26839D01*
X249350Y27850D01*
X248339Y28625D01*
X247163Y29112D01*
X245900Y29279D01*
D02*
G37*
G36*
X128698Y21490D02*
X128304D01*
X127940Y21340D01*
X127662Y21061D01*
X127511Y20697D01*
Y20303D01*
X127662Y19939D01*
X127940Y19660D01*
X128304Y19509D01*
X128698D01*
X129062Y19660D01*
X129341Y19939D01*
X129492Y20303D01*
Y20697D01*
X129341Y21061D01*
X129062Y21340D01*
X128698Y21490D01*
D02*
G37*
G36*
X93265D02*
X92871D01*
X92507Y21340D01*
X92229Y21061D01*
X92078Y20697D01*
Y20303D01*
X92229Y19939D01*
X92507Y19660D01*
X92871Y19509D01*
X93265D01*
X93629Y19660D01*
X93908Y19939D01*
X94059Y20303D01*
Y20697D01*
X93908Y21061D01*
X93629Y21340D01*
X93265Y21490D01*
D02*
G37*
G36*
X81454D02*
X81060D01*
X80696Y21340D01*
X80418Y21061D01*
X80267Y20697D01*
Y20303D01*
X80418Y19939D01*
X80696Y19660D01*
X81060Y19509D01*
X81454D01*
X81818Y19660D01*
X82097Y19939D01*
X82248Y20303D01*
Y20697D01*
X82097Y21061D01*
X81818Y21340D01*
X81454Y21490D01*
D02*
G37*
G36*
X229204Y21446D02*
X228810D01*
X228446Y21295D01*
X228167Y21016D01*
X228016Y20652D01*
Y20258D01*
X228167Y19894D01*
X228446Y19615D01*
X228810Y19465D01*
X229204D01*
X229568Y19615D01*
X229847Y19894D01*
X229997Y20258D01*
Y20652D01*
X229847Y21016D01*
X229568Y21295D01*
X229204Y21446D01*
D02*
G37*
G36*
X217393D02*
X216999D01*
X216635Y21295D01*
X216356Y21016D01*
X216205Y20652D01*
Y20258D01*
X216356Y19894D01*
X216635Y19615D01*
X216999Y19465D01*
X217393D01*
X217757Y19615D01*
X218036Y19894D01*
X218186Y20258D01*
Y20652D01*
X218036Y21016D01*
X217757Y21295D01*
X217393Y21446D01*
D02*
G37*
G36*
X103278Y17691D02*
X102884D01*
X102520Y17540D01*
X102340Y17359D01*
X102159Y17540D01*
X101795Y17691D01*
X101401D01*
X101037Y17540D01*
X100759Y17261D01*
X100608Y16897D01*
Y16503D01*
X100759Y16139D01*
X101037Y15860D01*
X101401Y15709D01*
X101795D01*
X102159Y15860D01*
X102340Y16040D01*
X102520Y15860D01*
X102884Y15709D01*
X103278D01*
X103642Y15860D01*
X103921Y16139D01*
X104071Y16503D01*
Y16897D01*
X103921Y17261D01*
X103642Y17540D01*
X103278Y17691D01*
D02*
G37*
G36*
X97397D02*
X97003D01*
X96639Y17540D01*
X96459Y17359D01*
X96278Y17540D01*
X95914Y17691D01*
X95520D01*
X95156Y17540D01*
X94877Y17261D01*
X94727Y16897D01*
Y16503D01*
X94877Y16139D01*
X95156Y15860D01*
X95520Y15709D01*
X95914D01*
X96278Y15860D01*
X96459Y16040D01*
X96639Y15860D01*
X97003Y15709D01*
X97397D01*
X97761Y15860D01*
X98040Y16139D01*
X98190Y16503D01*
Y16897D01*
X98040Y17261D01*
X97761Y17540D01*
X97397Y17691D01*
D02*
G37*
G36*
X91898D02*
X91504D01*
X91140Y17540D01*
X90960Y17359D01*
X90780Y17540D01*
X90416Y17691D01*
X90022D01*
X89658Y17540D01*
X89379Y17261D01*
X89228Y16897D01*
Y16503D01*
X89379Y16139D01*
X89658Y15860D01*
X90022Y15709D01*
X90416D01*
X90780Y15860D01*
X90960Y16040D01*
X91140Y15860D01*
X91504Y15709D01*
X91898D01*
X92263Y15860D01*
X92541Y16139D01*
X92692Y16503D01*
Y16897D01*
X92541Y17261D01*
X92263Y17540D01*
X91898Y17691D01*
D02*
G37*
G36*
X86098D02*
X85704D01*
X85340Y17540D01*
X85160Y17359D01*
X84980Y17540D01*
X84616Y17691D01*
X84222D01*
X83858Y17540D01*
X83579Y17261D01*
X83428Y16897D01*
Y16503D01*
X83579Y16139D01*
X83858Y15860D01*
X84222Y15709D01*
X84616D01*
X84980Y15860D01*
X85160Y16040D01*
X85340Y15860D01*
X85704Y15709D01*
X86098D01*
X86462Y15860D01*
X86741Y16139D01*
X86892Y16503D01*
Y16897D01*
X86741Y17261D01*
X86462Y17540D01*
X86098Y17691D01*
D02*
G37*
G36*
X79021D02*
X78627D01*
X78263Y17540D01*
X78083Y17359D01*
X77903Y17540D01*
X77539Y17691D01*
X77144D01*
X76780Y17540D01*
X76502Y17261D01*
X76351Y16897D01*
Y16503D01*
X76502Y16139D01*
X76780Y15860D01*
X77144Y15709D01*
X77539D01*
X77903Y15860D01*
X78083Y16040D01*
X78263Y15860D01*
X78627Y15709D01*
X79021D01*
X79385Y15860D01*
X79664Y16139D01*
X79815Y16503D01*
Y16897D01*
X79664Y17261D01*
X79385Y17540D01*
X79021Y17691D01*
D02*
G37*
G36*
X40097Y51091D02*
X39703D01*
X39339Y50940D01*
X39060Y50661D01*
X38909Y50297D01*
Y49903D01*
X38982Y49727D01*
Y28480D01*
X37051Y26549D01*
X36852Y26251D01*
X36782Y25900D01*
Y16273D01*
X36709Y16097D01*
Y15703D01*
X36860Y15339D01*
X37139Y15060D01*
X37266Y15008D01*
X37349Y14952D01*
X37446Y14933D01*
X37503Y14909D01*
X37564D01*
X37700Y14882D01*
X37836Y14909D01*
X37897D01*
X37953Y14933D01*
X38051Y14952D01*
X38134Y15008D01*
X38261Y15060D01*
X38540Y15339D01*
X38690Y15703D01*
Y16097D01*
X38617Y16273D01*
Y25520D01*
X40549Y27451D01*
X40748Y27749D01*
X40817Y28100D01*
Y49727D01*
X40890Y49903D01*
Y50297D01*
X40740Y50661D01*
X40461Y50940D01*
X40097Y51091D01*
D02*
G37*
G36*
X105002Y10091D02*
X104608D01*
X104244Y9940D01*
X103966Y9661D01*
X103815Y9297D01*
Y8903D01*
X103966Y8539D01*
X104244Y8260D01*
X104608Y8109D01*
X105002D01*
X105366Y8260D01*
X105645Y8539D01*
X105796Y8903D01*
Y9297D01*
X105645Y9661D01*
X105366Y9940D01*
X105002Y10091D01*
D02*
G37*
G36*
X93202D02*
X92808D01*
X92444Y9940D01*
X92166Y9661D01*
X92015Y9297D01*
Y8903D01*
X92166Y8539D01*
X92444Y8260D01*
X92808Y8109D01*
X93202D01*
X93566Y8260D01*
X93845Y8539D01*
X93996Y8903D01*
Y9297D01*
X93845Y9661D01*
X93566Y9940D01*
X93202Y10091D01*
D02*
G37*
G36*
X81391D02*
X80997D01*
X80633Y9940D01*
X80354Y9661D01*
X80204Y9297D01*
Y8903D01*
X80354Y8539D01*
X80633Y8260D01*
X80997Y8109D01*
X81391D01*
X81755Y8260D01*
X82034Y8539D01*
X82185Y8903D01*
Y9297D01*
X82034Y9661D01*
X81755Y9940D01*
X81391Y10091D01*
D02*
G37*
%LPD*%
G36*
X137186Y59900D02*
X137240Y59627D01*
X137395Y59395D01*
X172738Y24052D01*
X172688Y23888D01*
X172493Y23591D01*
X172203D01*
X171839Y23440D01*
X171560Y23161D01*
X171409Y22797D01*
Y22403D01*
X171560Y22039D01*
X171839Y21760D01*
X172203Y21609D01*
X172597D01*
X172961Y21760D01*
X173240Y22039D01*
X173390Y22403D01*
Y22693D01*
X173688Y22888D01*
X173852Y22938D01*
X176960Y19831D01*
X176842Y19241D01*
X176839Y19240D01*
X176560Y18961D01*
X176409Y18597D01*
Y18203D01*
X176560Y17839D01*
X176839Y17560D01*
X177203Y17409D01*
X177597D01*
X177961Y17560D01*
X178240Y17839D01*
X178241Y17842D01*
X178831Y17960D01*
X182020Y14770D01*
X181793Y14290D01*
X181577D01*
X181213Y14140D01*
X180934Y13861D01*
X180783Y13497D01*
Y13103D01*
X180934Y12739D01*
X180959Y12714D01*
X180752Y12214D01*
X166895D01*
X136862Y42247D01*
X136987Y42829D01*
X137061Y42860D01*
X137340Y43139D01*
X137379Y43235D01*
X137920D01*
X137960Y43139D01*
X138239Y42860D01*
X138603Y42709D01*
X138997D01*
X139361Y42860D01*
X139640Y43139D01*
X139790Y43503D01*
Y43897D01*
X139640Y44261D01*
X139361Y44540D01*
X138997Y44690D01*
X138603D01*
X138239Y44540D01*
X137960Y44261D01*
X137920Y44165D01*
X137379D01*
X137340Y44261D01*
X137061Y44540D01*
X136697Y44690D01*
X136313D01*
Y55400D01*
X136259Y55673D01*
X136105Y55905D01*
X134813Y57196D01*
Y59679D01*
X135663Y60528D01*
X135817Y60759D01*
X135872Y61032D01*
Y64700D01*
X137186D01*
Y59900D01*
D02*
G37*
%LPC*%
G36*
X140997Y51191D02*
X140603D01*
X140239Y51040D01*
X139960Y50761D01*
X139809Y50397D01*
Y50003D01*
X139960Y49639D01*
X140239Y49360D01*
X140603Y49209D01*
X140997D01*
X141361Y49360D01*
X141640Y49639D01*
X141790Y50003D01*
Y50397D01*
X141640Y50761D01*
X141361Y51040D01*
X140997Y51191D01*
D02*
G37*
G36*
X145397Y45290D02*
X145003D01*
X144639Y45140D01*
X144360Y44861D01*
X144209Y44497D01*
Y44103D01*
X144360Y43739D01*
X144639Y43460D01*
X145003Y43309D01*
X145397D01*
X145761Y43460D01*
X146150Y43332D01*
X146428Y43053D01*
X146792Y42902D01*
X147186D01*
X147550Y43053D01*
X147829Y43332D01*
X147980Y43696D01*
Y44090D01*
X147829Y44454D01*
X147550Y44732D01*
X147186Y44883D01*
X146792D01*
X146428Y44732D01*
X146040Y44861D01*
X145761Y45140D01*
X145397Y45290D01*
D02*
G37*
G36*
X142328Y44817D02*
X141934D01*
X141570Y44666D01*
X141291Y44388D01*
X141140Y44024D01*
Y43630D01*
X141291Y43266D01*
X141059Y42790D01*
X141003D01*
X140639Y42640D01*
X140360Y42361D01*
X140209Y41997D01*
Y41603D01*
X140360Y41239D01*
X140639Y40960D01*
X141003Y40809D01*
X141080D01*
X141418Y40318D01*
X141409Y40297D01*
Y39903D01*
X141560Y39539D01*
X141839Y39260D01*
X142045Y39175D01*
X142226Y39004D01*
X142310Y38609D01*
X142253Y38471D01*
Y38077D01*
X142404Y37713D01*
X142682Y37434D01*
X143046Y37283D01*
X143441D01*
X143805Y37434D01*
X144083Y37713D01*
X144234Y38077D01*
Y38471D01*
X144083Y38835D01*
X143805Y39114D01*
X143599Y39199D01*
X143418Y39370D01*
X143333Y39764D01*
X143390Y39903D01*
Y40297D01*
X143438Y40762D01*
X143652Y40871D01*
X143805Y40934D01*
X144083Y41213D01*
X144234Y41577D01*
Y41971D01*
X144083Y42335D01*
X143805Y42614D01*
X143441Y42764D01*
X143177D01*
X142951Y43150D01*
X142931Y43226D01*
X142971Y43266D01*
X143121Y43630D01*
Y44024D01*
X142971Y44388D01*
X142692Y44666D01*
X142328Y44817D01*
D02*
G37*
G36*
X161797Y30290D02*
X161403D01*
X161039Y30140D01*
X160760Y29861D01*
X160609Y29497D01*
Y29103D01*
X160760Y28739D01*
X161039Y28460D01*
X161403Y28309D01*
X161497D01*
X161865Y28031D01*
X161909Y27847D01*
Y27603D01*
X162060Y27239D01*
X162339Y26960D01*
X162703Y26809D01*
X163097D01*
X163461Y26960D01*
X163740Y27239D01*
X163890Y27603D01*
Y27997D01*
X163740Y28361D01*
X163461Y28640D01*
X163097Y28791D01*
X163002D01*
X162635Y29069D01*
X162590Y29252D01*
Y29497D01*
X162440Y29861D01*
X162161Y30140D01*
X161797Y30290D01*
D02*
G37*
%LPD*%
D10*
X59000Y71000D02*
X72700D01*
X45700Y82300D02*
X45700D01*
X55200Y72800D01*
Y56000D02*
Y72800D01*
X60600Y59000D02*
X72500D01*
X58900Y60700D02*
X60600Y59000D01*
X37700Y25900D02*
X39900Y28100D01*
X37700Y15800D02*
Y25900D01*
X43800Y82249D02*
X44300Y82749D01*
X43800Y82200D02*
Y82249D01*
X44300Y82749D02*
Y107500D01*
X55200Y56000D02*
X55900Y55300D01*
X59000D01*
X39900Y28100D02*
Y50100D01*
X43768Y27931D02*
Y50100D01*
Y27931D02*
X47600Y24100D01*
X47600D01*
X24237Y168400D02*
G03*
X24237Y168400I-3937J0D01*
G01*
X249837D02*
G03*
X249837Y168400I-3937J0D01*
G01*
Y24400D02*
G03*
X249837Y24400I-3937J0D01*
G01*
D14*
X204151Y104832D02*
G03*
X203917Y105398I-800J0D01*
G01*
X210551Y105850D02*
G03*
X211351Y105050I800J0D01*
G01*
X207351Y107968D02*
G03*
X205751Y107968I-800J0D01*
G01*
X204151Y103515D02*
G03*
X205751Y103515I800J0D01*
G01*
X207351Y102558D02*
G03*
X208951Y102558I800J0D01*
G01*
X210551Y107968D02*
G03*
X208951Y107968I-800J0D01*
G01*
X202100Y97200D02*
G03*
X201300Y98000I-800J0D01*
G01*
X202100Y91731D02*
G03*
X203700Y91731I800J0D01*
G01*
X205300Y97700D02*
G03*
X203700Y97700I-800J0D01*
G01*
X205300Y91665D02*
G03*
X206900Y91665I800J0D01*
G01*
X207700Y98000D02*
G03*
X206900Y97200I0J-800D01*
G01*
X191800Y111400D02*
G03*
X191000Y110600I0J-800D01*
G01*
X189400Y110600D02*
G03*
X191000Y110600I800J0D01*
G01*
X189400Y111865D02*
G03*
X187800Y111865I-800J0D01*
G01*
X186200Y108296D02*
G03*
X187800Y108296I800J0D01*
G01*
X186200Y111881D02*
G03*
X184600Y111881I-800J0D01*
G01*
X183000Y108296D02*
G03*
X184600Y108296I800J0D01*
G01*
X183000Y111881D02*
G03*
X181400Y111881I-800J0D01*
G01*
X179800Y108296D02*
G03*
X181400Y108296I800J0D01*
G01*
X179800Y111881D02*
G03*
X178200Y111881I-800J0D01*
G01*
X176600Y108296D02*
G03*
X178200Y108296I800J0D01*
G01*
X176600Y111881D02*
G03*
X175000Y111881I-800J0D01*
G01*
X173400Y108296D02*
G03*
X175000Y108296I800J0D01*
G01*
X173400Y111881D02*
G03*
X171800Y111881I-800J0D01*
G01*
X170200Y108296D02*
G03*
X171800Y108296I800J0D01*
G01*
X170200Y110600D02*
G03*
X169400Y111400I-800J0D01*
G01*
X192866Y105555D02*
G03*
X192066Y104755I0J-800D01*
G01*
X190466Y104359D02*
G03*
X192066Y104359I800J0D01*
G01*
X190466Y105494D02*
G03*
X188866Y105494I-800J0D01*
G01*
X187266Y102622D02*
G03*
X188866Y102622I800J0D01*
G01*
X187266Y105494D02*
G03*
X185666Y105494I-800J0D01*
G01*
X184066Y102622D02*
G03*
X185666Y102622I800J0D01*
G01*
X184066Y105494D02*
G03*
X182466Y105494I-800J0D01*
G01*
X180866Y102622D02*
G03*
X182466Y102622I800J0D01*
G01*
X180866Y105494D02*
G03*
X179266Y105494I-800J0D01*
G01*
X177666Y102622D02*
G03*
X179266Y102622I800J0D01*
G01*
X177666Y105494D02*
G03*
X176066Y105494I-800J0D01*
G01*
X174466Y102622D02*
G03*
X176066Y102622I800J0D01*
G01*
X174466Y105494D02*
G03*
X172866Y105494I-800J0D01*
G01*
X171266Y102622D02*
G03*
X172866Y102622I800J0D01*
G01*
X171266Y104755D02*
G03*
X170466Y105555I-800J0D01*
G01*
X163801Y98100D02*
G03*
X163001Y98900I-800J0D01*
G01*
X163801Y98100D02*
G03*
X165401Y98100I800J0D01*
G01*
X167000Y98900D02*
G03*
X165401Y98900I-800J0D01*
G01*
X167000Y98424D02*
G03*
X168600Y98424I800J0D01*
G01*
X170201Y99629D02*
G03*
X168600Y99629I-800J0D01*
G01*
X170201Y98019D02*
G03*
X171800Y98019I800J0D01*
G01*
X173400Y99629D02*
G03*
X171800Y99629I-800J0D01*
G01*
X173400Y98019D02*
G03*
X175001Y98019I800J0D01*
G01*
X176601Y99629D02*
G03*
X175001Y99629I-800J0D01*
G01*
X176601Y98019D02*
G03*
X178200Y98019I800J0D01*
G01*
X179800Y99629D02*
G03*
X178200Y99629I-800J0D01*
G01*
X179800Y98019D02*
G03*
X181401Y98019I800J0D01*
G01*
X183001Y99629D02*
G03*
X181401Y99629I-800J0D01*
G01*
X183001Y98019D02*
G03*
X184600Y98019I800J0D01*
G01*
X186200Y99629D02*
G03*
X184600Y99629I-800J0D01*
G01*
X186200Y98019D02*
G03*
X187801Y98019I800J0D01*
G01*
X189400Y99629D02*
G03*
X187801Y99629I-800J0D01*
G01*
X189400Y98019D02*
G03*
X191000Y98019I800J0D01*
G01*
X191800Y98900D02*
G03*
X191000Y98100I0J-800D01*
G01*
X189059Y118828D02*
G03*
X188259Y118028I0J-800D01*
G01*
X186659Y116428D02*
G03*
X188259Y116428I800J0D01*
G01*
X186659Y118941D02*
G03*
X185059Y118941I-800J0D01*
G01*
X183459Y116428D02*
G03*
X185059Y116428I800J0D01*
G01*
X183459Y118941D02*
G03*
X181859Y118941I-800J0D01*
G01*
X180259Y116428D02*
G03*
X181859Y116428I800J0D01*
G01*
X180259Y118941D02*
G03*
X178659Y118941I-800J0D01*
G01*
X177059Y116428D02*
G03*
X178659Y116428I800J0D01*
G01*
X177059Y118941D02*
G03*
X175459Y118941I-800J0D01*
G01*
X173859Y116428D02*
G03*
X175459Y116428I800J0D01*
G01*
X173859Y118941D02*
G03*
X172259Y118941I-800J0D01*
G01*
X170659Y116428D02*
G03*
X172259Y116428I800J0D01*
G01*
X170659Y118941D02*
G03*
X169059Y118941I-800J0D01*
G01*
X167459Y116428D02*
G03*
X169059Y116428I800J0D01*
G01*
X167459Y118028D02*
G03*
X166659Y118828I-800J0D01*
G01*
X190037Y125600D02*
G03*
X190837Y124800I800J0D01*
G01*
X190037Y125600D02*
G03*
X188437Y125600I-800J0D01*
G01*
X186837Y123683D02*
G03*
X188437Y123683I800J0D01*
G01*
X186837Y125626D02*
G03*
X185237Y125626I-800J0D01*
G01*
X183637Y123119D02*
G03*
X185237Y123119I800J0D01*
G01*
X183637Y125626D02*
G03*
X182037Y125626I-800J0D01*
G01*
X180437Y123119D02*
G03*
X182037Y123119I800J0D01*
G01*
X180437Y125626D02*
G03*
X178837Y125626I-800J0D01*
G01*
X177237Y123119D02*
G03*
X178837Y123119I800J0D01*
G01*
X177237Y125626D02*
G03*
X175637Y125626I-800J0D01*
G01*
X174037Y123119D02*
G03*
X175637Y123119I800J0D01*
G01*
X174037Y125626D02*
G03*
X172437Y125626I-800J0D01*
G01*
X170837Y123119D02*
G03*
X172437Y123119I800J0D01*
G01*
X170837Y125626D02*
G03*
X169237Y125626I-800J0D01*
G01*
X167637Y123394D02*
G03*
X169237Y123394I800J0D01*
G01*
X167637Y125626D02*
G03*
X166037Y125626I-800J0D01*
G01*
X165237Y124800D02*
G03*
X166037Y125600I0J800D01*
G01*
X210300Y86428D02*
G03*
X209500Y85628I0J-800D01*
G01*
X207900Y82990D02*
G03*
X209500Y82990I800J0D01*
G01*
X207900Y86128D02*
G03*
X206300Y86128I-800J0D01*
G01*
X204700Y82990D02*
G03*
X206300Y82990I800J0D01*
G01*
X204700Y85628D02*
G03*
X203900Y86428I-800J0D01*
G01*
X192300Y85300D02*
G03*
X191500Y84500I0J-800D01*
G01*
X189900Y84042D02*
G03*
X191500Y84042I800J0D01*
G01*
X189900Y87791D02*
G03*
X188300Y87791I-800J0D01*
G01*
X186700Y82364D02*
G03*
X188300Y82364I800J0D01*
G01*
X186700Y87791D02*
G03*
X185100Y87791I-800J0D01*
G01*
X184300Y85300D02*
G03*
X185100Y86100I0J800D01*
G01*
X205887Y111845D02*
G03*
X205887Y110713I566J-566D01*
G01*
X206834Y112792D02*
G03*
X206834Y113923I-566J566D01*
G01*
X206834Y113923D02*
G03*
X205702Y113923I-566J-566D01*
G01*
X203270Y112622D02*
G03*
X204402Y112622I566J566D01*
G01*
X203270Y113754D02*
G03*
X203270Y112622I566J-566D01*
G01*
X206264Y116748D02*
G03*
X206264Y117879I-566J566D01*
G01*
X206264Y117879D02*
G03*
X205133Y117879I-566J-566D01*
G01*
X201332Y115210D02*
G03*
X202464Y115210I566J566D01*
G01*
X201332Y116341D02*
G03*
X201332Y115210I566J-566D01*
G01*
X201695Y116704D02*
G03*
X201695Y117835I-566J566D01*
G01*
X201695Y117835D02*
G03*
X200563Y117835I-566J-566D01*
G01*
X198745Y117148D02*
G03*
X199876Y117148I566J566D01*
G01*
X198745Y118279D02*
G03*
X198745Y117148I566J-566D01*
G01*
X199637Y119172D02*
G03*
X199637Y120303I-566J566D01*
G01*
X199637Y120303D02*
G03*
X198506Y120303I-566J-566D01*
G01*
X196835Y119764D02*
G03*
X197967Y119764I566J566D01*
G01*
X215013Y123518D02*
G03*
X215013Y122387I566J-566D01*
G01*
X215774Y124279D02*
G03*
X215774Y125410I-566J566D01*
G01*
X215774Y125410D02*
G03*
X214642Y125410I-566J-566D01*
G01*
X212397Y124296D02*
G03*
X213528Y124296I566J566D01*
G01*
X212397Y125427D02*
G03*
X212397Y124296I566J-566D01*
G01*
X213791Y126822D02*
G03*
X213791Y127953I-566J566D01*
G01*
X213791Y127953D02*
G03*
X212660Y127953I-566J-566D01*
G01*
X210134Y126559D02*
G03*
X211265Y126559I566J566D01*
G01*
X210134Y127690D02*
G03*
X210134Y126559I566J-566D01*
G01*
X211528Y129085D02*
G03*
X211528Y130216I-566J566D01*
G01*
X211528Y130216D02*
G03*
X210397Y130216I-566J-566D01*
G01*
X207871Y128822D02*
G03*
X209002Y128821I566J566D01*
G01*
X207871Y129953D02*
G03*
X207871Y128821I566J-566D01*
G01*
X209266Y131347D02*
G03*
X209266Y132479I-566J566D01*
G01*
X209266Y132479D02*
G03*
X208134Y132479I-566J-566D01*
G01*
X205962Y131438D02*
G03*
X207093Y131438I566J566D01*
G01*
X211364Y119035D02*
G03*
X210233Y119035I-566J-566D01*
G01*
X208304Y118237D02*
G03*
X209435Y118237I566J566D01*
G01*
X208304Y119369D02*
G03*
X208304Y118237I566J-566D01*
G01*
X210817Y121882D02*
G03*
X210817Y123014I-566J566D01*
G01*
X210817Y123014D02*
G03*
X209686Y123014I-566J-566D01*
G01*
X206041Y120500D02*
G03*
X207172Y120500I566J566D01*
G01*
X206041Y121632D02*
G03*
X206041Y120500I566J-566D01*
G01*
X208555Y124145D02*
G03*
X208555Y125277I-566J566D01*
G01*
X208555Y125277D02*
G03*
X207423Y125277I-566J-566D01*
G01*
X203778Y122763D02*
G03*
X204910Y122763I566J566D01*
G01*
X203778Y123894D02*
G03*
X203778Y122763I566J-566D01*
G01*
X206292Y126408D02*
G03*
X206292Y127539I-566J566D01*
G01*
X206292Y127539D02*
G03*
X205161Y127539I-566J-566D01*
G01*
X203445Y126955D02*
G03*
X204576Y126955I566J566D01*
G01*
X111892Y92308D02*
X113300Y90900D01*
X110200Y71300D02*
X113300Y74400D01*
X111606Y92308D02*
X111892D01*
X113300Y74400D02*
Y90900D01*
X110908Y93006D02*
X111606Y92308D01*
X214305Y105955D02*
X214802D01*
X215900Y104857D01*
X213400Y105050D02*
X214305Y105955D01*
X207351Y102558D02*
Y107968D01*
X208951Y102558D02*
Y107968D01*
X205751Y103515D02*
Y107968D01*
X211351Y105050D02*
X212906D01*
X200651Y108664D02*
X203917Y105398D01*
X204151Y103515D02*
Y104832D01*
X210551Y105850D02*
Y107968D01*
X215900Y104700D02*
Y104857D01*
X212906Y105050D02*
X213400D01*
X200157Y98000D02*
X201300D01*
X202100Y91731D02*
Y97200D01*
X203700Y91731D02*
Y97700D01*
X205300Y91665D02*
Y97700D01*
X206900Y91665D02*
Y97200D01*
X207700Y98000D02*
X208000D01*
X191800Y111400D02*
X196100D01*
X191000Y110600D02*
Y110600D01*
X189400Y110600D02*
Y111865D01*
X187800Y108296D02*
Y111865D01*
X186200Y108296D02*
Y111881D01*
X184600Y108296D02*
Y111881D01*
X183000Y108296D02*
Y111881D01*
X181400Y108296D02*
Y111881D01*
X179800Y108296D02*
Y111881D01*
X178200Y108296D02*
Y111881D01*
X176600Y108296D02*
Y111881D01*
X175000Y108296D02*
Y111881D01*
X173400Y108296D02*
Y111881D01*
X171800Y108296D02*
Y111881D01*
X170200Y108296D02*
Y110600D01*
X167600Y111400D02*
X169400D01*
X167500Y111500D02*
X167600Y111400D01*
X194845Y105555D02*
X195000Y105710D01*
X192866Y105555D02*
X194845D01*
X192066Y104359D02*
Y104755D01*
X190466Y104359D02*
Y105494D01*
X188866Y102622D02*
Y105494D01*
X187266Y102622D02*
Y105494D01*
X185666Y102622D02*
Y105494D01*
X184066Y102622D02*
Y105494D01*
X182466Y102622D02*
Y105494D01*
X180866Y102622D02*
Y105494D01*
X179266Y102622D02*
Y105494D01*
X177666Y102622D02*
Y105494D01*
X176066Y102622D02*
Y105494D01*
X174466Y102622D02*
Y105494D01*
X172866Y102622D02*
Y105494D01*
X171266Y102622D02*
Y104755D01*
X168566Y105555D02*
X170466D01*
X161510Y100099D02*
X162709Y98900D01*
X163001D01*
X163801Y98100D02*
Y98100D01*
X165401Y98100D02*
Y98900D01*
X167000Y98424D02*
Y98900D01*
X168600Y98424D02*
Y99629D01*
X170201Y98019D02*
Y99629D01*
X171800Y98019D02*
Y99629D01*
X173400Y98019D02*
Y99629D01*
X175001Y98019D02*
Y99629D01*
X176601Y98019D02*
Y99629D01*
X178200Y98019D02*
Y99629D01*
X179800Y98019D02*
Y99629D01*
X181401Y98019D02*
Y99629D01*
X183001Y98019D02*
Y99629D01*
X184600Y98019D02*
Y99629D01*
X186200Y98019D02*
Y99629D01*
X187801Y98019D02*
Y99629D01*
X189400Y98019D02*
Y99629D01*
X191000Y98019D02*
Y98100D01*
X191800Y98900D02*
X192101D01*
X189059Y118828D02*
X191439D01*
X188259Y116428D02*
Y118028D01*
X186659Y116428D02*
Y118941D01*
X185059Y116428D02*
Y118941D01*
X183459Y116428D02*
Y118941D01*
X181859Y116428D02*
Y118941D01*
X180259Y116428D02*
Y118941D01*
X178659Y116428D02*
Y118941D01*
X177059Y116428D02*
Y118941D01*
X175459Y116428D02*
Y118941D01*
X173859Y116428D02*
Y118941D01*
X172259Y116428D02*
Y118941D01*
X170659Y116428D02*
Y118941D01*
X169059Y116428D02*
Y118941D01*
X167459Y116428D02*
Y118028D01*
X164759Y118828D02*
X166659D01*
X190837Y124800D02*
X196272D01*
X190037Y125600D02*
Y125600D01*
X188437Y123683D02*
Y125600D01*
X186837Y123683D02*
Y125626D01*
X185237Y123119D02*
Y125626D01*
X183637Y123119D02*
Y125626D01*
X182037Y123119D02*
Y125626D01*
X180437Y123119D02*
Y125626D01*
X178837Y123119D02*
Y125626D01*
X177237Y123119D02*
Y125626D01*
X175637Y123119D02*
Y125626D01*
X174037Y123119D02*
Y125626D01*
X172437Y123119D02*
Y125626D01*
X170837Y123119D02*
Y125626D01*
X169237Y123394D02*
Y125626D01*
X167637Y123394D02*
Y125626D01*
X166037Y125600D02*
Y125626D01*
X158537Y124800D02*
X165237D01*
X162600Y116400D02*
X167500Y111500D01*
X198600Y102351D02*
Y103401D01*
X196800Y101601D02*
X197849D01*
X198600Y102351D01*
X194099Y98900D02*
X196800Y101601D01*
X198600Y103401D02*
X200249Y105050D01*
X115500Y93100D02*
X116705Y91894D01*
X117305D01*
X118400Y90800D01*
X110000Y94200D02*
X110908Y93292D01*
X107861Y94200D02*
X110000D01*
X110908Y93006D02*
Y93292D01*
X195000Y105710D02*
X197190Y107900D01*
X197300D01*
X147200Y92000D02*
X147308D01*
X148308Y91000D01*
X174300D01*
X127430Y83592D02*
X139694D01*
X119692Y84008D02*
X127014D01*
X119600Y84100D02*
X119692Y84008D01*
X127014D02*
X127430Y83592D01*
X139694D02*
X139721Y83565D01*
X121660Y75668D02*
X123592Y77600D01*
X121660Y38440D02*
Y75668D01*
X158964Y115157D02*
X168566Y105555D01*
X154943Y115157D02*
X158964D01*
X158600Y116400D02*
X162600D01*
X155200Y120743D02*
X156124Y119819D01*
Y119162D02*
Y119819D01*
Y119162D02*
X156548Y118738D01*
X155200Y120743D02*
Y120900D01*
X153184Y121125D02*
X155658Y123600D01*
X165500D01*
X174300Y91000D02*
X226968Y38331D01*
X150700Y92000D02*
X161904D01*
X161938Y91966D02*
X162926D01*
X176500Y92000D02*
X183200Y85300D01*
X148523Y94177D02*
X150700Y92000D01*
X162926Y91966D02*
X162960Y92000D01*
X176500D01*
X161904D02*
X161938Y91966D01*
X196100Y111400D02*
X196457D01*
X196925Y110932D02*
X197082D01*
X196457Y111400D02*
X196925Y110932D01*
X200651Y108664D02*
Y109648D01*
X167476Y114400D02*
X192876D01*
X195900D02*
X200651Y109648D01*
X194066Y114400D02*
X195900D01*
X192977Y114502D02*
X193965D01*
X194066Y114400D01*
X192876D02*
X192977Y114502D01*
X134100Y56900D02*
X135600Y55400D01*
Y44486D02*
Y55400D01*
X135308Y43206D02*
Y44194D01*
Y43206D02*
X135600Y42914D01*
X135308Y44194D02*
X135600Y44486D01*
Y42500D02*
X166600Y11500D01*
X135600Y42500D02*
Y42914D01*
X137700Y97400D02*
X140200Y99900D01*
X135400Y90600D02*
X137700Y92900D01*
Y97400D01*
X194854Y91394D02*
X200506D01*
X191848Y94400D02*
X194854Y91394D01*
X200506D02*
X201700Y90200D01*
Y87000D02*
Y90200D01*
X215997Y111349D02*
Y121402D01*
X97307Y32092D02*
Y76407D01*
X98900Y78000D02*
Y84258D01*
X97307Y76407D02*
X98900Y78000D01*
X88000Y123300D02*
X98174Y113126D01*
X88000Y143399D02*
X113111Y168510D01*
X88000Y123300D02*
Y143399D01*
X95052Y104900D02*
X100700D01*
X94921Y104769D02*
X95052Y104900D01*
X89431Y104769D02*
X94921D01*
X76700Y117500D02*
X89431Y104769D01*
X139721Y83565D02*
X142865D01*
X118400Y36579D02*
X126479Y28500D01*
X118400Y36579D02*
Y90800D01*
X117100Y35911D02*
X124511Y28500D01*
X117100Y35911D02*
Y82014D01*
X117192Y82106D01*
X115700Y89700D02*
X117192Y88208D01*
Y82106D02*
Y88208D01*
X141044Y73956D02*
X146400Y68600D01*
X139095Y73956D02*
X141044D01*
X146400Y68600D02*
X148000D01*
X136200Y70800D02*
X140450Y66550D01*
X136200Y70800D02*
Y72757D01*
X140450Y61350D02*
Y66550D01*
X141700Y61800D02*
Y67000D01*
X137700Y71000D02*
X138408Y70292D01*
Y70206D02*
X139106Y69508D01*
X139192D01*
X137700Y71000D02*
Y75351D01*
X139192Y69508D02*
X141700Y67000D01*
X138408Y70206D02*
Y70292D01*
X141700Y61800D02*
X186500Y17000D01*
X139600Y70700D02*
X142800Y67500D01*
Y62300D02*
X183200Y21900D01*
X142800Y62300D02*
Y67500D01*
X146900Y60500D02*
Y65100D01*
Y60500D02*
X184100Y23300D01*
X159200Y62500D02*
X160000D01*
X157800Y63900D02*
Y65000D01*
Y63900D02*
X159200Y62500D01*
X191535Y27700D02*
Y30964D01*
X176292Y46208D02*
X191535Y30964D01*
X176292Y46208D02*
Y46294D01*
X175508Y46992D02*
X175594D01*
X160000Y62500D02*
X175508Y46992D01*
X175594D02*
X176292Y46294D01*
X156200Y66600D02*
X157800Y65000D01*
X176148Y51000D02*
X177400Y49749D01*
X175400Y51000D02*
X176148D01*
X155972Y70428D02*
X175400Y51000D01*
X177400Y49000D02*
Y49749D01*
X155188Y71211D02*
X155274D01*
X155972Y70428D02*
Y70513D01*
X155274Y71211D02*
X155972Y70513D01*
X154600Y71800D02*
X155188Y71211D01*
X177400Y49000D02*
X195472Y30928D01*
X104400Y78057D02*
X106500Y80157D01*
Y96300D01*
X109200Y81386D02*
Y87700D01*
X105808Y77994D02*
X109200Y81386D01*
X104400Y76200D02*
X105100Y75500D01*
Y32163D02*
Y75500D01*
X104400Y76200D02*
Y78057D01*
X105100Y32163D02*
X108763Y28500D01*
X106600Y34600D02*
Y76214D01*
X105808Y77006D02*
X106600Y76214D01*
Y34600D02*
X112700Y28500D01*
X105808Y77006D02*
Y77994D01*
X108400Y34768D02*
Y75100D01*
Y34768D02*
X114668Y28500D01*
X108400Y75100D02*
X109500Y76200D01*
X150700Y110000D02*
X152500Y108200D01*
Y98200D02*
Y108200D01*
X145300Y109400D02*
X149100Y113200D01*
X145300Y90186D02*
Y109400D01*
X145208Y89106D02*
X145300Y89014D01*
X149100Y113200D02*
Y119700D01*
X145300Y86000D02*
Y89014D01*
X145208Y89106D02*
Y90094D01*
X145300Y90186D01*
X147600Y106572D02*
Y109800D01*
Y106572D02*
X148523Y105649D01*
Y94177D02*
Y105649D01*
X107800Y121600D02*
Y140900D01*
X115079Y148179D01*
X98400Y126000D02*
X99800Y124600D01*
X98400Y126000D02*
Y142900D01*
X140000Y127900D02*
X154900Y142800D01*
X140000Y119500D02*
Y127900D01*
X154900Y142800D02*
X194694D01*
X155200Y144700D02*
X192500D01*
X137700Y127200D02*
X155200Y144700D01*
X137700Y121100D02*
Y127200D01*
X154900Y146500D02*
X192500D01*
X136300Y127900D02*
X154900Y146500D01*
X136300Y121000D02*
Y127900D01*
X134648Y123048D02*
Y128048D01*
X149000Y142400D02*
Y152400D01*
X134648Y128048D02*
X149000Y142400D01*
X147800Y142900D02*
Y151500D01*
X132700Y123300D02*
Y127800D01*
X147800Y142900D01*
X131100Y123700D02*
Y128000D01*
X144607Y141507D01*
Y150400D01*
X123000Y126100D02*
X138701Y141802D01*
X123000Y122100D02*
Y126100D01*
X122100Y121200D02*
X123000Y122100D01*
X116600Y126700D02*
Y130178D01*
X115800Y125900D02*
X116600Y126700D01*
Y136000D02*
X126890Y146291D01*
X116600Y134041D02*
Y136000D01*
X116408Y133849D02*
X116600Y134041D01*
X116408Y130370D02*
X116600Y130178D01*
X116408Y130370D02*
Y133849D01*
X105800Y140031D02*
X113111Y147342D01*
X105800Y129900D02*
Y140031D01*
X113111Y147342D02*
Y150400D01*
X109800Y132900D02*
Y141000D01*
X117400Y148600D01*
X117600Y133355D02*
X128600Y144355D01*
Y151753D01*
X105100Y154594D02*
X119016Y168510D01*
X105100Y149600D02*
Y154594D01*
X94308Y95408D02*
X98304Y99404D01*
X90200Y82591D02*
X94463Y86854D01*
X94308Y87506D02*
X94463Y87351D01*
Y86854D02*
Y87351D01*
X98304Y99404D02*
X99483D01*
X94308Y87506D02*
Y95408D01*
X116000Y107400D02*
X118353Y109754D01*
Y109782D02*
X119052Y110480D01*
X120039D01*
X118353Y109754D02*
Y109782D01*
X113400Y107400D02*
X116000D01*
X144400Y122159D02*
X161741Y139500D01*
X144400Y116690D02*
Y122159D01*
X137600Y109890D02*
X144400Y116690D01*
X133700Y107903D02*
Y109600D01*
X129197Y103400D02*
X133700Y107903D01*
Y109600D02*
X141600Y117500D01*
X120278Y103400D02*
X129197D01*
X115600Y102400D02*
X119278D01*
X120278Y103400D01*
X129657Y109429D02*
X136397Y116169D01*
X138698Y118198D02*
X140000Y119500D01*
X138358Y118198D02*
X138698D01*
X127971Y109429D02*
X129657D01*
X136397Y116169D02*
Y116237D01*
X138358Y118198D01*
X106500Y96300D02*
X107500Y97300D01*
X103800Y97600D02*
X105600Y95800D01*
Y82494D02*
Y95800D01*
Y82494D02*
X105700Y82394D01*
X103300Y78400D02*
X105600Y80700D01*
Y81306D01*
X105700Y81406D02*
Y82394D01*
X105600Y81306D02*
X105700Y81406D01*
X115744Y114241D02*
X116060D01*
X114488Y112985D02*
X115744Y114241D01*
X118300Y107600D02*
X124200D01*
X137700Y121100D01*
X125733Y110433D02*
X136300Y121000D01*
X120039Y110480D02*
X120087Y110433D01*
X125733D01*
X122261Y112100D02*
X122318Y112043D01*
X123643D01*
X134648Y123048D01*
X118922Y112100D02*
X122261D01*
X118671Y114600D02*
X124000D01*
X132700Y123300D01*
X113864Y109793D02*
X118671Y114600D01*
X120494Y115908D02*
X120586Y116000D01*
X119506Y115908D02*
X120494D01*
X120586Y116000D02*
X123400D01*
X116759Y114939D02*
Y115083D01*
X117676Y116000D02*
X119414D01*
X116060Y114241D02*
X116759Y114939D01*
X123400Y116000D02*
X131100Y123700D01*
X119414Y116000D02*
X119506Y115908D01*
X116759Y115083D02*
X117676Y116000D01*
X147900Y115900D02*
Y121300D01*
X141900Y91000D02*
Y109900D01*
X147900Y115900D01*
X119933Y88500D02*
X139400D01*
X119903Y88470D02*
X119933Y88500D01*
X159284Y86959D02*
X159344Y86900D01*
X158297Y86959D02*
X159284D01*
X163148D02*
X163207Y86900D01*
X162101D02*
X162160Y86959D01*
X170608Y86900D02*
X221063Y36445D01*
X163207Y86900D02*
X170608D01*
X162160Y86959D02*
X163148D01*
X221063Y27700D02*
Y36445D01*
X158237Y86900D02*
X158297Y86959D01*
X159344Y86900D02*
X162101D01*
X153800D02*
X158237D01*
X163148Y84575D02*
X163173Y84600D01*
X162160Y84575D02*
X163148D01*
X153400Y84600D02*
X158272D01*
X158297Y84575D02*
X159284D01*
X158272Y84600D02*
X158297Y84575D01*
X159284D02*
X159309Y84600D01*
X163173D02*
X169400D01*
X219111Y27716D02*
Y34889D01*
X169400Y84600D02*
X219111Y34889D01*
X162136Y84600D02*
X162160Y84575D01*
X159309Y84600D02*
X162136D01*
X199192Y62008D02*
X225016Y36183D01*
X198706Y62008D02*
X199192D01*
X154600Y88100D02*
X173100D01*
X225016Y27716D02*
Y36183D01*
X173100Y88100D02*
X198008Y63192D01*
Y62706D02*
X198706Y62008D01*
X198008Y62706D02*
Y63192D01*
X82400Y117200D02*
Y147642D01*
X103268Y168510D01*
X82400Y117200D02*
X91700Y107900D01*
X91803Y125223D02*
X97373Y119653D01*
X91803Y140903D02*
X101300Y150400D01*
X91803Y125223D02*
Y140903D01*
X96746Y143878D02*
X103268Y150400D01*
X96746Y124217D02*
X99963Y121000D01*
X96746Y124217D02*
Y143878D01*
X90200Y124941D02*
X92300Y122841D01*
Y121904D02*
X99504Y114700D01*
X92300Y121904D02*
Y122841D01*
X90200Y124941D02*
Y143631D01*
X99504Y114700D02*
X102326D01*
X136117Y99817D02*
X137600Y101300D01*
X119506Y99817D02*
X136117D01*
X106206Y102900D02*
X108972Y100134D01*
X119189D01*
X119506Y99817D01*
X208492Y9161D02*
X213231Y13900D01*
X157693Y106368D02*
X157710D01*
X157400Y106075D02*
X157693Y106368D01*
X157710D02*
X158743Y107400D01*
X157400Y100850D02*
Y106075D01*
X153076Y117681D02*
X158081D01*
X158084Y117684D01*
X150855Y119745D02*
X151011D01*
X153076Y117681D01*
X158084Y117684D02*
X158990D01*
X150000Y123400D02*
X151300D01*
X147900Y121300D02*
X150000Y123400D01*
X163731Y135831D02*
X199542D01*
X162300Y135800D02*
X163700D01*
X163731Y135831D01*
X151300Y123400D02*
X152500Y124600D01*
Y126000D02*
X162300Y135800D01*
X152500Y124600D02*
Y126000D01*
X140200Y99900D02*
Y110100D01*
X139400Y88500D02*
X141900Y91000D01*
X146000Y115900D02*
Y121635D01*
X140200Y110100D02*
X146000Y115900D01*
X149100Y119700D02*
X163731Y134331D01*
X142865Y83565D02*
X145300Y86000D01*
X158993Y117681D02*
X164195D01*
X158990Y117684D02*
X158993Y117681D01*
X160900Y129590D02*
X165519D01*
X167828Y131900D02*
X205500D01*
X165519Y129590D02*
X167828Y131900D01*
X205500D02*
X205750Y131650D01*
X126250Y123350D02*
Y127250D01*
X140500Y141500D01*
Y155327D01*
X138701Y141802D02*
Y150400D01*
X121400Y126700D02*
X136733Y142033D01*
X121400Y122252D02*
Y126700D01*
X136733Y142033D02*
Y150400D01*
X119998Y124802D02*
Y131898D01*
X132796Y144696D02*
Y150400D01*
X119998Y131898D02*
X132796Y144696D01*
X118703Y132903D02*
X130827Y145027D01*
X118703Y129768D02*
Y132903D01*
X130827Y145027D02*
Y150400D01*
X126890Y146291D02*
Y150400D01*
X115000Y127900D02*
Y136600D01*
X124922Y146522D02*
Y150400D01*
X115000Y136600D02*
X124922Y146522D01*
X113675Y129311D02*
Y137476D01*
X122700Y146500D02*
Y152409D01*
X113675Y137476D02*
X122700Y146500D01*
X118706Y128858D02*
Y129764D01*
X118703Y128855D02*
X118706Y128858D01*
X118703Y121600D02*
Y128855D01*
Y129768D02*
X118706Y129764D01*
X108000Y117600D02*
Y119621D01*
X111000Y122621D02*
Y139900D01*
X108000Y119621D02*
X111000Y122621D01*
X106100Y114401D02*
Y120800D01*
Y114401D02*
X107857Y112644D01*
X90200Y143631D02*
X115079Y168510D01*
X86000Y121700D02*
X96400Y111300D01*
X86000Y145336D02*
X109174Y168510D01*
X86000Y121700D02*
Y145336D01*
X84000Y145305D02*
X107205Y168510D01*
X84000Y119600D02*
X94000Y109600D01*
X84000Y119600D02*
Y145305D01*
X76700Y117500D02*
Y143910D01*
X101300Y168510D01*
X96400Y111300D02*
X106180D01*
X107880Y109600D01*
X94000D02*
X104100D01*
X91700Y107900D02*
X105400D01*
X98174Y113126D02*
X99963D01*
X81700Y102900D02*
X106206D01*
X73700Y110900D02*
X81700Y102900D01*
X20200Y110900D02*
X73700D01*
X16700Y114400D02*
X20200Y110900D01*
X123347Y81830D02*
X124900Y80277D01*
Y38000D02*
Y80277D01*
Y38000D02*
X157434Y5466D01*
X160600Y94400D02*
X191848D01*
X161029Y74471D02*
X201378Y34122D01*
X155271Y74471D02*
X161029D01*
X149600Y62200D02*
X185800Y26000D01*
X148400Y61400D02*
X185000Y24800D01*
X151017Y62982D02*
X183600Y30400D01*
X147274Y67451D02*
X148400Y66326D01*
X148000Y68600D02*
X149600Y67000D01*
X145600Y67451D02*
X147274D01*
X151017Y62982D02*
Y65971D01*
X150906Y66082D02*
X151017Y65971D01*
X148400Y61400D02*
Y66326D01*
X143032Y70019D02*
X145600Y67451D01*
X149600Y62200D02*
Y67000D01*
X146969Y70019D02*
X149180D01*
X152450Y66750D01*
X154843Y63757D02*
Y66247D01*
X144994Y71800D02*
X154600D01*
X152450Y64050D02*
Y66750D01*
Y64050D02*
X185700Y30800D01*
X201378Y27700D02*
Y34122D01*
X107205Y149105D02*
Y150496D01*
X101300Y143200D02*
X107205Y149105D01*
X102500Y142300D02*
X109174Y148974D01*
Y150400D01*
X120985Y165585D02*
Y168510D01*
X111100Y148700D02*
Y155700D01*
X120985Y165585D01*
X138701Y157126D02*
Y168510D01*
X117400Y155800D02*
X124922Y163322D01*
Y168510D01*
X117400Y148600D02*
Y155800D01*
X138701Y157126D02*
X140500Y155327D01*
X142638Y150296D02*
X142690Y150348D01*
X142638Y141839D02*
Y150296D01*
X129400Y128600D02*
X142638Y141839D01*
X144607Y156793D02*
X149000Y152400D01*
X142638Y156661D02*
X147800Y151500D01*
X146600Y77443D02*
Y77600D01*
X146890Y76209D02*
X150000Y73100D01*
X146600Y77443D02*
X146890Y77152D01*
X146969Y81830D02*
X148629Y83491D01*
X146890Y76209D02*
Y77152D01*
X150000Y73100D02*
X158958D01*
X152663Y76000D02*
X162000D01*
X151057Y74394D02*
X152663Y76000D01*
X183200Y85300D02*
X184000D01*
X226968Y27700D02*
Y38331D01*
X163039Y9161D02*
X208492D01*
X131159Y41041D02*
Y57317D01*
Y41041D02*
X163039Y9161D01*
X127284Y41416D02*
X160900Y7800D01*
X209110D01*
X127284Y41416D02*
Y66082D01*
X125900Y39900D02*
Y68635D01*
Y39900D02*
X159100Y6700D01*
X211947D01*
X157434Y5466D02*
X212681D01*
X155900Y4200D02*
X215353D01*
X121660Y38440D02*
X155900Y4200D01*
X120300Y36800D02*
Y58200D01*
Y36800D02*
X154000Y3100D01*
X216221D01*
X165100Y10400D02*
X205794D01*
X132700Y42800D02*
X165100Y10400D01*
X132700Y42800D02*
Y68540D01*
X103300Y76400D02*
Y78400D01*
X102119Y33176D02*
Y75219D01*
X103300Y76400D01*
X94300Y30758D02*
Y84000D01*
X96900Y86600D02*
Y93549D01*
X94300Y84000D02*
X96900Y86600D01*
X95700Y31400D02*
X106800Y20300D01*
X95700Y83200D02*
X98100Y85600D01*
X95700Y31400D02*
Y83200D01*
X94300Y30758D02*
X114668Y10390D01*
X100100Y94000D02*
X101224Y92875D01*
Y84724D02*
Y92875D01*
X100515Y75615D02*
X101900Y77000D01*
Y83800D02*
X102500Y84400D01*
X101900Y77000D02*
Y83800D01*
X102500Y84400D02*
Y100000D01*
X100400Y83900D02*
X101224Y84724D01*
X98911Y75811D02*
X100400Y77300D01*
Y83900D01*
X100515Y32885D02*
Y75615D01*
Y32885D02*
X109100Y24300D01*
X98900Y84258D02*
X99800Y85158D01*
X122812Y130700D02*
X135400Y143288D01*
Y155560D01*
X134078Y143937D02*
Y152699D01*
X123000Y132858D02*
X134078Y143937D01*
X122812Y117500D02*
X129400Y124088D01*
Y128600D01*
X118700Y121100D02*
Y121600D01*
X115567Y117967D02*
X118700Y121100D01*
X115567Y115433D02*
Y117967D01*
X116400Y105700D02*
X118300Y107600D01*
X115400Y105700D02*
X116400D01*
X161577Y141400D02*
X195263D01*
X141600Y121423D02*
X161577Y141400D01*
X195263D02*
X203263Y149400D01*
X194694Y142800D02*
X201294Y149400D01*
X192100Y118828D02*
X194428Y116500D01*
X195590D01*
X191439Y118828D02*
X192100D01*
X158743Y107400D02*
X158900D01*
X160100Y101509D02*
Y111146D01*
Y101509D02*
X161510Y100099D01*
X158537Y112709D02*
X160100Y111146D01*
X215353Y4200D02*
X225042Y13890D01*
X216221Y3100D02*
X227011Y13890D01*
X212681Y5466D02*
X221105Y13890D01*
X210300Y86428D02*
X211600D01*
X209500Y82990D02*
Y85628D01*
X207900Y82990D02*
Y86128D01*
X206300Y82990D02*
Y86128D01*
X204700Y82990D02*
Y85628D01*
X202272Y86428D02*
X203900D01*
X202000Y86700D02*
X202272Y86428D01*
X211600D02*
X212493D01*
X201700Y87000D02*
X202000Y86700D01*
X157400Y100850D02*
X162250Y96000D01*
X194400D01*
X196400Y98000D01*
X192300Y85300D02*
X198500D01*
X191500Y84042D02*
Y84500D01*
X189900Y84042D02*
Y87791D01*
X188300Y82364D02*
Y87791D01*
X186700Y82364D02*
Y87791D01*
X185100Y86100D02*
Y87791D01*
X184000Y85300D02*
X184300D01*
X198500D02*
X198767D01*
X199895Y86428D01*
X160000Y95000D02*
X160600Y94400D01*
X155700Y95000D02*
X160000D01*
X152500Y98200D02*
X155700Y95000D01*
X196400Y98000D02*
X200157D01*
X208000D02*
X208200D01*
X212000Y101800D01*
X164195Y117681D02*
X167476Y114400D01*
X156548Y118738D02*
X164669D01*
X200249Y105050D02*
Y105050D01*
X199964Y112126D02*
X200016D01*
X195590Y116500D02*
X199964Y112126D01*
X196272Y124800D02*
X203079Y117993D01*
X164669Y118738D02*
X164759Y118828D01*
X141600Y117500D02*
Y121423D01*
X163731Y134331D02*
X200011D01*
X137600Y101300D02*
Y109890D01*
X159400Y128200D02*
X202200D01*
X203233Y127167D01*
X156053Y124853D02*
X159400Y128200D01*
X212242Y113234D02*
Y117363D01*
X192101Y98900D02*
X194099D01*
X206440Y110159D02*
X207140D01*
X205887Y110713D02*
X206440Y110159D01*
X205887Y110713D02*
X205887Y110713D01*
Y111845D02*
X206834Y112792D01*
X206834Y113923D02*
X206834Y113923D01*
X206834Y113923D01*
X206834Y113923D02*
X206834Y113923D01*
X204402Y112622D02*
X205702Y113923D01*
X204402Y112622D02*
Y112622D01*
X203270D02*
X203270Y112622D01*
Y113754D02*
X206264Y116748D01*
Y116748D02*
Y116748D01*
X206264Y117879D02*
X206264Y117879D01*
X206264Y117879D01*
X206264Y117879D02*
X206264Y117879D01*
X202464Y115210D02*
X205133Y117879D01*
X202464Y115210D02*
Y115210D01*
X201332D02*
X201332Y115210D01*
Y116341D02*
X201695Y116704D01*
Y116704D02*
Y116704D01*
X201695Y117835D02*
X201695Y117835D01*
X201695Y117835D01*
X201695Y117835D02*
X201695Y117835D01*
X199876Y117148D02*
X200563Y117835D01*
X199876Y117148D02*
Y117148D01*
X198745D02*
X198745Y117148D01*
Y118279D02*
X199637Y119172D01*
Y119172D02*
Y119172D01*
X199637Y120303D02*
X199637Y120303D01*
X199637Y120303D01*
X199637Y120303D02*
X199637Y120303D01*
X197967Y119764D02*
X198506Y120303D01*
X196835Y119764D02*
X196835Y119764D01*
X196623Y119976D02*
X196835Y119764D01*
X207140Y110159D02*
X212040D01*
X195676Y120924D02*
X196623Y119976D01*
X168175Y120924D02*
X195676D01*
X215013Y122387D02*
X215900Y121500D01*
X215013Y122387D02*
X215013Y122387D01*
Y123518D02*
X215774Y124279D01*
X215774Y125410D02*
X215774Y125410D01*
X215774Y125410D01*
X215774Y125410D02*
X215774Y125410D01*
X213528Y124296D02*
X214642Y125410D01*
X213528Y124296D02*
Y124296D01*
X212397D02*
X212397Y124296D01*
Y125427D02*
X213791Y126822D01*
Y126822D02*
Y126822D01*
X213791Y127953D02*
X213791Y127953D01*
X213791Y127953D01*
X213791Y127953D02*
X213791Y127953D01*
X211265Y126559D02*
X212660Y127953D01*
X211265Y126559D02*
Y126559D01*
X210134D02*
X210134Y126559D01*
Y127690D02*
X211528Y129085D01*
Y129085D02*
Y129085D01*
X211528Y130216D02*
X211528Y130216D01*
X211528Y130216D01*
X211528Y130216D02*
X211528Y130216D01*
X209002Y128822D02*
X210397Y130216D01*
X209002Y128821D02*
Y128822D01*
X207871D02*
X207871Y128821D01*
Y129953D02*
X209266Y131347D01*
Y131347D02*
Y131347D01*
X209266Y132479D02*
X209266Y132479D01*
X209266Y132479D01*
X209266Y132479D02*
X209266Y132479D01*
X207093Y131438D02*
X208134Y132479D01*
X205962Y131438D02*
X205962Y131438D01*
X205750Y131650D02*
X205962Y131438D01*
X215900Y121500D02*
X215997Y121402D01*
X212242Y117363D02*
Y118158D01*
X211364Y119035D02*
X212242Y118158D01*
X209435Y118237D02*
X210233Y119035D01*
X209435Y118237D02*
Y118237D01*
X208304D02*
X208304Y118237D01*
Y119369D02*
X210817Y121882D01*
Y121882D02*
Y121882D01*
X210817Y123014D02*
X210817Y123014D01*
X210817Y123014D01*
X210817Y123014D02*
X210817Y123014D01*
X207172Y120500D02*
X209686Y123014D01*
X207172Y120500D02*
Y120500D01*
X206041D02*
X206041Y120500D01*
Y121632D02*
X208555Y124145D01*
Y124145D02*
Y124145D01*
X208555Y125277D02*
X208555Y125277D01*
X208555Y125277D01*
X208555Y125277D02*
X208555Y125277D01*
X204910Y122763D02*
X207423Y125277D01*
X204910Y122763D02*
Y122763D01*
X203778D02*
X203778Y122763D01*
Y123894D02*
X206292Y126408D01*
Y126408D02*
Y126408D01*
X206292Y127539D02*
X206292Y127539D01*
X206292Y127539D01*
X206292Y127539D02*
X206292Y127539D01*
X204576Y126955D02*
X205161Y127539D01*
X203445Y126955D02*
X203445Y126955D01*
X203233Y127167D02*
X203445Y126955D01*
X212000Y101800D02*
Y103785D01*
X165500Y123600D02*
X168175Y120924D01*
X122843Y132858D02*
X123000D01*
X120000Y117100D02*
X120000D01*
X120077Y120929D02*
X121400Y122252D01*
X120000Y117100D02*
X126250Y123350D01*
X156000Y124853D02*
X156053D01*
X146000Y121635D02*
X162265Y137900D01*
X149400Y86600D02*
X151400D01*
X146400Y89600D02*
X149400Y86600D01*
X148232Y89737D02*
X149869Y88100D01*
X148232Y89737D02*
Y89775D01*
X209110Y7800D02*
X215200Y13890D01*
X211947Y6700D02*
X219137Y13890D01*
X205794Y10400D02*
X209294Y13900D01*
X166600Y11500D02*
X204926D01*
X207326Y13900D01*
X151400Y86600D02*
X153400Y84600D01*
X149869Y88100D02*
X152600D01*
X153800Y86900D01*
X200011Y134331D02*
X215079Y149400D01*
X197700Y137900D02*
X209200Y149400D01*
X162265Y137900D02*
X197700D01*
X192500Y144700D02*
X197200Y149400D01*
X199542Y135831D02*
X213111Y149400D01*
X111200Y105300D02*
X111300D01*
X192500Y146500D02*
X195400Y149400D01*
X111300Y105300D02*
X113400Y107400D01*
X111200Y105200D02*
Y105300D01*
X197300Y139500D02*
X207200Y149400D01*
X161741Y139500D02*
X197300D01*
X111497Y109793D02*
X113864D01*
X116143Y109321D02*
X118922Y112100D01*
X114249Y34825D02*
Y91351D01*
X112100Y93500D02*
X114249Y91351D01*
X102500Y100000D02*
X103900Y101400D01*
X99800Y85158D02*
Y85200D01*
X90200Y32890D02*
Y82591D01*
Y32890D02*
X112700Y10390D01*
X136733Y156893D02*
Y168510D01*
X135400Y155560D02*
X136733Y156893D01*
X119016Y147916D02*
Y150400D01*
X111000Y139900D02*
X119016Y147916D01*
X126890Y156600D02*
Y168510D01*
X122700Y152409D02*
X126890Y156600D01*
X142638Y156661D02*
Y168510D01*
X144607Y156793D02*
Y168510D01*
X112397Y138398D02*
X120985Y146985D01*
Y150400D01*
X112397Y125004D02*
Y138398D01*
X114100Y127000D02*
X115000Y127900D01*
X114100Y123326D02*
Y127000D01*
X111774Y121000D02*
X114100Y123326D01*
X98400Y142900D02*
X105100Y149600D01*
X102326Y114700D02*
X103900Y113126D01*
X130827Y153981D02*
Y168510D01*
X128600Y151753D02*
X130827Y153981D01*
X132796D02*
X134078Y152699D01*
X132796Y153981D02*
Y168510D01*
X97373Y119653D02*
X99963Y117063D01*
X97373Y119653D02*
Y119653D01*
X103900Y141500D02*
X111100Y148700D01*
X103900Y124937D02*
Y141500D01*
X115079Y148179D02*
Y150400D01*
X101300Y123600D02*
X103900Y121000D01*
X101300Y123600D02*
Y143200D01*
X107880Y109600D02*
X108037D01*
X102500Y124400D02*
X106100Y120800D01*
X102500Y124400D02*
Y142300D01*
X102119Y33176D02*
X106794Y28500D01*
X105400Y107900D02*
X107600Y105700D01*
X114249Y34825D02*
X120574Y28500D01*
X107766Y94105D02*
X107861Y94200D01*
X112200Y34905D02*
X118605Y28500D01*
X110200Y69100D02*
X112200Y67100D01*
X110200Y69100D02*
Y71300D01*
X112200Y34905D02*
Y67100D01*
X97307Y32092D02*
X107500Y21900D01*
X109064D02*
X120574Y10390D01*
X107500Y21900D02*
X109064D01*
X110400Y79700D02*
Y87409D01*
X109500Y78800D02*
X110400Y79700D01*
X109500Y76200D02*
Y78800D01*
X110400Y87409D02*
X111776Y88784D01*
X107800Y89100D02*
X109200Y87700D01*
X98100Y85600D02*
Y88000D01*
X99800Y89700D01*
X108695Y20300D02*
X118605Y10390D01*
X106800Y20300D02*
X108695D01*
X98400Y95049D02*
Y95049D01*
X96900Y93549D02*
X98400Y95049D01*
Y95049D02*
X100387Y97036D01*
X112569Y24300D02*
X126479Y10390D01*
X109100Y24300D02*
X112569D01*
X98911Y32389D02*
Y75811D01*
Y32389D02*
X108350Y22950D01*
X111951D02*
X124511Y10390D01*
X108350Y22950D02*
X111951D01*
X213189Y27692D02*
X213205Y27708D01*
X150802Y80602D02*
X152000Y81800D01*
X168400D02*
X213205Y36994D01*
Y27716D02*
Y36994D01*
X152000Y81800D02*
X168400D01*
X225000Y27692D02*
X225016Y27708D01*
X153300Y89400D02*
X154600Y88100D01*
X151090Y89400D02*
X153300D01*
X151000Y89490D02*
X151090Y89400D01*
X131216Y71883D02*
X137900Y65200D01*
Y59900D02*
Y65200D01*
X131159Y77553D02*
X131216Y77496D01*
Y71883D02*
Y77496D01*
X183461Y14337D02*
Y14338D01*
X137900Y59900D02*
X183461Y14338D01*
X183752Y13890D02*
Y14047D01*
X183461Y14337D02*
X183752Y14047D01*
X215157Y27692D02*
X215174Y27708D01*
Y27716D02*
Y36926D01*
X148629Y83491D02*
X168609D01*
X215174Y36926D01*
X135158Y61032D02*
Y66082D01*
X134100Y59974D02*
X135158Y61032D01*
X134100Y56900D02*
Y59974D01*
X195472Y27700D02*
Y30928D01*
X142830Y73964D02*
X144994Y71800D01*
X158958Y73100D02*
X197441Y34617D01*
Y27700D02*
Y34617D01*
X187547Y16000D02*
X189657Y13890D01*
X135380Y73577D02*
Y73588D01*
X135089Y73878D02*
Y74036D01*
X135380Y73577D02*
X136200Y72757D01*
X135089Y73878D02*
X135380Y73588D01*
X140450Y61350D02*
X185800Y16000D01*
X187547D01*
X131159Y57317D02*
X131190Y57348D01*
X131159Y58283D02*
Y66082D01*
Y58283D02*
X131190Y58252D01*
Y57348D02*
Y58252D01*
X131159Y70019D02*
X131221D01*
X132700Y68540D01*
X187553Y21900D02*
X195563Y13890D01*
X183200Y21900D02*
X187553D01*
X197531Y13890D02*
X197531D01*
X188121Y23300D02*
X197531Y13890D01*
X184100Y23300D02*
X188121D01*
X135158Y77893D02*
X137700Y75351D01*
X188516Y17000D02*
X191626Y13890D01*
X186500Y17000D02*
X188516D01*
X139095Y60602D02*
X185808Y13890D01*
X139095Y60602D02*
Y65962D01*
X139036Y66022D02*
X139095Y65962D01*
X207283Y27666D02*
Y34916D01*
X163200Y79000D02*
X207283Y34916D01*
X150900Y76600D02*
Y76757D01*
X153143Y79000D02*
X163200D01*
X150900Y76757D02*
X153143Y79000D01*
X150821Y78841D02*
X152280Y80300D01*
X167800D02*
X209252Y38848D01*
X152280Y80300D02*
X167800D01*
X209252Y27700D02*
Y38848D01*
X185000Y24800D02*
X190558D01*
X201468Y13890D01*
X219094Y27692D02*
X219111Y27708D01*
X125900Y68635D02*
X127284Y70019D01*
X162000Y76000D02*
X203346Y34653D01*
Y27700D02*
Y34653D01*
X191327Y26000D02*
X203437Y13890D01*
X185800Y26000D02*
X191327D01*
X189567Y27700D02*
Y29033D01*
X154843Y63757D02*
X189567Y29033D01*
X152850Y69949D02*
X156200Y66600D01*
X150906Y70019D02*
X150976Y69949D01*
X152850D01*
X156200Y66600D02*
Y66600D01*
D55*
X8500Y8200D02*
D03*
Y167200D02*
D03*
X247400Y156100D02*
D03*
Y8200D02*
D03*
D60*
X10800Y88800D02*
D03*
D105*
X12812Y118829D02*
D03*
Y152845D02*
D03*
D106*
X29268Y118829D02*
D03*
Y152845D02*
D03*
D108*
X244094Y149607D02*
D03*
Y133858D02*
D03*
Y125984D02*
D03*
Y62992D02*
D03*
Y55118D02*
D03*
Y47244D02*
D03*
Y39370D02*
D03*
Y31496D02*
D03*
Y15748D02*
D03*
X236221Y165355D02*
D03*
Y62992D02*
D03*
Y55118D02*
D03*
Y47244D02*
D03*
Y39370D02*
D03*
Y31496D02*
D03*
Y23622D02*
D03*
Y15748D02*
D03*
Y7874D02*
D03*
X228346Y133858D02*
D03*
Y125984D02*
D03*
Y118110D02*
D03*
Y110236D02*
D03*
Y102362D02*
D03*
Y62992D02*
D03*
Y47244D02*
D03*
Y39370D02*
D03*
Y31496D02*
D03*
Y15748D02*
D03*
X220472Y141733D02*
D03*
Y133858D02*
D03*
Y62992D02*
D03*
Y15748D02*
D03*
X212598Y157481D02*
D03*
Y141733D02*
D03*
Y133858D02*
D03*
Y62992D02*
D03*
Y15748D02*
D03*
X204724Y62992D02*
D03*
Y31496D02*
D03*
Y15748D02*
D03*
X181102Y165355D02*
D03*
X173228D02*
D03*
Y15748D02*
D03*
X165354Y149607D02*
D03*
Y15748D02*
D03*
X157480Y165355D02*
D03*
Y149607D02*
D03*
Y31496D02*
D03*
X149606Y165355D02*
D03*
Y31496D02*
D03*
X133858Y15748D02*
D03*
Y7874D02*
D03*
X125984Y15748D02*
D03*
X86614Y78740D02*
D03*
Y70866D02*
D03*
X78740Y102362D02*
D03*
Y7874D02*
D03*
X70866Y165355D02*
D03*
Y141733D02*
D03*
Y133858D02*
D03*
Y125984D02*
D03*
Y39370D02*
D03*
Y31496D02*
D03*
Y23622D02*
D03*
Y15748D02*
D03*
Y7874D02*
D03*
X62992Y165355D02*
D03*
Y133858D02*
D03*
Y125984D02*
D03*
Y31496D02*
D03*
Y7874D02*
D03*
X55118Y165355D02*
D03*
Y31496D02*
D03*
Y7874D02*
D03*
X47244Y149607D02*
D03*
Y102362D02*
D03*
Y94488D02*
D03*
Y31496D02*
D03*
Y7874D02*
D03*
X39370Y149607D02*
D03*
Y7874D02*
D03*
X31496Y47244D02*
D03*
Y31496D02*
D03*
Y7874D02*
D03*
X23622Y118110D02*
D03*
Y7874D02*
D03*
X15748Y157481D02*
D03*
Y149607D02*
D03*
Y141733D02*
D03*
Y133858D02*
D03*
Y125984D02*
D03*
Y7874D02*
D03*
X7874Y157481D02*
D03*
Y149607D02*
D03*
Y141733D02*
D03*
Y133858D02*
D03*
Y125984D02*
D03*
Y118110D02*
D03*
Y94488D02*
D03*
Y78740D02*
D03*
Y70866D02*
D03*
Y62992D02*
D03*
Y55118D02*
D03*
Y47244D02*
D03*
Y39370D02*
D03*
Y31496D02*
D03*
Y23622D02*
D03*
Y15748D02*
D03*
X115500Y93100D02*
D03*
X197300Y107900D02*
D03*
X147200Y92000D02*
D03*
X123592Y77600D02*
D03*
X154943Y115157D02*
D03*
X158600Y116400D02*
D03*
X155200Y120900D02*
D03*
X153184Y121125D02*
D03*
X197082Y110932D02*
D03*
X100700Y104900D02*
D03*
X119600Y84100D02*
D03*
X146900Y65100D02*
D03*
X150700Y110000D02*
D03*
X147600Y109800D02*
D03*
X107800Y121600D02*
D03*
X99800Y124600D02*
D03*
X122100Y121200D02*
D03*
X115800Y125900D02*
D03*
X105800Y129900D02*
D03*
X109800Y132900D02*
D03*
X117600Y133355D02*
D03*
X60000Y114900D02*
D03*
X114488Y112985D02*
D03*
X119903Y88470D02*
D03*
X51500Y67500D02*
D03*
X44000Y75000D02*
D03*
X46500D02*
D03*
X49000D02*
D03*
Y72500D02*
D03*
X44000D02*
D03*
X46500D02*
D03*
X36500Y75000D02*
D03*
X39000D02*
D03*
X41500D02*
D03*
Y72500D02*
D03*
X36500D02*
D03*
X39000D02*
D03*
X51500D02*
D03*
X49000Y70000D02*
D03*
X51500D02*
D03*
X46500D02*
D03*
X44000Y67500D02*
D03*
X49000D02*
D03*
Y65000D02*
D03*
X46500Y67500D02*
D03*
Y65000D02*
D03*
X41500Y70000D02*
D03*
X44000D02*
D03*
X36500D02*
D03*
X39000D02*
D03*
X41500Y67500D02*
D03*
Y65000D02*
D03*
X36500Y67500D02*
D03*
X39000D02*
D03*
X34000Y72500D02*
D03*
Y70000D02*
D03*
Y75000D02*
D03*
Y67500D02*
D03*
Y65000D02*
D03*
X51500D02*
D03*
X49000Y62500D02*
D03*
X51500D02*
D03*
X44000D02*
D03*
X46500D02*
D03*
X49000Y60000D02*
D03*
X51500D02*
D03*
X44000D02*
D03*
X46500D02*
D03*
X44000Y65000D02*
D03*
X39000Y62500D02*
D03*
Y65000D02*
D03*
X36500Y62500D02*
D03*
X41500D02*
D03*
Y60000D02*
D03*
X39000D02*
D03*
Y57500D02*
D03*
X49000D02*
D03*
X51500D02*
D03*
X44000D02*
D03*
X46500D02*
D03*
X41500D02*
D03*
X36500Y65000D02*
D03*
X34000Y60000D02*
D03*
X36500D02*
D03*
X34000Y62500D02*
D03*
Y57500D02*
D03*
X36500D02*
D03*
X211945Y8949D02*
D03*
X29700Y12300D02*
D03*
X61200Y16500D02*
D03*
X61300Y14100D02*
D03*
X59000Y16500D02*
D03*
X59100Y14100D02*
D03*
X48200Y14800D02*
D03*
X50500Y13800D02*
D03*
X43800Y14900D02*
D03*
X46000Y13800D02*
D03*
X41700D02*
D03*
X29700Y19100D02*
D03*
X21200Y17000D02*
D03*
X32600Y15900D02*
D03*
X29700Y16600D02*
D03*
Y14300D02*
D03*
X19100Y19400D02*
D03*
X21200D02*
D03*
X19100Y17000D02*
D03*
X37700Y15900D02*
D03*
X47600Y24100D02*
D03*
X68000Y44900D02*
D03*
X87163Y20500D02*
D03*
X87100Y9100D02*
D03*
X70500Y44900D02*
D03*
X98974Y20500D02*
D03*
X98900Y9100D02*
D03*
X70500Y47500D02*
D03*
X68000D02*
D03*
X16100Y48020D02*
D03*
X150855Y119745D02*
D03*
X218404Y162357D02*
D03*
X220074Y160687D02*
D03*
X221744Y159017D02*
D03*
X231766Y148995D02*
D03*
X233437Y147324D02*
D03*
X241788Y138973D02*
D03*
X243459Y137302D02*
D03*
X245129Y135632D02*
D03*
X246799Y133962D02*
D03*
X247517Y131711D02*
D03*
Y129349D02*
D03*
Y126987D02*
D03*
Y124624D02*
D03*
Y117538D02*
D03*
Y105727D02*
D03*
Y98640D02*
D03*
Y86829D02*
D03*
X246870Y75108D02*
D03*
X245199Y73438D02*
D03*
X243529Y71768D02*
D03*
X241547Y70483D02*
D03*
X239184D02*
D03*
X236822D02*
D03*
X234460D02*
D03*
X232098D02*
D03*
X142079Y53718D02*
D03*
X141246Y48706D02*
D03*
X228233Y67317D02*
D03*
X230595D02*
D03*
X232957D02*
D03*
X235319D02*
D03*
X237682D02*
D03*
X240044D02*
D03*
X242406D02*
D03*
X244549Y68310D02*
D03*
X246219Y69981D02*
D03*
X247890Y71651D02*
D03*
X249560Y73321D02*
D03*
X250683Y75400D02*
D03*
Y80124D02*
D03*
Y82486D02*
D03*
Y87211D02*
D03*
Y91935D02*
D03*
Y94297D02*
D03*
Y99022D02*
D03*
Y103746D02*
D03*
Y106108D02*
D03*
Y110833D02*
D03*
Y117919D02*
D03*
Y122644D02*
D03*
Y125006D02*
D03*
Y127368D02*
D03*
Y129730D02*
D03*
Y132092D02*
D03*
X250554Y134451D02*
D03*
X249004Y136234D02*
D03*
X247334Y137905D02*
D03*
X245664Y139575D02*
D03*
X243993Y141245D02*
D03*
X242323Y142915D02*
D03*
X240653Y144586D02*
D03*
X233971Y151267D02*
D03*
X232301Y152937D02*
D03*
X230631Y154608D02*
D03*
X227290Y157949D02*
D03*
X225620Y159619D02*
D03*
X223949Y161289D02*
D03*
X222279Y162960D02*
D03*
X220609Y164630D02*
D03*
X218938Y166300D02*
D03*
X94000Y165045D02*
D03*
X90400D02*
D03*
X177353D02*
D03*
X171253D02*
D03*
X165253D02*
D03*
X153453D02*
D03*
X147553D02*
D03*
X16700Y114400D02*
D03*
X71700Y123300D02*
D03*
X187900Y148100D02*
D03*
X123347Y81830D02*
D03*
X56169Y115667D02*
D03*
X82500Y75600D02*
D03*
X80800D02*
D03*
X190710Y43089D02*
D03*
X155271Y74471D02*
D03*
X150906Y66082D02*
D03*
X146969Y70019D02*
D03*
X154843Y66247D02*
D03*
X222628Y156351D02*
D03*
X103268Y150400D02*
D03*
X107205Y150496D02*
D03*
X101300Y150400D02*
D03*
X109174D02*
D03*
X140652Y158090D02*
D03*
X106428Y158079D02*
D03*
X128779Y157945D02*
D03*
X142690Y150348D02*
D03*
X144607Y150400D02*
D03*
X138701D02*
D03*
X146600Y77600D02*
D03*
X146969Y81830D02*
D03*
X151057Y74394D02*
D03*
X127971Y109429D02*
D03*
X158900Y107400D02*
D03*
X158537Y112709D02*
D03*
X200249Y105050D02*
D03*
X137600Y101300D02*
D03*
X212493Y86428D02*
D03*
X200016Y112126D02*
D03*
X160900Y129590D02*
D03*
X212242Y113234D02*
D03*
X203079Y117993D02*
D03*
X215900Y104700D02*
D03*
X215997Y111349D02*
D03*
X122843Y132858D02*
D03*
X122812Y130700D02*
D03*
X99963Y121000D02*
D03*
X120077Y120929D02*
D03*
X119998Y124802D02*
D03*
X120000Y117100D02*
D03*
X122812Y117500D02*
D03*
X199895Y86428D02*
D03*
X156000Y124853D02*
D03*
X158537D02*
D03*
X212000Y110100D02*
D03*
Y103785D02*
D03*
X146400Y89600D02*
D03*
X148232Y89775D02*
D03*
X223100Y2800D02*
D03*
X170900Y12700D02*
D03*
X168000D02*
D03*
X195400Y149400D02*
D03*
X111200Y105200D02*
D03*
X197200Y149400D02*
D03*
X115400Y105700D02*
D03*
X201294Y149400D02*
D03*
X203263D02*
D03*
X115600Y102400D02*
D03*
X215079Y149400D02*
D03*
X213111D02*
D03*
X209200D02*
D03*
X135400Y90600D02*
D03*
X207200Y149400D02*
D03*
X116143Y109321D02*
D03*
X112100Y93500D02*
D03*
X111497Y109793D02*
D03*
X33400Y99659D02*
D03*
X222985Y168000D02*
D03*
X211105Y174600D02*
D03*
X199363Y168000D02*
D03*
X211111Y156645D02*
D03*
X199300D02*
D03*
X187557Y174835D02*
D03*
X128853Y169445D02*
D03*
X140653D02*
D03*
X229700Y89000D02*
D03*
X221600Y60800D02*
D03*
X223101Y20455D02*
D03*
X211290D02*
D03*
X199479D02*
D03*
X143500Y48500D02*
D03*
Y50119D02*
D03*
X139800Y10600D02*
D03*
X144800D02*
D03*
Y4300D02*
D03*
X139800D02*
D03*
X135300Y57800D02*
D03*
X136900D02*
D03*
X122596Y20500D02*
D03*
X122533Y9100D02*
D03*
X117031Y169445D02*
D03*
X105220D02*
D03*
X71700Y150900D02*
D03*
X63500Y151000D02*
D03*
X61507Y143166D02*
D03*
X57807D02*
D03*
X73300Y114400D02*
D03*
X88600Y96500D02*
D03*
X74600Y92500D02*
D03*
X71500Y96500D02*
D03*
X74600D02*
D03*
Y94500D02*
D03*
X71500D02*
D03*
Y92500D02*
D03*
X57200Y151100D02*
D03*
X51900Y161500D02*
D03*
X54107Y143166D02*
D03*
X44275Y145817D02*
D03*
X50407Y143166D02*
D03*
X44800Y127500D02*
D03*
X44275Y135974D02*
D03*
X44254Y141858D02*
D03*
X37700Y149300D02*
D03*
X36000Y137900D02*
D03*
X44275Y118257D02*
D03*
X53069Y115667D02*
D03*
X47069D02*
D03*
X50069D02*
D03*
X55239Y90200D02*
D03*
X42412Y114178D02*
D03*
X41500Y92300D02*
D03*
X21900Y113000D02*
D03*
X20000D02*
D03*
X22500Y108800D02*
D03*
X38200Y100900D02*
D03*
X37000Y93800D02*
D03*
X8300Y104000D02*
D03*
X35500Y100800D02*
D03*
X27300Y90466D02*
D03*
X93000Y88000D02*
D03*
X90500D02*
D03*
X76053Y86120D02*
D03*
X55239Y88334D02*
D03*
X61067Y79732D02*
D03*
X55239Y86355D02*
D03*
X67400Y68600D02*
D03*
X110800Y27300D02*
D03*
X110722Y9100D02*
D03*
X81100Y65000D02*
D03*
X67300Y65900D02*
D03*
X67200Y63100D02*
D03*
X64400Y67300D02*
D03*
X59000Y57200D02*
D03*
X62168Y51232D02*
D03*
X27300Y88600D02*
D03*
Y86620D02*
D03*
X17800Y80500D02*
D03*
X10900Y80291D02*
D03*
X25500Y78600D02*
D03*
X26653Y76900D02*
D03*
X41800Y50100D02*
D03*
X25800Y56400D02*
D03*
X17400Y56000D02*
D03*
X16100Y50000D02*
D03*
Y51866D02*
D03*
X103900Y101400D02*
D03*
X115567Y115433D02*
D03*
X72700Y71000D02*
D03*
X124922Y168510D02*
D03*
X136733D02*
D03*
Y150400D02*
D03*
X108000Y117600D02*
D03*
X119016Y150400D02*
D03*
X113675Y129311D02*
D03*
X126890Y168510D02*
D03*
X138701D02*
D03*
X142638D02*
D03*
X144607D02*
D03*
X112397Y125004D02*
D03*
X120985Y150400D02*
D03*
X124922D02*
D03*
X111774Y121000D02*
D03*
X126890Y150400D02*
D03*
X99963Y113126D02*
D03*
X113111Y168510D02*
D03*
X130827Y150400D02*
D03*
X132796D02*
D03*
X119016Y168510D02*
D03*
X113111Y150400D02*
D03*
X103900Y113126D02*
D03*
X115079Y168510D02*
D03*
X130827D02*
D03*
X132796D02*
D03*
X99963Y117063D02*
D03*
X103900Y124937D02*
D03*
X120985Y168510D02*
D03*
X115079Y150400D02*
D03*
X103900Y121000D02*
D03*
X107205Y168510D02*
D03*
X104100Y109600D02*
D03*
X109174Y168510D02*
D03*
X108037Y109600D02*
D03*
X107857Y112644D02*
D03*
X108763Y28500D02*
D03*
X107500Y97300D02*
D03*
X106794Y28500D02*
D03*
X103800Y97600D02*
D03*
X101300Y168510D02*
D03*
X103268D02*
D03*
X107600Y105700D02*
D03*
X120574Y28500D02*
D03*
X107766Y94105D02*
D03*
X118605Y28500D02*
D03*
X99800Y85200D02*
D03*
X120574Y10390D02*
D03*
X114668Y28500D02*
D03*
X111776Y88784D02*
D03*
X107800Y89100D02*
D03*
X112700Y28500D02*
D03*
X126479D02*
D03*
X99800Y89700D02*
D03*
X118605Y10390D02*
D03*
X114668D02*
D03*
X100387Y97036D02*
D03*
X112700Y10390D02*
D03*
X99483Y99404D02*
D03*
X115700Y89700D02*
D03*
X124511Y28500D02*
D03*
X225042Y13890D02*
D03*
X126479Y10390D02*
D03*
X124511D02*
D03*
X100100Y94000D02*
D03*
X213189Y27700D02*
D03*
X150802Y80602D02*
D03*
X225000Y27700D02*
D03*
X151000Y89490D02*
D03*
X183752Y13890D02*
D03*
X131159Y77553D02*
D03*
X215157Y27700D02*
D03*
X135158Y66082D02*
D03*
X207326Y13890D02*
D03*
X195472Y27700D02*
D03*
X142830Y73964D02*
D03*
X197441Y27700D02*
D03*
X189657Y13890D02*
D03*
X135089Y74036D02*
D03*
X213231Y13890D02*
D03*
X131159Y66082D02*
D03*
X209294Y13890D02*
D03*
X131159Y70019D02*
D03*
X195563Y13890D02*
D03*
X139600Y70700D02*
D03*
X197531Y13890D02*
D03*
X135158Y77893D02*
D03*
X191626Y13890D02*
D03*
X139036Y66022D02*
D03*
X185808Y13890D02*
D03*
X120300Y58200D02*
D03*
X227011Y13890D02*
D03*
X127284Y66082D02*
D03*
X215200Y13890D02*
D03*
X207283Y27700D02*
D03*
X150900Y76600D02*
D03*
X209252Y27700D02*
D03*
X150821Y78841D02*
D03*
X201378Y27700D02*
D03*
X143032Y70019D02*
D03*
X201468Y13890D02*
D03*
X183600Y30400D02*
D03*
X185700D02*
D03*
X226968Y27700D02*
D03*
X219094D02*
D03*
X221063D02*
D03*
X127284Y70019D02*
D03*
X219137Y13890D02*
D03*
X221105D02*
D03*
X203346Y27700D02*
D03*
X139095Y73956D02*
D03*
X203437Y13890D02*
D03*
X189567Y27700D02*
D03*
X191535D02*
D03*
X150906Y70019D02*
D03*
X72500Y59000D02*
D03*
X43800Y82200D02*
D03*
X45700Y82300D02*
D03*
X59000Y71000D02*
D03*
Y55300D02*
D03*
X43768Y50100D02*
D03*
X39900D02*
D03*
X58900Y60700D02*
D03*
X44300Y107500D02*
D03*
M02*
